<?xml version="1.0" encoding="UTF-8"?>
<svg xmlns="http://www.w3.org/2000/svg" width="7473.971" height="1905.637" xmlns:xlink="http://www.w3.org/1999/xlink" viewBox="0 0 7473.971 1905.637">
  <defs>
    <style>
      .cls-1 {
        fill: url(#_称未設定グラデーション_27);
      }

      .cls-2 {
        fill: url(#_称未設定グラデーション_30);
      }

      .cls-3 {
        fill: url(#_称未設定グラデーション_22);
      }

      .cls-4 {
        fill: #ba3d04;
      }

      .cls-5 {
        fill: url(#_称未設定グラデーション_761-5);
      }

      .cls-6 {
        fill: url(#_称未設定グラデーション_761-4);
      }

      .cls-7 {
        fill: url(#_称未設定グラデーション_761-2);
      }

      .cls-8 {
        fill: url(#_称未設定グラデーション_761-3);
      }

      .cls-9 {
        fill: url(#_称未設定グラデーション_4);
      }

      .cls-10 {
        fill: url(#_規グラデーションスウォッチ_5);
      }

      .cls-11 {
        fill: url(#_規グラデーションスウォッチ_4);
      }

      .cls-12 {
        fill: url(#_規グラデーションスウォッチ_3);
      }

      .cls-13 {
        fill: url(#_称未設定グラデーション_4-2);
      }

      .cls-14 {
        fill: url(#_称未設定グラデーション_761);
      }

      .cls-15 {
        fill: url(#_称未設定グラデーション_701);
      }

      .cls-16 {
        fill: url(#_称未設定グラデーション_748);
      }

      .cls-17 {
        fill: url(#_称未設定グラデーション_758);
      }

      .cls-18 {
        fill: url(#_規グラデーションスウォッチ_3-3);
      }

      .cls-19 {
        fill: url(#_規グラデーションスウォッチ_3-2);
      }

      .cls-20 {
        fill: url(#_規グラデーションスウォッチ_5-2);
      }

      .cls-21 {
        fill: url(#_規グラデーションスウォッチ_4-5);
      }

      .cls-22 {
        fill: url(#_規グラデーションスウォッチ_4-6);
      }

      .cls-23 {
        fill: url(#_規グラデーションスウォッチ_4-2);
      }

      .cls-24 {
        fill: url(#_規グラデーションスウォッチ_4-3);
      }

      .cls-25 {
        fill: url(#_規グラデーションスウォッチ_4-4);
      }
    </style>
    <linearGradient id="_規グラデーションスウォッチ_5" data-name="新規グラデーションスウォッチ 5" x1="312.8421" y1="190.7955" x2="1500.7995" y2="190.7955" gradientTransform="matrix(1, 0, 0, 1, 0, 0)" gradientUnits="userSpaceOnUse">
      <stop offset=".0012" stop-color="#005f73"/>
      <stop offset=".9988" stop-color="#ee9b00"/>
    </linearGradient>
    <linearGradient id="_称未設定グラデーション_4" data-name="名称未設定グラデーション 4" x1="212.5863" y1="580.5917" x2="1383.2289" y2="580.5917" gradientTransform="matrix(1, 0, 0, 1, 0, 0)" gradientUnits="userSpaceOnUse">
      <stop offset=".0012" stop-color="#005f73"/>
      <stop offset=".9988" stop-color="#ee9b00"/>
    </linearGradient>
    <linearGradient id="_称未設定グラデーション_701" data-name="名称未設定グラデーション 701" x1="1312.6872" y1="555.0736" x2="1392.4643" y2="555.0736" gradientTransform="matrix(1, 0, 0, 1, 0, 0)" gradientUnits="userSpaceOnUse">
      <stop offset="0" stop-color="#ee9b00"/>
      <stop offset=".395" stop-color="#ee9b00"/>
    </linearGradient>
    <linearGradient id="_称未設定グラデーション_4-2" data-name="名称未設定グラデーション 4" x1="22.1845" y1="861.1568" x2="1467.2342" y2="861.1568" xlink:href="#_称未設定グラデーション_4"/>
    <linearGradient id="_規グラデーションスウォッチ_5-2" data-name="新規グラデーションスウォッチ 5" x1="323.1048" y1="1421.9812" x2="1044.8353" y2="1421.9812" xlink:href="#_規グラデーションスウォッチ_5"/>
    <linearGradient id="_規グラデーションスウォッチ_4" data-name="新規グラデーションスウォッチ 4" x1="5780.0801" y1="1065.5075" x2="6966.3384" y2="1065.5075" gradientTransform="matrix(1, 0, 0, 1, 0, 0)" gradientUnits="userSpaceOnUse">
      <stop offset="0" stop-color="#bb3e03"/>
      <stop offset="1" stop-color="#9b2226"/>
    </linearGradient>
    <linearGradient id="_規グラデーションスウォッチ_4-2" data-name="新規グラデーションスウォッチ 4" x1="5980.4647" y1="1108.673" x2="6951.0313" y2="1108.673" xlink:href="#_規グラデーションスウォッチ_4"/>
    <linearGradient id="_称未設定グラデーション_758" data-name="名称未設定グラデーション 758" x1="3111.3521" y1="832.6823" x2="3814.1726" y2="832.6823" gradientTransform="matrix(1, 0, 0, 1, 0, 0)" gradientUnits="userSpaceOnUse">
      <stop offset="0" stop-color="#ee9b00"/>
      <stop offset=".1135" stop-color="#ed9900"/>
      <stop offset=".9818" stop-color="#ca6702"/>
    </linearGradient>
    <linearGradient id="_規グラデーションスウォッチ_3" data-name="新規グラデーションスウォッチ 3" x1="3480.7042" y1="1653.7433" x2="5143.3695" y2="1653.7433" gradientTransform="matrix(1, 0, 0, 1, 0, 0)" gradientUnits="userSpaceOnUse">
      <stop offset="0" stop-color="#ca6702"/>
      <stop offset="1" stop-color="#bb3e03"/>
    </linearGradient>
    <linearGradient id="_称未設定グラデーション_761" data-name="名称未設定グラデーション 761" x1="3388.9536" y1="737.5152" x2="3666.4943" y2="737.5152" gradientTransform="matrix(1, 0, 0, 1, 0, 0)" gradientUnits="userSpaceOnUse">
      <stop offset="0" stop-color="#ee9b00"/>
      <stop offset=".9818" stop-color="#ca6702"/>
    </linearGradient>
    <linearGradient id="_称未設定グラデーション_761-2" data-name="名称未設定グラデーション 761" x1="3283.7507" y1="1012.8117" x2="3613.5329" y2="1012.8117" xlink:href="#_称未設定グラデーション_761"/>
    <linearGradient id="_称未設定グラデーション_761-3" data-name="名称未設定グラデーション 761" x1="3178.1674" y1="861.7897" x2="3905.9333" y2="861.7897" xlink:href="#_称未設定グラデーション_761"/>
    <linearGradient id="_称未設定グラデーション_30" data-name="名称未設定グラデーション 30" x1="863.3527" y1="621.9995" x2="1165.479" y2="621.9995" gradientTransform="matrix(1, 0, 0, 1, 0, 0)" gradientUnits="userSpaceOnUse">
      <stop offset="0" stop-color="#797e38"/>
      <stop offset=".9988" stop-color="#ee9b00"/>
    </linearGradient>
    <linearGradient id="_称未設定グラデーション_27" data-name="名称未設定グラデーション 27" x1="430.6782" y1="624.172" x2="732.8045" y2="624.172" gradientTransform="matrix(1, 0, 0, 1, 0, 0)" gradientUnits="userSpaceOnUse">
      <stop offset=".0012" stop-color="#005f73"/>
      <stop offset="1" stop-color="#7b7e37"/>
    </linearGradient>
    <linearGradient id="_規グラデーションスウォッチ_4-3" data-name="新規グラデーションスウォッチ 4" x1="5341.637" y1="1639.997" x2="7452.0803" y2="1639.997" xlink:href="#_規グラデーションスウォッチ_4"/>
    <linearGradient id="_称未設定グラデーション_22" data-name="名称未設定グラデーション 22" x1="597.1005" y1="1527.0031" x2="1812.6136" y2="1527.0031" gradientTransform="matrix(1, 0, 0, 1, 0, 0)" gradientUnits="userSpaceOnUse">
      <stop offset="0" stop-color="#416f54"/>
      <stop offset=".9988" stop-color="#ee9b00"/>
    </linearGradient>
    <linearGradient id="_称未設定グラデーション_748" data-name="名称未設定グラデーション 748" x1="2007.6142" y1="1526.9527" x2="3201.538" y2="1526.9527" gradientTransform="matrix(1, 0, 0, 1, 0, 0)" gradientUnits="userSpaceOnUse">
      <stop offset="0" stop-color="#ee9b00"/>
      <stop offset=".1557" stop-color="#ed9900"/>
      <stop offset=".9818" stop-color="#ca6702"/>
    </linearGradient>
    <linearGradient id="_称未設定グラデーション_761-4" data-name="名称未設定グラデーション 761" x1="2062.7781" y1="931.9181" x2="2310.7465" y2="931.9181" xlink:href="#_称未設定グラデーション_761"/>
    <linearGradient id="_称未設定グラデーション_761-5" data-name="名称未設定グラデーション 761" x1="2058.3601" y1="1142.8605" x2="2434.0653" y2="1142.8605" xlink:href="#_称未設定グラデーション_761"/>
    <linearGradient id="_規グラデーションスウォッチ_3-2" data-name="新規グラデーションスウォッチ 3" x1="4394.2747" y1="1017.9671" x2="4668.0279" y2="1017.9671" xlink:href="#_規グラデーションスウォッチ_3"/>
    <linearGradient id="_規グラデーションスウォッチ_4-4" data-name="新規グラデーションスウォッチ 4" x1="6134.1264" y1="1023.5003" x2="6743.7843" y2="1023.5003" xlink:href="#_規グラデーションスウォッチ_4"/>
    <linearGradient id="_規グラデーションスウォッチ_3-3" data-name="新規グラデーションスウォッチ 3" x1="4648.2418" y1="1171.3981" x2="4852.0513" y2="1171.3981" xlink:href="#_規グラデーションスウォッチ_3"/>
    <linearGradient id="_規グラデーションスウォッチ_4-5" data-name="新規グラデーションスウォッチ 4" x1="6711.8038" y1="780.993" x2="6757.4067" y2="780.993" xlink:href="#_規グラデーションスウォッチ_4"/>
    <linearGradient id="_規グラデーションスウォッチ_4-6" data-name="新規グラデーションスウォッチ 4" x1="6331.2165" y1="1072.595" x2="6441.9641" y2="1072.595" xlink:href="#_規グラデーションスウォッチ_4"/>
  </defs>
  <g id="_イヤー_1" data-name="レイヤー 1"/>
  <g id="_イヤー_2" data-name="レイヤー 2">
    <g id="_イヤー_2-2" data-name="レイヤー 2">
      <path class="cls-10" d="M290.8317,351.5428c81.7609,27.9511,170.6738,24.9314,253.0454,1.0791,36.9343-10.695,73.8888-24.8773,105.8824-46.5342,45.6767-30.9192,76.1078-79.295,99.9557-128.0414,18.276-37.3572,30.6185-78.0539,21.4016-119.7297-2.6989-12.2035-9.8119-41.4827-27.7288-36.4845-9.6307,2.6866-16.6012,11.3295-22.474,18.8847-8.7646,11.2753-16.9451,22.9715-24.9543,34.791-31.0065,45.7575-58.4611,94.8721-80.0192,145.8031-8.8665,20.947-16.9714,42.1783-23.5776,63.9542-6.0283,19.8707-10.6534,41.2256-.7653,60.7231,7.593,14.9719,21.8079,26.0389,37.666,31.117,20.7127,6.6326,42.8839,4.3712,64.1859,2.8457,46.541-3.333,93.0819-6.6659,139.6229-9.9989,93.2568-6.6785,186.6451-12.3701,279.824-20.0516,9.9547-.8207,19.6726-2.4963,28.5172-7.3922,9.189-5.0865,16.5745-13.2998,23.1359-21.3498,17.21-21.1141,32.1935-44.1946,46.6516-67.2381,29.2905-46.6835,55.0198-95.8933,75.3999-147.1235,8.2937-20.8482,16.1914-42.8281,17.4815-65.4175,.8573-15.0124-.0148-42.0984-20.9979-41.3645-17.7392,.6204-31.9336,16.3159-42.4916,28.7337-18.9257,22.2597-34.8741,47.23-49.3485,72.5441-24.8338,43.4317-45.8667,89.337-53.6297,139.1194-2.8517,18.2871-4.4634,37.1229-2.4928,55.5868,1.7844,16.719,6.1692,34.4062,18.5674,46.5706,13.747,13.4878,33.5744,15.2136,51.7861,16.5779,22.801,1.708,45.6481,2.8007,68.508,3.2765,45.7184,.9515,91.4858-.5668,137.0416-4.5316,22.419-1.9512,44.7786-4.519,67.0651-7.6349,3.4431-.4814,8.044-8.037,9.3458-9.8234,6.2098-8.5212,11.8288-17.7577,17.0513-26.8977,5.254-9.1951,10.5501-18.4921,14.7685-28.2158,.4879-1.1246,5.0688-13.178,3.8344-13.0054-52.2307,7.3024-104.8812,11.4599-157.6163,12.2848-26.3442,.4121-52.7009,.0103-79.0201-1.2119-13.473-.6256-26.9415-1.4432-40.3861-2.5216-10.5579-.8469-21.2994-1.9944-31.2237-5.9266-22.2537-8.8171-31.3775-30.8306-34.2836-53.114l.2323,1.9902c-2.1734-18.7429-.7024-37.7855,2.133-56.3813,3.049-19.9966,7.4527-37.0655,14.1398-54.8848,.8905-2.3729,1.6253-5.1106,2.8614-7.3245-3.3897,6.0708-.384,.931,.321-.6784,1.0436-2.382,2.2635-4.7149,3.2369-7.124-4.2611,10.5454-.7583,1.8411,.3599-.5106-3.5013,6.6506-4.2559,8.1086-2.2636,4.374,2.2239-4.0686,1.2161-2.2862-3.0235,5.3472l.9617-1.6819c2.3346-4.0038,1.278-2.2429-3.1697,5.2827,5.6712-8.8975-4.5787,6.8056-.6326,.9229,.702-1.0726,1.4117-2.1401,2.129-3.2025-3.3696,4.8849-3.9997,5.8182-1.8903,2.7999,1.1255-1.5473,2.2516-3.0965,3.3669-4.6513,1.8024-2.4027,1.52-2.0447-.8469,1.074,.7785-1.0036,1.5644-2.0013,2.3578-2.9932,3.1583-3.9482,6.4197-7.8274,9.8333-11.5581-2.1503,2.35,1.4694-1.4315,1.5774-1.5327,1.6543-1.5492,3.3915-3.0133,5.1965-4.3838,3.5764-2.7155,7.4009-4.9837,11.4917-6.8295l-1.8397,.7939c6.2051-2.5265,13.383-4.1191,19.714-1.044,7.8077,3.7923,10.4418,12.4748,11.5642,20.4386l-.2323-1.9902c2.4409,22.2368-2.9237,43.5539-10.4298,63.6712-2.0077,5.3808-4.1562,10.7046-6.3018,16.0312-1.174,2.8461-1.0845,2.6379,.2684-.6245-.5531,1.3128-1.1106,2.6237-1.6726,3.9328-1.1228,2.6157-2.2631,5.2238-3.421,7.8242-2.0096,4.5132-4.452,8.9545-6.228,13.5553,3.9145-10.1408,.4214-.9143-.69,1.3326-1.2555,2.5381-2.5281,5.0678-3.8177,7.5887-.6442,1.2592-1.2926,2.5161-1.9453,3.7709,3.3538-6.3997,4.0267-7.703,2.0187-3.9097-1.3451,2.4817-2.6865,4.9653-4.0349,7.4453-3.9605,7.2841,6.1989-10.9197,1.1885-2.1443-1.2211,2.1387-2.4652,4.2638-3.7007,6.3941-2.3845,4.0406-1.4208,2.4267,2.891-4.8417-.7232,1.2036-1.4506,2.4047-2.1821,3.6033-1.4609,2.3938-2.9908,4.7487-4.4334,7.153,7.2265-12.0442,1.8045-2.8549,.0973-.244-1.53,2.3399-3.0923,4.6576-4.6381,6.9869-2.1015,3.0984-1.5596,2.3166,1.6256-2.3453-.7914,1.1481-1.5867,2.2934-2.3861,3.4359-1.1982,1.7118-2.4051,3.4176-3.6207,5.1171-1.6185,2.2628-3.2515,4.5155-4.9044,6.7532-.784,1.0649-1.5743,2.1251-2.3708,3.1808,2.3013-2.9993,2.5171-3.3089,.6473-.9288-3.8981,4.5873-4.7003,5.841-8.8668,9.3821-3.9319,3.3417-8.1937,6.0112-12.9112,8.0917l1.8397-.7939c-16.902,6.5012-36.9508,5.5257-54.7894,6.8031l-60.3455,4.3216c-39.4415,2.8245-78.883,5.6491-118.3245,8.4736-39.8359,2.8528-79.6718,5.7056-119.5077,8.5584l-59.1622,4.2368c-19.0511,1.3643-38.1858,3.3655-57.2895,3.699-18.777,.3278-38.1582-2.1322-53.9871-12.978-13.8251-9.4729-23.3301-23.7498-25.5131-40.4516l.2323,1.9902c-1.8571-20.5327,5.6166-39.2621,12.3277-58.0351,1.6509-4.6181,3.3586-9.2161,5.1251-13.7912,.7559-1.9578,1.5219-3.9118,2.2981-5.8617,.4969-1.2483,4.0004-9.9437,1.2347-3.1525,1.84-4.5182,3.831-8.9838,5.8284-13.4338,.8552-1.9054,1.7206-3.8062,2.5963-5.7022,1.044-2.2607,5.9035-10.8456,.5126-1.1884,2.3526-4.2143,4.3187-8.7276,6.5094-13.0326,3.5084-6.8944-5.1283,9.6498-.6324,1.2648,1.143-2.1318,2.3368-4.2379,3.4694-6.3749-8.1869,15.4478,.2356-.2049,2.3746-3.9278-8.5934,14.9571,.0877,.0663,2.4868-3.7962-7.486,12.0522-1.9123,3.051-.1929,.4399,1.1295-1.7152,2.2743-3.4196,3.416-5.1267,2.0943-3.0862,1.5295-2.2682-1.6942,2.4539,.7764-1.1237,1.557-2.2445,2.3418-3.3623,1.176-1.6749,2.3614-3.3433,3.5562-5.0048,1.5909-2.2122,3.2251-4.3924,4.8223-6.5996,3.7293-5.1538-2.8879,3.845,.5003-.6336,1.4688-1.6361,1.6985-1.9495,.6891-.9403,.8942-.9052,1.8267-1.7691,2.7975-2.5916,1.8732-1.5618,3.8379-2.8205,6.0103-3.9188l-1.8397,.7939c23.048-9.1585,30.359,33.3094,32.1986,48.0603l-.2323-1.9902c2.0117,18.1855,.4752,36.5452-4.0665,54.2545-.3045,1.1871-.622,2.3708-.9526,3.5509-.5944,2.0839-.6733,2.3568-.2366,.819-.5558,1.7513-1.1354,3.4947-1.7439,5.2284-.5246,1.4946-1.3551,5.902-2.5817,6.8693,1.5778-3.7214,1.7801-4.216,.6067-1.4839-.4887,1.1157-.9892,2.226-1.5015,3.331,2.6597-5.4838,3.1817-6.5895,1.5661-3.3171l3.3143-6.308c-2.1837,4.0429-1.11,2.1483,3.221-5.6837-2.308,3.9706-1.188,2.093,3.3598-5.6328,4.198-6.5357,5.1552-8.0535,2.8717-4.5535,3.5111-5.0626,4.2232-6.1067,2.1366-3.1321-.6852,.9618-1.3812,1.9157-2.088,2.8618,2.3824-3.0877,2.8984-3.7746,1.548-2.0607-11.3101,13.5722-24.0715,25.6154-39.9827,36.6708-15.6824,10.8964-32.6367,19.7765-50.1237,27.3928l1.8397-.7939c-74.5888,32.0315-159.0651,46.4546-239.7899,35.3949-23.6653-3.2423-46.9421-8.7792-69.5421-16.5053-2.3896-.8169-9.4273,9.9353-9.3458,9.8234-6.2098,8.5212-11.8288,17.7577-17.0513,26.8977-1.6516,2.8905-22.1199,40.0188-18.6029,41.2211h0Z"/>
      <path class="cls-9" d="M192.6643,762.6289c101.319-57.5209,176.5767-148.4198,233.4924-248.6667,20.0876-35.3808,38.2661-71.698,53.4504-109.4588,1.2632-2.0737,1.6316-4.2258,1.105-6.4563-1.4816,.3513-2.628,1.1812-3.4393,2.4895-6.8959,5.9196-12.2804,16.3206-16.8372,23.9519-7.2468,12.1361-14.2763,24.3362-20.3821,37.0902-2.9625,6.1881-6.1355,12.7041-7.3408,19.538-1.0116,5.7358,.1438,12.1942,2.5189,17.4705,5.5209,12.2649,17.96,17.2947,30.4488,19.5299,32.2256,5.7675,65.4622,8.7539,98.0923,11.1347,32.9539,2.4045,65.9893,2.8827,98.9565,.4585,32.5281-2.3919,64.8308-7.0123,97.2091-10.8221,128.4872-15.1183,257.692-5.8033,386.6386-9.741,71.9127-2.196,143.8832-8.968,213.7822-26.6363,3.6934-.9336,7.619-7.4539,9.3458-9.8234,6.2098-8.5212,11.8288-17.7577,17.0513-26.8977,5.254-9.1951,10.5501-18.4921,14.7685-28.2158,.504-1.1619,4.7732-13.2427,3.8344-13.0054-120.957,30.5742-246.382,27.9873-370.1783,27.1973-61.822-.3945-123.742-.3078-185.4057,4.6721-62.7085,5.0643-124.7968,17.1272-187.8808,16.9867-36.2694-.0808-72.4563-3.2669-108.4438-7.578-16.2296-1.9442-33.3067-2.9172-49.1606-7.0396-13.8573-3.6032-24.7179-12.6725-26.5555-27.4199l.2323,1.9902c-.1003-1.5756-.1611-3.1164,.0016-4.6918,.6962-6.7397,5.7411-11.9374-5.8295,11.9367l-16.9447,30.2564,.7946-1.3308-19.1716,19.9851c-.7262,1.8059-5.0896,10.9076-1.5977,3.9754-1.4098,2.7988-2.4857,5.8257-3.7485,8.693-1.0161,2.3072-2.0465,4.608-3.091,6.9025-1.1442,2.5134-7.0697,14.7195-1.6596,3.7261-2.4947,5.0693-4.9952,10.1305-7.5632,15.1636-3.3238,6.5145,4.4062-8.3195,1.9331-3.7087-.7395,1.3787-1.4696,2.7624-2.213,4.139-.5943,1.1005-1.1916,2.1993-1.7924,3.2962-.6005,1.0962-1.2043,2.1905-1.8115,3.283l4.0117-7.1708c-1.7461,2.536-3.1014,5.4492-4.6587,8.1152-.9275,1.5878-4.3731,7.3866,.2068-.3135s1.1272-1.9123,.1698-.3413c-1.4558,2.3889-2.9386,4.7606-4.4171,7.1354-2.758,4.4299,6.2394-9.6763,2.2697-3.5821-1.0154,1.5588-2.0209,3.1241-3.0425,4.6789-1.6953,2.58-3.3314,5.2382-5.1597,7.7245,.1639-.2229,5.2381-7.5672,2.0145-2.9457-.707,1.0136-1.4107,2.0295-2.1208,3.0409-3.7197,5.2986-7.5259,10.5363-11.4162,15.7109-1.0597,1.4095-4.0238,4.868,.3987-.4972-.7786,.9446-1.5033,1.9485-2.2564,2.9154-1.8855,2.4205-3.7896,4.8268-5.7131,7.2173-3.8365,4.768-7.7466,9.4766-11.7294,14.1232-3.77,4.3982-7.6076,8.7385-11.5086,13.0209-4.9466,5.4302-5.4266,5.9393-10.5564,11.1882-16.6091,16.9948-34.288,32.9491-52.9541,47.6573-20.4817,16.1388-42.1502,30.7201-64.8263,43.5939-4.574,2.5968-10.1899,12.819-12.6691,16.5649-6.3524,9.5978-12.3116,19.6517-17.7304,29.8027-4.2044,7.876-8.7248,15.8714-11.6557,24.3244-.5981,1.7249-3.3411,7.9763,.7348,5.6624h0Z"/>
      <path class="cls-15" d="M1404.3939,420.8572c-47.2367,67.085-86.7236,142.6445-104.4941,223.2339-3.8735,17.5665-6.6652,35.3491-8.452,53.247-.5127,5.1358,4.9946-1.8764,5.2711-2.1949,5.7559-6.6284,10.7069-14.8216,15.2377-22.2564,6.0103-9.8626,11.8477-19.888,16.9447-30.2564,2.8645-5.827,7.36-12.7328,8.0111-19.2542,1.7868-17.8979,4.5785-35.6808,8.452-53.247,4.2012-19.0524,7.7443-31.4284,13.8448-48.696,1.527-4.3223,3.1205-8.6212,4.7802-12.8943,.7247-1.866,1.4628-3.7266,2.2128-5.5826,2.6022-6.4396-1.9623,4.4775,.2208-.5745,1.8087-4.1855,3.628-8.3635,5.5406-12.503,.4771-1.0326,.9583-2.0634,1.4435-3.0923-2.7286,5.6703-3.3071,6.8792-1.7357,3.6268,1.0037-2.0359,2.0008-4.0744,3.0255-6.0999,.5117-1.0114,1.0274-2.0208,1.5471-3.0281-3.6838,7.0195-4.5567,8.6936-2.6186,5.0221,.8007-1.4957,1.6059-2.9883,2.4143-4.4798,2.1967-3.9887,1.071-1.9902-3.3772,5.9958,.5531-.9833,1.1103-1.9644,1.6713-2.9432,.5606-.978,1.1252-1.9536,1.6937-2.927,2.3069-3.9241,1.1274-1.9508-3.5384,5.92,1.1781-1.915,2.3431-3.8384,3.5202-5.7541,2.2044-3.5145,1.1811-1.9105-3.0699,4.8121,.6047-.9442,1.2133-1.8859,1.8258-2.8251,1.2229-1.8751,2.5081-3.7126,3.7166-5.5964-6.558,10.2225-1.9755,2.8859-.3962,.6429,12.1227-17.2165,23.4263-35.7656,31.8198-55.1135,.7462-1.7202,5.9684-11.7733,3.8344-13.0054-2.173-1.2546-9.3423,9.8185-9.3458,9.8234h0Z"/>
      <path class="cls-13" d="M2.2078,1043.8312c48.2556-24.8946,90.1232-60.5293,124.5075-102.4185,23.6114-28.765,44.0826-60.1737,62.4651-92.4906,11.6836-20.54,24.4003-41.8566,32.5009-64.1335,2.31-6.3524,5.1782-14.7758,1.2209-21.1219-3.0025-4.8149-7.9486-4.6927-12.7536-2.8498-15.6543,6.0041-25.4268,24.0323-34.2886,37.1905-16.2571,24.139-32.7669,50.6058-42.323,78.2578-4.2782,12.3796-6.2672,25.52-1.9175,38.2169,4.4388,12.9569,15.0319,18.749,28.176,19.9647,33.4343,3.0924,67.4058,3.208,100.9493,4.7517l101.4523,4.6691c133.6598,6.1514,267.3617,13.4207,401.1789,14.8644,133.2577,1.4376,266.9142-3.2548,398.9606-22.2171,32.8179-4.7128,65.5115-10.3023,98.0095-16.8712,28.6047-5.782,57.459-11.8179,84.4107-23.3153,26.9083-11.4788,49.7619-28.3813,67.9474-51.3753,16.3333-20.652,30.0156-43.4536,42.5285-66.5705,9.7126-17.9434,18.7731-36.5655,24.7696-56.1186,4.2374-13.8171,7.1706-27.7516,8.2941-42.1744,.381-2.2549-.3097-2.6536-2.072-1.1963-20.6343,9.03-37.8422,23.8426-51.8344,41.3573-14.4225,18.0534-26.6221,37.8343-37.8894,57.9699-9.55,17.0667-18.6823,34.609-25.3459,53.0399-16.2134,44.8447-13.3524,94.4291,10.5104,136.109,12.5549,21.9289,30.4445,40.6597,52.8105,52.6348,4.7357,2.5356,24.3077-33.0644,26.3971-36.7211,1.8729-3.2777,22.9849-38.8749,18.6029-41.2211-41.5357-22.2389-66.9627-66.9979-72.6372-112.9012l.2323,1.9902c-1.5262-14.0031-1.2971-28.0742,1.0176-41.9819,.9685-5.8189,2.6199-13.1327,4.0986-17.7983,.9851-3.1083,2.1737-6.1361,3.2906-9.1966-1.2529,3.4331-.8944,2.3231,.2138-.4213,1.6451-4.074-4.0969,8.0583-.6892,1.4417-4.7049,9.1354-9.8043,18.0344-15.5206,26.5762-3.4126,5.0994,.6275-.7727,1.0792-1.4182-1.1952,1.7078-2.493,3.1086-.4375,.6494,4.2558-5.0919,6.682-7.8287,11.7967-12.432,9.8153-8.8339,20.8866-16.0284,32.9838-21.3223l-2.072-1.1963c-.959,12.3115-2.9557,24.8616-6.6493,36.556-.9271,2.9353-2.0097,5.8138-3.0651,8.7039-.9516,2.606-.8504,2.123,.1415-.1575-.2501,.575-3.4632,7.4611-.8703,2.1342,3.4284-7.0434-3.2213,6.1215,1.3984-2.7683,2.1904-4.2151,4.5238-8.3464,6.9504-12.4298,1.1337-1.9796,2.325-3.9238,3.5736-5.8328,1.8933-2.9413,2.2437-3.5076,1.0512-1.6988-2.49,3.8257,5.0122-7.4536,.6603-1.0976,1.3201-1.9279,2.0944-2.6069,.2183-.3343-.9435,1.143-1.8757,2.2943-2.8388,3.4211-1.6916,1.979-2.7386,3.1547-4.2813,4.7341-4.4956,4.6026-9.4015,8.8338-14.5055,12.7452-11.273,8.639-23.7045,15.4788-36.6982,21.1531l1.8397-.7939c-34.2169,14.4788-71.4871,21.0637-107.8245,27.8745-40.3445,7.5618-80.961,13.6496-121.721,18.4808-81.4417,9.6531-163.4166,14.2711-245.3946,15.7447-164.0623,2.9491-328.0771-6.2976-491.9017-13.8373l-140.0328-6.4447c-23.8143-1.096-47.6363-2.084-71.4453-3.2881-8.76-.443-18.0836-1.0281-25.3504-6.5234-6.8424-5.1744-9.9624-13.4253-11.2835-21.621l.2323,1.9902c-.5526-4.7537-.6078-9.4983,.1338-14.2362,.2169-1.3859,.5495-2.7768,.764-4.1529,1.1-2.9764,1.0525-3.031-.1423-.1639-4.27,9.1041-9.1004,17.8885-14.4913,26.3533-4.5579,7.2646-5.4772,8.812-2.7579,4.6424-2.9354,4.2496-3.3047,4.8043-1.108,1.6641l1.3726-1.9304c2.0272-2.8219,1.8301-2.5618-.5913,.78-.6546,1.7721,1.7042-1.3589,2.4689-1.9468,1.9768-1.5198,4.0559-2.74,6.3042-3.8061l-1.8397,.7939c7.4116-2.8031,13.0738-.0725,14.4126,8.0535l-.2323-1.9902c-.0428,6.3216-2.9471,8.4864,3.2439-3.1873-1.0957,2.0661-2.0948,4.2048-3.1475,6.2938-2.0006,3.8838-1.4214,2.7818,1.7376-3.3058-.7312,1.3766-1.4699,2.7492-2.2161,4.1177-3.8272,7.1763,5.6795-9.7915,1.2843-2.293-.773,1.3472-1.5534,2.6901-2.3411,4.0288l3.7387-6.2813c-1.3406,2.5976-7.8741,12.0728-.3634,.7774-1.2825,1.9287-2.5164,3.8906-3.7974,5.8206-.8531,1.2846-1.7132,2.5646-2.5803,3.8398,2.9928-4.3539,3.3996-4.9665,1.2206-1.8377-1.3521,1.8672-2.6697,3.759-4.0277,5.6222-.9039,1.2401-1.8145,2.4753-2.7318,3.7055-1.6359,2.1685-1.8425,2.4509-.6198,.8473,1.2272-1.5983,1.0115-1.3247-.6472,.821-.9405,1.2053-1.8876,2.4054-2.8413,3.6003-1.4282,1.7895-2.8712,3.5673-4.3287,5.3331-6.2685,7.5939-12.9771,15.225-19.6022,22.0139-28.5279,29.2332-61.4651,54.0029-97.7811,72.738-4.4312,2.286-10.4031,13.1412-12.6691,16.5649-6.3524,9.5978-12.3116,19.6517-17.7304,29.8027-4.2044,7.876-8.7248,15.8714-11.6557,24.3244-.6508,1.8768-3.3405,7.7648,.7348,5.6624h0Z"/>
      <path class="cls-20" d="M397.5926,1319.4245c53.0862-39.7381,94.6093-91.6052,129.317-147.7039,12.9119-20.8697,24.8968-42.3226,36.0426-64.1843,5.3512-10.4961,10.5824-21.1944,14.5789-32.2941,2.8487-7.9117,5.4132-16.3821,5.1593-24.8821-.1057-3.5399-.2888-7.8664-1.7263-11.1646-1.0297-2.3628-3.2144-2.1825-5.7468-1.775-5.1804,.8336-8.9355,3.9492-12.3986,7.6202-5.1371,5.4454-9.3814,11.7732-13.4882,18.007-8.876,13.4729-17.1063,27.5725-24.261,42.0356-4.6258,9.3509-9.6303,19.2841-11.3637,29.7195-1.709,10.2883,.3052,21.2229,7.1721,29.2458,8.0215,9.3718,19.8386,13.9464,31.6465,16.3252,13.5538,2.7305,27.6064,3.4259,41.3654,4.4732,15.311,1.1655,30.6456,2.0232,45.9919,2.5511,61.6548,2.121,123.6106-1.1074,184.4665-11.4697,61.121-10.4074,120.8812-28.2091,177.2473-54.1191,7.0868-3.2576,14.1076-6.654,21.0745-10.1601l3.1991-3.3911c2.4587-3.0177,4.7548-6.1531,6.8885-9.406,5.1369-7.4972,9.9616-15.2402,14.4698-23.13,3.7571-6.5754,7.4043-13.2188,10.8241-19.9767,1.9688-3.7488,3.7385-7.5867,5.3091-11.5136,1.1684-2.4846,2.0691-5.0648,2.702-7.7406-.2064-4.4479-1.0806-8.4883-5.0986-10.9642-3.8342-2.3627-8.8484-2.4726-13.1637-1.7717-11.3129,1.8376-20.9604,10.3078-28.9157,18.0152-13.2711,12.8575-24.2101,27.8839-34.3312,43.2796-14.5573,22.1441-27.6783,45.3075-39.5272,69.0073-29.0679,58.1407-52.5461,119.2477-76.2529,179.7133-11.3635,28.9832-22.6,58.0162-34.0811,86.9532-5.5023,13.868-11.0603,27.714-16.7156,41.5203-1.4122,3.4476-2.8303,6.8927-4.2552,10.3351-.7119,1.7199-1.4071,3.4489-2.1415,5.1593,3.0213-7.0363,.4327-1.0474-.1414,.321-3.118,7.432-6.2707,14.8495-9.4646,22.2491-6.13,14.2019-12.4115,28.3388-18.8902,42.3852-1.5523,3.3656-3.1158,6.726-4.6914,10.0807-1.2236,2.6053-7.1016,14.681-1.6157,3.4714-3.5244,7.2016-6.9983,14.4258-10.5927,21.5932-1.6574,3.3049-3.3286,6.6029-5.0142,9.8935-.8425,1.6447-1.6929,3.2854-2.5384,4.9286-3.4653,6.7343,5.1471-9.7694,1.7446-3.3302-3.4803,6.5864-7.0392,13.126-10.6182,19.659,8.6779-15.8405,2.018-3.615-.0791,.0261-2.0994,3.6451-9.3427,15.5196,.0424,.0757-1.778,2.9259-3.5384,5.8616-5.3432,8.7712-.9007,1.452-1.8191,2.893-2.7201,4.3448,4.2516-6.6752,5.2563-8.2643,3.0141-4.7673-.6154,.9551-1.2336,1.9083-1.8547,2.8596-1.7363,2.6592-10.0158,14.3941-2.4136,3.7544-2.2954,3.2125-4.5234,6.4712-6.8464,9.6648-.9921,1.3639-1.9917,2.7225-2.999,4.0753-.6704,.9004-1.3443,1.7981-2.0216,2.6933,2.612-3.4056,3.0255-3.9506,1.2404-1.6349-2.4173,3.0726-4.8332,6.1435-7.3185,9.162-2.4727,3.0032-4.9905,5.9693-7.5562,8.8934-1.0959,1.249-2.2004,2.4905-3.3139,3.7239-.4279,.474-4.9764,5.3995-2.428,2.6922-5.2714,5.5999-10.7854,10.9839-16.4785,16.1535-20.1641,18.3099-42.9721,33.2245-67.9802,44.0421l1.8397-.7939c-72.5858,30.9001-157.7821,25.1685-225.8885-14.5348-19.8681-11.5823-37.9948-25.9379-53.9658-42.4739-2.3954-2.4801-24.7355,33.8131-26.3971,36.7211-5.254,9.1951-10.5501,18.4921-14.7685,28.2158-.9865,2.2741-5.9119,10.8544-3.8344,13.0054,44.6396,46.2184,106.2142,73.7699,170.3869,76.6711,64.4775,2.915,128.5454-19.4225,176.8427-62.3038,32.318-28.6939,58.4358-63.9728,81.6125-100.2356,28.453-44.5183,53.6419-91.0459,76.4904-138.6686,38.3552-79.9429,70.1952-162.6548,102.4996-245.1637,7.7154-19.7059,15.4779-39.3937,23.4059-59.0152,3.9587-9.7975,7.9655-19.5752,12.0125-29.3365,1.8455-4.4514-.308,.7679-.5791,1.389,.4964-1.1373,.9589-2.2923,1.4392-3.4368,1.0811-2.5761,2.1663-5.1505,3.2559-7.723,2.057-4.8565,4.1294-9.7065,6.2199-14.5486,4.1457-9.6022,8.3537-19.1782,12.6582-28.7103,1.9069-4.2227,3.8558-8.4248,5.8215-12.6204,1.7839-3.8076-3.6703,7.5764-1.8188,3.7999,.4816-.9823,.9572-1.9675,1.441-2.9488,1.0878-2.2064,2.2258-4.3873,3.3185-6.5909-5.9627,12.0245-4.1014,7.7856-2.7046,5.1867,.5153-.9588,1.0381-1.9145,1.5493-2.8756,3.0017-5.6437-3.8708,6.8067-3.4687,6.1688,.7184-1.1396,1.3524-2.3485,2.0268-3.5157,2.5588-4.4287-6.3321,10.4505-3.6283,6.1182,.9651-1.5464,3.2515-5.1767-.7502,1.1304-3.9972,6.2999-1.6914,2.7085-.7051,1.1775,2.2734-3.5287-5.2693,7.4789-2.019,2.9278,.6133-.8588,1.2422-1.7113,1.8469-2.5766,2.5846-3.6989-1.2029,1.5436-1.4657,1.8553,1.5118-1.7938,2.9121-3.6823,4.4306-5.4735,.6705-.7908,1.3489-1.5745,2.0362-2.3507,.346-.3907,2.5392-2.8248,1.0109-1.1613-1.5231,1.658,.7022-.7107,1.0725-1.0831,.9024-.9075,1.8163-1.8037,2.7471-2.6821,5.7259-5.4036,12.1836-11.0832,19.4453-14.2985l-1.8397,.7939c8.4413-3.3331,22.9255-4.0567,24.4997,7.7477l-.2323-1.9902,.0527,1.1358,43.3926-75.1581c-11.2394,5.6563-22.6312,10.9889-34.171,16.004l1.8397-.7939c-62.2612,26.8537-128.3679,43.8375-195.5642,52.4302-66.8146,8.5439-134.5238,8.9912-201.617,3.6249-25.8557-2.068-70.7245-2.6067-75.7614-36.3233l.2323,1.9902c-.5796-4.973,.6283-9.3051,.7875-14.1557,.0563-1.7168-1.252,4.0714-.0484,.221,8.152-21.8852-3.1921-2.3032-34.0323,58.7462-2.0334,2.0526-2.5497,2.601-1.5491,1.6451,1.7314-1.1083,2.9997-2.398,4.9328-3.267l-1.8397,.7939c1.865-.6998,4.2294-1.3609,6.2561-.9824,2.0054,.3745,1.5353-.2284,2.5083,1.9097,.9008,1.9793,1.0809,4.5105,1.3432,6.6406l-.2323-1.9902c.2779,3.7144,.1372,7.383-.4692,11.0617-.2853,1.7307-.7445,3.4109-1.0943,5.1253-.5755,2.821,.8703-2.083-.1844,.6179-.4263,1.0917-.8459,2.232-1.2057,3.3472-.9192,2.8484,1.0638-2.4402,1.0585-2.4309-.4208,.7463-.7374,1.6344-1.0749,2.423-1.6918,3.953,3.6221-7.3129,1.7015-3.5128-.3854,.7624-.7595,1.5308-1.1431,2.2942-.7631,1.5184-1.5796,3.0148-2.3174,4.5454-.1448,.3003,5.477-10.3586,2.6184-5.0212-.5342,.9974-1.0638,1.9972-1.6011,2.993-.8049,1.4918-1.6466,2.9654-2.4395,4.4635-.7603,1.4365,6.1258-10.8522,3.7742-6.7454-.5606,.979-1.114,1.9622-1.6762,2.9404-.8426,1.4658-1.7015,2.9219-2.5514,4.3836-2.3705,4.0771,4.8559-7.9945,3.9614-6.6513-.7773,1.1672-1.4573,2.4093-2.1908,3.6044-.8816,1.4365-1.7798,2.8625-2.6679,4.295-2.2399,3.6129,4.2737-6.445,3.5121-5.529-.677,.8142-1.2614,1.9583-1.8262,2.8252-.9173,1.4079-1.8422,2.8109-2.7746,4.2088-.4657,.6982-.9412,1.3903-1.4037,2.0907-2.1541,3.2623,5.5439-7.9742,1.8493-2.6903-1.9185,2.7438-3.8453,5.4808-5.8122,8.1902-1.1449,1.5772-2.3009,3.1464-3.466,4.7088-.4988,.6689-1.0014,1.335-1.5014,2.0031-2.2201,2.9668,.4749-.8525,1.2733-1.6616-5.1538,5.2228-9.3532,11.8122-14.134,17.4122-2.3272,2.726-4.6864,5.4247-7.0784,8.0939-1.1017,1.2294-2.2103,2.4527-3.3256,3.6697-.7428,.8105-1.4908,1.616-2.2373,2.4231-.9714,1.0502-1.4609,1.5381-.1868,.208-5.11,5.3343-10.3148,10.571-15.6729,15.6569-11.9895,11.3806-24.6425,22.0338-37.8755,31.9395-4.9175,3.6811-9.4996,11.7761-12.6691,16.5649-6.3524,9.5978-12.3116,19.6517-17.7304,29.8027-4.1853,7.8403-8.8824,15.8597-11.6557,24.3244-.4133,1.2615-3.2674,8.6582,.7348,5.6624h0Z"/>
      <path class="cls-11" d="M5768.1308,1386.782c73.8591-99.7559,136.8508-207.9105,189.521-320.2372,23.8007-50.7583,45.1358-102.74,63.8432-155.588,9.4794-26.7792,18.7185-53.7987,26.1955-81.2145,7.1319-26.1509,11.762-53.5137,6.9138-80.5115-.5502-3.0639-1.2272-6.1037-2.0529-9.1056-.3319-1.2065-.6478-4.0392-1.5196-4.9853-1.1866-1.2875-.4972-.7231-2.4516-.6039-4.6936,.2862-9.2168,5.2515-11.9825,8.3789-9.6901,10.9574-17.1982,24.3041-24.4447,36.9032-8.0407,13.9799-16.7436,28.8185-20.9563,44.5707-4.7161,17.6345,1.7779,37.2355,19.2107,44.6084,10.6755,4.515,22.7527,4.1032,34.0351,2.783,14.0945-1.6493,28.1118-4.1773,42.1522-6.2355,30.0899-4.411,60.2268-8.5005,90.4044-12.2648,119.7689-14.9399,240.1752-24.7679,360.7822-29.4318,120.5047-4.6599,241.21-4.1677,361.6718,1.5004,14.7704,.695,29.5367,1.4709,44.2992,2.3168,2.9858,.1711,8.704-8.9427,9.3458-9.8234,6.2098-8.5212,11.8288-17.7577,17.0513-26.8977,5.254-9.1951,10.5501-18.4921,14.7685-28.2158,.5095-1.1745,5.4894-12.9105,3.8344-13.0054-131.2812-7.5219-262.8944-8.9673-394.3074-4.2521-131.5189,4.719-262.8168,15.5866-393.3256,32.5238-35.8071,4.647-71.4547,10.2949-107.2115,15.2686-13.7447,1.9118-28.9697,3.0718-41.653-3.7004-10.3211-5.5109-15.587-14.7953-16.9725-26.1892l.2323,1.9902c-.3945-4.326,.0264-8.3229,.5687-12.5978,.2902-2.2876-.0088-.0212-.4123,.996,4.3068-12.0874-1.4106-2.3534-17.1522,29.2019-3.9052,12.0798-10.0464,22.4946-18.4236,31.2442-.1497,1.7202-.9425,.5565,.6959-.355,.8969-.499,1.7237-1.055,2.6617-1.497l-1.8397,.7939c.8115-.3115,3.237-1.4648,4.0883-1.0596,.9732,.4633,1.8191,5.86,2.115,6.9818,1.3257,5.0258,2.2089,10.1241,2.8382,15.2801l-.2323-1.9902c4.1438,39.8628-9.5357,77.9678-21.7286,114.5522-12.5381,37.62-25.6958,75.5907-41.8158,111.852,.3571-.8032,2.2553-5.3676,.294-.7225-.4093,.9693-.8165,1.9394-1.226,2.9086-.9552,2.2606-1.915,4.5193-2.8805,6.7755-1.9293,4.5089-3.8785,9.0093-5.8482,13.5007-4.0732,9.2882-8.2334,18.5382-12.4797,27.7485-1.9004,4.1219-3.8177,8.236-5.7527,12.3418-1.0411,2.209-2.093,4.4129-3.1385,6.6198-1.6629,3.5104,1.8198-3.8131,1.6858-3.5214-.7266,1.5821-1.5138,3.1412-2.2735,4.7081-4.2517,8.7698-8.583,17.5011-12.9938,26.192-2.2015,4.3378-4.4227,8.6655-6.6638,12.983-4.0782,7.857,3.7694-7.144,.64-1.2304-1.2979,2.4527-2.5921,4.9072-3.8979,7.3558-4.4973,8.4334-8.5981,17.6038-13.9236,25.5416-.641,.9555,5.7006-10.1501,3.3098-5.9135-.6795,1.2042-1.3555,2.4104-2.0356,3.6142-1.0197,1.805-2.043,3.6079-3.0699,5.4088-2.5648,4.498-5.1518,8.9832-7.7609,13.4556-2.1225,3.6382-11.2486,18.8168-2.2932,3.9665-2.4886,4.1268-4.9646,8.2609-7.4759,12.374-2.8659,4.6939-5.7572,9.3724-8.673,14.0355-1.4499,2.3187-3.0514,4.5885-4.3879,6.9747,.0821-.1465,5.9566-9.3352,2.4543-3.8706-.7402,1.155-1.4781,2.3114-2.2195,3.4656-5.9208,9.2175-11.941,18.3712-18.0602,27.4581-1.5268,2.2673-3.0633,4.5281-4.599,6.7894-.6335,.9329-2.7643,4.042,.2685-.3854,3.5286-5.1511-.4235,.6031-.901,1.2938-2.9086,4.2068-5.8391,8.3985-8.7908,12.5751-6.4785,9.167-13.0663,18.2555-19.7458,27.277-12.4581,16.8263-23.4872,35.906-31.8198,55.1135-.7462,1.7202-5.9684,11.7733-3.8344,13.0054,2.1737,1.255,9.3352-9.8092,9.3458-9.8234h0Z"/>
      <path class="cls-23" d="M6962.9767,849.4899c-48.6471,66.2913-93.0432,136.1556-129.6883,209.8273-32.0411,64.4158-58.3672,132.9842-66.5338,204.9027-4.2952,37.8257-3.232,76.0595,3.3664,113.5587l1.8397-.7939c5.7917-5.8168,10.4371-12.4447,14.9597-19.2779,8.5721-12.9515,16.287-26.5102,23.3206-40.3508,4.5178-8.89,10.6515-19.5202,10.273-29.9404-.3999-11.012-5.3776-20.7058-15.4339-25.7415-11.2347-5.6258-24.9974-4.9108-37.2114-5.5095-14.6446-.7178-29.2894-1.4304-43.9352-2.1237-58.6771-2.7776-117.3748-5.2482-176.1063-6.5188-117.1006-2.5334-234.5984-.3143-350.9628,14.0057-65.2099,8.0249-129.9439,19.901-193.5191,36.5374-3.712,.9714-7.5847,7.4067-9.3458,9.8234-6.2098,8.5212-11.8288,17.7577-17.0513,26.8977-5.254,9.1951-10.5501,18.4921-14.7685,28.2158-.5063,1.167-4.7486,13.2446-3.8344,13.0054,107.334-28.0873,217.7463-42.3585,328.4221-48.1161,110.2434-5.7351,220.7219-3.2688,330.9571,1.3437,31.2353,1.307,62.463,2.789,93.6885,4.3116,22.5403,1.0991,59.0345-2.5164,63.6493,27.2498l-.2323-1.9902c.1855,1.7046,.3008,3.3959,.1895,5.1111-.0514,.8301-.1482,1.6548-.2904,2.4742-1.402,6.4267,.6211,1.8993,6.0693-13.5823l16.9447-30.2564,15.5379-21.9227,1.8397-.7939c-1.3141-7.4682-2.4131-14.9645-3.2992-22.4954l.2323,1.9902c-3.3735-29.8831-3.1893-60.0519,.2629-89.9205,1.6993-14.7018,4.1637-29.3117,7.2967-43.775,1.6319-7.5335,3.4437-15.0281,5.425-22.4772,.8826-3.3184,1.7977-6.6281,2.7451-9.9286,.4742-1.652,.9512-3.3037,1.4466-4.9495-.8495,2.822,.0062,.0103,.1577-.4733,.3431-1.0951,.6787-2.1925,1.0231-3.2872,4.4947-14.2848,9.5661-28.3865,15.1196-42.2932,.7505-1.8793,1.5103-3.7548,2.2783-5.6271,.3292-.8025,.6729-1.6003,.9921-2.4068,.049-.1239-2.2604,5.3398-1.0529,2.545,1.4936-3.4571,2.9587-6.9255,4.4808-10.3705,1.5238-3.449,3.0759-6.8855,4.654-10.31,.7289-1.5819,1.4635-3.1611,2.2036-4.7377,.3702-.7886,.7435-1.5757,1.1142-2.3641,2.8054-5.9649-3.0627,6.3074-1.3102,2.7367,3.3317-6.7881,6.7068-13.548,10.1649-20.2728,1.9862-3.8624-3.534,6.7116-2.962,5.6681,.4193-.7649,.814-1.5448,1.2223-2.3157,.817-1.5428,1.6387-3.083,2.4651-4.6208,1.9282-3.5883,3.8953-7.1544,5.8583-10.7236,2.2935-4.1701-4.4929,7.9902-3.7156,6.6304,.433-.7574,.8558-1.5209,1.285-2.2805,1.0014-1.7721,2.0083-3.5412,3.0212-5.3068,1.8799-3.2771,3.7796-6.5428,5.6974-9.7978,.4423-.7507,.888-1.4995,1.3296-2.2506-7.719,13.1316-5.1462,8.619-3.4445,5.7911,.8976-1.4916,1.7944-2.9837,2.6972-4.4722,2.1039-3.4689,4.2281-6.9255,6.3713-10.3703,1.07-1.7198,2.145-3.4364,3.2243-5.1504,4.315-6.8518-4.8533,7.582-1.5875,2.4946,2.3362-3.6392,4.6794-7.2736,7.0485-10.8916,4.5511-6.9504,9.4465-13.711,13.8731-20.7375,.3924-.6229-4.8829,7.101-2.7431,4.0042,.8099-1.1722,1.6159-2.3471,2.4267-3.5187,1.1328-1.6368,2.2691-3.2711,3.4086-4.9032,2.4322-3.4835,4.8794-6.9564,7.3415-10.4188,4.878-6.86,9.815-13.6776,14.7951-20.4638,12.4004-16.898,23.4756-35.8793,31.8198-55.1135,.7462-1.7202,5.9684-11.7733,3.8344-13.0054-2.1736-1.2549-9.3365,9.8108-9.3458,9.8234h0Z"/>
      <path class="cls-17" d="M3110.4151,1234.5594c63.1616-105.4236,118.8436-215.0671,165.2575-328.889,41.7566-102.4008,75.6231-208.0807,101.5762-315.5737,14.6555-60.7004,26.7007-122.0188,36.1656-183.741,.5739-3.7425-2.5489-.6908-3.6716,.4993-4.1967,4.4486-7.7513,9.7905-11.0696,14.8693-9.8792,15.121-19.4794,30.9723-26.6567,47.5781-6.3209,14.6242-9.7628,28.2819-4.4684,43.7621,3.9159,11.4499,11.7212,21.8172,22.0798,28.1677,12.5652,7.7033,27.3783,10.0873,41.8901,10.5548,16.1232,.5194,32.368-.5113,48.4651-1.3578,67.3483-3.5417,134.4236-12.1573,200.4951-25.6747,37.2891-7.6289,74.2413-16.8407,110.7727-27.5206,3.7742-1.1034,7.4659-7.2438,9.3458-9.8234,6.2098-8.5212,11.8288-17.7577,17.0513-26.8977,5.254-9.1951,10.5501-18.4921,14.7685-28.2158,.515-1.1872,4.6626-13.2475,3.8344-13.0054-60.6101,17.7194-122.3959,31.3387-184.8695,40.5607-31.1179,4.5934-62.3956,8.1057-93.758,10.5201-15.3464,1.1814-30.713,2.1001-46.0909,2.7543-14.6963,.6252-29.607,1.5735-44.2827,.1414-14.1904-1.3847-28.8679-5.4867-39.6712-15.2414-9.6029-8.6708-15.9032-20.8317-17.4321-33.6644l.2323,1.9902c-.2608-2.9532-.3163-5.8824,.0072-8.8356,.1474-1.3451,.5331-2.6807,.6579-4.0176,.3066-1.288,.1544-.8963-.4564,1.1752,.9416-2.6524,.5284-1.7537-1.2396,2.6963l-41.3979,62.9467c-8.1932,53.4294-18.3163,106.5558-30.3988,159.2427-6.0229,26.2635-12.5302,52.416-19.5154,78.4401-3.5639,13.2779-7.252,26.5226-11.0655,39.731-1.6565,5.7376-3.3423,11.4666-5.0392,17.1924-1.6708,5.6379,.9832-3.2317-.717,2.3965-.5178,1.714-1.0346,3.4283-1.5551,5.1414-1.0406,3.4255-2.0897,6.8484-3.1472,10.2687-15.8138,51.1486-33.5067,101.7172-53.0623,151.5556-4.8699,12.4113-9.8556,24.7772-14.9565,37.0953l-.3398,.8205c-1.1346,2.7309-.9069,2.1875,.6829-1.63,.2126,.8408-1.7059,4.0746-2.0583,4.9128-1.1466,2.7271-2.2988,5.4517-3.4568,8.174-2.7772,6.5291-5.5871,13.0444-8.4295,19.5454-5.2042,11.9026-10.5178,23.7573-15.9406,35.5619-2.7078,5.8945-5.4428,11.7764-8.205,17.6455-1.5056,3.1991-3.0236,6.3924-4.5411,9.5859-.9857,2.0744-2.9023,5.9211,1.6565-3.4566-1.0299,2.1185-2.0421,4.2456-3.0685,6.3658-6.4072,13.2349-12.9541,26.4023-19.6406,39.4983-1.6026,3.1389-3.2134,6.2736-4.8319,9.4043-.8089,1.5647-1.6221,3.1273-2.433,4.691-1.9286,3.7013-1.0827,2.0837,2.5375-4.8527-.5444,1.0399-1.0897,2.0793-1.6359,3.1182-3.2751,6.2297-6.5822,12.4427-9.9212,18.6384-3.6132,6.7046-7.2639,13.389-10.9519,20.0527-.7087,1.2806-1.419,2.5603-2.1305,3.8394-4.4535,8.0061,5.7412-10.2114,1.9881-3.543-1.7215,3.0588-3.4443,6.1168-5.1782,9.1686-3.7535,6.6065-7.5447,13.1915-11.3728,19.755-1.7653,3.0267-3.5384,6.0487-5.3195,9.0662-.8902,1.5081-1.7866,3.0125-2.6764,4.5207,4.6309-7.7706,5.7752-9.693,3.4331-5.7672-.5984,1.0018-1.1977,2.003-1.7978,3.0037-5.9415,9.917-11.7829,19.9039-16.9447,30.2564-1.9688,3.7488-3.7385,7.5867-5.3091,11.5136-1.1684,2.4846-2.0691,5.0648-2.702,7.7406-.0608,4.66,4.3164-1.055,5.2711-2.1949,5.7388-6.8518,10.6624-14.6198,15.2377-22.2564h0Z"/>
      <path class="cls-12" d="M3459.6598,1479.9301c23.8513,94.3989,88.8928,168.0217,169.5733,219.6706,86.7057,55.506,185.9507,86.4511,284.5078,113.3509,126.021,34.3957,254.6055,59.3776,384.3387,74.6642,128.7555,15.1713,258.6324,20.792,388.2166,16.7541,129.704-4.0417,259.1033-17.7615,386.7576-41.0889,15.8678-2.8997,31.7058-5.9564,47.5185-9.1425,3.5826-.7219,7.8149-7.7226,9.3458-9.8234,6.2098-8.5212,11.8288-17.7577,17.0513-26.8977,5.254-9.1951,10.5501-18.4921,14.7685-28.2158,.4939-1.1386,4.9115-13.2224,3.8344-13.0054-127.2825,25.6462-256.4151,41.8461-386.0995,48.2854-129.4702,6.4286-259.4123,3.1995-388.4077-9.6003-129.9032-12.8898-258.8368-35.4853-385.3847-67.5256-102.997-26.0775-207.7787-55.2839-301.0451-107.5045-82.3051-46.0833-155.4181-112.5007-189.0557-202.5995-4.3093-11.5424-7.9023-23.3209-10.9199-35.2639-.4164-1.6481-10.9467,12.0202-9.3458,9.8234-6.2098,8.5212-11.8288,17.7577-17.0513,26.8977-5.254,9.1951-10.5501,18.4921-14.7685,28.2158-1.5946,3.6758-4.8665,8.9206-3.8344,13.0054h0Z"/>
      <path class="cls-14" d="M3366.8112,781.8936c73.2528,17.8217,152.9108,19.0485,225.8954-1.0738,18.6041-5.1293,36.7336-12.6233,52.2143-24.3061,4.9242-3.7162,9.4788-11.7447,12.6691-16.5649,6.3524-9.5978,12.3116-19.6517,17.7304-29.8027,4.1853-7.8403,8.8824-15.8597,11.6557-24.3244,.4088-1.2478,3.2623-8.6788-.7348-5.6624-8.1968,6.1859-17.0707,11.1767-26.4754,15.2792l1.8397-.7939c-29.0363,12.2765-61.5489,17.3802-92.7392,20.4713-33.4758,3.3176-67.307,2.9927-100.7137-.9586-18.9738-2.2442-37.779-5.6898-56.3416-10.2059-2.5826-.6283-9.2069,9.6328-9.3458,9.8234-6.2098,8.5212-11.8288,17.7577-17.0513,26.8977-5.254,9.1951-10.5501,18.4921-14.7685,28.2158-.5748,1.3251-5.7589,12.5372-3.8344,13.0054h0Z"/>
      <path class="cls-7" d="M3261.3623,1041.8154c22.4931-1.4183,43.8915,6.0171,65.3605,11.5708,21.0841,5.4541,42.589,9.2603,64.2612,11.4012,42.9526,4.243,86.5283,1.8748,128.7853-6.8976,24.1346-5.0102,47.7766-12.1393,70.7115-21.1607,3.953-1.5549,7.0763-6.7092,9.3458-9.8234,6.2098-8.5212,11.8288-17.7577,17.0513-26.8977,5.254-9.1951,10.5501-18.4921,14.7685-28.2158l2.7295-6.5491c1.2632-2.0737,1.6316-4.2258,1.105-6.4563-81.0452,31.8789-171.0026,38.8155-255.81,18.63-24.1393-5.7455-48.0987-15.1333-73.3085-13.5436-3.2647,.2059-8.3155,8.4096-9.3458,9.8234-6.2098,8.5212-11.8288,17.7577-17.0513,26.8977-5.254,9.1951-10.5501,18.4921-14.7685,28.2158-.4893,1.1278-5.2485,13.0945-3.8344,13.0054h0Z"/>
      <path class="cls-8" d="M3156.1118,1266.1118c66.6401-20.57,135.9013-31.2667,205.4622-34.969,34.5932-1.8412,69.2647-1.9957,103.8854-.8932,32.3157,1.0291,64.9802,2.299,96.8666,8.0059,17.3685,3.1085,34.5278,7.6767,50.8086,14.5392,8.2193,3.4645,16.1982,7.5046,23.8106,12.1564,6.7927,4.151,13.9983,8.8926,15.8704,17.1611l-.2323-1.9902c.1234,1.0842,.0761,2.1356,.1073,3.2178,.0361,1.2521-1.1534,3.7946,.2831-.1006l6.6738-14.7881-.539,1.1256,16.9447-30.2564-.6315,1.0398,15.2377-22.2564c2.2726-2.9656,1.5616-1.3775-.1284-.4366l1.8397-.7939c-6.966,2.4398-10.6335-5.8164-12.8514-10.9099-2.9551-6.7865-5.5152-13.7529-7.7298-20.8148-4.6374-14.7879-7.6797-30.0012-9.537-45.3775l.2323,1.9902c-5.6719-49.5388,1.3233-99.4399,14.1238-147.3545,3.6722-13.7458,6.1806-21.9748,10.4207-35.1269,4.0283-12.4951,8.2876-24.9146,12.6274-37.3045,8.6818-24.7859,17.7-49.4571,25.9044-74.4078,16.8051-51.1071,29.8016-103.3353,44.9187-154.9427,.3534-1.2066,.7079-2.4129,1.0638-3.6188-.0432,.1462,1.715-5.7772,.8136-2.7616,.8993-3.0085,1.8143-6.0126,2.7369-9.0141,2.0273-6.5957,4.1033-13.1765,6.2453-19.7359,4.0798-12.4936,8.3895-24.9134,13.0257-37.2119,1.9842-5.2635,4.0289-10.5043,6.1478-15.7151,.4042-.9941,.896-2.0183,1.2449-3.0395-2.5948,7.5947-.9041,2.1663-.1899,.4885,1.2868-3.0234,2.5977-6.0366,3.9351-9.038,1.1139-2.5,2.2458-4.9921,3.3962-7.4755,.4599-.9928,.9257-1.9828,1.3886-2.9743,2.7774-5.9482-4.0127,8.2076-1.1148,2.3204,1.2056-2.4493,2.4038-4.9017,3.6359-7.338,.4922-.9732,.9924-1.9422,1.4855-2.915,1.8968-3.6709,.9901-1.942-2.7201,5.1868,.5069-.9629,1.017-1.9241,1.5305-2.8836,.5129-.9585,1.0293-1.9152,1.5486-2.8702,4.5866-8.4341-4.3692,7.6832-2.2902,4.0339,1.4732-2.586,2.9744-5.1546,4.4673-7.7292-9.0337,15.5795-2.5502,4.3771-.2287,.6193-8.4744,13.7179-1.7069,2.7233,.3584-.363l.8945-1.3307c2.0114-2.9617,1.1947-1.7709-2.4503,3.5725,.9388-1.291,1.8298-2.6185,2.7571-3.918,1.8396-2.5779,3.9063-5.0552,5.6482-7.6951-3.9442,5.978-2.5174,3.2593-1.4152,1.8642,1.3062-1.6533,2.6016-3.3142,3.9266-4.9527,1.8142-2.2433,3.6588-4.4618,5.5335-6.6548,2.0353-2.3808,4.1063-4.7305,6.2146-7.0468,.8754-.9618,1.7561-1.9186,2.6445-2.8684-2.6636,2.8482,.5163-.5107,1.1018-1.1102,4.3249-4.4275,8.7966-8.7124,13.4183-12.8293,9.1675-8.1663,18.9284-15.6211,29.227-22.3038,4.761-3.0894,9.8655-12.3289,12.6691-16.5649,6.3524-9.5978,12.3116-19.6517,17.7304-29.8027,4.1853-7.8403,8.8824-15.8597,11.6557-24.3244,.493-1.5047,3.3328-8.3018-.7348-5.6624-39.4382,25.5911-69.5532,62.779-95.0533,101.7512-33.4463,51.1163-61.5436,105.9538-82.4071,163.3941-17.27,47.5467-30.1687,96.5377-43.7301,145.2277-6.9257,24.8656-12.7289,45.2648-20.3632,68.8011-7.6219,23.4981-16.0231,46.7318-24.2485,70.0226-31.4842,89.1496-62.2374,187.3383-34.1894,281.6602,2.9718,9.9937,6.1432,21.3565,11.7872,30.2125,2.2343,3.5059,5.4919,6.2522,9.7938,4.7835,3.3232-1.1345,5.3588-3.5699,7.6486-6.203,6.3728-7.328,11.5322-15.9954,16.5869-24.2328,7.8163-12.7379,15.3549-25.9277,21.428-39.621,1.9864-4.4789,4.4343-9.7768,5.0671-14.733,.6295-4.9304-1.0116-9.8426-4.1087-13.6511-6.5807-8.0924-18.0712-13.2166-27.2566-17.6424-41.1872-19.8452-87.71-23.3315-132.692-25.4835-99.5533-4.7628-200.3931,.1484-297.2929,24.8653-11.9634,3.0516-23.8425,6.4144-35.6394,10.0558-3.806,1.1748-7.4026,7.1569-9.3458,9.8234-6.2098,8.5212-11.8288,17.7577-17.0513,26.8977-5.254,9.1951-10.5501,18.4921-14.7685,28.2158l-2.7295,6.5491c-1.2632,2.0737-1.6316,4.2258-1.105,6.4563h0Z"/>
      <path class="cls-2" d="M841.2244,756.8288c49.3524,12.2943,100.2919-3.27,143.3408-27.7718,20.6806-11.7706,40.2769-25.7825,57.1265-42.6434,29.8774-29.8974,52.3026-67.4009,70.979-105.0202,14.9717-30.157,26.2912-62.3625,24.1689-96.4684,.381-2.2549-.3097-2.6536-2.072-1.1963-58.5739,34.9594-96.4601,95.907-126.6998,155.2111-7.5201,14.748-14.8082,30.0893-20.0039,45.8417-4.3106,13.0689-8.0267,27.5228-3.6071,41.1139,8.0011,24.6052,40.2581,24.4697,61.3255,24.7756,32.8835,.4775,65.62-4.975,96.705-15.6465,3.87-1.3286,7.2684-6.9727,9.3458-9.8234,6.2098-8.5212,11.8288-17.7577,17.0513-26.8977,5.254-9.1951,10.5501-18.4921,14.7685-28.2158l2.7295-6.5491c1.2632-2.0737,1.6316-4.2258,1.105-6.4563-30.4945,10.4688-62.5922,15.932-94.8542,15.6673-24.0408-.1973-59.7514-.4793-64.5324-30.8107l.2323,1.9902c-.9445-8.1105,.2551-16.104,2.416-23.9287-.9954,3.6044,.9406-2.6936,1.1664-3.3225,.5432-1.513,1.1193-3.0139,1.7057-4.5105,.3936-1.0028,.7934-2.0032,1.1993-3.0011-1.7083,4.0598-1.9965,4.7539-.8645,2.0822,.6481-1.4746,1.2819-2.9551,1.9431-4.4239,1.1571-2.5701,5.1328-9.9164-.5349,.9649,.9856-1.8921,1.9244-3.818,2.8783-5.7267-6.4878,12.9817-3.4803,6.7157-1.9724,3.8954-4.5659,8.107-5.7327,10.1964-3.5005,6.2681,.528-.921,1.0616-1.8387,1.6008-2.7531-4.7883,7.9875-6.0085,10.0521-3.6608,6.1938,2.1718-3.4971,1.0923-1.8137-3.2385,5.0503,.8733-1.3203,1.7332-2.6511,2.5975-3.9773,3.2574-4.9982-5.7798,8.1932-.6852,1.0324,1.0649-1.4968,2.1468-2.9814,3.2437-4.4549,4.0021-5.3762-3.3841,4.1889-.0106,.0292,1.3148-1.6212,2.6041-3.2616,3.9377-4.8679,2.3237-2.7988,4.7065-5.5485,7.1499-8.2435,.6958-.7674,1.3964-1.5304,2.1018-2.289q-1.4295,1.505,.0015,.0144c1.0862-1.1022,2.1607-2.2153,3.2571-3.3075,2.7298-2.7192,5.5252-5.372,8.3835-7.9558,11.101-10.035,23.1505-18.9455,35.9995-26.6143l-2.072-1.1963c.9213,14.8049-.4725,29.6124-4.0205,44.0133-.4839,1.9642-1.0059,3.9186-1.5626,5.8635,.7652-2.6735-.4562,1.3618-.7195,2.1491-.5486,1.6403-1.1235,3.2723-1.7234,4.8944-.4041,1.0927-2.8371,7.161-1.1725,3.1481,1.6739-4.0353-.64,1.2985-1.0507,2.2493-1.4361,3.3252,2.4606-4.7882,2.1024-4.3578-.4817,.5787-.8194,1.6206-1.1524,2.3001-1.9047,3.8864,3.5694-6.827,2.9943-5.7464,7.1628-13.4589,5.0348-8.8434,3.3401-5.9751-.8257,1.3974,6.4309-10.6609,3.9417-6.6312-2.5041,4.0539,5.7248-8.7192,3.0488-4.7928-.453,.6646-1.0465,1.387-1.3999,2.108-.2874,.5862,4.9537-6.998,2.7425-4.0498-.6263,.835-4.0821,5.4713-1.3779,1.9719s-.8458,1.0351-1.5019,1.8444c-1.2387,1.5279-2.5,3.0374-3.7839,4.5276-1.2792,1.4847-2.6279,2.9099-3.9058,4.3946-1.3503,1.5688,.1069-.079,.3416-.3282-.5734,.6086-1.159,1.2065-1.743,1.8049-2.5247,2.5867-5.115,5.1093-7.7657,7.5667-10.3086,9.557-21.5054,18.1289-33.2285,25.8748-14.231,9.4029-29.2057,17.6513-44.8224,24.5152l1.8397-.7939c-36.0441,15.5505-75.9103,23.08-114.5712,13.4491-2.5708-.6404-9.2207,9.6518-9.3458,9.8234-6.2098,8.5212-11.8288,17.7577-17.0513,26.8977-1.6041,2.8074-21.5407,40.4893-18.6029,41.2211h0Z"/>
      <path class="cls-1" d="M408.5499,759.0014c49.3524,12.2943,100.2919-3.27,143.3408-27.7718,20.6806-11.7706,40.2769-25.7825,57.1265-42.6434,29.8774-29.8974,52.3026-67.4009,70.979-105.0202,14.9717-30.157,26.2912-62.3625,24.1689-96.4684,.381-2.2549-.3097-2.6536-2.072-1.1963-58.5739,34.9594-96.4601,95.907-126.6998,155.2111-7.5201,14.748-14.8082,30.0893-20.0039,45.8417-4.3106,13.0689-8.0267,27.5228-3.6071,41.1139,8.0011,24.6052,40.2581,24.4697,61.3255,24.7756,32.8835,.4775,65.62-4.975,96.705-15.6465,3.87-1.3286,7.2684-6.9727,9.3458-9.8234,6.2098-8.5212,11.8288-17.7577,17.0513-26.8977,5.254-9.1951,10.5501-18.4921,14.7685-28.2158l2.7295-6.5491c1.2632-2.0737,1.6316-4.2258,1.105-6.4563-30.4945,10.4688-62.5922,15.932-94.8542,15.6673-24.0408-.1973-59.7514-.4793-64.5324-30.8107l.2323,1.9902c-.9445-8.1105,.2551-16.104,2.416-23.9287-.9954,3.6044,.9406-2.6936,1.1664-3.3225,.5432-1.513,1.1193-3.0139,1.7057-4.5105,.3936-1.0028,.7934-2.0032,1.1993-3.0011-1.7083,4.0598-1.9965,4.7539-.8645,2.0822,.6481-1.4746,1.2819-2.9551,1.9431-4.4239,1.1571-2.5701,5.1328-9.9164-.5349,.9649,.9856-1.8921,1.9244-3.818,2.8783-5.7267-6.4878,12.9817-3.4803,6.7157-1.9724,3.8954-4.5659,8.107-5.7327,10.1964-3.5005,6.2681,.528-.921,1.0616-1.8387,1.6008-2.7531-4.7883,7.9875-6.0085,10.0521-3.6608,6.1938,2.1718-3.4971,1.0923-1.8137-3.2385,5.0503,.8733-1.3203,1.7332-2.6511,2.5975-3.9773,3.2574-4.9982-5.7798,8.1932-.6852,1.0324,1.0649-1.4968,2.1468-2.9814,3.2437-4.4549,4.0021-5.3762-3.3841,4.1889-.0106,.0292,1.3148-1.6212,2.6041-3.2616,3.9377-4.8679,2.3237-2.7988,4.7065-5.5485,7.1499-8.2435,.6958-.7674,1.3964-1.5304,2.1018-2.289q-1.4295,1.505,.0015,.0144c1.0862-1.1022,2.1607-2.2153,3.2571-3.3075,2.7298-2.7192,5.5252-5.372,8.3835-7.9558,11.101-10.035,23.1505-18.9455,35.9995-26.6143l-2.072-1.1963c.9213,14.8049-.4725,29.6124-4.0205,44.0133-.4839,1.9642-1.0059,3.9186-1.5626,5.8635,.7652-2.6735-.4562,1.3618-.7195,2.1491-.5486,1.6403-1.1235,3.2723-1.7234,4.8944-.4041,1.0927-2.8371,7.161-1.1725,3.1481,1.6739-4.0353-.64,1.2985-1.0507,2.2493-1.4361,3.3252,2.4606-4.7882,2.1024-4.3578-.4817,.5787-.8194,1.6206-1.1524,2.3001-1.9047,3.8864,3.5694-6.827,2.9943-5.7464,7.1628-13.4589,5.0348-8.8434,3.3401-5.9751-.8257,1.3974,6.4309-10.6609,3.9417-6.6312-2.5041,4.0539,5.7248-8.7192,3.0488-4.7928-.453,.6646-1.0465,1.387-1.3999,2.108-.2874,.5862,4.9537-6.998,2.7425-4.0498-.6263,.835-4.0821,5.4713-1.3779,1.9719s-.8458,1.0351-1.5019,1.8444c-1.2387,1.5279-2.5,3.0374-3.7839,4.5276-1.2792,1.4847-2.6279,2.9099-3.9058,4.3946-1.3503,1.5688,.1069-.079,.3416-.3282-.5734,.6086-1.159,1.2065-1.743,1.8049-2.5247,2.5867-5.115,5.1093-7.7657,7.5667-10.3086,9.557-21.5054,18.1289-33.2285,25.8748-14.231,9.4029-29.2057,17.6513-44.8224,24.5152l1.8397-.7939c-36.0441,15.5505-75.9103,23.08-114.5712,13.4491-2.5708-.6404-9.2207,9.6518-9.3458,9.8234-6.2098,8.5212-11.8288,17.7577-17.0513,26.8977-1.6041,2.8074-21.5407,40.4893-18.6029,41.2211h0Z"/>
      <path class="cls-24" d="M5319.5765,1825.8202c122.8181-37.9465,234.3573-107.4775,325.696-197.5933,27.3265-26.9606,52.9628-55.6074,76.7684-85.7188,12.6607-16.0144,23.1877-34.2158,32.1824-52.5127,2.5257-5.1377,8.4441-13.5126,8.0111-19.2542-.3328-4.4133-3.8015,.6258-5.2711,2.1949-25.9234,27.6772-45.7329,62.2295-62.6345,95.9151-12.4106,24.7349-22.7097,50.5963-27.5781,77.9434-7.1428,40.1229-7.6214,103.2894,42.583,114.2946,19.8223,4.3452,40.8688,.0107,59.9026-5.8863,22.9643-7.1147,45.5157-15.8154,67.6169-25.2503,45.9412-19.612,90.0308-43.4031,131.6604-71.0127,48.1083-31.9064,92.7669-68.7315,133.7113-109.4022,12.8349-12.7492,21.9526-30.5442,30.3996-46.3676,4.2044-7.876,8.7248-15.8714,11.6557-24.3244,.3356-.9678,3.0906-9.1185-.7348-5.6624-26.3961,23.8484-46.0958,53.9534-63.761,84.5744-18.0952,31.3663-34.4153,64.386-42.5265,99.8786-10.3212,45.1629-3.7191,109.1649,52.7687,116.4668,23.0258,2.9764,46.5122-3.3702,68.0725-10.9176,26.7859-9.3766,53.1566-19.9887,79.1638-31.3365,53.6091-23.3913,105.4806-50.7394,155.1882-81.5586,56.9893-35.3339,111.0174-75.2627,161.8687-118.9546l38.1214-72.9633c-21.0729,23.2508-40.9057,47.1601-57.9012,73.6028-21.8493,33.9947-44.6232,71.6624-53.2976,111.7159-9.7598,45.0655,1.799,102.7612,51.6608,117.5243,23.9474,7.0904,49.8982,3.3175,73.7898-2.0488,26.4285-5.9361,52.4932-13.6265,78.0001-22.7293,50.2935-17.9484,98.5825-41.5364,143.8059-69.9178,54.0085-33.8949,103.4715-74.6032,147.787-120.4108l1.9947-12.2114c-21.579,45.8477-45.7252,96.1785-42.4041,148.208,2.5705,40.2715,21.1357,86.0309,65.3073,94.0207,23.9945,4.3402,48.9418-1.7905,72.3238-6.9457,24.1614-5.3271,48.0979-11.6674,71.7369-18.9702,47.2003-14.5815,93.2171-33.0178,137.5582-54.7879,51.8068-25.4355,101.1545-55.6059,147.7295-89.6681,4.8967-3.5812,9.5594-11.8665,12.6691-16.5649,6.3524-9.5978,12.3116-19.6517,17.7304-29.8027,4.2044-7.876,8.7248-15.8714,11.6557-24.3244,.4516-1.3025,3.2687-8.5902-.7348-5.6624-79.0491,57.8119-166.2676,104.2669-259.1299,135.6058-22.9127,7.7325-46.1315,14.5543-69.5881,20.4342-23.0593,5.7803-46.8237,11.9476-70.5905,13.7451-21.6759,1.6394-43.4707-2.3338-59.9532-17.3581-13.9003-12.6705-22.4225-30.4131-27.1318-48.3852-13.8787-52.9651,7.9429-104.2877,30.1526-151.4756-.466,.9902,6.7822-17.1601,1.9947-12.2114-70.9469,73.3356-155.6658,133.9617-249.7874,173.8681-43.6035,18.4873-90.5968,34.9857-137.6664,41.6487-21.6335,3.0624-44.9185,3.0772-64.8686-6.9577-19.6429-9.8804-32.3131-28.3657-38.0158-49.2329-6.3091-23.086-5.1132-50.1165,3.1858-72.5981-.6119,1.6576,3.1831-8.5984,2.8099-6.8928-1.6487,7.5334-8.7018,15.876-12.8004,22.6142,5.8081-9.5486-3.8718,4.7485,2.8685-4.1425,1.4515-1.9146,2.7863-3.7201,4.27-5.6077,9.4061-11.9662,19.7014-23.2378,29.9168-34.5089,12.2566-13.5234,21.3216-31.7234,29.6914-47.7446,3.2974-6.3118,6.8268-12.8136,9.1648-19.5563,.3615-1.0426,3.1446-8.9956-.7348-5.6624-81.4333,69.9682-171.186,130.1963-267.588,177.5705-45.3019,22.2624-92.8702,44.2994-141.5824,58.0096-19.4782,5.4822-40.9289,9.072-60.8527,3.7658-20.8719-5.5588-35.8683-21.4588-42.5997-41.7159-8.3956-25.265-4.9377-53.9388,2.276-79.0656,1.8017-6.2759,4.1157-12.3516,6.4195-18.4533-.1268,.336,3.6668-5.9563,.2992-.8395-2.6144,3.9724-4.5954,8.429-7.0992,12.4943-.4214,.6841-7.1981,9.497-1.5671,2.7706,.232-.2771,3.6349-4.4312,4.9713-5.9805,4.316-5.0037,9.0065-9.5716,13.9077-13.9997l41.3205-76.3544c-65.1648,64.7294-139.974,119.6607-222.2994,160.5728-38.1553,18.9615-79.1323,37.5158-120.7776,47.2859-17.4159,4.0859-36.6705,6.1312-53.8458-.0975-18.7774-6.8098-30.1203-23.1672-34.7081-42.1103-5.9343-24.5028-3.1791-51.9253,2.3837-76.25,2.5479-11.1412,6.7872-21.2243,10.4347-31.3136-1.519,4.2017-6.0491,11.6205-6.9546,13.1859-2.1843,4.1029-4.6368,8.0273-7.3574,11.7732-1.3629,1.9024-.959,1.3354,1.2114-1.7012,2.133-2.7812,6.973-8.3521,10.4088-12.0203l34.9223-69.5721c-78.7745,99.6408-179.2293,182.3255-294.2112,236.8431-31.7652,15.0612-64.5912,27.7224-98.1755,38.0988-3.8065,1.1761-7.4015,7.1553-9.3458,9.8234-6.2098,8.5212-11.8288,17.7577-17.0513,26.8977-5.261,9.2073-10.4603,18.5174-14.7685,28.2158-.5368,1.2085-4.6012,13.2423-3.8344,13.0054h0Z"/>
      <path class="cls-3" d="M577.5149,1360.76c7.7688-7.8161,16.6638-14.0066,26.7503-18.4551l-1.8397,.7939c35.3258-14.7479,75.7976-5.4598,109.1099,10.3246,35.0242,16.5955,66.5553,41.2471,95.19,67.0925,60.7452,54.8279,110.6896,120.1376,166.7591,179.4723,27.8254,29.4459,57.2436,57.6111,89.9356,81.6445,35.8141,26.3286,75.1744,47.5989,116.4449,64.0364,83.3983,33.2165,173.2424,46.63,262.5635,49.6939,103.2089,3.5403,206.2194-5.8641,309.278-9.6621,12.7891-.4713,25.5812-.8497,38.3761-1.1219,3.1671-.0674,8.4558-8.6022,9.3458-9.8234,6.2098-8.5212,11.8288-17.7577,17.0513-26.8977,5.254-9.1951,10.5501-18.4921,14.7685-28.2158,.4939-1.1386,5.338-13.0374,3.8344-13.0054-106.3523,2.2621-212.4606,12.7812-318.8996,11.4474-93.1691-1.1675-187.1038-12.0851-275.0687-44.1622-43.2426-15.7687-84.6665-36.5955-122.4692-62.9133-34.6911-24.1515-65.7593-53.0012-94.9437-83.4779-58.0025-60.5708-108.9766-127.9286-171.2893-184.3355-29.6659-26.8542-62.5062-52.5894-99.1415-69.2284-34.5954-15.7125-75.9744-23.67-111.4704-6.2734-8.5992,4.2145-16.2259,9.9324-22.9647,16.7122-12.7833,12.8612-21.927,30.4961-30.3996,46.3676-4.2044,7.876-8.7248,15.8714-11.6557,24.3244-.2857,.8239-2.9487,9.3682,.7348,5.6624h0Z"/>
      <path class="cls-16" d="M3185.4769,1323.2055c-.9926,1.9659-1.9897,3.9293-2.9983,5.887-3.8013,7.3784,4.2389-7.9795,1.0554-2.0263-1.0337,1.933-2.0649,3.8672-3.1109,5.7937-1.0454,1.9255-5.7191,10.3269-1.1507,2.1681,4.527-8.0847,.209-.4006-.7616,1.2933-.9282,1.6201-1.863,3.2364-2.8042,4.8489-.6019,1.0312-1.3672,2.1266-1.8887,3.216-.5951,1.243,6.2048-10.3498,3.7377-6.2789-1.2853,2.1208-2.5628,4.2459-3.8613,6.3588-1.1342,1.8455-2.2814,3.6827-3.4276,5.5207-3.5573,5.7041,5.7514-8.9668,1.2926-2.0454-2.5027,3.8849-5.043,7.7457-7.6224,11.5802-.5149,.7654-1.0355,1.5271-1.5495,2.2931-2.4315,3.6235,4.5305-6.5517,2.0407-2.9708-1.2263,1.7637-2.447,3.531-3.6829,5.288-2.4668,3.507-4.9657,6.9916-7.4959,10.4532-2.5202,3.4479-5.2272,6.7871-7.6655,10.2907,.3689-.53,3.9038-5.059,.9707-1.2778-.5605,.7225-1.1187,1.4467-1.6799,2.1687-1.4953,1.9236-3.0005,3.8395-4.5154,5.7477-5.477,6.8991-11.0807,13.6976-16.8066,20.3916-5.5085,6.4399-11.1303,12.7827-16.8587,19.0278-1.4293,1.5582-2.8659,3.1096-4.3087,4.6553-.618,.6621-1.2357,1.3245-1.8573,1.9833,1.8256-1.935-.2669,.2719-.5362,.5523-3.1326,3.2613-6.2732,6.5138-9.4541,9.7282-47.971,48.4775-102.5034,90.293-161.1266,125.0786-32.8676,19.5029-67.0239,36.7712-102.1078,51.9186l1.8397-.7939c-88.9651,38.2064-183.3279,61.4043-279.2477,73.6225-109.9758,14.0086-221.238,13.8904-331.7871,8.0807-62.7133-3.2958-125.3107-8.4349-187.862-13.954-2.9158-.2573-8.7959,9.0688-9.3458,9.8234-6.2098,8.5212-11.8288,17.7577-17.0513,26.8977-5.254,9.1951-10.5501,18.4921-14.7685,28.2158-.5178,1.1937-5.5429,12.8546-3.8344,13.0054,101.1765,8.9271,202.5672,16.8778,304.1883,17.6,101.1081,.7185,202.5854-5.8385,301.8404-25.8461,80.7351-16.2744,159.2958-41.9297,233.3769-78.031,71.2374-34.7155,138.0014-78.955,196.585-132.4029,71.5657-65.2919,128.1393-143.5682,175.0508-228.0169,6.4605-11.63,12.6356-23.4233,18.6318-35.2987,1.2259-2.4279,8.8256-15.3331,8.0111-19.2542,.4197-1.9232,.0356-2.4543-1.1522-1.5933-1.8109,.6375-3.1839,1.9002-4.119,3.7881-12.9652,15.4796-23.1256,34.5757-32.1824,52.5127h0Z"/>
      <path class="cls-6" d="M2040.3669,889.954c54.0428-3.2506,108.7971-10.9668,157.3946-36.2812,20.6551-10.7592,39.7961-24.5473,56.09-41.2195,10.1519-10.3877,19.3618-21.5049,27.7376-33.3778,6.6053-9.3633,12.8659-18.9746,18.771-28.7939,10.4147-17.3181,20.9565-34.9571,28.3001-53.8331,2.39-6.1433,5.1923-14.1309,1.7082-20.4989-2.2893-4.1841-6.8222-5.5245-11.3337-5.2691-9.0802,.514-17.7404,6.2564-25.1596,11.0724-16.5129,10.7192-30.6994,24.7724-43.2578,39.8484-34.489,41.403-60.2788,89.8565-85.6483,137.1376-2.7923,5.2041-5.5861,10.4074-8.406,15.5966-1.3003,2.3928-2.6058,4.7828-3.9193,7.1684-.656,1.1914-1.3138,2.3818-1.9739,3.5709-3.7016,6.6673,2.7182-4.8696,3.1924-5.6969-1.5724,2.743-3.1132,5.5038-4.6951,8.2415-.4509,.7803-.9032,1.5597-1.357,2.3383-.4533,.7776-.9081,1.5543-1.3646,2.3301-2.2566,3.822-.9038,1.555,4.0585-6.801-1.388,2.3015-2.7716,4.605-4.1836,6.8919-.7036,1.1395-1.4152,2.2737-2.1242,3.4098-3.3369,5.3468,6.1686-9.5971,2.8987-4.5775-1.6928,2.5985-3.4184,5.1736-5.1305,7.7591,7.5389-11.3849,1.7686-2.5898-.1218,.0464-1.5295,2.1329-3.1315,4.2127-4.6656,6.3414,5.8896-8.1717-.1851,.1713-1.7191,2.0618-3.2549,4.0114-6.613,8.8529-10.5736,12.2094,3.5897-3.0422,.3822-.4067-.3381,.3339-.8934,.9187-1.795,1.8296-2.7051,2.7317-2.1192,2.1006-4.2892,4.1467-6.4942,6.1567-4.9789,4.5386-9.027,11.062-12.6691,16.5649-6.3524,9.5978-12.3116,19.6517-17.7304,29.8027-4.1853,7.8403-8.8824,15.8597-11.6557,24.3244l-1.3372,4.4661c-.381,2.2549,.3097,2.6536,2.072,1.1963l1.7301-.7494-1.8397,.7939c30.6313-13.1291,62.6095-23.4299,95.324-29.8998,7.3001-1.4437,15.2978-2.6493,22.3381,.5167,5.5607,2.5006,9.4578,7.3838,12.1723,12.703,6.2999,12.3451,8.1017,27.3374,9.7632,40.9168l-.2323-1.9902c3.0851,26.7006,2.0379,53.7878-3.1711,80.1618-1.2803,6.4822-2.8085,12.9145-4.5857,19.2785-.2198,.7937-.4447,1.5859-.6748,2.3767,.4814-1.5728,.5343-1.7478,.1588-.5251-.4957,1.5667-.9815,3.136-1.4955,4.6969-1.0254,3.1139-2.112,6.2068-3.2607,9.2774-.5728,1.5312-1.1608,3.0564-1.7643,4.5758-2.2945,5.7762,1.3402-2.999,.2389-.5185-.6604,1.4876-1.2985,2.9846-1.9709,4.4671-3.0193,6.6564,2.875-5.7703,1.1799-2.362-.8146,1.638-3.882,7.5874-.0589,.294,5.8526-11.165-4.5983,8.0988,2.3574-4.2946,7.0334-12.5317-4.5907,7.5819,2.7734-4.772,2.5249-4.2098,2.9928-5.0043,1.4038-2.3836-2.1745,3.5027-1.1063,1.8337,3.2046-5.0071-6.2335,9.7505-12.2303,19.6148-17.7304,29.8027-4.094,7.5833-8.9428,16.0442-11.6557,24.3244-.469,1.4314-3.3178,8.4075,.7348,5.6624,5.2084-3.5281,9.4913-11.594,12.6691-16.5649,35.1412-54.9687,65.619-114.6571,68.6066-180.9824,1.0577-23.4812-.7285-47.7895-6.5646-70.6112-2.4395-9.5394-6.3993-20.6706-15.5756-25.7068-10.6923-5.8682-24.5899-1.2699-35.6131,1.2541-29.9268,6.8525-58.9836,16.7143-87.1412,28.911l-41.3205,76.3544c19.9207-18.159,36.1162-39.7035,51.2107-61.9168,17.8406-26.2544,33.6322-53.9114,48.8493-81.7466,5.2277-9.5626,10.3485-19.1829,15.5135-28.7794,2.5713-4.7774,5.1528-9.5495,7.7644-14.305,1.0831-1.9722,2.1743-3.9398,3.2656-5.9074,3.2964-5.9432-6.5599,11.6508-3.2106,5.7449,.8823-1.5558,1.7627-3.1125,2.6521-4.6642,1.3282-2.3172,2.6747-4.6235,4.0235-6.9288,3.4141-5.8351-6.898,11.4882-3.4034,5.7114,.6853-1.1328,1.368-2.267,2.0585-3.3967,.6882-1.1259,1.3805-2.2492,2.0776-3.3695l.697-1.1168c2.1433-3.4084,.9225-1.491-3.6624,5.752,1.4201-2.1929,2.8306-4.3912,4.2786-6.566,.7198-1.0811,1.4545-2.1522,2.1761-3.232-6.92,10.356-3.8143,5.5489-2.2205,3.2827,1.4777-2.1011,2.9795-4.1854,4.5085-6.2496,1.1984-1.618,4.3961-5.5242-1.2335,1.5641,.7897-.9943,1.5548-2.0086,2.3429-3.0044,1.5671-1.9801,3.1624-3.9379,4.7888-5.8696,1.8822-2.2357,3.8052-4.4371,5.7727-6.5982,.7441-.8173,3.0383-4.0917,.1956-.2507,.9505-1.2843,2.3368-2.4162,3.4686-3.5434,3.7808-3.7655,7.7181-7.3752,11.8212-10.7873,8.7058-7.2397,18.3345-14.1042,28.6786-18.8041l-1.8397,.7939c8.4775-3.4845,20.107-4.1868,22.0742,7.1487l-.2323-1.9902c.0755,1.7343-.2754,3.2026-.3207,4.9043,.2603-9.7843,19.8264-38.1863,13.7863-27.684-2.5171,4.3767,7.1718-11.9189,2.8062-4.7183-2.4839,4.097,6.1564-9.489,2.7282-4.3382-3.5829,5.3832,5.375-7.4353,1.5329-2.255-.7918,1.0676-1.5726,2.1461-2.3513,3.2231-1.9934,2.7568,3.9438-4.9764,.9164-1.2212-.9958,1.2352-1.9835,2.4745-2.9985,3.6941-1.8534,2.2269-3.7578,4.4109-5.7081,6.5534-.9922,1.09-2.3686,2.4817-.5665,.6345-1.0977,1.1253-2.1925,2.2514-3.3083,3.3588-4.0732,4.0428-8.3216,7.909-12.7151,11.6008-17.3443,14.5745-36.9454,26.2497-57.7152,35.2326l1.8397-.7939c-43.9669,18.6956-91.6765,24.7969-139.001,27.6434-3.2579,.196-8.3254,8.4233-9.3458,9.8234-6.2098,8.5212-11.8288,17.7577-17.0513,26.8977-5.254,9.1951-10.5501,18.4921-14.7685,28.2158-.4895,1.1284-5.2549,13.0908-3.8344,13.0054h0Z"/>
      <path class="cls-5" d="M2342.4207,960.4559c-47.4859,6.9925-93.3085,24.0249-134.3923,48.7677-43.8209,26.3911-84.067,62.013-113.4551,104.0279-17.2112,24.606-32.8459,50.9207-45.0576,78.3784-6.2033,13.9482-11.711,28.8301-12.3281,44.2439-.9333,23.3156,8.9788,45.019,26.5725,60.183,19.4749,16.7853,44.9988,22.5695,69.9478,25.2388,28.1469,3.0114,56.5865,4.09,84.8838,3.9613,64.8483-.295,129.5506-8.1944,192.6241-23.2263,3.6628-.8729,7.6746-7.5301,9.3458-9.8234,6.2098-8.5212,11.8288-17.7577,17.0513-26.8977,5.254-9.1951,10.5501-18.4921,14.7685-28.2158,.5007-1.1542,4.8128-13.2385,3.8344-13.0054-55.2423,13.1656-111.7263,20.8727-168.4901,22.77-28.3097,.9462-56.6671,.4504-84.927-1.4749-26.1222-1.7797-53.5466-3.6996-77.2281-15.9203-22.4171-11.5681-39.3469-32.7421-42.7018-58.043l.2323,1.9902c-.8879-8.1811-.5028-16.3655,1.1623-24.4275,.3865-1.8714,.8993-3.7054,1.343-5.5625,.4787-2.0038-.0642,.222-.1696,.5327,.3528-1.0404,.6887-2.0847,1.0581-3.1194,.3525-.9875,.9332-2.0957,1.1603-3.094,.0361-.1588-2.4025,5.4299-1.1402,2.7202,.6323-1.3572,2.3637-5.0843-.236,.3374-1.3899,2.8582-1.6829,3.481-.8791,1.8683,.9326-1.8488,.4869-1.0019-1.3372,2.5404-2.5609,4.917-5.2848,9.734-8.1309,14.4911-4.2105,7.0376-2.2875,3.7988-1.3338,2.2589-7.0205,11.3353-4.6619,7.2779-3.0507,4.8373,1.3324-2.0182,3.9134-4.9331-2.3236,3.3778,.6516-.8683,4.7033-6.278,1.7982-2.5742-2.8475,3.6303,1.8164-2.2624,2.4571-3.0478,2.4069-2.9503,4.8934-5.8329,7.4363-8.6667,1.3028-1.4518,2.6255-2.8849,3.941-4.3251,.3831-.4194,2.3569-2.521,.2238-.2628,.763-.8078,1.533-1.6091,2.3045-2.4088,22.6175-23.4433,48.1332-44.1006,75.865-61.1999,15.3106-9.4404,31.2853-17.7477,47.7802-24.9169l-1.8397,.7939c28.2266-12.1211,57.8294-20.688,88.2305-25.1647,3.4602-.5095,8.0168-7.9997,9.3458-9.8234,6.2098-8.5212,11.8288-17.7577,17.0513-26.8977,5.254-9.1951,10.5501-18.4921,14.7685-28.2158,.4882-1.1255,5.0504-13.1844,3.8344-13.0054h0Z"/>
      <path class="cls-19" d="M4391.8548,946.2853c58.8767,9.6934,119.4249-2.0683,171.7356-30.3444,26.8577-14.5177,53.8001-33.689,73.0881-57.611,15.4712-19.1882,27.9907-41.1214,39.1423-63.0134,5.5598-10.9146,11.8951-23.1922,13.2571-35.6023,1.2592-11.4739-2.9749-26.228-13.5132-32.3646-15.7369-9.1637-30.117,10.7257-38.0522,21.3863-12.5942,16.9198-23.7782,35.1721-34.7228,53.1768-21.6291,35.5814-41.6878,72.1459-59.9337,109.5777-30.1568,61.867-55.7889,125.7046-81.0279,189.6954-11.9038,30.1808-23.7795,60.3752-36.1962,90.3499-.4426,1.0684-.8939,2.1336-1.33,3.2046-.0519,.1273,2.2391-5.3546,1.0612-2.5469-.7825,1.8653-1.5617,3.7319-2.3463,5.5963-1.568,3.7264-3.1458,7.4488-4.7342,11.1666-3.1723,7.4251-6.3882,14.8315-9.6554,22.2153-3.2603,7.3683-6.5731,14.7134-9.9457,22.0311-1.6834,3.6526-3.3821,7.2983-5.097,10.9363-.7343,1.5579-1.4735,3.1134-2.2119,4.6694-.9956,2.0979-2.9035,5.9077,1.7153-3.5807-.5021,1.0314-.9959,2.0669-1.4958,3.0993-3.4953,7.2178-7.0657,14.3985-10.7025,21.5459-2.0685,4.0651-7.9833,13.9507-8.0111,19.2542-.0245,4.6796,4.343-1.0867,5.2711-2.1949,12.9844-15.5025,23.0581-34.5811,32.1824-52.5127,34.7995-68.3905,63.2877-139.6629,91.415-210.9832,6.695-16.9759,13.384-33.9543,20.1693-50.8943,3.4397-8.5874,6.9038-17.165,10.4061-25.727,1.53-3.7404,3.0673-7.4779,4.613-11.212,.4413-1.0662,.8844-2.1316,1.3261-3.1976,1.7954-4.3331-.494,1.2696-.7331,1.7577,1.1334-2.3134,2.0106-4.8003,3.012-7.1746,7.0328-16.6753,14.2646-33.2677,21.7956-49.7244,1.7862-3.9032,3.5898-7.7984,5.4114-11.6852,.8491-1.8118,1.7018-3.6219,2.559-5.4298,.4883-1.0299,.9612-2.0761,1.4726-3.0957-.7796,1.5544-3.868,8.049-1.3488,2.8344,3.8425-7.9537,7.7687-15.8671,11.7913-23.7314,.9466-1.8506,5.3308-10.2815,1.425-2.8102-3.9325,7.5223,.5597-1.0423,1.4806-2.7722,2.3995-4.5078,4.8334-8.9973,7.3041-13.4666,.4114-.7442,.8257-1.4867,1.2375-2.2306,2.5525-4.6107-6.2614,11.1192-2.9329,5.2504,1.2572-2.2167,2.5167-4.4318,3.7893-6.6397,1.2717-2.2064,2.5527-4.4074,3.844-6.6025,.5736-.9751,1.1555-1.9455,1.7268-2.9219-.4027,.6882-6.8388,11.4291-3.0707,5.1853,2.4822-4.1132,5.0187-8.1915,7.5558-12.2708,3.1933-5.1346-3.2461,5.0558-3.0484,4.7874,.8324-1.1299,1.527-2.3861,2.2879-3.5645,1.3783-2.1347,2.7671-4.2625,4.1671-6.383s2.8239-4.2241,4.2336-6.3378c2.1306-3.1947-3.3711,4.9077-2.894,4.2329,3.381-4.7827-3.8552,5.3102-.4636,.5476,.1335-.1874,1.8307-2.2443,.4774-.6691-1.4945,1.7395,1.3212-1.2503,1.6824-1.562,1.8774-1.6202,3.8714-2.9311,6.0881-4.0449l-1.8397,.7939c15.6023-6.5055,26.344,9.304,28.4424,22.9464l-.2323-1.9902c.284,2.4594,.4062,4.9057,.1889,7.377-.106,1.2053-.2791,2.4015-.5069,3.5899-.1683,.8784-1.7572,4.8062-.3149,1.7242l-.5393,1.4904c3.2548-8.2172,7.4322-15.9859,12.5322-23.3061,3.6191-7.7605,7.8511-15.1428,12.696-22.1468,1.2489-1.9441,2.6032-3.8125,4.0629-5.605-.9708,.7525-1.7293,2.1069-2.5341,3.0309-.9646,1.1074-2.3308,2.5312-.5344,.6747-8.056,8.3256-17.0311,15.8534-26.2198,22.8917-18.1937,13.9359-38.0431,25.5685-59.0328,34.7556l1.8397-.7939c-46.5857,20.0721-98.1056,27.2845-148.2646,19.0264-2.7475-.4523-9.0086,9.3607-9.3458,9.8234-6.2098,8.5212-11.8288,17.7577-17.0513,26.8977-5.254,9.1951-10.5501,18.4921-14.7685,28.2158-.5431,1.2518-5.66,12.7048-3.8344,13.0054h0Z"/>
      <path class="cls-25" d="M6114.3476,1090.7181c16.5951-11.9739,34.4004-22.0298,53.1711-30.1725l-1.8397,.7939c61.8993-26.4389,130.3631-30.6117,196.8008-26.3522,76.0788,4.8776,150.9831,21.0094,227.169,24.8079,44.0191,2.1947,88.3235,.0616,131.2783-10.342,3.6711-.8891,7.6597-7.5097,9.3458-9.8234,6.2098-8.5212,11.8288-17.7577,17.0513-26.8977,5.254-9.1951,10.5501-18.4921,14.7685-28.2158,.5016-1.1562,4.8022-13.2398,3.8344-13.0054-86.9825,21.067-176.627,7.6055-263.9032-4.1416-76.1983-10.256-154.3029-18.9034-230.3958-2.9962-41.5584,8.6878-81.454,25.0934-115.96,49.9905-4.8837,3.5237-9.5942,11.919-12.6691,16.5649-6.3524,9.5978-12.3116,19.6517-17.7304,29.8027-4.1853,7.8403-8.8824,15.8597-11.6557,24.3244-.4337,1.3238-3.2887,8.5654,.7348,5.6624h0Z"/>
      <path class="cls-18" d="M4644.7428,1104.8291c4.9102-3.749,10.1521-6.8652,15.7905-9.3885l-1.8397,.7939c16.9144-7.1901,35.9122-8.2436,53.5111-2.8792,8.7574,2.6694,17.0244,6.876,24.3215,12.4072,7.9852,6.0528,16.1412,13.9351,17.9257,24.1972l-.2323-1.9902c.106,1.2495-.2309,2.8497,.0348,3.9978-.1839,1.0506-.1179,1.0792,.198,.0858,.4729-1.1996,.3769-.9663-.2881,.6999l6.6738-14.7881,13.9942-23.0614c15.389-22.3545,19.8854-29.8495,13.4892-22.4851-1.4121,1.5336,.4447-.4431,.6111-.612-1.2872,1.3067-2.5877,2.5996-3.9081,3.8727-2.4438,2.3562-4.9468,4.6502-7.4947,6.8933-5.2769,4.6454-10.7523,9.0611-16.3111,13.3632-10.6839,8.2688-21.6928,16.1079-32.3627,24.395-11.7066,9.0923-22.6759,18.8351-32.7677,29.7035-20.1186,21.6668-35.5372,48.1116-49.1441,74.1575-13.5584,25.9529-34.2578,68.4398-5.6712,92.5854,9.0271,7.6247,20.9401,10.8457,32.4344,12.3434,14.977,1.9514,30.4003,1.8196,45.4653,1.3041,37.3514-1.2782,74.3649-7.9497,109.9141-19.4389,3.8334-1.2389,7.3463-7.0796,9.3458-9.8234,6.2098-8.5212,11.8288-17.7577,17.0513-26.8977,5.254-9.1951,10.5501-18.4921,14.7685-28.2158l2.7295-6.5491c1.2632-2.0737,1.6316-4.2258,1.105-6.4563-31.0799,10.0448-63.2746,16.4294-95.8677,18.7086-15.8985,1.1118-31.8698,1.2703-47.7858,.4364-11.7713-.6168-23.8923-2.123-34.6348-7.2809-13.0625-6.2717-21.3049-17.8747-23.2193-32.2099l.2323,1.9902c-.5692-5.6062-.3255-11.1973,.6802-16.7407,.2803-1.5448,.6775-3.0566,.9949-4.5921,1.0191-4.93-1.2977,3.1522,.4482-1.5911,.3646-.9905,.7138-1.9901,1.0721-2.9827,1.0632-2.692,.757-1.9738-.9188,2.1547,1.4865-3.2515,.8486-1.9301-1.9137,3.9642-5.0073,10.1859-10.9102,20.4974-17.2644,29.9787,.0412-.0614-5.6223,8.0044-2.4727,3.6642,3.4372-4.7365-4.1653,5.0758-.4712,.5724,1.0001-1.2191,1.9775-2.4543,2.9966-3.6582,1.6861-1.9919,3.4171-3.9485,5.2033-5.8511-2.822,3.0057,.7717-.7271,1.1346-1.0892,1.1004-1.0983,2.2145-2.183,3.34-3.2554,16.9294-16.1308,36.4519-29.1483,54.8749-43.4493,9.4738-7.3542,18.6978-15.0748,27.0966-23.6515,10.9614-11.1936,19.3429-24.421,27.3323-37.8394,6.963-11.6945,13.7557-23.5918,19.2805-36.0489,2.2489-5.0707,5.249-11.3598,5.5801-17.0769,.7252-12.5192-9.0429-22.3768-18.2788-29.3753-8.2239-6.2316-17.6739-10.7798-27.6659-13.3496-23.4221-6.0239-48.6113-.6444-67.7969,14.0041-4.9334,3.7667-9.4491,11.6997-12.6691,16.5649-6.3524,9.5978-12.3116,19.6517-17.7304,29.8027-4.1853,7.8403-8.8824,15.8597-11.6557,24.3244-.4024,1.2282-3.2546,8.7083,.7348,5.6624h0Z"/>
      <path class="cls-21" d="M6712.1053,819.9641c3.1177,0,8.5251-8.6972,9.3458-9.8234,6.2098-8.5212,11.8288-17.7577,17.0513-26.8977,5.254-9.1951,10.5501-18.4921,14.7685-28.2158,.4973-1.1464,5.3812-13.0054,3.8344-13.0054-3.1177,0-8.5251,8.6972-9.3458,9.8234-6.2098,8.5212-11.8288,17.7577-17.0513,26.8977-5.254,9.1951-10.5501,18.4921-14.7685,28.2158-.4973,1.1464-5.3812,13.0054-3.8344,13.0054h0Z"/>
      <path class="cls-4" d="M5926.0315,622.1398c51.1325-35.5851,96.6441-79.189,135.2087-128.0815,25.8586-32.7836,48.7985-67.604,70.0083-103.5461,20.3927-34.5575,39.0052-70.4452,54.5023-107.4769,14.601-34.8903,26.6844-70.6635,35.4833-107.4699,.381-2.2549-.3097-2.6536-2.072-1.1963-9.945,9.7331-18.9261,20.2148-27.0027,31.5506-16.3318,22.9224-31.026,47.882-42.351,73.6681-9.0574,20.623-14.6107,44.1522-.973,64.2089,9.4691,13.926,25.4603,21.6352,41.1881,26.2149,18.9746,5.5252,38.9355,6.9921,58.5344,8.6856,95.8839,8.2851,192.8072,4.0343,287.6361-12.3477,47.4675-8.2002,94.4104-19.4507,140.4325-33.6769,11.5916-3.5832,23.1248-7.3549,34.5932-11.3149,9.1911-3.1737,20.026-5.7901,27.4668-12.3872,3.9594-3.5105,7.1522-7.9403,10.2603-12.184,8.835-12.0631,16.6342-25.393,23.6537-38.5425,4.406-8.2538,8.8536-16.5899,12.1763-25.3511,1.206-3.1798,2.4515-6.7026,2.425-10.1722-.0273-3.5596-.7872-7.648-3.2396-10.3807-1.1214-1.2495-2.7308-2.3997-4.4407-2.5932-2.8417-.3216-4.6628,2.3853-6.4929,4.2116-67.3601,67.2257-125.2966,142.6374-175.982,223.077-53.8387,85.4441-99.9438,176.6285-133.8666,271.8325-3.5892,10.0729-7.03,20.1973-10.3416,30.3648-.4403,1.3518-3.3302,8.0377,.7348,5.6624,2.0009-1.886,3.7851-3.9561,5.3526-6.2103,2.6156-3.3236,5.0544-6.7752,7.3165-10.3546,6.3194-9.6725,12.2895-19.6103,17.7304-29.8027,4.1832-7.8364,8.8985-15.859,11.6557-24.3244,5.4024-16.5865,11.1623-33.0544,17.3096-49.3798,2.9725-7.8942,6.0325-15.7554,9.179-23.5819,1.5729-3.9122,3.1772-7.8112,4.7834-11.7098,1.1552-2.8039-1.1814,2.8278-1.1069,2.6579,.4511-1.0286,.8711-2.0735,1.3085-3.1083,.9847-2.3296,1.9774-4.6558,2.9775-6.9788,3.3328-7.7414,6.7508-15.4461,10.2531-23.1123,1.7506-3.832,3.522-7.6544,5.3146-11.4669,.8364-1.7789,1.6812-3.5538,2.5232-5.3301,1.816-3.831-3.6097,7.4959-1.7603,3.6811,.6124-1.2632,1.2209-2.5284,1.8349-3.7909,3.6833-7.5729,7.4497-15.1053,11.2981-22.5956,1.026-1.9969,2.0705-3.9842,3.0954-5.9816,.1643-.3202-5.4638,10.4009-2.6377,5.0624,.3938-.7439,.7857-1.4889,1.1797-2.2327,2.1008-3.9667,4.2247-7.9212,6.3716-11.8631,2.2005-4.0402,10.1318-18.0909,1.077-2.0787,2.2085-3.9054,4.412-7.8131,6.6523-11.7004,1.9597-3.4004,3.9368-6.7909,5.9311-10.1711,.5693-.9649,1.1542-1.9234,1.7134-2.8944,.3459-.6005-6.8758,11.4934-3.5348,5.9478,1.157-1.9204,2.3121-3.8418,3.4768-5.7575,2.1833-3.5913,4.3861-7.1707,6.6085-10.738,1.0369-1.6645,2.0812-3.3242,3.1232-4.9855,3.2069-5.1129-3.274,5.1221-3.0704,4.8227,.7866-1.1566,1.5069-2.3631,2.262-3.5403,4.6862-7.3063,9.455-14.5596,14.3059-21.7576,1.095-1.6248,2.2003-3.2427,3.2977-4.8659,2.1041-3.112-3.2442,4.7016-2.793,4.0703,.6501-.9096,1.2693-1.8454,1.9053-2.7655,2.5455-3.6828,5.1122-7.351,7.7006-11.0038,5.0129-7.0744,10.1066-14.0915,15.2795-21.0497,2.3353-3.1413,4.6974-6.2619,7.0541-9.3871,2.1588-2.8628-3.4422,4.479-1.2547,1.6384,.6821-.8858,1.3617-1.7736,2.0445-2.6588,1.3654-1.7704,2.7361-3.5367,4.112-5.2989,5.3296-6.8263,10.7372-13.5916,16.2221-20.2937,12.0205-14.6879,24.4115-29.0728,37.1614-43.1322,3.3723-3.7187,6.7698-7.4147,10.1921-11.0875,.6531-.7009,4.7711-5.0817,2.5263-2.7071,1.7236-1.8233,3.4549-3.6393,5.1914-5.4503,6.751-7.0402,13.5994-13.9855,20.5295-20.8494l-1.8397,.7939c5.2812,.5631,7.794,5.0597,8.4725,9.9234l-.2323-1.9902c.0596,.9897-.0058,1.9574-.0105,2.9432-.0066,1.3791-1.2428,3.5511,.3309-.5261l6.6738-14.7881-.5206,1.0267,16.9447-30.2564,14.9223-21.2886-1.0547,.9136c-.9752,.6529-1.8757,1.3985-2.8801,2.0182-1.8373,1.1336-3.7824,2.0431-5.7591,2.9038l1.8397-.7939c-19.5404,7.9831-40.1386,14.014-60.3451,20.0588-20.5498,6.1475-41.2778,11.7003-62.1467,16.6573-41.7042,9.9061-83.9741,17.426-126.5347,22.5205-85.0705,10.1828-171.6735,10.9805-256.8248,1.1623-32.5162-3.7492-74.8266-14.7971-80.3157-52.9639l.2323,1.9902c-.5698-5.1439-.4591-10.2762,.4261-15.3817,.2668-1.5387,.6194-3.0479,.9782-4.5668,.3829-1.6214,.5809-1.6724-.0128-.0629,.5366-1.4546,1.1975-3.001,1.6447-4.4822-1.2914,4.2776-3.7065,8.2881-5.7686,12.2179-3.2608,6.2145-6.6933,12.3714-10.3883,18.3381l-3.9677,6.2882c-3.4662,4.9904-4.3971,6.3575-2.7927,4.1012,.3211-.4559,.6481-.9077,.9807-1.3553,1.2377-1.678,.644-.9118-1.7814,2.2988,1.0199-.7739,1.8142-2.2801,2.6255-3.2607,1.7719-2.1417,3.6431-4.1876,5.4751-6.2762,1.3468-1.5355-1.5964,1.5514,.7613-.7894,1.1496-1.1414,2.2857-2.2953,3.4437-3.4285l-2.072-1.1963c-1.7105,7.1551-3.5301,14.283-5.4867,21.3749-.9079,3.2906-1.8427,6.5738-2.8043,9.8491-.2219,.7557-.4443,1.5112-.6694,2.266,.2009-.6735,.9962-3.2563-.0281,.0573-.5426,1.7553-1.0833,3.5111-1.6363,5.2631-4.3422,13.7567-9.1596,27.3633-14.4351,40.7898-1.3392,3.4084-2.862,6.7712-4.1144,10.2104-.1032,.2833,2.3927-5.6798,1.2171-2.9208-.3081,.7232-.6102,1.449-.9173,2.1726-.8191,1.9294-1.6481,3.8546-2.4864,5.7757-1.3619,3.1212-2.7493,6.2313-4.1609,9.3303-1.3901,3.0517-7.542,15.8062-1.7179,3.8566-1.4912,3.0595-2.9748,6.1218-4.4986,9.1654-.8203,1.6383-1.6471,3.2733-2.4814,4.9046-.8903,1.7409-4.2229,8.1387-.3978,.8088,3.8037-7.2889,.5007-.9878-.4483,.7812-.742,1.3832-1.4888,2.7639-2.2408,4.1417-.9969,1.8266-4.7813,8.6081-.1149,.2745,4.6248-8.2593,.6315-1.1435-.5544,.9263-.78,1.3612-1.5649,2.7196-2.3548,4.0751-.5265,.9036-1.0594,1.8034-1.5862,2.7068-2.3624,4.0515,5.0489-8.4366,4.12-6.9072-1.8995,3.1275-3.78,6.2657-5.7102,9.3745-.9534,1.5356-4.9831,7.9027-.4512,.7689s.4841-.7794-.4989,.7372c-1.9886,3.0679-4.0033,6.119-6.0438,9.1526-.8734,1.2984-4.8493,7.1226-.9423,1.4129,3.7394-5.4648,.3357-.514-.54,.7378-2.2435,3.2071-4.5159,6.394-6.8177,9.5595-1.994,2.7423-4.0102,5.4685-6.0475,8.1787-.6473,.8612-3.9725,5.2469-1.1564,1.5426,2.9086-3.826-1.3964,1.7808-2.1531,2.7475-8.8282,11.2774-18.0364,22.2569-27.6066,32.9119-2.4332,2.709-4.8904,5.3965-7.3704,8.0625-.808,.8686-3.2255,3.4067-1.0735,1.1564-1.4371,1.5029-2.87,3.0096-4.3166,4.5035-4.879,5.0387-9.8422,9.9956-14.8884,14.8668-23.3159,22.5071-48.4049,43.1315-75.0038,61.6427-4.8456,3.3723-9.6872,12.0595-12.6691,16.5649-6.3524,9.5978-12.3116,19.6517-17.7304,29.8027-4.1853,7.8403-8.8824,15.8597-11.6557,24.3244-.4539,1.3853-3.3064,8.4748,.7348,5.6624h0Z"/>
      <path class="cls-22" d="M6421.9311,884.2162c-49.0365,108.9825-83.6797,224.3722-101.2993,342.6207-4.8102,32.2822-8.3436,64.7441-10.6512,97.3003-.3543,4.9983,4.7838-1.6337,5.2711-2.1949,5.7559-6.6284,10.7069-14.8216,15.2377-22.2564,6.0103-9.8626,11.8477-19.888,16.9447-30.2564,2.8143-5.7249,7.5558-12.831,8.0111-19.2542,4.0487-57.1183,11.9324-113.9418,23.6635-169.9906,5.9223-28.2955,12.8138-56.3881,20.6603-84.2115,7.0547-25.0157,15.4637-51.3335,25.0267-78.054,5.3792-15.0302,11.0454-29.9577,16.9964-44.7708,1.6016-3.9866,3.2333-7.9606,4.8664-11.9344,2.4619-5.9903-2.4252,5.714,.1064-.2468,.8395-1.9767,1.6713-3.9566,2.5145-5.9318,3.2517-7.6169,6.5847-15.1982,9.9829-22.7508-.348,.7734,5.8286-11.854,3.8344-13.0054-1.9955-1.1521-9.8397,10.5139-9.3458,9.8234-12.2346,17.1044-23.1842,35.921-31.8198,55.1135h0Z"/>
    </g>
  </g>
</svg>