<?xml version="1.0" encoding="UTF-8"?>
<svg xmlns="http://www.w3.org/2000/svg" width="7473.97103" height="1905.63699" xmlns:xlink="http://www.w3.org/1999/xlink" viewBox="0 0 7473.97103 1905.63699">
  <defs>
    <style>
      .cls-1 {
        fill: url(#_称未設定グラデーション_27);
      }

      .cls-2 {
        fill: url(#_称未設定グラデーション_30);
      }

      .cls-3 {
        fill: url(#_称未設定グラデーション_22);
      }

      .cls-4 {
        fill: #ba3d04;
      }

      .cls-5 {
        fill: url(#_称未設定グラデーション_761-2);
      }

      .cls-6 {
        fill: url(#_称未設定グラデーション_3);
      }

      .cls-7 {
        fill: url(#_称未設定グラデーション_4);
      }

      .cls-8 {
        fill: url(#_規グラデーションスウォッチ_5);
      }

      .cls-9 {
        fill: url(#_規グラデーションスウォッチ_4);
      }

      .cls-10 {
        fill: url(#_規グラデーションスウォッチ_3);
      }

      .cls-11 {
        fill: url(#_称未設定グラデーション_761);
      }

      .cls-12 {
        fill: url(#_称未設定グラデーション_701);
      }

      .cls-13 {
        fill: url(#_称未設定グラデーション_743);
      }

      .cls-14 {
        fill: url(#_称未設定グラデーション_748);
      }

      .cls-15 {
        fill: url(#_称未設定グラデーション_740);
      }

      .cls-16 {
        fill: url(#_称未設定グラデーション_752);
      }

      .cls-17 {
        fill: url(#_称未設定グラデーション_758);
      }

      .cls-18 {
        fill: url(#_規グラデーションスウォッチ_3-3);
      }

      .cls-19 {
        fill: url(#_規グラデーションスウォッチ_3-2);
      }

      .cls-20 {
        fill: url(#_規グラデーションスウォッチ_5-2);
      }

      .cls-21 {
        fill: url(#_規グラデーションスウォッチ_4-5);
      }

      .cls-22 {
        fill: url(#_規グラデーションスウォッチ_4-6);
      }

      .cls-23 {
        fill: url(#_規グラデーションスウォッチ_4-2);
      }

      .cls-24 {
        fill: url(#_規グラデーションスウォッチ_4-3);
      }

      .cls-25 {
        fill: url(#_規グラデーションスウォッチ_4-4);
      }
    </style>
    <linearGradient id="_規グラデーションスウォッチ_5" data-name="新規グラデーションスウォッチ 5" x1="312.84205" y1="190.79554" x2="1500.79948" y2="190.79554" gradientTransform="matrix(1, 0, 0, 1, 0, 0)" gradientUnits="userSpaceOnUse">
      <stop offset=".00124" stop-color="#005f73"/>
      <stop offset=".99879" stop-color="#ee9b00"/>
    </linearGradient>
    <linearGradient id="_称未設定グラデーション_3" data-name="名称未設定グラデーション 3" x1="212.58632" y1="580.59174" x2="1383.22893" y2="580.59174" gradientTransform="matrix(1, 0, 0, 1, 0, 0)" gradientUnits="userSpaceOnUse">
      <stop offset=".00124" stop-color="#005f73"/>
      <stop offset=".99879" stop-color="#ee9b00"/>
    </linearGradient>
    <linearGradient id="_称未設定グラデーション_701" data-name="名称未設定グラデーション 701" x1="1312.68719" y1="555.07356" x2="1392.46434" y2="555.07356" gradientTransform="matrix(1, 0, 0, 1, 0, 0)" gradientUnits="userSpaceOnUse">
      <stop offset="0" stop-color="#ee9b00"/>
      <stop offset=".39501" stop-color="#ee9b00"/>
    </linearGradient>
    <linearGradient id="_称未設定グラデーション_4" data-name="名称未設定グラデーション 4" x1="22.18454" y1="861.15677" x2="1467.2342" y2="861.15677" gradientTransform="matrix(1, 0, 0, 1, 0, 0)" gradientUnits="userSpaceOnUse">
      <stop offset=".00124" stop-color="#005f73"/>
      <stop offset=".99879" stop-color="#ee9b00"/>
    </linearGradient>
    <linearGradient id="_規グラデーションスウォッチ_5-2" data-name="新規グラデーションスウォッチ 5" x1="323.1048" y1="1421.98115" x2="1044.83535" y2="1421.98115" xlink:href="#_規グラデーションスウォッチ_5"/>
    <linearGradient id="_規グラデーションスウォッチ_4" data-name="新規グラデーションスウォッチ 4" x1="5780.08015" y1="1065.50751" x2="6966.33839" y2="1065.50751" gradientTransform="matrix(1, 0, 0, 1, 0, 0)" gradientUnits="userSpaceOnUse">
      <stop offset="0" stop-color="#bb3e03"/>
      <stop offset="1" stop-color="#9b2226"/>
    </linearGradient>
    <linearGradient id="_規グラデーションスウォッチ_4-2" data-name="新規グラデーションスウォッチ 4" x1="5980.4647" y1="1108.67301" x2="6951.03133" y2="1108.67301" xlink:href="#_規グラデーションスウォッチ_4"/>
    <linearGradient id="_称未設定グラデーション_758" data-name="名称未設定グラデーション 758" x1="3111.35214" y1="832.68226" x2="3814.17262" y2="832.68226" gradientTransform="matrix(1, 0, 0, 1, 0, 0)" gradientUnits="userSpaceOnUse">
      <stop offset="0" stop-color="#ee9b00"/>
      <stop offset=".1135" stop-color="#ed9900"/>
      <stop offset=".98184" stop-color="#ca6702"/>
    </linearGradient>
    <linearGradient id="_規グラデーションスウォッチ_3" data-name="新規グラデーションスウォッチ 3" x1="3480.70421" y1="1653.74326" x2="5143.36947" y2="1653.74326" gradientTransform="matrix(1, 0, 0, 1, 0, 0)" gradientUnits="userSpaceOnUse">
      <stop offset="0" stop-color="#ca6702"/>
      <stop offset="1" stop-color="#bb3e03"/>
    </linearGradient>
    <linearGradient id="_称未設定グラデーション_740" data-name="名称未設定グラデーション 740" x1="3388.95362" y1="737.51523" x2="3666.49431" y2="737.51523" gradientTransform="matrix(1, 0, 0, 1, 0, 0)" gradientUnits="userSpaceOnUse">
      <stop offset="0" stop-color="#ee9b00"/>
      <stop offset=".98184" stop-color="#ca6702"/>
    </linearGradient>
    <linearGradient id="_称未設定グラデーション_743" data-name="名称未設定グラデーション 743" x1="3283.75075" y1="1012.81165" x2="3613.5329" y2="1012.81165" gradientTransform="matrix(1, 0, 0, 1, 0, 0)" gradientUnits="userSpaceOnUse">
      <stop offset="0" stop-color="#ee9b00"/>
      <stop offset=".98184" stop-color="#ca6702"/>
    </linearGradient>
    <linearGradient id="_称未設定グラデーション_752" data-name="名称未設定グラデーション 752" x1="3178.16744" y1="861.78967" x2="3905.93328" y2="861.78967" gradientTransform="matrix(1, 0, 0, 1, 0, 0)" gradientUnits="userSpaceOnUse">
      <stop offset="0" stop-color="#ee9b00"/>
      <stop offset=".98184" stop-color="#ca6702"/>
    </linearGradient>
    <linearGradient id="_称未設定グラデーション_30" data-name="名称未設定グラデーション 30" x1="863.3527" y1="621.99946" x2="1165.47901" y2="621.99946" gradientTransform="matrix(1, 0, 0, 1, 0, 0)" gradientUnits="userSpaceOnUse">
      <stop offset="0" stop-color="#797e38"/>
      <stop offset=".99879" stop-color="#ee9b00"/>
    </linearGradient>
    <linearGradient id="_称未設定グラデーション_27" data-name="名称未設定グラデーション 27" x1="430.67818" y1="624.17204" x2="732.80449" y2="624.17204" gradientTransform="matrix(1, 0, 0, 1, 0, 0)" gradientUnits="userSpaceOnUse">
      <stop offset=".00124" stop-color="#005f73"/>
      <stop offset="1" stop-color="#7b7e37"/>
    </linearGradient>
    <linearGradient id="_規グラデーションスウォッチ_4-3" data-name="新規グラデーションスウォッチ 4" x1="5341.63703" y1="1639.99703" x2="7452.08026" y2="1639.99703" xlink:href="#_規グラデーションスウォッチ_4"/>
    <linearGradient id="_称未設定グラデーション_22" data-name="名称未設定グラデーション 22" x1="597.10049" y1="1527.00312" x2="1812.61358" y2="1527.00312" gradientTransform="matrix(1, 0, 0, 1, 0, 0)" gradientUnits="userSpaceOnUse">
      <stop offset="0" stop-color="#416f54"/>
      <stop offset=".99879" stop-color="#ee9b00"/>
    </linearGradient>
    <linearGradient id="_称未設定グラデーション_748" data-name="名称未設定グラデーション 748" x1="2007.61421" y1="1526.9527" x2="3201.53799" y2="1526.9527" gradientTransform="matrix(1, 0, 0, 1, 0, 0)" gradientUnits="userSpaceOnUse">
      <stop offset="0" stop-color="#ee9b00"/>
      <stop offset=".15572" stop-color="#ed9900"/>
      <stop offset=".98184" stop-color="#ca6702"/>
    </linearGradient>
    <linearGradient id="_称未設定グラデーション_761" data-name="名称未設定グラデーション 761" x1="2062.77812" y1="931.91809" x2="2310.74651" y2="931.91809" gradientTransform="matrix(1, 0, 0, 1, 0, 0)" gradientUnits="userSpaceOnUse">
      <stop offset="0" stop-color="#ee9b00"/>
      <stop offset=".98184" stop-color="#ca6702"/>
    </linearGradient>
    <linearGradient id="_称未設定グラデーション_761-2" data-name="名称未設定グラデーション 761" x1="2058.36005" y1="1142.86048" x2="2434.0653" y2="1142.86048" xlink:href="#_称未設定グラデーション_761"/>
    <linearGradient id="_規グラデーションスウォッチ_3-2" data-name="新規グラデーションスウォッチ 3" x1="4394.27467" y1="1017.96711" x2="4668.02788" y2="1017.96711" xlink:href="#_規グラデーションスウォッチ_3"/>
    <linearGradient id="_規グラデーションスウォッチ_4-4" data-name="新規グラデーションスウォッチ 4" x1="6134.12641" y1="1023.50033" x2="6743.78428" y2="1023.50033" xlink:href="#_規グラデーションスウォッチ_4"/>
    <linearGradient id="_規グラデーションスウォッチ_3-3" data-name="新規グラデーションスウォッチ 3" x1="4648.24176" y1="1171.39806" x2="4852.0513" y2="1171.39806" xlink:href="#_規グラデーションスウォッチ_3"/>
    <linearGradient id="_規グラデーションスウォッチ_4-5" data-name="新規グラデーションスウォッチ 4" x1="6711.8038" y1="780.99299" x2="6757.40673" y2="780.99299" xlink:href="#_規グラデーションスウォッチ_4"/>
    <linearGradient id="_規グラデーションスウォッチ_4-6" data-name="新規グラデーションスウォッチ 4" x1="6331.21655" y1="1072.59496" x2="6441.96415" y2="1072.59496" xlink:href="#_規グラデーションスウォッチ_4"/>
  </defs>
  <g id="_イヤー_1" data-name="レイヤー 1"/>
  <g id="_イヤー_2" data-name="レイヤー 2">
    <path class="cls-8" d="M290.83168,351.54277c81.76089,27.95111,170.6738,24.9314,253.04542,1.07909,36.93429-10.69504,73.88879-24.87727,105.88239-46.53421,45.67666-30.9192,76.1078-79.295,99.95574-128.04142,18.27603-37.35715,30.61846-78.05393,21.40159-119.72972-2.69889-12.20351-9.81193-41.48268-27.72876-36.48451-9.63071,2.68663-16.60115,11.32952-22.47403,18.88469-8.76464,11.27528-16.94514,22.97154-24.9543,34.791-31.00646,45.75751-58.46113,94.87213-80.01922,145.8031-8.86646,20.947-16.97136,42.17832-23.5776,63.95417-6.02826,19.87066-10.65341,41.22563-.76532,60.72308,7.59296,14.97188,21.80793,26.03891,37.66604,31.11695,20.7127,6.63256,42.88395,4.37118,64.1859,2.84567,46.54097-3.33297,93.08193-6.66593,139.6229-9.99889,93.25684-6.67845,186.64506-12.37007,279.82395-20.05163,9.95468-.82065,19.6726-2.4963,28.5172-7.3922,9.18901-5.08654,16.57447-13.29981,23.13595-21.34977,17.20998-21.11407,32.19355-44.19463,46.65165-67.23805,29.29054-46.68347,55.01977-95.89326,75.39993-147.12349,8.29373-20.8482,16.19144-42.82809,17.48148-65.41747,.85733-15.01239-.0148-42.09838-20.99789-41.36455-17.73923,.62038-31.93359,16.31587-42.49158,28.73373-18.92574,22.25968-34.87412,47.22999-49.34851,72.54415-24.83383,43.43171-45.86667,89.33702-53.6297,139.11938-2.85167,18.28707-4.46342,37.12294-2.49282,55.58679,1.78439,16.71904,6.16917,34.40617,18.5674,46.57061,13.74704,13.48782,33.57438,15.21363,51.78612,16.57786,22.80102,1.70801,45.64808,2.80069,68.50805,3.27648,45.71836,.95155,91.48579-.56676,137.04164-4.53163,22.41903-1.9512,44.77864-4.51901,67.06515-7.63489,3.44306-.48137,8.04398-8.03703,9.34577-9.82339,6.20976-8.52124,11.82879-17.75773,17.05134-26.89775,5.25405-9.19514,10.55014-18.49206,14.76846-28.21577,.48786-1.12458,5.06882-13.17796,3.83442-13.00537-52.23071,7.30239-104.88121,11.45991-157.6163,12.28483-26.34424,.41209-52.7009,.01029-79.02006-1.21187-13.47296-.62563-26.94145-1.44316-40.38605-2.52157-10.55795-.84686-21.29941-1.99444-31.22373-5.92655-22.25366-8.81711-31.37749-30.83057-34.28364-53.11404l.23229,1.99023c-2.17339-18.74293-.70239-37.78547,2.133-56.38127,3.04897-19.99658,7.45269-37.06553,14.13979-54.88484,.89047-2.37285,1.62529-5.11064,2.86144-7.3245-3.38974,6.07081-.38404,.93096,.32103-.67838,1.04356-2.38196,2.26349-4.71493,3.23691-7.12397-4.26109,10.54542-.75826,1.84114,.35994-.51062-3.50131,6.65056-4.25586,8.10856-2.26363,4.374,2.22387-4.06856,1.21605-2.28616-3.02345,5.34721l.9617-1.68194c2.33461-4.00383,1.27805-2.24295-3.16968,5.28266,5.67121-8.89753-4.5787,6.80556-.63256,.92285,.702-1.07261,1.41166-2.14012,2.12899-3.20253-3.36961,4.88486-3.99972,5.81816-1.89031,2.79991,1.12547-1.54733,2.25156-3.09654,3.36694-4.65126,1.80235-2.40267,1.52004-2.04466-.84693,1.07405,.77849-1.00359,1.56442-2.00132,2.35781-2.99318,3.15834-3.94815,6.41967-7.82743,9.8333-11.55808-2.15031,2.35,1.4694-1.4315,1.57742-1.53265,1.65432-1.54922,3.39149-3.01325,5.19654-4.3838,3.57636-2.71547,7.40095-4.98374,11.49173-6.82954l-1.83973,.79395c6.20512-2.52648,13.38298-4.11909,19.71395-1.04404,7.80767,3.79231,10.4418,12.47484,11.56423,20.43861l-.23229-1.99023c2.44089,22.23678-2.92372,43.55394-10.42982,63.67119-2.00768,5.38083-4.15615,10.70459-6.30177,16.03124-1.17399,2.84609-1.08453,2.63793,.26835-.62448-.55312,1.31281-1.11063,2.62375-1.67255,3.93281-1.12279,2.61568-2.26314,5.22383-3.42099,7.82418-2.00958,4.51319-4.45197,8.9545-6.22797,13.55531,3.91452-10.14075,.42137-.91427-.69004,1.33264-1.25546,2.53812-2.52806,5.06777-3.81775,7.58867-.64418,1.25916-1.29262,2.51613-1.94532,3.7709,3.35379-6.39973,4.02669-7.70297,2.01868-3.90972-1.34512,2.48172-2.68654,4.96531-4.03493,7.44529-3.96046,7.28413,6.19895-10.91968,1.18846-2.1443-1.22115,2.13872-2.46516,4.26377-3.70073,6.39412-2.38447,4.04064-1.42082,2.42674,2.89096-4.84171-.72324,1.20361-1.45061,2.40472-2.18212,3.60333-1.46091,2.39376-2.99082,4.74866-4.43341,7.153,7.22647-12.04422,1.80446-2.85489,.09728-.24397-1.52996,2.33989-3.0923,4.65762-4.63814,6.9869-2.10149,3.09842-1.55961,2.31665,1.62563-2.3453-.79136,1.1481-1.58674,2.29341-2.38613,3.43592-1.19818,1.71184-2.40508,3.41761-3.62066,5.11713-1.61845,2.26277-3.2515,4.51547-4.90441,6.75321-.78405,1.06489-1.57431,2.12515-2.37079,3.18077,2.30132-2.99931,2.5171-3.30891,.64732-.92879-3.89813,4.58726-4.70031,5.84099-8.86683,9.38209-3.93193,3.34173-8.19372,6.01115-12.91117,8.09171l1.83973-.79395c-16.90199,6.50122-36.95075,5.52566-54.78938,6.80315l-60.34549,4.32155c-39.4415,2.82454-78.88299,5.64909-118.32449,8.47363-39.83591,2.85279-79.67182,5.70558-119.50773,8.55837l-59.16224,4.23682c-19.05109,1.36432-38.18579,3.36552-57.28947,3.69903-18.77699,.32781-38.15822-2.13216-53.98707-12.97797-13.82515-9.47289-23.33011-23.74979-25.51308-40.45162l.23229,1.99023c-1.85712-20.5327,5.61656-39.26208,12.32774-58.03508,1.65093-4.61811,3.35862-9.21606,5.12506-13.79124,.7559-1.95783,1.52193-3.91178,2.29806-5.86168,.49688-1.24832,4.00037-9.9437,1.23469-3.1525,1.84001-4.51819,3.83105-8.98377,5.82837-13.43375,.8552-1.90537,1.72064-3.80617,2.59629-5.70224,1.04404-2.26068,5.90349-10.84556,.51262-1.18841,2.35256-4.21434,4.31867-8.72765,6.5094-13.03264,3.50842-6.89438-5.12828,9.64981-.63243,1.26477,1.14304-2.13184,2.33676-4.23787,3.46935-6.37494-8.18695,15.44781,.23561-.20485,2.37457-3.92779-8.59338,14.9571,.08767,.06632,2.48681-3.79618-7.48604,12.05216-1.91235,3.05097-.19286,.43992,1.12953-1.7152,2.27433-3.41962,3.41603-5.12669,2.09427-3.08616,1.52955-2.2682-1.69416,2.45387,.77639-1.1237,1.557-2.24447,2.34182-3.3623,1.17597-1.67493,2.36139-3.34325,3.55625-5.00476,1.59085-2.21215,3.22511-4.39235,4.8223-6.59963,3.72931-5.15379-2.8879,3.84496,.50027-.63363,1.46883-1.63605,1.69853-1.9495,.68911-.94033,.89424-.90519,1.82673-1.76907,2.79748-2.59164,1.87316-1.56178,3.83792-2.82054,6.01027-3.91877l-1.83973,.79395c23.04796-9.15846,30.35904,33.30936,32.19863,48.06035l-.23229-1.99023c2.01169,18.18547,.47521,36.54522-4.06645,54.25449-.30452,1.18714-.62205,2.37078-.9526,3.55093-.59442,2.08385-.67331,2.35685-.23665,.81899-.55583,1.75128-1.13536,3.4947-1.74386,5.22842-.52458,1.49463-1.35511,5.90195-2.58168,6.8693,1.57783-3.72135,1.78006-4.21597,.60669-1.48386-.48867,1.11568-.98916,2.22602-1.50147,3.33104,2.65966-5.4838,3.18168-6.58949,1.56609-3.31707l3.31433-6.30801c-2.18366,4.04289-1.10998,2.14831,3.22103-5.68373-2.30795,3.97059-1.18803,2.09299,3.35978-5.6328,4.19797-6.5357,5.1552-8.05352,2.8717-4.55348,3.51106-5.06262,4.22325-6.10666,2.13656-3.13211-.68517,.96182-1.38116,1.91574-2.08799,2.86176,2.38237-3.08771,2.89836-3.77461,1.54797-2.0607-11.31009,13.5722-24.07146,25.61539-39.98274,36.6708-15.68237,10.89635-32.63674,19.77652-50.12374,27.39279l1.83973-.79395c-74.5888,32.03145-159.06515,46.45464-239.78991,35.39487-23.66528-3.24228-46.94212-8.77915-69.54207-16.50526-2.3896-.81692-9.42733,9.93531-9.34577,9.82339-6.20976,8.52124-11.82879,17.75773-17.05134,26.89775-1.65163,2.89052-22.11989,40.0188-18.60289,41.22114h0Z"/>
    <path class="cls-6" d="M192.66426,762.62891c101.31903-57.52091,176.57669-148.41978,233.49242-248.66672,20.08762-35.38077,38.26607-71.69798,53.4504-109.45875,1.26323-2.07372,1.63155-4.22583,1.10496-6.45632-1.48156,.35133-2.62799,1.18117-3.43929,2.48952-6.89587,5.91963-12.28036,16.32061-16.83722,23.95193-7.24676,12.13606-14.27626,24.33623-20.38206,37.09023-2.96249,6.18814-6.13551,12.70412-7.3408,19.53801-1.01162,5.73578,.14381,12.19421,2.5189,17.4705,5.52095,12.26485,17.96002,17.29473,30.44881,19.5299,32.22562,5.76754,65.4622,8.7539,98.09231,11.13473,32.95393,2.40445,65.98934,2.88268,98.95646,.4585,32.52813-2.3919,64.83085-7.01233,97.20912-10.82208,128.48721-15.11832,257.69197-5.8033,386.63859-9.74103,71.91273-2.19605,143.88323-8.96802,213.78215-26.63633,3.6934-.93358,7.61904-7.45391,9.34577-9.82339,6.20976-8.52124,11.82879-17.75773,17.05134-26.89775,5.25405-9.19514,10.55014-18.49206,14.76846-28.21577,.50404-1.16188,4.77322-13.24267,3.83442-13.00537-120.95701,30.57422-246.38201,27.98731-370.17829,27.19728-61.82204-.39453-123.74195-.30781-185.40567,4.67211-62.70851,5.06429-124.79675,17.1272-187.88078,16.98669-36.26944-.08079-72.45628-3.26691-108.44385-7.57798-16.22962-1.9442-33.30667-2.91722-49.16064-7.03962-13.85727-3.60322-24.71793-12.67252-26.55549-27.41986l.23229,1.99023c-.10034-1.57557-.16115-3.11639,.00158-4.69183,.69616-6.73974,5.74107-11.93741-5.82953,11.93666l-16.94471,30.25637,.79464-1.33078-19.17155,19.98512c-.72618,1.80588-5.08965,10.90755-1.59768,3.9754-1.40984,2.79877-2.4857,5.82569-3.74852,8.69302-1.01611,2.30716-2.04648,4.60805-3.09102,6.90247-1.14421,2.51336-7.06969,14.71949-1.65959,3.72615-2.49473,5.0693-4.99525,10.13053-7.56317,15.16355-3.32379,6.51448,4.40617-8.3195,1.93305-3.70871-.7395,1.37869-1.46957,2.76237-2.21297,4.139-.59426,1.10046-1.19159,2.19931-1.79245,3.29618-.60048,1.09619-1.20432,2.19052-1.81153,3.28299l4.01167-7.17076c-1.74607,2.536-3.10136,5.44918-4.6587,8.11522-.92753,1.58785-4.37311,7.38665,.20675-.31348,4.57809-7.69716,1.12716-1.91233,.16977-.34126-1.45575,2.38888-2.93858,4.76059-4.41709,7.13537-2.75801,4.42991,6.23945-9.67634,2.26967-3.58213-1.01543,1.55884-2.02086,3.12406-3.04252,4.6789-1.69525,2.57996-3.33142,5.23823-5.15967,7.72446,.16394-.22294,5.23809-7.56718,2.01454-2.94565-.70701,1.01362-1.41072,2.02946-2.1208,3.04093-3.71975,5.29856-7.52593,10.5363-11.41625,15.7109-1.05966,1.40947-4.02381,4.86798,.39872-.49722-.77862,.94458-1.50325,1.9485-2.25642,2.91538-1.88552,2.42053-3.78959,4.82676-5.71306,7.21726-3.83651,4.76804-7.74659,9.47665-11.72942,14.12317-3.77,4.39822-7.60759,8.73854-11.50863,13.02094-4.94664,5.43022-5.42659,5.93927-10.55643,11.18823-16.60913,16.99484-34.28802,32.9491-52.95413,47.65728-20.48169,16.13878-42.15018,30.72014-64.82634,43.59386-4.574,2.59675-10.18988,12.819-12.66913,16.5649-6.35239,9.59781-12.3116,19.65172-17.73043,29.80274-4.20436,7.87597-8.72475,15.87139-11.65574,24.32438-.5981,1.72492-3.34106,7.9763,.73477,5.66237h0Z"/>
    <path class="cls-12" d="M1404.39393,420.85717c-47.23665,67.08498-86.72361,142.64448-104.49413,223.23387-3.87353,17.56649-6.66525,35.34914-8.45203,53.24704-.51271,5.13577,4.99459-1.87638,5.27114-2.19486,5.75586-6.62839,10.70693-14.82165,15.23766-22.25636,6.01026-9.86256,11.84768-19.88802,16.94471-30.25637,2.86452-5.827,7.36001-12.73277,8.01106-19.25424,1.78678-17.89786,4.57854-35.68078,8.45203-53.24704,4.20119-19.05239,7.74434-31.42838,13.84475-48.696,1.52702-4.32233,3.12046-8.62119,4.78015-12.89433,.72474-1.86595,1.46283-3.72663,2.2128-5.58258,2.60218-6.4396-1.96229,4.47745,.22085-.57447,1.80871-4.18548,3.62802-8.36348,5.54061-12.50297,.47711-1.03265,.95828-2.0634,1.4435-3.09226-2.72856,5.6703-3.30712,6.87922-1.73569,3.62676,1.00368-2.03588,2.00076-4.07445,3.02548-6.09992,.51168-1.01141,1.02737-2.02077,1.54709-3.02807-3.68383,7.01954-4.5567,8.69358-2.6186,5.02214,.80071-1.49565,1.60592-2.98825,2.4143-4.47977,2.19669-3.98874,1.07096-1.99015-3.37719,5.99578,.55315-.98333,1.11026-1.9644,1.67135-2.94322,.5606-.97797,1.12515-1.95365,1.69366-2.92704,2.30686-3.9241,1.12738-1.95077-3.53845,5.92,1.17807-1.91501,2.34315-3.83838,3.52018-5.75413,2.20437-3.51453,1.18107-1.91049-3.0699,4.81212,.60469-.94421,1.21328-1.88589,1.82577-2.82506,1.22292-1.87511,2.50808-3.71261,3.71662-5.59645-6.55804,10.22247-1.97549,2.88585-.39618,.64292,12.12267-17.21648,23.42634-35.76562,31.81981-55.11352,.74624-1.72017,5.96838-11.77333,3.83442-13.00537-2.17303-1.2546-9.3423,9.81846-9.34577,9.82339h0Z"/>
    <path class="cls-7" d="M2.20779,1043.83119c48.25557-24.89465,90.12316-60.52928,124.50748-102.4185,23.61142-28.76497,44.08259-60.17367,62.46514-92.49057,11.68359-20.53999,24.40028-41.85657,32.50094-64.13352,2.30995-6.35241,5.17816-14.77584,1.22087-21.12189-3.00249-4.81489-7.94863-4.69275-12.75358-2.84983-15.65425,6.00413-25.42677,24.03228-34.2886,37.19051-16.25714,24.13896-32.76691,50.60584-42.323,78.25778-4.27822,12.37965-6.26723,25.52001-1.91748,38.21687,4.43885,12.95692,15.03189,18.74896,28.17598,19.96466,33.43429,3.09235,67.40578,3.20796,100.94934,4.75173l101.45232,4.66914c133.65975,6.15142,267.3617,13.4207,401.17886,14.86436,133.25769,1.43762,266.91423-3.25481,398.9606-22.21711,32.81791-4.71276,65.51154-10.30231,98.00953-16.87124,28.60471-5.78197,57.45895-11.81794,84.41067-23.31529,26.90833-11.47884,49.76194-28.38133,67.94741-51.37525,16.33327-20.65198,30.01558-43.45364,42.52853-66.57053,9.71257-17.94336,18.77308-36.56554,24.76956-56.11859,4.23741-13.81714,7.17061-27.7516,8.29406-42.17441,.38096-2.25488-.30971-2.65363-2.07201-1.19628-20.63433,9.03001-37.84218,23.84259-51.83438,41.35734-14.42255,18.05343-26.62208,37.83433-37.88937,57.96989-9.55004,17.06668-18.6823,34.60903-25.34591,53.03991-16.21341,44.84473-13.35238,94.42914,10.51042,136.10902,12.55488,21.92894,30.44449,40.65966,52.8105,52.63481,4.73572,2.53559,24.30769-33.06443,26.39711-36.72114,1.87286-3.27771,22.98489-38.87494,18.60289-41.22114-41.53571-22.23895-66.96268-66.99788-72.63716-112.90125l.23229,1.99023c-1.52624-14.00308-1.29707-28.07417,1.01761-41.98187,.96846-5.81893,2.61993-13.1327,4.09858-17.79828,.98512-3.10833,2.1737-6.13613,3.29058-9.19658-1.25286,3.43308-.89439,2.32309,.21385-.42132,1.64514-4.07399-4.09686,8.05831-.68915,1.44165-4.70489,9.13536-9.80427,18.03445-15.52057,26.57624-3.41259,5.09937,.62752-.77271,1.07924-1.41817-1.19521,1.70784-2.49299,3.10862-.43755,.64938,4.25582-5.09186,6.68202-7.82874,11.79668-12.43199,9.81533-8.83392,20.88664-16.02836,32.98381-21.32233l-2.07201-1.19628c-.95899,12.31152-2.95571,24.86164-6.64927,36.55602-.92707,2.93526-2.00973,5.81382-3.06506,8.7039-.95159,2.60598-.85036,2.12297,.14148-.15748-.25008,.57497-3.46318,7.46105-.87035,2.13424,3.42836-7.04336-3.22127,6.12149,1.39835-2.76829,2.19041-4.21512,4.52384-8.34645,6.95043-12.42984,1.13374-1.97958,2.32495-3.92384,3.57363-5.8328,1.89331-2.94133,2.2437-3.5076,1.05115-1.6988-2.48997,3.82566,5.01222-7.45359,.66029-1.09759,1.32005-1.92794,2.0944-2.6069,.21835-.33434-.94354,1.14296-1.8757,2.29433-2.83882,3.42109-1.69158,1.979-2.73858,3.15472-4.28129,4.73415-4.49557,4.60257-9.40151,8.83382-14.50545,12.7452-11.273,8.63901-23.7045,15.47876-36.69817,21.15314l1.83973-.79395c-34.21693,14.47876-71.48706,21.06368-107.82447,27.87445-40.34448,7.56182-80.96101,13.64956-121.72099,18.48077-81.44171,9.65314-163.41661,14.27112-245.39458,15.74472-164.06225,2.94912-328.07708-6.29759-491.90166-13.83728l-140.03279-6.44472c-23.81426-1.096-47.63629-2.084-71.4453-3.28812-8.76001-.44303-18.08362-1.02808-25.35039-6.52342-6.8424-5.17442-9.96237-13.42534-11.28347-21.62096l.23229,1.99023c-.55256-4.75368-.60776-9.49831,.13381-14.23621,.21692-1.38594,.54951-2.77678,.76403-4.15294,1.09997-2.97637,1.05255-3.03099-.14225-.16386-4.26997,9.10405-9.1004,17.88848-14.49129,26.35328-4.55792,7.26455-5.47722,8.81203-2.75791,4.64244-2.93537,4.24965-3.30471,4.80434-1.10802,1.66407l1.37265-1.9304c2.02722-2.82185,1.83011-2.56184-.59132,.78004-.65462,1.7721,1.70417-1.35885,2.46894-1.94682,1.97678-1.51979,4.05588-2.74005,6.3042-3.80605l-1.83973,.79395c7.41164-2.80312,13.07379-.07251,14.41263,8.05346l-.23229-1.99023c-.04275,6.3216-2.9471,8.48636,3.24386-3.18727-1.09574,2.06612-2.09476,4.20483-3.14749,6.29381-2.00055,3.88376-1.42137,2.78183,1.73756-3.30579-.73121,1.3766-1.4699,2.74917-2.21607,4.11772-3.82724,7.17634,5.67947-9.7915,1.28426-2.29305-.77305,1.34719-1.5534,2.69014-2.34106,4.02884l3.73867-6.28132c-1.34065,2.59757-7.87413,12.0728-.36335,.77736-1.28249,1.92874-2.51638,3.89056-3.79743,5.82063-.85313,1.28462-1.71323,2.56456-2.5803,3.83982,2.99277-4.35392,3.39964-4.96648,1.22062-1.83766-1.35205,1.86719-2.6697,3.75903-4.02771,5.62222-.90386,1.24013-1.81447,2.47528-2.73183,3.70547-1.63588,2.16848-1.84248,2.45092-.61982,.8473,1.22723-1.59833,1.0115-1.32466-.64719,.82101-.94052,1.2053-1.88762,2.4054-2.8413,3.60032-1.42825,1.7895-2.87121,3.56733-4.32874,5.33307-6.26845,7.59394-12.97715,15.22502-19.60222,22.01387-28.52787,29.23315-61.46507,54.00288-97.78113,72.73803-4.43119,2.28601-10.40313,13.14121-12.66913,16.5649-6.35239,9.59781-12.3116,19.65172-17.73043,29.80274-4.20436,7.87597-8.72475,15.87139-11.65574,24.32438-.65077,1.87681-3.34051,7.76477,.73477,5.66237h0Z"/>
    <path class="cls-20" d="M397.59262,1319.42451c53.08615-39.73815,94.60926-91.60524,129.31697-147.70394,12.91191-20.86974,24.89682-42.32264,36.04261-64.18428,5.35124-10.49605,10.58242-21.19445,14.57892-32.29413,2.84866-7.91174,5.41319-16.38214,5.15926-24.8821-.10575-3.53987-.28884-7.86635-1.72628-11.16463-1.02973-2.36277-3.2144-2.18249-5.74676-1.775-5.18044,.8336-8.93547,3.94924-12.39859,7.62022-5.13706,5.44539-9.38138,11.77318-13.48825,18.00705-8.87596,13.47294-17.1063,27.57252-24.26102,42.0356-4.62577,9.35087-9.63026,19.28412-11.36372,29.71952-1.70902,10.28825,.30517,21.22289,7.17207,29.24576,8.02145,9.37179,19.83861,13.94639,31.64651,16.32517,13.55383,2.73051,27.60642,3.42588,41.36541,4.47321,15.31098,1.16547,30.64558,2.02319,45.99188,2.55113,61.65482,2.12101,123.61064-1.10743,184.46648-11.46966,61.121-10.40737,120.88118-28.20906,177.24732-54.1191,7.08677-3.2576,14.10759-6.65398,21.07455-10.16014l3.19913-3.39114c2.45867-3.01772,4.75482-6.15307,6.88846-9.40604,5.13688-7.49721,9.96161-15.24022,14.4698-23.13002,3.75713-6.57537,7.4043-13.21884,10.82411-19.97667,1.96883-3.74878,3.73853-7.58666,5.30908-11.51362,1.16845-2.4846,2.06911-5.06481,2.70198-7.74062-.20639-4.44787-1.08065-8.48829-5.09856-10.96422-3.83423-2.36274-8.84836-2.47264-13.16373-1.77167-11.31292,1.83764-20.96037,10.30782-28.91569,18.01523-13.27105,12.85749-24.21009,27.88385-34.33115,43.27965-14.55732,22.14408-27.67828,45.30751-39.52717,69.00731-29.06787,58.14069-52.54613,119.24772-76.25291,179.7133-11.36346,28.98318-22.6,58.01625-34.08109,86.95322-5.50228,13.86797-11.06032,27.71397-16.71557,41.52033-1.41217,3.44758-2.83031,6.89271-4.25521,10.33505-.71193,1.71992-1.4071,3.44891-2.14154,5.15935,3.02128-7.03627,.43274-1.04744-.14139,.32102-3.11804,7.43197-6.27067,14.84946-9.46463,22.24913-6.13003,14.20186-12.41152,28.33877-18.89018,42.38518-1.55231,3.36557-3.11585,6.72596-4.69136,10.08073-1.22356,2.60535-7.10158,14.68096-1.61571,3.47136-3.5244,7.20161-6.99825,14.42576-10.59272,21.5932-1.65741,3.3049-3.32858,6.6029-5.01424,9.89349-.84255,1.64474-1.69291,3.2854-2.53845,4.9286-3.46527,6.73433,5.1471-9.7694,1.74458-3.3302-3.48031,6.58644-7.03924,13.12597-10.61824,19.65899,8.67791-15.84047,2.01797-3.61501-.07911,.0261-2.09939,3.64512-9.34273,15.51962,.04239,.07572-1.77802,2.92586-3.5384,5.8616-5.34319,8.77124-.90066,1.45203-1.8191,2.89301-2.72006,4.34479,4.25157-6.67518,5.25627-8.26428,3.01411-4.76728-.61536,.95508-1.2336,1.9083-1.85472,2.85965-1.73633,2.65924-10.01581,14.39409-2.41364,3.75445-2.29538,3.21251-4.52342,6.47122-6.84643,9.66476-.99214,1.36394-1.99167,2.72252-2.99903,4.07526-.67042,.90036-1.3443,1.79813-2.02162,2.69331,2.61197-3.40562,3.02546-3.95058,1.24044-1.63488-2.41734,3.0726-4.83324,6.14355-7.31849,9.16197-2.47269,3.00317-4.99048,5.96927-7.55621,8.89337-1.09593,1.249-2.20042,2.49048-3.3139,3.72386-.42791,.47399-4.97644,5.39952-2.42797,2.69223-5.27137,5.59987-10.7854,10.98387-16.47854,16.15351-20.16408,18.30994-42.97211,33.22449-67.98023,44.04212l1.83973-.79395c-72.58575,30.90014-157.7821,25.16853-225.88848-14.53476-19.86811-11.58231-37.99477-25.93793-53.96585-42.47387-2.39541-2.48013-24.73549,33.81312-26.39711,36.72114-5.25405,9.19514-10.55014,18.49206-14.76846,28.21577-.98654,2.2741-5.91189,10.85443-3.83442,13.00537,44.63959,46.2184,106.21417,73.76987,170.3869,76.67109,64.47755,2.915,128.5454-19.42245,176.84275-62.30378,32.31799-28.69389,58.43581-63.97282,81.61247-100.23555,28.45303-44.51825,53.64191-91.04589,76.49041-138.66855,38.35516-79.94288,70.19521-162.65482,102.4996-245.16374,7.71537-19.7059,15.47789-39.39375,23.40594-59.0152,3.95869-9.79752,7.96551-19.57519,12.01255-29.33653,1.84553-4.45136-.30805,.76794-.57914,1.38903,.49638-1.13726,.95894-2.2923,1.43924-3.43682,1.08106-2.57611,2.16627-5.15048,3.25587-7.723,2.05697-4.85649,4.12937-9.70646,6.21995-14.54859,4.14571-9.60215,8.35374-19.17816,12.65822-28.71028,1.90688-4.22273,3.8558-8.42484,5.82148-12.62043,1.78392-3.80764-3.67034,7.57643-1.81882,3.7999,.48159-.9823,.95721-1.96751,1.44098-2.94877,1.08776-2.20636,2.22577-4.38732,3.31846-6.59089-5.96267,12.0245-4.10142,7.7856-2.70464,5.18668,.5153-.95879,1.03808-1.91454,1.54925-2.87562,3.00173-5.64367-3.87082,6.80665-3.46872,6.16878,.71837-1.13959,1.35241-2.34845,2.02682-3.51572,2.55878-4.42873-6.33213,10.45055-3.62834,6.11822,.96512-1.54643,3.25154-5.17674-.75019,1.13039-3.99716,6.29992-1.6914,2.70852-.70506,1.17755,2.27337-3.52869-5.26934,7.47894-2.01904,2.92784,.61332-.85878,1.24224-1.71128,1.84687-2.57659,2.58459-3.6989-1.20294,1.54356-1.46572,1.85535,1.51181-1.79381,2.91207-3.68234,4.43062-5.47346,.67048-.79083,1.34888-1.57448,2.03621-2.3507,.34596-.3907,2.53919-2.82483,1.01092-1.16125-1.52311,1.65797,.70219-.71072,1.07251-1.0831,.90245-.90746,1.81629-1.80366,2.7471-2.68208,5.72591-5.40362,12.18362-11.08321,19.44532-14.2985l-1.83973,.79395c8.44133-3.33315,22.92555-4.05673,24.4997,7.74769l-.23229-1.99023,.0527,1.13581,43.39256-75.15811c-11.2394,5.65629-22.63124,10.98895-34.17098,16.00403l1.83973-.79395c-62.26123,26.85367-128.36788,43.83747-195.56422,52.43019-66.81457,8.54389-134.52375,8.9912-201.61698,3.62491-25.85567-2.068-70.72448-2.60674-75.76139-36.32327l.23229,1.99023c-.57962-4.97304,.62834-9.30513,.78747-14.15571,.05632-1.71679-1.25196,4.07139-.04839,.22105,8.15198-21.88522-3.19214-2.30316-34.03234,58.74616-2.03336,2.05262-2.54972,2.60099-1.54909,1.64511,1.7314-1.10829,2.99968-2.39795,4.93282-3.26701l-1.83973,.79395c1.86504-.69981,4.22935-1.36094,6.2561-.98244,2.00535,.37451,1.53527-.22845,2.50831,1.90968,.90075,1.97928,1.08088,4.51046,1.34319,6.64064l-.23229-1.99023c.27788,3.71445,.13717,7.38298-.46924,11.06169-.28529,1.73067-.74452,3.41087-1.09426,5.12529-.57547,2.82096,.87029-2.08301-.18442,.61793-.4263,1.09167-.84586,2.23204-1.20572,3.34717-.91921,2.84844,1.06376-2.44025,1.05851-2.43093-.42083,.74626-.73737,1.63437-1.07489,2.42298-1.69185,3.95299,3.62214-7.31291,1.70145-3.51283-.38537,.76245-.75951,1.53082-1.14315,2.29419-.76308,1.51841-1.57964,3.0148-2.31737,4.54536-.14475,.30032,5.47697-10.35857,2.61843-5.02117-.53418,.99741-1.06381,1.99721-1.60109,2.99296-.80495,1.49181-1.64657,2.96543-2.43948,4.46347-.76031,1.43646,6.12581-10.85221,3.77423-6.74545-.56061,.97904-1.11397,1.96224-1.67623,2.94036-.84262,1.46583-1.70155,2.92194-2.55136,4.38355-2.37048,4.07706,4.85592-7.99455,3.96141-6.65133-.77729,1.1672-1.4573,2.40929-2.19076,3.60438-.88163,1.43651-1.77985,2.86249-2.66793,4.29495-2.23987,3.61288,4.27373-6.44504,3.51212-5.52902-.67699,.81424-1.26142,1.95831-1.82623,2.82523-.91727,1.40789-1.84217,2.81087-2.77462,4.20875-.46573,.69821-.9412,1.39031-1.40365,2.09066-2.15413,3.26226,5.54394-7.97421,1.84931-2.6903-1.91852,2.74378-3.84534,5.48077-5.8122,8.19025-1.14494,1.57723-2.30091,3.14642-3.46602,4.7088-.49884,.66894-1.00141,1.33504-1.50136,2.00315-2.22008,2.96679,.47488-.85249,1.27327-1.66158-5.15375,5.22279-9.35325,11.81217-14.13399,17.41223-2.32717,2.726-4.68636,5.42465-7.0784,8.09392-1.1017,1.22938-2.21028,2.45269-3.32562,3.66972-.7428,.81052-1.4908,1.616-2.23729,2.42309-.97135,1.0502-1.46092,1.53805-.18684,.20805-5.11005,5.33432-10.31484,10.57101-15.67292,15.65694-11.98955,11.38058-24.64248,22.03379-37.87554,31.93953-4.91752,3.68106-9.49965,11.77613-12.66913,16.5649-6.35239,9.59781-12.3116,19.65172-17.73043,29.80274-4.18532,7.8403-8.88239,15.85968-11.65574,24.32438-.41331,1.26148-3.26741,8.65824,.73477,5.66237h0Z"/>
    <path class="cls-9" d="M5768.13084,1386.78203c73.85908-99.75588,136.85075-207.91048,189.52102-320.23723,23.8007-50.75834,45.13582-102.73996,63.84316-155.58798,9.4794-26.77921,18.71855-53.79869,26.19545-81.21449,7.13194-26.15089,11.76195-53.51375,6.91376-80.51149-.55022-3.06394-1.22721-6.10372-2.0529-9.10556-.33187-1.20651-.64775-4.03925-1.51963-4.98532-1.18658-1.28755-.49719-.72311-2.45162-.60392-4.69363,.28625-9.21681,5.25154-11.98251,8.37892-9.69013,10.95739-17.19819,24.30408-24.44467,36.90318-8.04065,13.97989-16.74363,28.81851-20.9563,44.5707-4.71605,17.63445,1.77791,37.23548,19.21074,44.60842,10.67549,4.51503,22.75269,4.1032,34.03515,2.783,14.09453-1.64925,28.11177-4.17726,42.15216-6.2355,30.08985-4.41101,60.22678-8.5005,90.40436-12.26483,119.76887-14.93989,240.17517-24.76786,360.78225-29.43177,120.50471-4.65995,241.20999-4.16772,361.67175,1.50044,14.77037,.695,29.53668,1.47094,44.29916,2.31678,2.9858,.17108,8.70397-8.94268,9.34577-9.82339,6.20976-8.52124,11.82879-17.75773,17.05134-26.89775,5.25405-9.19514,10.55014-18.49206,14.76846-28.21577,.5095-1.17445,5.48944-12.91055,3.83442-13.00537-131.28116-7.52191-262.89436-8.96731-394.30738-4.25214-131.51892,4.71897-262.81681,15.58661-393.32555,32.52381-35.80707,4.64698-71.45467,10.29489-107.21151,15.26857-13.74466,1.91184-28.96968,3.0718-41.653-3.70043-10.32106-5.51091-15.587-14.79528-16.97247-26.18917l.23229,1.99023c-.39452-4.32597,.02635-8.32291,.56866-12.59783,.2902-2.28759-.00881-.02115-.41233,.99602,4.30682-12.08737-1.41059-2.35341-17.15223,29.2019-3.90521,12.07981-10.04643,22.49456-18.42365,31.24423-.14967,1.72021-.94246,.5565,.69593-.35505,.89685-.49898,1.72368-1.05503,2.66173-1.49704l-1.83973,.79395c.81146-.3115,3.237-1.46484,4.08832-1.05958,.97318,.46327,1.81909,5.86001,2.115,6.98181,1.32571,5.02577,2.20889,10.12407,2.83821,15.28007l-.23229-1.99023c4.14378,39.86279-9.53565,77.9678-21.72857,114.55217-12.53808,37.62002-25.69576,75.59067-41.81584,111.85201,.35706-.80319,2.2553-5.36763,.29401-.72248-.40926,.96929-.81652,1.93942-1.22603,2.90861-.95517,2.26062-1.915,4.51928-2.88045,6.77553-1.92934,4.50889-3.87853,9.00929-5.8482,13.50071-4.07324,9.28817-8.23342,18.53821-12.47972,27.74854-1.90036,4.12194-3.81772,8.23604-5.75268,12.34185-1.04107,2.20905-2.09302,4.41286-3.13848,6.61982-1.66291,3.5104,1.81978-3.81308,1.68581-3.52139-.72665,1.58209-1.51385,3.1412-2.27348,4.70806-4.25173,8.76985-8.58304,17.50106-12.99381,26.19202-2.20149,4.3378-4.42274,8.66553-6.66378,12.98303-4.07824,7.85698,3.76935-7.14402,.64002-1.23039-1.2979,2.4527-2.59215,4.90724-3.89789,7.35579-4.49728,8.43339-8.59806,17.60378-13.92363,25.54161-.64105,.95549,5.70058-10.15011,3.30981-5.91352-.67953,1.20417-1.35548,2.41037-2.03561,3.61422-1.01973,1.80495-2.04303,3.60787-3.06992,5.40877-2.56477,4.49795-5.15175,8.98322-7.76088,13.45559-2.1225,3.63824-11.24855,18.8168-2.29322,3.96649-2.48862,4.12679-4.96458,8.26089-7.47588,12.37401-2.86594,4.69394-5.7572,9.37243-8.67304,14.03553-1.44988,2.31869-3.05138,4.58852-4.3879,6.97472,.08207-.14653,5.95656-9.33517,2.45434-3.87058-.7402,1.15495-1.47811,2.31137-2.2195,3.46556-5.92083,9.21745-11.94098,18.37116-18.06022,27.4581-1.52685,2.26734-3.06328,4.52811-4.599,6.78944-.63352,.93285-2.76434,4.04201,.26849-.38539,3.52857-5.15108-.42347,.6031-.90103,1.2938-2.90863,4.20679-5.8391,8.39848-8.79084,12.57513-6.47851,9.16697-13.06629,18.25549-19.74578,27.27698-12.45814,16.82627-23.48724,35.90602-31.81981,55.11352-.74624,1.72017-5.96838,11.77333-3.83442,13.00537,2.17374,1.25501,9.33525-9.80918,9.34577-9.82339h0Z"/>
    <path class="cls-23" d="M6962.97666,849.48993c-48.6471,66.29135-93.04323,136.15562-129.68827,209.82729-32.04109,64.41583-58.36715,132.9842-66.53377,204.90274-4.29525,37.82565-3.23198,76.05952,3.36645,113.55874l1.83973-.79395c5.7917-5.81681,10.43712-12.44468,14.9597-19.27785,8.57207-12.95152,16.28696-26.51016,23.32064-40.35082,4.51782-8.89003,10.65149-19.5202,10.27304-29.94036-.39994-11.01199-5.37756-20.70578-15.43392-25.74155-11.23472-5.62584-24.99738-4.91079-37.21137-5.50947-14.64459-.71782-29.28945-1.43041-43.93522-2.1237-58.67712-2.77759-117.37477-5.24822-176.1063-6.51883-117.10055-2.53338-234.59837-.31434-350.9628,14.0057-65.2099,8.02486-129.94386,19.90096-193.51908,36.5374-3.71199,.97136-7.58467,7.40675-9.34577,9.82339-6.20976,8.52124-11.82879,17.75773-17.05134,26.89775-5.25405,9.19514-10.55014,18.49206-14.76846,28.21577-.50628,1.16703-4.74858,13.24459-3.83442,13.00537,107.334-28.08729,217.74626-42.35848,328.42214-48.11605,110.24337-5.73508,220.72185-3.26883,330.9571,1.34367,31.23535,1.30696,62.46305,2.78902,93.68853,4.31161,22.54028,1.09909,59.03446-2.51635,63.64935,27.2498l-.23229-1.99023c.18546,1.7046,.30079,3.39586,.18949,5.11115-.05141,.83008-.14822,1.65483-.29042,2.47424-1.40196,6.42671,.62114,1.89927,6.0693-13.58232l16.94471-30.25637,15.53794-21.92269,1.83973-.79395c-1.31412-7.4682-2.41312-14.96448-3.29915-22.49543l.23229,1.99023c-3.37348-29.88308-3.18932-60.05192,.26294-89.92049,1.69926-14.70182,4.16365-29.3117,7.29674-43.77503,1.63192-7.53346,3.44366-15.02808,5.42503-22.47725,.88263-3.31835,1.79772-6.62813,2.74509-9.92858,.47419-1.652,.95121-3.3037,1.44662-4.94948-.84945,2.82196,.00622,.01033,.15772-.47328,.34306-1.0951,.67868-2.19252,1.02312-3.28721,4.49467-14.28484,9.56614-28.3865,15.1196-42.29322,.75047-1.8793,1.51034-3.75483,2.27826-5.62707,.32915-.8025,.67287-1.60033,.99211-2.40678,.04904-.12389-2.26038,5.33979-1.05288,2.54503,1.49365-3.45705,2.95874-6.92555,4.48076-10.37047,1.52382-3.44899,3.07593-6.88547,4.65398-10.30998,.72894-1.58186,1.46353-3.16109,2.20365-4.73775,.37019-.7886,.74348-1.57573,1.11424-2.36406,2.80535-5.96493-3.06273,6.3074-1.31018,2.73672,3.33168-6.78805,6.70677-13.54801,10.16489-20.27284,1.98616-3.86238-3.53402,6.71158-2.96197,5.66807,.41933-.76492,.81403-1.54478,1.22228-2.31571,.81699-1.54276,1.63872-3.083,2.46505-4.62077,1.92819-3.58827,3.89533-7.15443,5.85833-10.72365,2.29347-4.17009-4.49286,7.99022-3.71555,6.63042,.43298-.75745,.85575-1.52095,1.28499-2.28053,1.00144-1.77213,2.00834-3.54118,3.0212-5.30682,1.8799-3.27707,3.7796-6.54278,5.69741-9.79782,.44231-.75072,.88801-1.49946,1.32956-2.25062-7.71904,13.13164-5.14619,8.61897-3.44453,5.7911,.89759-1.49164,1.7944-2.98371,2.6972-4.4722,2.10395-3.46888,4.2281-6.92554,6.37127-10.37033,1.06996-1.7198,2.14499-3.43644,3.22434-5.15035,4.31498-6.85182-4.85332,7.582-1.58754,2.49462,2.33616-3.63924,4.67944-7.27363,7.04849-10.89158,4.55115-6.95039,9.44647-13.71099,13.87311-20.73753,.39244-.62294-4.88291,7.10103-2.74314,4.00415,.80991-1.17219,1.61588-2.3471,2.42669-3.51867,1.13277-1.63679,2.26909-3.27111,3.40863-4.9032,2.43219-3.48345,4.87942-6.95641,7.34147-10.41882,4.87801-6.85999,9.81504-13.67755,14.79505-20.46381,12.40037-16.89797,23.47564-35.87926,31.81981-55.11352,.74624-1.72017,5.96838-11.77333,3.83442-13.00537-2.17359-1.25492-9.33654,9.81082-9.34577,9.82339h0Z"/>
    <path class="cls-17" d="M3110.41505,1234.55939c63.16163-105.42358,118.84365-215.06708,165.25752-328.88897,41.75663-102.40079,75.62312-208.08072,101.57619-315.57366,14.6555-60.70043,26.7007-122.01878,36.16557-183.74099,.5739-3.74249-2.54887-.6908-3.67158,.49929-4.19675,4.44863-7.75134,9.79048-11.06957,14.86934-9.87918,15.121-19.47935,30.9723-26.65672,47.57806-6.32089,14.6242-9.76277,28.28187-4.46845,43.76208,3.91592,11.44986,11.72119,21.81722,22.0798,28.16769,12.56525,7.70328,27.37834,10.08728,41.89009,10.55481,16.12322,.51945,32.36797-.5113,48.46506-1.35781,67.34826-3.5417,134.42356-12.1573,200.49506-25.67468,37.28913-7.62887,74.24134-16.84066,110.77266-27.52059,3.77416-1.10338,7.46594-7.24382,9.34577-9.82339,6.20976-8.52124,11.82879-17.75773,17.05134-26.89775,5.25405-9.19514,10.55014-18.49206,14.76846-28.21577,.51504-1.18723,4.66258-13.24749,3.83442-13.00537-60.61014,17.71937-122.39586,31.33868-184.86946,40.56066-31.11794,4.59345-62.39559,8.10569-93.75799,10.5201-15.34638,1.18143-30.71301,2.10006-46.09089,2.7543-14.69625,.62524-29.60701,1.5735-44.28272,.14143-14.19036-1.38472-28.86791-5.48671-39.67125-15.24142-9.60289-8.67079-15.90319-20.83167-17.43213-33.66437l.23229,1.99023c-.26081-2.95315-.31633-5.88242,.0072-8.83563,.14736-1.34513,.53307-2.68072,.65791-4.01757,.30659-1.28798,.15444-.89626-.45643,1.17517,.9416-2.65245,.5284-1.75367-1.23959,2.69635l-41.39786,62.94669c-8.1932,53.42942-18.31628,106.55579-30.39878,159.24269-6.02291,26.26347-12.53022,52.41604-19.51535,78.44012-3.56393,13.27792-7.25203,26.52258-11.06547,39.73101-1.65653,5.73763-3.34233,11.46656-5.03916,17.19238-1.67077,5.63785,.98324-3.23174-.71695,2.39647-.51777,1.714-1.03461,3.42826-1.55507,5.14145-1.04065,3.42545-2.08971,6.84836-3.14718,10.26866-15.81378,51.14862-33.50666,101.71721-53.06227,151.5556-4.86995,12.41129-9.85561,24.77716-14.95647,37.09535l-.33977,.82053c-1.13456,2.73087-.90691,2.18753,.68294-1.63003,.21259,.84081-1.7059,4.07455-2.05833,4.91278-1.14658,2.72706-2.29883,5.45174-3.45675,8.17399-2.77721,6.52914-5.58706,13.04441-8.42953,19.54541-5.20423,11.90256-10.51781,23.75732-15.9406,35.56191-2.70779,5.89445-5.44281,11.7764-8.20504,17.64554-1.50563,3.19914-3.02356,6.39239-4.54111,9.58588-.98574,2.07436-2.90234,5.92107,1.65647-3.45659-1.02985,2.11845-2.04207,4.24561-3.06846,6.36577-6.40718,13.23495-12.95408,26.40227-19.64055,39.49834-1.60262,3.13888-3.21338,6.27359-4.8319,9.4043-.80895,1.56475-1.62205,3.12732-2.43303,4.69101-1.92855,3.70129-1.08271,2.08373,2.53753-4.85269-.54441,1.03986-1.08972,2.07926-1.63591,3.11818-3.27513,6.22972-6.5822,12.44265-9.92121,18.63837-3.61324,6.70456-7.26386,13.38898-10.95186,20.05272-.70873,1.28059-1.41901,2.56032-2.1305,3.83938-4.45351,8.00613,5.74117-10.2114,1.98807-3.54305-1.72155,3.05878-3.44434,6.11679-5.17823,9.16859-3.75348,6.60646-7.54469,13.1915-11.37275,19.75502-1.76526,3.02667-3.53841,6.04875-5.31946,9.06615-.89015,1.50807-1.78657,3.01246-2.67638,4.52073,4.63086-7.77057,5.77524-9.69299,3.43314-5.76725-.59839,1.00175-1.19765,2.00298-1.79779,3.00368-5.94151,9.91702-11.78289,19.90386-16.94471,30.25637-1.96883,3.74878-3.73853,7.58666-5.30908,11.51362-1.16845,2.4846-2.06911,5.06481-2.70198,7.74062-.06076,4.66,4.31644-1.05501,5.27114-2.19486,5.7388-6.85175,10.66243-14.61981,15.23766-22.25636h0Z"/>
    <path class="cls-10" d="M3459.65984,1479.93014c23.85128,94.39887,88.89275,168.02172,169.57333,219.67064,86.70574,55.50602,185.95074,86.45109,284.50777,113.35089,126.02105,34.39573,254.60549,59.37761,384.33873,74.66415,128.75554,15.17134,258.63244,20.79204,388.21657,16.75409,129.70398-4.04169,259.10326-17.76148,386.75761-41.08889,15.86776-2.89966,31.70579-5.95642,47.51846-9.14251,3.5826-.72186,7.81487-7.72263,9.34577-9.82339,6.20976-8.52124,11.82879-17.75773,17.05134-26.89775,5.25405-9.19514,10.55014-18.49206,14.76846-28.21577,.49393-1.13856,4.91152-13.2224,3.83442-13.00537-127.28245,25.64618-256.41511,41.84613-386.09951,48.28542-129.47016,6.42865-259.41231,3.19947-388.40766-9.60027-129.90323-12.88983-258.83682-35.48532-385.38467-67.5256-102.99704-26.07752-207.77867-55.28392-301.04511-107.50454-82.30513-46.08329-155.41813-112.50071-189.05567-202.59946-4.30925-11.54241-7.90228-23.32095-10.91985-35.26391-.41643-1.64813-10.9467,12.02024-9.34577,9.82339-6.20976,8.52124-11.82879,17.75773-17.05134,26.89775-5.25405,9.19514-10.55014,18.49206-14.76846,28.21577-1.59464,3.67583-4.8665,8.92059-3.83442,13.00537h0Z"/>
    <path class="cls-15" d="M3366.81121,781.89359c73.25279,17.82165,152.91084,19.04851,225.89542-1.0738,18.60409-5.12927,36.73361-12.62334,52.21432-24.30607,4.92424-3.71615,9.47884-11.74469,12.66913-16.5649,6.35239-9.59781,12.3116-19.65172,17.73043-29.80274,4.18532-7.8403,8.88239-15.85968,11.65574-24.32438,.40882-1.24778,3.26226-8.67879-.73477-5.66237-8.19683,6.18586-17.07068,11.17667-26.47542,15.27918l1.83973-.79395c-29.03627,12.27648-61.54895,17.38021-92.73924,20.47126-33.47583,3.31755-67.30699,2.99265-100.71374-.95865-18.97383-2.2442-37.77903-5.68978-56.34161-10.20586-2.58264-.62833-9.20686,9.63277-9.34577,9.82339-6.20976,8.52124-11.82879,17.75773-17.05134,26.89775-5.25405,9.19514-10.55014,18.49206-14.76846,28.21577-.57483,1.32505-5.75886,12.53718-3.83442,13.00537h0Z"/>
    <path class="cls-13" d="M3261.36231,1041.81539c22.49306-1.41834,43.89152,6.01709,65.36046,11.57076,21.08412,5.45413,42.58904,9.26031,64.26121,11.40117,42.95258,4.24302,86.52834,1.8748,128.78534-6.89758,24.13456-5.01024,47.77664-12.13934,70.71152-21.16071,3.95299-1.5549,7.07635-6.70921,9.34577-9.82339,6.20976-8.52124,11.82879-17.75773,17.05134-26.89775,5.25405-9.19514,10.55014-18.49206,14.76846-28.21577l2.72946-6.54905c1.26323-2.07372,1.63155-4.22583,1.10496-6.45632-81.0452,31.87893-171.00256,38.81554-255.81004,18.62996-24.13928-5.74555-48.0987-15.13326-73.3085-13.5436-3.26467,.20586-8.3155,8.40962-9.34577,9.82339-6.20976,8.52124-11.82879,17.75773-17.05134,26.89775-5.25405,9.19514-10.55014,18.49206-14.76846,28.21577-.48926,1.12781-5.24845,13.09454-3.83442,13.00537h0Z"/>
    <path class="cls-16" d="M3156.11178,1266.11178c66.64014-20.57003,135.90133-31.26668,205.46219-34.969,34.5932-1.84119,69.26471-1.99569,103.88541-.89321,32.31571,1.02908,64.98018,2.29903,96.86658,8.00589,17.36848,3.10852,34.52785,7.67667,50.80859,14.53916,8.21931,3.46452,16.19823,7.50455,23.81061,12.15641,6.79272,4.15097,13.99832,8.89261,15.87042,17.16105l-.23229-1.99023c.12342,1.08423,.07612,2.13557,.10735,3.21785,.03612,1.25206-1.15338,3.79459,.28312-.10064l6.67381-14.78815-.53896,1.12555,16.94471-30.25637-.63145,1.03978,15.23766-22.25636c2.27262-2.96564,1.56163-1.37754-.1284-.4366l1.83973-.79395c-6.96603,2.43978-10.6335-5.81642-12.85142-10.90994-2.9551-6.78647-5.51522-13.75287-7.72979-20.81477-4.6374-14.78795-7.67971-30.00118-9.53704-45.37748l.23229,1.99023c-5.67194-49.5388,1.32334-99.43992,14.12378-147.35448,3.67221-13.74579,6.1806-21.97477,10.42075-35.12691,4.02833-12.49514,8.28756-24.91458,12.62741-37.30451,8.68184-24.78594,17.70004-49.45711,25.90437-74.40783,16.8051-51.10705,29.80164-103.3353,44.91872-154.94274,.35345-1.20661,.70792-2.41292,1.06384-3.6188-.04315,.1462,1.71503-5.77717,.81359-2.76162,.89935-3.00855,1.81432-6.01257,2.73689-9.01406,2.02731-6.59567,4.10327-13.17652,6.24526-19.73589,4.07984-12.49358,8.38945-24.91342,13.02572-37.21193,1.98423-5.26352,4.0289-10.50427,6.14784-15.71507,.40424-.99409,.896-2.01831,1.24491-3.03953-2.59478,7.59467-.90406,2.16632-.18992,.48849,1.28684-3.0234,2.59774-6.03656,3.93508-9.03797,1.11394-2.50003,2.24576-4.99211,3.39622-7.47555,.45993-.99282,.92572-1.98284,1.38865-2.97426,2.77742-5.94824-4.01273,8.20765-1.11482,2.32037,1.20562-2.44929,2.40383-4.90172,3.63589-7.33796,.49217-.97321,.99244-1.94221,1.48546-2.91496,1.89679-3.67094,.99009-1.94199-2.72009,5.18684,.50689-.96292,1.01705-1.92411,1.53046-2.88357,.51293-.9585,1.02928-1.91522,1.54863-2.87024,4.5866-8.43408-4.36917,7.68324-2.29022,4.0339,1.4732-2.58603,2.97442-5.15463,4.46727-7.72918-9.03371,15.57947-2.5502,4.37714-.22872,.61926-8.47443,13.71791-1.70693,2.72325,.35837-.36296l.89451-1.33071c2.01145-2.96174,1.1947-1.7709-2.45026,3.57251,.93876-1.29102,1.82978-2.61853,2.75706-3.91799,1.83959-2.57794,3.90633-5.05516,5.64816-7.69513-3.94422,5.97799-2.51744,3.25933-1.41515,1.86416,1.30622-1.6533,2.60162-3.31423,3.92662-4.9527,1.81416-2.24333,3.65877-4.46184,5.53348-6.65481,2.03528-2.38079,4.10632-4.73047,6.21463-7.04684,.87539-.96178,1.75614-1.91856,2.64445-2.86844-2.66363,2.84825,.51632-.51073,1.10184-1.11015,4.32486-4.42749,8.7966-8.71237,13.41828-12.8293,9.16753-8.16632,18.92838-15.62111,29.22703-22.30382,4.76098-3.08936,9.86553-12.32894,12.66913-16.5649,6.35239-9.59781,12.3116-19.65172,17.73043-29.80274,4.18532-7.8403,8.88239-15.85968,11.65574-24.32438,.49298-1.50466,3.33276-8.30176-.73477-5.66237-39.43821,25.59114-69.5532,62.77904-95.05333,101.75117-33.44628,51.1163-61.54356,105.95379-82.40709,163.39412-17.26998,47.54674-30.16872,96.5377-43.73007,145.2277-6.92567,24.86557-12.72888,45.26477-20.36318,68.80113-7.6219,23.49813-16.02308,46.73184-24.24847,70.02262-31.48419,89.14965-62.23742,187.33825-34.18939,281.66024,2.97178,9.99373,6.14317,21.35653,11.78717,30.21254,2.23434,3.50591,5.49194,6.25218,9.7938,4.78353,3.32321-1.13453,5.35879-3.56994,7.64861-6.20296,6.37284-7.328,11.53217-15.99539,16.58689-24.2328,7.81633-12.73785,15.35493-25.92772,21.42803-39.62102,1.98643-4.47888,4.43434-9.77675,5.06711-14.733,.62946-4.93035-1.01161-9.84258-4.10873-13.65115-6.5807-8.09236-18.07117-13.2166-27.25663-17.64242-41.18719-19.84521-87.70999-23.33148-132.69197-25.48352-99.55328-4.76285-200.39312,.14838-297.29293,24.86533-11.96336,3.05158-23.84248,6.41437-35.63943,10.05577-3.80596,1.1748-7.4026,7.1569-9.34577,9.82339-6.20976,8.52124-11.82879,17.75773-17.05134,26.89775-5.25405,9.19514-10.55014,18.49206-14.76846,28.21577l-2.72946,6.54905c-1.26323,2.07372-1.63155,4.22583-1.10496,6.45632h0Z"/>
    <path class="cls-2" d="M841.22442,756.82884c49.35237,12.2943,100.29194-3.26997,143.3408-27.77179,20.68059-11.77063,40.2769-25.78253,57.12648-42.6434,29.87744-29.89745,52.30262-67.40091,70.97904-105.02016,14.9717-30.15695,26.2912-62.36251,24.16891-96.46844,.38096-2.25488-.30971-2.65363-2.07201-1.19628-58.57387,34.9594-96.46009,95.90703-126.69977,155.21113-7.52014,14.748-14.80815,30.08929-20.0039,45.84174-4.3106,13.06887-8.02666,27.52282-3.60712,41.11391,8.00112,24.60523,40.25809,24.46975,61.32545,24.77564,32.88351,.47747,65.61995-4.97503,96.705-15.64654,3.87002-1.32858,7.26837-6.97271,9.34577-9.82339,6.20976-8.52124,11.82879-17.75773,17.05134-26.89775,5.25405-9.19514,10.55014-18.49206,14.76846-28.21577l2.72946-6.54905c1.26323-2.07372,1.63155-4.22583,1.10496-6.45632-30.4945,10.46878-62.59217,15.93197-94.85422,15.66726-24.04078-.19725-59.75144-.47929-64.53236-30.8107l.23229,1.99023c-.94454-8.1105,.25505-16.10399,2.41599-23.92869-.99544,3.60444,.94057-2.69361,1.16636-3.3225,.54319-1.51297,1.11925-3.01388,1.70567-4.51053,.39362-1.00282,.79338-2.00319,1.19928-3.0011-1.70832,4.05981-1.9965,4.75387-.86454,2.08219,.64805-1.4746,1.28185-2.95513,1.94315-4.42394,1.15713-2.57014,5.13284-9.91637-.53495,.96489,.98556-1.89213,1.92445-3.81798,2.87833-5.72666-6.48776,12.9817-3.48028,6.71572-1.97239,3.89541-4.56586,8.10703-5.73269,10.19639-3.50049,6.26807,.528-.92095,1.06159-1.83865,1.60077-2.7531-4.78828,7.98749-6.00855,10.05208-3.66081,6.19376,2.17181-3.49713,1.09232-1.8137-3.23847,5.05029,.87334-1.32029,1.73316-2.65111,2.59746-3.97731,3.25741-4.9982-5.77985,8.19322-.68524,1.03243,1.06493-1.49682,2.14677-2.98135,3.24368-4.45488,4.00214-5.37624-3.38409,4.1889-.01065,.02923,1.31479-1.62122,2.60409-3.26164,3.93767-4.86789,2.32371-2.79883,4.70649-5.54852,7.14995-8.24348,.69578-.76742,1.39638-1.53042,2.1018-2.28899q-1.42948,1.50498,.00148,.01439c1.0862-1.10217,2.16066-2.21525,3.25711-3.30747,2.72978-2.71924,5.52518-5.37198,8.38345-7.95579,11.101-10.03503,23.15054-18.94553,35.99948-26.61433l-2.07201-1.19628c.92125,14.80485-.47246,29.61239-4.02045,44.01332-.48394,1.96425-1.00595,3.91857-1.56258,5.8635,.76516-2.67352-.45623,1.36184-.71952,2.14908-.54857,1.64027-1.12347,3.27227-1.72343,4.89445-.40411,1.09266-2.83707,7.16096-1.17252,3.14811,1.67387-4.03532-.64002,1.29846-1.05068,2.24932-1.4361,3.32523,2.46055-4.78818,2.10238-4.35782-.48165,.57874-.81939,1.62063-1.15242,2.30014-1.90468,3.88637,3.56937-6.82701,2.99427-5.7464,7.16281-13.45891,5.03481-8.84339,3.34006-5.97513-.82569,1.39744,6.43085-10.66086,3.94171-6.63116-2.50409,4.05389,5.72482-8.71923,3.0488-4.79283-.45298,.66464-1.04645,1.38699-1.39987,2.10796-.28737,.58624,4.95366-6.99801,2.74253-4.04982-.62626,.83502-4.08207,5.47127-1.37793,1.97192,2.70345-3.49845-.84578,1.0351-1.50188,1.84435-1.23873,1.52789-2.5,3.03739-3.78389,4.52756-1.27922,1.48474-2.62786,2.90991-3.90576,4.39455-1.35033,1.5688,.10688-.07901,.34165-.3282-.5734,.60865-1.15897,1.20649-1.74301,1.80489-2.52468,2.58674-5.11503,5.10929-7.76573,7.56674-10.30856,9.55702-21.50543,18.12895-33.22854,25.87475-14.23101,9.40285-29.20574,17.65126-44.82244,24.5152l1.83973-.79395c-36.04408,15.55051-75.91029,23.08003-114.57115,13.44913-2.57081-.64042-9.22073,9.6518-9.34577,9.82339-6.20976,8.52124-11.82879,17.75773-17.05134,26.89775-1.6041,2.80735-21.5407,40.4893-18.60289,41.22114h0Z"/>
    <path class="cls-1" d="M408.5499,759.00142c49.35237,12.2943,100.29194-3.26997,143.3408-27.77179,20.68059-11.77063,40.2769-25.78253,57.12648-42.6434,29.87744-29.89745,52.30262-67.40091,70.97904-105.02016,14.9717-30.15695,26.2912-62.36251,24.16891-96.46844,.38096-2.25488-.30971-2.65363-2.07201-1.19628-58.57387,34.9594-96.46009,95.90703-126.69977,155.21113-7.52014,14.748-14.80815,30.08929-20.0039,45.84174-4.3106,13.06887-8.02666,27.52282-3.60712,41.11391,8.00112,24.60523,40.25809,24.46975,61.32545,24.77564,32.88351,.47747,65.61995-4.97503,96.705-15.64654,3.87002-1.32858,7.26837-6.97271,9.34577-9.82339,6.20976-8.52124,11.82879-17.75773,17.05134-26.89775,5.25405-9.19514,10.55014-18.49206,14.76846-28.21577l2.72946-6.54905c1.26323-2.07372,1.63155-4.22583,1.10496-6.45632-30.4945,10.46878-62.59217,15.93197-94.85422,15.66726-24.04078-.19725-59.75144-.47929-64.53236-30.8107l.23229,1.99023c-.94454-8.1105,.25505-16.10399,2.41599-23.92869-.99544,3.60444,.94057-2.69361,1.16636-3.3225,.54319-1.51297,1.11925-3.01388,1.70567-4.51053,.39362-1.00282,.79338-2.00319,1.19928-3.0011-1.70832,4.05981-1.9965,4.75387-.86454,2.08219,.64805-1.4746,1.28185-2.95513,1.94315-4.42394,1.15713-2.57014,5.13284-9.91637-.53495,.96489,.98556-1.89213,1.92445-3.81798,2.87833-5.72666-6.48776,12.9817-3.48028,6.71572-1.97239,3.89541-4.56586,8.10703-5.73269,10.19639-3.50049,6.26807,.528-.92095,1.06159-1.83865,1.60077-2.7531-4.78828,7.98749-6.00855,10.05208-3.66081,6.19376,2.17181-3.49713,1.09232-1.8137-3.23847,5.05029,.87334-1.32029,1.73316-2.65111,2.59746-3.97731,3.25741-4.9982-5.77985,8.19322-.68524,1.03243,1.06493-1.49682,2.14677-2.98135,3.24368-4.45488,4.00214-5.37624-3.38409,4.1889-.01065,.02923,1.31479-1.62122,2.60409-3.26164,3.93767-4.86789,2.32371-2.79883,4.70649-5.54852,7.14995-8.24348,.69578-.76742,1.39638-1.53042,2.1018-2.28899q-1.42948,1.50498,.00148,.01439c1.0862-1.10217,2.16066-2.21525,3.25711-3.30747,2.72978-2.71924,5.52518-5.37198,8.38345-7.95579,11.101-10.03503,23.15054-18.94553,35.99948-26.61433l-2.07201-1.19628c.92125,14.80485-.47246,29.61239-4.02045,44.01332-.48394,1.96425-1.00595,3.91857-1.56258,5.8635,.76516-2.67352-.45623,1.36184-.71952,2.14908-.54857,1.64027-1.12347,3.27227-1.72343,4.89445-.40411,1.09266-2.83707,7.16096-1.17252,3.14811,1.67387-4.03532-.64002,1.29846-1.05068,2.24932-1.4361,3.32523,2.46055-4.78818,2.10238-4.35782-.48165,.57874-.81939,1.62063-1.15242,2.30014-1.90468,3.88637,3.56937-6.82701,2.99427-5.7464,7.16281-13.45891,5.03481-8.84339,3.34006-5.97513-.82569,1.39744,6.43085-10.66086,3.94171-6.63116-2.50409,4.05389,5.72482-8.71923,3.0488-4.79283-.45298,.66464-1.04645,1.38699-1.39987,2.10796-.28737,.58624,4.95366-6.99801,2.74253-4.04982-.62626,.83502-4.08207,5.47127-1.37793,1.97192,2.70345-3.49845-.84578,1.0351-1.50188,1.84435-1.23873,1.52789-2.5,3.03739-3.78389,4.52756-1.27922,1.48474-2.62786,2.90991-3.90576,4.39455-1.35033,1.5688,.10688-.07901,.34165-.3282-.5734,.60865-1.15897,1.20649-1.74301,1.80489-2.52468,2.58674-5.11503,5.10929-7.76573,7.56674-10.30856,9.55702-21.50543,18.12895-33.22854,25.87475-14.23101,9.40285-29.20574,17.65126-44.82244,24.5152l1.83973-.79395c-36.04408,15.55051-75.91029,23.08003-114.57115,13.44913-2.57081-.64042-9.22073,9.6518-9.34577,9.82339-6.20976,8.52124-11.82879,17.75773-17.05134,26.89775-1.6041,2.80735-21.5407,40.4893-18.60289,41.22114h0Z"/>
    <path class="cls-24" d="M5319.57654,1825.82016c122.81806-37.94649,234.35727-107.47753,325.69601-197.59331,27.32648-26.9606,52.96284-55.60741,76.76842-85.71876,12.66074-16.01439,23.18767-34.21577,32.18237-52.51273,2.52567-5.1377,8.44407-13.51265,8.01106-19.25424-.33283-4.41329-3.80147,.62575-5.27114,2.19486-25.92344,27.67724-45.73293,62.22952-62.63445,95.91505-12.4106,24.73492-22.70971,50.59628-27.57814,77.94344-7.14281,40.12291-7.62141,103.28939,42.58295,114.29456,19.82228,4.34519,40.86881,.01067,59.90263-5.88626,22.96433-7.11466,45.51567-15.81542,67.61692-25.25032,45.94116-19.61203,90.03075-43.40305,131.66038-71.01266,48.10826-31.90636,92.76694-68.73146,133.71127-109.40219,12.83494-12.74918,21.95265-30.54415,30.39957-46.36764,4.20436-7.87597,8.72475-15.87139,11.65574-24.32438,.33556-.96775,3.09062-9.11855-.73477-5.66237-26.39607,23.8484-46.0958,53.95344-63.76098,84.57438-18.09517,31.36629-34.4153,64.38597-42.5265,99.87859-10.32116,45.16289-3.71914,109.16486,52.76874,116.46678,23.02581,2.97644,46.51219-3.37024,68.07249-10.91761,26.78594-9.37665,53.15656-19.98868,79.16382-31.33648,53.60906-23.39133,105.48057-50.73944,155.18817-81.5586,56.98931-35.33388,111.01736-75.26265,161.86871-118.95459l38.12141-72.96325c-21.07289,23.25077-40.90574,47.16008-57.90122,73.60282-21.84935,33.99473-44.62325,71.66236-53.29758,111.71586-9.75977,45.06551,1.79902,102.76118,51.66082,117.52433,23.9474,7.09038,49.8982,3.3175,73.78984-2.04881,26.42851-5.93612,52.49322-13.62654,78.00009-22.72927,50.29353-17.94842,98.58255-41.53635,143.80588-69.91784,54.00851-33.89493,103.47147-74.60321,147.78699-120.41078l1.99469-12.21143c-21.57901,45.84773-45.72519,96.17855-42.40415,148.20798,2.57054,40.27154,21.13573,86.03088,65.30729,94.02068,23.99451,4.34015,48.94181-1.79051,72.3238-6.94573,24.16142-5.32706,48.09785-11.66743,71.7369-18.97021,47.20025-14.58151,93.21707-33.01783,137.55816-54.78791,51.80676-25.43549,101.15445-55.60586,147.72949-89.6681,4.89673-3.58118,9.55945-11.86648,12.66913-16.5649,6.35239-9.59781,12.3116-19.65172,17.73043-29.80274,4.20436-7.87597,8.72475-15.87139,11.65574-24.32438,.45162-1.30248,3.26865-8.59024-.73477-5.66237-79.04912,57.81187-166.26755,104.26692-259.12994,135.60583-22.91272,7.73251-46.13152,14.55427-69.58815,20.43419-23.05934,5.78033-46.82371,11.94758-70.59045,13.7451-21.67592,1.63939-43.47065-2.33384-59.95317-17.35815-13.90032-12.67054-22.42247-30.41307-27.13179-48.38521-13.87868-52.96512,7.94285-104.28774,30.15262-151.47562-.46605,.99018,6.78219-17.16012,1.99469-12.21143-70.9469,73.33561-155.66582,133.9617-249.78739,173.86806-43.60346,18.48732-90.59679,34.98565-137.6664,41.64867-21.63353,3.06237-44.91847,3.07719-64.86856-6.95773-19.64287-9.8804-32.31308-28.3657-38.01584-49.23291-6.30913-23.086-5.11324-50.11652,3.18583-72.59805-.61191,1.6576,3.18313-8.59835,2.80987-6.89285-1.64872,7.53337-8.70179,15.87595-12.80041,22.61416,5.80808-9.54859-3.87183,4.74855,2.86848-4.14253,1.45148-1.91463,2.78626-3.72012,4.27001-5.60771,9.40613-11.9662,19.70142-23.23783,29.91675-34.50891,12.25663-13.52335,21.32156-31.72337,29.6914-47.74462,3.29741-6.31178,6.82683-12.81362,9.16478-19.55626,.3615-1.04256,3.1446-8.99556-.73477-5.66237-81.43329,69.96822-171.186,130.19631-267.58798,177.57048-45.30193,22.26242-92.87016,44.29938-141.58236,58.00964-19.47823,5.48223-40.92887,9.07202-60.85274,3.76577-20.87195-5.55875-35.86831-21.45878-42.59975-41.7159-8.39557-25.26503-4.93768-53.93884,2.27595-79.0656,1.80175-6.27592,4.11574-12.35156,6.41955-18.45332-.12685,.33596,3.66682-5.95626,.29923-.83946-2.61438,3.97236-4.59541,8.429-7.09922,12.49432-.42135,.68413-7.1981,9.49704-1.56714,2.77063,.23198-.2771,3.6349-4.43123,4.97126-5.98054,4.316-5.00373,9.00645-9.57157,13.90766-13.99972l41.32054-76.35439c-65.16482,64.72937-139.97399,119.66068-222.29939,160.57283-38.15531,18.96154-79.13233,37.51576-120.77756,47.28591-17.41593,4.08585-36.67054,6.13122-53.84582-.09754-18.77744-6.80979-30.12028-23.16718-34.7081-42.11025-5.93432-24.50277-3.17913-51.92534,2.38369-76.25004,2.54789-11.14122,6.78721-21.2243,10.43468-31.31357-1.51899,4.20167-6.04913,11.62045-6.95463,13.18588-2.18429,4.10286-4.63677,8.02726-7.35742,11.77319-1.36286,1.90244-.95905,1.33536,1.21143-1.70125,2.13302-2.78119,6.97298-8.35206,10.40875-12.02028l34.92228-69.57212c-78.77454,99.6408-179.22926,182.32549-294.21123,236.84312-31.76522,15.06118-64.59117,27.7224-98.17548,38.09877-3.80652,1.17608-7.40146,7.15535-9.34577,9.82339-6.20976,8.52124-11.82879,17.75773-17.05134,26.89775-5.261,9.20731-10.46031,18.51742-14.76846,28.21577-.53684,1.20851-4.60123,13.24229-3.83442,13.00537h0Z"/>
    <path class="cls-3" d="M577.51492,1360.76005c7.7688-7.81609,16.66384-14.00658,26.75028-18.45515l-1.83973,.79395c35.32585-14.74786,75.79758-5.45979,109.1099,10.32457,35.02416,16.59548,66.55528,41.24709,95.18999,67.09245,60.74516,54.82787,110.68958,120.13755,166.75907,179.47229,27.82543,29.44587,57.24364,57.61112,89.93555,81.64449,35.8141,26.32865,75.17441,47.59888,116.44494,64.03642,83.39833,33.21652,173.2424,46.62998,262.56348,49.69386,103.20888,3.54026,206.2194-5.86412,309.27805-9.66213,12.78913-.47132,25.58118-.84973,38.37611-1.12188,3.16712-.06736,8.45584-8.60219,9.34577-9.82339,6.20976-8.52124,11.82879-17.75773,17.05134-26.89775,5.25405-9.19514,10.55014-18.49206,14.76846-28.21577,.49394-1.13858,5.33797-13.03735,3.83442-13.00537-106.35229,2.26207-212.46062,12.78125-318.89963,11.44743-93.16909-1.16753-187.1038-12.08509-275.06875-44.16216-43.24258-15.76873-84.66648-36.59553-122.46919-62.91332-34.69108-24.15151-65.75926-53.00124-94.94369-83.47794-58.00252-60.57085-108.97656-127.92858-171.28928-184.33546-29.66586-26.8542-62.50617-52.58937-99.14148-69.22836-34.59543-15.71252-75.97436-23.66999-111.47041-6.27337-8.59918,4.21446-16.2259,9.93238-22.96469,16.71219-12.78334,12.86115-21.927,30.49611-30.39957,46.36764-4.20436,7.87597-8.72475,15.87139-11.65574,24.32438-.28569,.82392-2.94868,9.36825,.73477,5.66237h0Z"/>
    <path class="cls-14" d="M3185.47685,1323.20545c-.9926,1.96585-1.98974,3.92932-2.99834,5.88702-3.80132,7.37842,4.23889-7.97952,1.05539-2.02626-1.0337,1.93305-2.06491,3.86718-3.11086,5.79368-1.04541,1.9255-5.71913,10.32687-1.15066,2.1681,4.52702-8.08474,.20897-.40065-.76161,1.29332-.92823,1.62006-1.863,3.23641-2.80424,4.84895-.60193,1.03123-1.36719,2.12659-1.88875,3.21599-.59511,1.24304,6.20478-10.34975,3.73767-6.27886-1.28529,2.12081-2.56284,4.24595-3.8613,6.35876-1.13418,1.8455-2.28135,3.68268-3.42758,5.52067-3.55726,5.7041,5.75145-8.96678,1.29264-2.0454-2.50271,3.88494-5.04303,7.74572-7.62244,11.58018-.5149,.76543-1.03551,1.52709-1.54953,2.29311-2.43146,3.6235,4.53049-6.55167,2.04071-2.97083-1.22629,1.76368-2.44698,3.53101-3.68286,5.28804-2.46685,3.50704-4.9657,6.99164-7.49591,10.45324-2.52019,3.44788-5.22717,6.78706-7.66547,10.29065,.36885-.53001,3.9038-5.05902,.97065-1.27778-.56046,.72251-1.1187,1.44672-1.67991,2.16866-1.49533,1.92359-3.00047,3.83951-4.51535,5.74774-5.477,6.89912-11.08068,13.69764-16.80656,20.39164-5.5085,6.43986-11.13029,12.78272-16.85865,19.02778-1.42927,1.55818-2.86594,3.10956-4.30869,4.65526-.618,.6621-1.23574,1.32452-1.85728,1.98331,1.82556-1.93497-.26689,.27195-.53622,.55235-3.13263,3.26132-6.27319,6.51378-9.45405,9.72823-47.97096,48.47753-102.50338,90.29299-161.12661,125.0786-32.86762,19.50286-67.02388,36.77124-102.10783,51.91858l1.83973-.79395c-88.96512,38.20644-183.3279,61.40432-279.24768,73.62247-109.97582,14.0086-221.23799,13.89042-331.78715,8.08066-62.7133-3.29581-125.31072-8.43489-187.86196-13.95397-2.91577-.25727-8.79585,9.06877-9.34577,9.82339-6.20976,8.52124-11.82879,17.75773-17.05134,26.89775-5.25405,9.19514-10.55014,18.49206-14.76846,28.21577-.51783,1.19366-5.54292,12.85463-3.83442,13.00537,101.17651,8.92709,202.56717,16.87782,304.18829,17.6,101.10813,.71853,202.58543-5.8385,301.84044-25.84609,80.73507-16.27438,159.29583-41.92969,233.37687-78.03097,71.23743-34.71553,138.00138-78.95499,196.58502-132.40292,71.56572-65.29194,128.13935-143.56823,175.05076-228.01687,6.46052-11.63005,12.63557-23.42328,18.63175-35.29873,1.22589-2.42788,8.82562-15.33309,8.01106-19.25424,.41967-1.92317,.03562-2.45425-1.15215-1.59325-1.81088,.63748-3.18388,1.90018-4.11899,3.78811-12.96524,15.47964-23.12558,34.57573-32.18237,52.51273h0Z"/>
    <path class="cls-11" d="M2040.36687,889.95401c54.04277-3.25062,108.79707-10.9668,157.39461-36.28115,20.65507-10.75918,39.79609-24.54726,56.08999-41.21951,10.15193-10.38766,19.36184-21.50487,27.73757-33.37779,6.60532-9.36329,12.86589-18.97465,18.77097-28.79391,10.41472-17.31811,20.95647-34.95712,28.30005-53.83309,2.39001-6.14329,5.19233-14.13095,1.7082-20.49888-2.28925-4.18406-6.82222-5.5245-11.33367-5.26911-9.08016,.51402-17.74042,6.25636-25.15956,11.07244-16.51292,10.71924-30.69938,24.77243-43.25781,39.84844-34.48902,41.40299-60.27878,89.85653-85.64825,137.13762-2.79232,5.20405-5.5861,10.40737-8.40599,15.59655-1.30029,2.3928-2.60576,4.7828-3.91927,7.16838-.65599,1.19139-1.31378,2.38179-1.97394,3.57087-3.70159,6.66734,2.71821-4.86962,3.19241-5.69689-1.57236,2.74303-3.11322,5.50384-4.69513,8.24155-.45087,.78029-.90318,1.55974-1.35697,2.33833-.45328,.77764-.90814,1.55435-1.36459,2.33013-2.25661,3.822-.90376,1.555,4.05855-6.80099-1.38797,2.3015-2.77157,4.60501-4.18361,6.89189-.70357,1.13946-1.41524,2.27373-2.12425,3.40979-3.3369,5.34678,6.16858-9.59709,2.89865-4.57749-1.69276,2.59853-3.41839,5.17357-5.13051,7.75913,7.53893-11.38494,1.76865-2.58978-.12175,.04641-1.52952,2.13294-3.13145,4.2127-4.66564,6.34137,5.88957-8.17173-.18514,.17135-1.71913,2.06184-3.25494,4.01142-6.61299,8.85291-10.57362,12.20944,3.58975-3.04221,.38219-.40673-.33808,.33394-.89338,.91868-1.79505,1.82958-2.70514,2.7317-2.11918,2.10064-4.28917,4.14668-6.49423,6.15673-4.97891,4.5386-9.02701,11.06202-12.66913,16.5649-6.35239,9.59781-12.3116,19.65172-17.73043,29.80274-4.18532,7.8403-8.88239,15.85968-11.65574,24.32438l-1.33725,4.4661c-.38096,2.25488,.30971,2.65363,2.07201,1.19628l1.73015-.74943-1.83973,.79395c30.63129-13.12911,62.60953-23.42989,95.32395-29.8998,7.30006-1.44373,15.29782-2.64926,22.33811,.5167,5.5607,2.5006,9.45779,7.38382,12.17228,12.70304,6.29992,12.34508,8.10174,27.33743,9.76319,40.91684l-.23229-1.99023c3.08511,26.7006,2.03792,53.78778-3.17112,80.16185-1.28028,6.48223-2.80847,12.91454-4.58566,19.27854-.21978,.79369-.44473,1.58592-.67482,2.37669,.48142-1.57281,.53435-1.74784,.15878-.52509-.49569,1.56671-.98148,3.13599-1.49551,4.69692-1.02543,3.11387-2.11204,6.20683-3.26067,9.27739-.5728,1.53123-1.1608,3.05642-1.76434,4.5758-2.29447,5.77621,1.34024-2.99896,.23895-.51847-.66045,1.48756-1.29848,2.98462-1.9709,4.46705-3.01926,6.65638,2.87501-5.77033,1.17991-2.36198-.81465,1.63802-3.88203,7.58741-.05889,.29401,5.85258-11.16495-4.59834,8.09876,2.35742-4.29461,7.03339-12.53167-4.59065,7.58188,2.77337-4.77204,2.52485-4.20977,2.99279-5.00432,1.40382-2.38364-2.17446,3.5027-1.10626,1.83365,3.20459-5.00714-6.23345,9.7505-12.23028,19.61478-17.73043,29.80274-4.094,7.58334-8.94283,16.04417-11.65574,24.32438-.469,1.43145-3.31782,8.40753,.73477,5.66237,5.20844-3.52811,9.49125-11.59399,12.66913-16.5649,35.14123-54.96868,65.619-114.65711,68.60662-180.98244,1.05771-23.48119-.72847-47.78953-6.56455-70.61122-2.43946-9.53939-6.39932-20.67062-15.57556-25.70679-10.69228-5.86822-24.58989-1.26993-35.61312,1.25413-29.92679,6.85253-58.98359,16.71426-87.14118,28.91099l-41.32054,76.35439c19.92066-18.15896,36.11618-39.7035,51.21074-61.91677,17.84063-26.2544,33.63222-53.91141,48.84934-81.74659,5.22772-9.56256,10.34851-19.18295,15.51352-28.77938,2.57132-4.77744,5.15281-9.54946,7.76443-14.30502,1.08306-1.97217,2.17425-3.93979,3.26559-5.90738,3.29644-5.94317-6.55986,11.65082-3.21055,5.74491,.88228-1.55576,1.7627-3.11249,2.6521-4.66421,1.32818-2.31724,2.67471-4.62353,4.02351-6.92879,3.41407-5.83506-6.89798,11.48821-3.40337,5.71137,.68527-1.13281,1.36801-2.26705,2.0585-3.3967,.68816-1.12586,1.3805-2.24916,2.07763-3.36949l.69703-1.11682c2.14328-3.40838,.92248-1.49105-3.66242,5.75201,1.42015-2.19288,2.8306-4.39117,4.27861-6.566,.71981-1.08112,1.45449-2.15217,2.17606-3.23204-6.91996,10.35604-3.81432,5.54892-2.22053,3.28273,1.47771-2.10114,2.97952-4.18538,4.50847-6.24956,1.19844-1.61798,4.39611-5.52424-1.23354,1.56414,.78969-.99431,1.55477-2.0086,2.34286-3.00436,1.5671-1.98008,3.16245-3.93786,4.7888-5.86959,1.88224-2.23566,3.80523-4.43711,5.77272-6.59817,.74409-.8173,3.03832-4.09166,.19561-.25071,.95053-1.28432,2.33681-2.41617,3.46856-3.54336,3.78079-3.76554,7.71814-7.37515,11.82119-10.78725,8.70576-7.2397,18.33449-14.10421,28.67858-18.80411l-1.83973,.79395c8.47751-3.48451,20.10698-4.18679,22.07425,7.14871l-.23229-1.99023c.07546,1.73427-.27545,3.20259-.32072,4.90429,.26031-9.78426,19.82637-38.18625,13.78633-27.68403-2.5171,4.37666,7.17176-11.91889,2.8062-4.71832-2.4839,4.09696,6.15644-9.48902,2.72821-4.33819-3.58292,5.38325,5.37504-7.43532,1.53291-2.25502-.7918,1.06757-1.57259,2.14613-2.35133,3.22313-1.99337,2.75683,3.94384-4.97638,.91644-1.22121-.99577,1.23515-1.98348,2.47452-2.99852,3.69409-1.85339,2.22685-3.7578,4.41095-5.70805,6.55342-.99223,1.09003-2.36858,2.4817-.56654,.63447-1.09773,1.12526-2.19252,2.25136-3.30832,3.35884-4.07319,4.04283-8.32162,7.90896-12.71512,11.60084-17.34429,14.57453-36.94545,26.2497-57.71518,35.23255l1.83973-.79395c-43.96689,18.69555-91.67654,24.79687-139.001,27.64339-3.25788,.19596-8.32545,8.42327-9.34577,9.82339-6.20976,8.52124-11.82879,17.75773-17.05134,26.89775-5.25405,9.19514-10.55014,18.49206-14.76846,28.21577-.4895,1.12836-5.25488,13.09081-3.83442,13.00537h0Z"/>
    <path class="cls-5" d="M2342.42073,960.45587c-47.48587,6.99248-93.30849,24.02486-134.39234,48.76765-43.82085,26.39115-84.06695,62.01299-113.45512,104.02791-17.21116,24.60602-32.84591,50.92066-45.05757,78.37845-6.20335,13.94816-11.71105,28.83009-12.32806,44.24392-.93333,23.31564,8.97878,45.01896,26.57255,60.18295,19.47492,16.78535,44.9988,22.56953,69.94781,25.2388,28.14691,3.01142,56.58648,4.09004,84.88378,3.96132,64.84832-.29498,129.55057-8.19436,192.6241-23.22634,3.66281-.87294,7.67457-7.53011,9.34577-9.82339,6.20976-8.52124,11.82879-17.75773,17.05134-26.89775,5.25405-9.19514,10.55014-18.49206,14.76846-28.21577,.50072-1.15422,4.8128-13.23855,3.83442-13.00537-55.24227,13.1656-111.7263,20.87273-168.49005,22.77002-28.30974,.94624-56.66714,.45041-84.927-1.47491-26.12221-1.77968-53.54664-3.69964-77.22812-15.92027-22.41705-11.56813-39.34689-32.74211-42.70181-58.04296l.23229,1.99023c-.88794-8.18106-.50276-16.36547,1.1623-24.42753,.38651-1.87145,.89932-3.70542,1.34299-5.5625,.4787-2.00375-.06424,.22203-.1696,.53273,.35283-1.04043,.68872-2.08468,1.05808-3.11937,.35253-.98754,.93318-2.09568,1.16029-3.09403,.03611-.15875-2.40249,5.42992-1.14018,2.72024,.63226-1.35721,2.36366-5.08427-.23598,.33738-1.38989,2.85822-1.68292,3.48098-.87907,1.86828,.93264-1.84875,.4869-1.00194-1.33723,2.54042-2.56092,4.917-5.28481,9.73404-8.13088,14.49108-4.21048,7.03757-2.28747,3.79881-1.33375,2.25892-7.0205,11.33532-4.66193,7.27792-3.05065,4.83729,1.33237-2.01817,3.91337-4.93311-2.32365,3.37779,.65164-.86832,4.70329-6.27801,1.79818-2.57422-2.8475,3.63034,1.81641-2.26242,2.45715-3.04782,2.40692-2.95032,4.89344-5.83294,7.43633-8.66668,1.30283-1.45184,2.62546-2.8849,3.94099-4.32509,.38307-.41937,2.3569-2.52102,.22384-.26282,.76299-.80775,1.53299-1.60913,2.30447-2.40877,22.61754-23.44333,48.13317-44.10063,75.86501-61.1999,15.31056-9.44039,31.28527-17.74772,47.78016-24.91689l-1.83973,.79395c28.2266-12.12115,57.82936-20.68799,88.23048-25.16467,3.46015-.50952,8.01679-7.99972,9.34577-9.82339,6.20976-8.52124,11.82879-17.75773,17.05134-26.89775,5.25405-9.19514,10.55014-18.49206,14.76846-28.21577,.48825-1.12547,5.05041-13.18443,3.83442-13.00537h0Z"/>
    <path class="cls-19" d="M4391.85483,946.28529c58.87668,9.69342,119.42493-2.06828,171.73558-30.34443,26.85772-14.51775,53.80013-33.68901,73.08815-57.61102,15.47125-19.18825,27.99071-41.12142,39.14231-63.0134,5.55982-10.91462,11.89512-23.19221,13.25708-35.60233,1.25921-11.47392-2.97487-26.22804-13.51323-32.36464-15.73686-9.16374-30.117,10.7257-38.05219,21.38631-12.5942,16.9198-23.77815,35.17213-34.72276,53.17685-21.62906,35.58143-41.68779,72.1459-59.9337,109.57765-30.15676,61.86704-55.78887,125.70464-81.02786,189.6954-11.90381,30.18084-23.77952,60.37524-36.19624,90.34993-.44256,1.06835-.89392,2.13363-1.32998,3.20458-.05185,.12735,2.2391-5.35463,1.06122-2.54691-.78251,1.86527-1.56173,3.7319-2.34625,5.59633-1.56803,3.72644-3.14579,7.44879-4.73418,11.16659-3.17228,7.42507-6.38822,14.83153-9.65543,22.21532-3.26035,7.36829-6.57315,14.71342-9.94565,22.03107-1.68341,3.65265-3.38215,7.29826-5.09695,10.93627-.73432,1.55788-1.47348,3.11343-2.21188,4.66938-.99559,2.0979-2.90354,5.90769,1.71529-3.58074-.50207,1.03139-.99586,2.06687-1.49582,3.09929-3.49526,7.21776-7.06565,14.39849-10.70251,21.54591-2.06847,4.06511-7.98329,13.95074-8.01106,19.25424-.02451,4.67964,4.34296-1.08667,5.27114-2.19486,12.98435-15.50246,23.0581-34.58107,32.18237-52.51273,34.79952-68.39053,63.28765-139.66291,91.41497-210.98318,6.69496-16.97589,13.38396-33.95428,20.16926-50.89433,3.43966-8.58738,6.90379-17.165,10.40613-25.72703,1.53005-3.74044,3.06728-7.47795,4.61296-11.21196,.44134-1.06617,.88436-2.13164,1.32607-3.19765,1.79544-4.3331-.49396,1.26963-.73309,1.75774,1.13336-2.31339,2.0106-4.80027,3.01199-7.17463,7.03283-16.6753,14.26456-33.26769,21.79564-49.72438,1.78621-3.90316,3.58985-7.79836,5.41138-11.68516,.84909-1.81179,1.70177-3.62189,2.55903-5.42982,.48835-1.02992,.96121-2.07605,1.47258-3.09568-.77957,1.55441-3.86799,8.049-1.34881,2.8344,3.84246-7.95375,7.76873-15.86712,11.79127-23.73137,.9466-1.85065,5.33078-10.28145,1.42496-2.81025-3.93255,7.52233,.55973-1.04225,1.4806-2.7722,2.39953-4.50779,4.83345-8.99733,7.30408-13.46655,.41139-.74418,.82571-1.48672,1.23754-2.23065,2.55245-4.61071-6.26136,11.1192-2.93285,5.25041,1.25719-2.21667,2.51667-4.43184,3.78927-6.63973,1.27174-2.20639,2.55272-4.40745,3.84402-6.60245,.57363-.97508,1.15552-1.94551,1.72682-2.92192-.40269,.68824-6.8388,11.42914-3.07074,5.18532,2.48223-4.11316,5.01872-8.19147,7.55578-12.27081,3.19335-5.13459-3.24614,5.05575-3.04843,4.78736,.83236-1.12992,1.52701-2.38613,2.28785-3.56454,1.37826-2.13466,2.76712-4.26246,4.16708-6.38296,1.39985-2.12033,2.82391-4.22414,4.23362-6.33783,2.13065-3.19466-3.37105,4.90766-2.89403,4.23287,3.38098-4.78267-3.85524,5.31019-.46358,.54757,.13349-.18744,1.8307-2.24426,.47737-.66906-1.49447,1.73949,1.32117-1.25027,1.68243-1.56203,1.8774-1.62021,3.87143-2.9311,6.08809-4.04486l-1.83973,.79395c15.60226-6.50549,26.34399,9.30399,28.44243,22.94637l-.23229-1.99023c.28396,2.45944,.4062,4.90568,.18889,7.37704-.10598,1.20535-.27914,2.40151-.50689,3.58995-.16832,.87835-1.75722,4.80615-.31492,1.72421l-.53935,1.49035c3.25478-8.21722,7.43219-15.98592,12.53224-23.30609,3.61909-7.76053,7.85109-15.14279,12.69599-22.14679,1.24893-1.94412,2.60324-3.81247,4.06295-5.60504-.97078,.75246-1.72925,2.10694-2.53411,3.03091-.96463,1.10739-2.33078,2.53118-.53439,.67468-8.05603,8.32556-17.03115,15.85338-26.21982,22.89165-18.19375,13.93591-38.04313,25.56847-59.03283,34.75559l1.83973-.79395c-46.58566,20.0721-98.1056,27.28453-148.26459,19.02638-2.7475-.45235-9.00858,9.36069-9.34577,9.82339-6.20976,8.52124-11.82879,17.75773-17.05134,26.89775-5.25405,9.19514-10.55014,18.49206-14.76846,28.21577-.54305,1.2518-5.66004,12.70481-3.83442,13.00537h0Z"/>
    <path class="cls-25" d="M6114.34761,1090.71809c16.59511-11.97389,34.40038-22.02983,53.17114-30.17249l-1.83973,.79395c61.8993-26.43892,130.36307-30.61166,196.80081-26.35221,76.07878,4.87756,150.98311,21.00936,227.16903,24.80785,44.01911,2.19471,88.32352,.06158,131.27826-10.342,3.67106-.88913,7.6597-7.50971,9.34577-9.82339,6.20976-8.52124,11.82879-17.75773,17.05134-26.89775,5.25405-9.19514,10.55014-18.49206,14.76846-28.21577,.50158-1.15619,4.80223-13.23978,3.83442-13.00537-86.98254,21.06705-176.62701,7.6055-263.90316-4.14156-76.19827-10.25602-154.30292-18.9034-230.39584-2.99618-41.55837,8.68777-81.45398,25.09337-115.95999,49.99053-4.88369,3.52373-9.59422,11.91902-12.66913,16.5649-6.35239,9.59781-12.3116,19.65172-17.73043,29.80274-4.18532,7.8403-8.88239,15.85968-11.65574,24.32438-.43373,1.3238-3.28867,8.56541,.73477,5.66237h0Z"/>
    <path class="cls-18" d="M4644.74278,1104.82906c4.91021-3.74902,10.15208-6.86517,15.79045-9.38849l-1.83973,.79395c16.91444-7.19009,35.91216-8.24356,53.5111-2.87918,8.7574,2.66937,17.02444,6.87604,24.32146,12.40721,7.98521,6.05281,16.1412,13.93509,17.92566,24.1972l-.23229-1.99023c.10601,1.24946-.23087,2.84973,.03481,3.99782-.18395,1.05056-.11795,1.07916,.19801,.0858,.4729-1.19961,.37686-.96629-.28812,.69995l6.67381-14.78815,13.99425-23.06138c15.38897-22.35448,19.88536-29.84953,13.48917-22.48515-1.41214,1.53361,.44474-.44313,.61111-.61201-1.2872,1.30669-2.58771,2.59959-3.90814,3.8727-2.44377,2.3562-4.94677,4.65024-7.49472,6.89327-5.27686,4.64537-10.75234,9.06105-16.31108,13.36325-10.68392,8.26883-21.69278,16.10786-32.36273,24.39501-11.70661,9.0923-22.67589,18.8351-32.76766,29.70347-20.11861,21.66681-35.5372,48.11157-49.14412,74.15746-13.55835,25.95291-34.25777,68.43979-5.67117,92.58543,9.02709,7.62472,20.94013,10.84571,32.43444,12.34336,14.97696,1.95142,30.40028,1.8196,45.46529,1.30405,37.35139-1.27821,74.36492-7.94971,109.91407-19.4389,3.83341-1.23893,7.34626-7.0796,9.34577-9.82339,6.20976-8.52124,11.82879-17.75773,17.05134-26.89775,5.25405-9.19514,10.55014-18.49206,14.76846-28.21577l2.72946-6.54905c1.26323-2.07372,1.63155-4.22583,1.10496-6.45632-31.07992,10.04478-63.27463,16.42939-95.86768,18.70862-15.89847,1.11178-31.86979,1.27031-47.78581,.4364-11.77134-.61675-23.89227-2.12304-34.63483-7.28085-13.06253-6.2717-21.30487-17.87469-23.21928-32.20988l.23229,1.99023c-.56924-5.60625-.32553-11.19731,.6802-16.74066,.28027-1.5448,.67753-3.05664,.99492-4.59207,1.01909-4.93004-1.29773,3.15216,.44818-1.5911,.3646-.99053,.71382-1.99006,1.07207-2.98267,1.06323-2.692,.75696-1.97376-.9188,2.15474,1.48654-3.25148,.84865-1.93009-1.91369,3.96418-5.00731,10.18587-10.91021,20.49744-17.26438,29.97868,.04118-.06144-5.62226,8.00435-2.47266,3.66421,3.43725-4.73651-4.16533,5.07577-.4712,.57245,1.00006-1.21912,1.97754-2.45434,2.99655-3.65818,1.68605-1.99187,3.41706-3.9485,5.20333-5.85109-2.82195,3.0057,.77173-.72707,1.13456-1.08921,1.10037-1.09829,2.21448-2.18296,3.34003-3.25541,16.92942-16.13084,36.45188-29.14825,54.87485-43.44927,9.47384-7.35417,18.69784-15.07482,27.09664-23.65154,10.96142-11.19362,19.34289-24.421,27.33229-37.8394,6.96299-11.69451,13.7557-23.59179,19.28054-36.0489,2.24892-5.07074,5.24899-11.3598,5.58015-17.07694,.72516-12.51918-9.04293-22.3768-18.27883-29.37529-8.22389-6.23164-17.67387-10.77981-27.66588-13.34963-23.42212-6.02387-48.6113-.6444-67.79686,14.00405-4.93338,3.76671-9.44905,11.69969-12.66913,16.5649-6.35239,9.59781-12.3116,19.65172-17.73043,29.80274-4.18532,7.8403-8.88239,15.85968-11.65574,24.32438-.4024,1.22819-3.25459,8.7083,.73477,5.66237h0Z"/>
    <path class="cls-21" d="M6712.10526,819.96413c3.11766,0,8.52508-8.6972,9.34577-9.82339,6.20976-8.52124,11.82879-17.75773,17.05134-26.89775,5.25405-9.19514,10.55014-18.49206,14.76846-28.21577,.49731-1.14635,5.38117-13.00537,3.83442-13.00537-3.11766,0-8.52508,8.6972-9.34577,9.82339-6.20976,8.52124-11.82879,17.75773-17.05134,26.89775-5.25405,9.19514-10.55014,18.49206-14.76846,28.21577-.49731,1.14635-5.38117,13.00537-3.83442,13.00537h0Z"/>
    <path class="cls-4" d="M5926.03147,622.13983c51.13245-35.58512,96.64405-79.18903,135.20871-128.0815,25.85858-32.78364,48.79849-67.60397,70.00833-103.54615,20.39274-34.55752,39.00516-70.44516,54.50229-107.47692,14.60096-34.89026,26.68437-70.66347,35.48329-107.46992,.38096-2.25488-.30971-2.65363-2.07201-1.19628-9.94505,9.73308-18.92613,20.21478-27.00273,31.55061-16.33185,22.9224-31.02603,47.88205-42.35104,73.66807-9.05744,20.62298-14.61071,44.15221-.973,64.20893,9.46908,13.926,25.46035,21.63523,41.18807,26.21493,18.97463,5.52516,38.93554,6.99215,58.53443,8.68564,95.8839,8.28511,192.80716,4.03431,287.63607-12.34772,47.46746-8.20017,94.41037-19.45067,140.4325-33.67688,11.59158-3.58315,23.12484-7.3549,34.59317-11.31487,9.19112-3.17365,20.026-5.79006,27.46677-12.38723,3.95941-3.51051,7.15221-7.94026,10.26033-12.18402,8.83495-12.06308,16.63423-25.39297,23.65375-38.54254,4.40605-8.25378,8.85359-16.58992,12.17634-25.3511,1.20596-3.17978,2.45153-6.70257,2.42496-10.17219-.02726-3.55961-.78716-7.64796-3.2396-10.38073-1.12136-1.24954-2.73083-2.39967-4.44072-2.5932-2.8417-.32163-4.66283,2.38526-6.49285,4.21162-67.36012,67.2257-125.29662,142.63738-175.98199,223.07699-53.83874,85.44413-99.94383,176.62853-133.86665,271.83254-3.58915,10.07292-7.02996,20.19731-10.3416,30.36476-.44029,1.35179-3.33016,8.03773,.73477,5.66237,2.00089-1.88599,3.78508-3.95608,5.35259-6.21029,2.61557-3.32363,5.05442-6.77516,7.31655-10.35461,6.31942-9.67247,12.28948-19.61028,17.73043-29.80274,4.18323-7.83638,8.8985-15.85905,11.65574-24.32438,5.4024-16.58655,11.16229-33.0544,17.30956-49.37981,2.97252-7.89417,6.03254-15.75542,9.17903-23.58186,1.57285-3.91224,3.17716-7.81123,4.78336-11.70983,1.1552-2.80392-1.1814,2.82777-1.10691,2.65793,.4511-1.02857,.87107-2.07349,1.30848-3.1083,.9847-2.32958,1.97739-4.65578,2.97748-6.9788,3.33277-7.74143,6.75077-15.4461,10.25308-23.11231,1.75063-3.83195,3.52203-7.65441,5.31464-11.4669,.83644-1.77891,1.68124-3.55382,2.52323-5.3301,1.81598-3.83104-3.60971,7.49591-1.76031,3.68107,.61241-1.26324,1.22086-2.5284,1.83489-3.79086,3.68329-7.57286,7.44967-15.10534,11.29813-22.59561,1.02597-1.99685,2.0705-3.98424,3.09543-5.98158,.16428-.32015-5.46379,10.40094-2.63768,5.06242,.39382-.74393,.78572-1.48888,1.17966-2.23275,2.10076-3.96675,4.22467-7.9212,6.37162-11.86314,2.20046-4.04017,10.13176-18.09091,1.07705-2.07874,2.20846-3.90539,4.41198-7.81307,6.65226-11.70039,1.95969-3.40045,3.93677-6.79089,5.93112-10.17112,.56929-.96489,1.15421-1.92341,1.71343-2.89444,.34585-.60053-6.8758,11.49337-3.53482,5.94781,1.15695-1.92038,2.31213-3.84178,3.4768-5.75751,2.18331-3.59129,4.38613-7.1707,6.60847-10.73797,1.03692-1.66445,2.08122-3.3242,3.12321-4.98546,3.20694-5.11289-3.27404,5.12215-3.07041,4.82271,.78656-1.15661,1.50692-2.36308,2.26201-3.54034,4.68624-7.30627,9.45503-14.55958,14.30586-21.75763,1.095-1.62484,2.20026-3.2427,3.29771-4.86587,2.10408-3.11203-3.24417,4.70155-2.79299,4.07028,.65012-.90963,1.2693-1.84541,1.90527-2.76551,2.54553-3.68281,5.11224-7.35099,7.70063-11.0038,5.0129-7.07435,10.10657-14.09146,15.27946-21.04967,2.3353-3.14128,4.69741-6.2619,7.05407-9.3871,2.15877-2.86277-3.44217,4.47904-1.2547,1.63839,.68211-.88579,1.36166-1.77357,2.04445-2.65884,1.36544-1.77035,2.7361-3.53666,4.11198-5.29892,5.32961-6.82626,10.73717-13.59165,16.22212-20.29373,12.02049-14.68789,24.41152-29.07275,37.16138-43.13222,3.37233-3.71872,6.76977-7.41469,10.19208-11.08747,.65313-.70093,4.77114-5.08172,2.5263-2.70712,1.72362-1.82325,3.45487-3.63933,5.19143-5.45027,6.75103-7.04019,13.59943-13.98548,20.52951-20.84938l-1.83973,.79395c5.28124,.56312,7.79396,5.05969,8.4725,9.92336l-.23229-1.99023c.05964,.98967-.00577,1.95739-.01046,2.94323-.00656,1.3791-1.2428,3.55113,.33094-.52608l6.67381-14.78815-.5206,1.02672,16.94471-30.25637,14.92227-21.28858-1.05468,.91358c-.9752,.65293-1.87568,1.39845-2.88015,2.01821-1.83728,1.1336-3.78241,2.04308-5.75908,2.90376l1.83973-.79395c-19.54042,7.98314-40.13856,14.01397-60.34515,20.05881-20.54983,6.14752-41.27776,11.70026-62.1467,16.65729-41.70418,9.90606-83.97412,17.42602-126.53473,22.52045-85.07047,10.18279-171.67351,10.98054-256.8248,1.16231-32.51616-3.74922-74.82664-14.79713-80.31572-52.96394l.23229,1.99023c-.5698-5.14394-.45909-10.27615,.42613-15.38166,.26679-1.5387,.61945-3.04794,.97817-4.56684,.38293-1.62144,.58087-1.67238-.01283-.0629,.53655-1.45458,1.1975-3.00096,1.64469-4.48223-1.29136,4.27755-3.70654,8.28806-5.76859,12.21795-3.26082,6.21454-6.69325,12.37142-10.38834,18.33807l-3.96767,6.2882c-3.46622,4.99045-4.39713,6.35753-2.79273,4.10124,.32115-.45593,.64806-.90768,.98072-1.35528,1.23774-1.67802,.64395-.91175-1.78136,2.29879,1.0199-.77389,1.81421-2.28013,2.62546-3.26066,1.77195-2.14171,3.64311-4.18764,5.47511-6.27624,1.34683-1.53548-1.59636,1.55142,.76125-.78936,1.14958-1.14137,2.28573-2.29529,3.44367-3.42855l-2.07201-1.19628c-1.71049,7.15508-3.5301,14.28304-5.4867,21.37493-.90786,3.29063-1.84271,6.57377-2.80433,9.84909-.22187,.75569-.44431,1.51122-.66942,2.26596,.20087-.67345,.99615-3.25631-.02813,.05734-.54258,1.75531-1.08331,3.51108-1.63634,5.26315-4.34222,13.75672-9.15957,27.36331-14.43513,40.78977-1.33925,3.40842-2.86202,6.7712-4.11439,10.21041-.10315,.28328,2.39275-5.67977,1.21714-2.92081-.30815,.72317-.61015,1.449-.91735,2.17258-.81911,1.92936-1.64812,3.85456-2.48639,5.77567-1.36192,3.12119-2.74926,6.23127-4.1609,9.33028-1.39007,3.05166-7.54202,15.80624-1.71791,3.85655-1.49116,3.0595-2.97481,6.12185-4.49865,9.16537-.82027,1.63831-1.64712,3.27333-2.48138,4.90456-.89032,1.74086-4.22294,8.13872-.39785,.80881,3.80371-7.28892,.50066-.98777-.44831,.78123-.74201,1.38322-1.48884,2.76388-2.24083,4.1417-.99693,1.82661-4.78127,8.60807-.11487,.27451,4.62481-8.25928,.63146-1.14345-.55443,.92625-.77996,1.36124-1.56488,2.71961-2.35476,4.07512-.52652,.90356-1.0594,1.80342-1.58616,2.70682-2.36239,4.05149,5.04887-8.43661,4.12001-6.90721-1.89946,3.12754-3.78,6.26566-5.71017,9.37454-.95337,1.53558-4.98307,7.90268-.45123,.76892s.48412-.77938-.4989,.73721c-1.98855,3.06795-4.00327,6.11899-6.04383,9.1526-.8734,1.29845-4.84928,7.12259-.94233,1.41293,3.7394-5.46479,.33573-.51399-.53996,.73784-2.24347,3.2071-4.51587,6.39397-6.81765,9.55948-1.99403,2.74228-4.0102,5.46846-6.04753,8.17872-.64734,.86116-3.97251,5.24693-1.1564,1.54258,2.90856-3.82596-1.39636,1.78077-2.15314,2.74751-8.82818,11.27744-18.03642,22.25687-27.60659,32.91192-2.43315,2.70897-4.89036,5.39647-7.37045,8.06254-.80797,.86856-3.2255,3.40675-1.07354,1.15636-1.43714,1.50287-2.87004,3.00958-4.31658,4.50346-4.87898,5.03865-9.84216,9.99565-14.88837,14.86681-23.31594,22.50713-48.40485,43.13148-75.00378,61.64274-4.84563,3.37227-9.68718,12.05947-12.66913,16.5649-6.35239,9.59781-12.3116,19.65172-17.73043,29.80274-4.18532,7.8403-8.88239,15.85968-11.65574,24.32438-.45389,1.38533-3.30643,8.47481,.73477,5.66237h0Z"/>
    <path class="cls-22" d="M6421.93112,884.21625c-49.03652,108.9825-83.67969,224.37215-101.2993,342.62069-4.8102,32.28215-8.34358,64.7441-10.65123,97.30027-.35429,4.99831,4.78385-1.63369,5.27114-2.19486,5.75586-6.62839,10.70693-14.82165,15.23766-22.25636,6.01026-9.86256,11.84768-19.88802,16.94471-30.25637,2.81433-5.72489,7.55577-12.83101,8.01106-19.25424,4.04866-57.11832,11.93237-113.94175,23.66352-169.99062,5.9223-28.29545,12.81384-56.3881,20.66031-84.21147,7.05468-25.01567,15.46367-51.3335,25.02669-78.05402,5.37916-15.03019,11.04538-29.95769,16.99638-44.77079,1.60158-3.98663,3.23328-7.96064,4.86641-11.9344,2.46188-5.99029-2.42525,5.71397,.1064-.2468,.83953-1.97668,1.67128-3.95663,2.51447-5.93178,3.25166-7.61687,6.58468-15.19823,9.98294-22.75079-.34797,.77335,5.82857-11.85405,3.83442-13.00537-1.99552-1.15211-9.83966,10.51386-9.34577,9.82339-12.23464,17.10435-23.18416,35.92099-31.81981,55.11352h0Z"/>
  </g>
</svg>