<?xml version="1.0" encoding="UTF-8"?>
<svg xmlns="http://www.w3.org/2000/svg" width="2103.0585mm" height="500.6834mm" xmlns:xlink="http://www.w3.org/1999/xlink" viewBox="0 0 5961.4258 1419.26">
  <defs>
    <style>
      .cls-1 {
        fill: #ba3d04;
      }

      .cls-2 {
        fill: url(#_称未設定グラデーション_685-2);
      }

      .cls-3 {
        fill: url(#_称未設定グラデーション_685-3);
      }

      .cls-4 {
        fill: url(#_称未設定グラデーション_761-2);
      }

      .cls-5 {
        fill: url(#_規グラデーションスウォッチ_4);
      }

      .cls-6 {
        fill: url(#_規グラデーションスウォッチ_3);
      }

      .cls-7 {
        fill: url(#_称未設定グラデーション_761);
      }

      .cls-8 {
        fill: url(#_称未設定グラデーション_685);
      }

      .cls-9 {
        fill: url(#_称未設定グラデーション_701);
      }

      .cls-10 {
        fill: url(#_称未設定グラデーション_703);
      }

      .cls-11 {
        fill: url(#_称未設定グラデーション_705);
      }

      .cls-12 {
        fill: url(#_称未設定グラデーション_714);
      }

      .cls-13 {
        fill: url(#_称未設定グラデーション_743);
      }

      .cls-14 {
        fill: url(#_称未設定グラデーション_748);
      }

      .cls-15 {
        fill: url(#_称未設定グラデーション_711);
      }

      .cls-16 {
        fill: url(#_称未設定グラデーション_740);
      }

      .cls-17 {
        fill: url(#_称未設定グラデーション_752);
      }

      .cls-18 {
        fill: url(#_称未設定グラデーション_758);
      }

      .cls-19 {
        fill: url(#_規グラデーションスウォッチ_3-3);
      }

      .cls-20 {
        fill: url(#_規グラデーションスウォッチ_3-2);
      }

      .cls-21 {
        fill: url(#_規グラデーションスウォッチ_4-5);
      }

      .cls-22 {
        fill: url(#_規グラデーションスウォッチ_4-6);
      }

      .cls-23 {
        fill: url(#_規グラデーションスウォッチ_4-2);
      }

      .cls-24 {
        fill: url(#_規グラデーションスウォッチ_4-3);
      }

      .cls-25 {
        fill: url(#_規グラデーションスウォッチ_4-4);
      }
    </style>
    <linearGradient id="_称未設定グラデーション_685" data-name="名称未設定グラデーション 685" x1="243.4167" y1="134.0429" x2="1192.9052" y2="134.0429" gradientTransform="matrix(1, 0, 0, 1, 0, 0)" gradientUnits="userSpaceOnUse">
      <stop offset=".0012" stop-color="#005f73"/>
      <stop offset=".5223" stop-color="#0a9396"/>
      <stop offset=".9988" stop-color="#ee9b00"/>
    </linearGradient>
    <linearGradient id="_称未設定グラデーション_685-2" data-name="名称未設定グラデーション 685" x1="163.345" y1="428.7198" x2="1098.861" y2="428.7198" xlink:href="#_称未設定グラデーション_685"/>
    <linearGradient id="_称未設定グラデーション_701" data-name="名称未設定グラデーション 701" x1="1043.0341" y1="409.285" x2="1105.986" y2="409.285" gradientTransform="matrix(1, 0, 0, 1, 0, 0)" gradientUnits="userSpaceOnUse">
      <stop offset="0" stop-color="#ee9b00"/>
      <stop offset=".395" stop-color="#ee9b00"/>
    </linearGradient>
    <linearGradient id="_称未設定グラデーション_685-3" data-name="名称未設定グラデーション 685" x1="11.1108" y1="640.4713" x2="1165.6428" y2="640.4713" xlink:href="#_称未設定グラデーション_685"/>
    <linearGradient id="_称未設定グラデーション_711" data-name="名称未設定グラデーション 711" x1="251.8014" y1="991.9877" x2="828.0013" y2="991.9877" gradientTransform="matrix(1, 0, 0, 1, 0, 0)" gradientUnits="userSpaceOnUse">
      <stop offset=".0012" stop-color="#005f73"/>
      <stop offset=".6974" stop-color="#0a9396"/>
      <stop offset="1" stop-color="#ee9b00"/>
    </linearGradient>
    <linearGradient id="_規グラデーションスウォッチ_4" data-name="新規グラデーションスウォッチ 4" x1="4614.4289" y1="794.5975" x2="5562.3847" y2="794.5975" gradientTransform="matrix(1, 0, 0, 1, 0, 0)" gradientUnits="userSpaceOnUse">
      <stop offset="0" stop-color="#bb3e03"/>
      <stop offset="1" stop-color="#9b2226"/>
    </linearGradient>
    <linearGradient id="_規グラデーションスウォッチ_4-2" data-name="新規グラデーションスウォッチ 4" x1="4774.3775" y1="827.4508" x2="5549.8012" y2="827.4508" xlink:href="#_規グラデーションスウォッチ_4"/>
    <linearGradient id="_称未設定グラデーション_758" data-name="名称未設定グラデーション 758" x1="2480.9293" y1="618.8776" x2="3042.2685" y2="618.8776" gradientTransform="matrix(1, 0, 0, 1, 0, 0)" gradientUnits="userSpaceOnUse">
      <stop offset="0" stop-color="#ee9b00"/>
      <stop offset=".1135" stop-color="#ed9900"/>
      <stop offset=".9818" stop-color="#ca6702"/>
    </linearGradient>
    <linearGradient id="_規グラデーションスウォッチ_3" data-name="新規グラデーションスウォッチ 3" x1="2776.252" y1="1238.9918" x2="4104.9387" y2="1238.9918" gradientTransform="matrix(1, 0, 0, 1, 0, 0)" gradientUnits="userSpaceOnUse">
      <stop offset="0" stop-color="#ca6702"/>
      <stop offset="1" stop-color="#bb3e03"/>
    </linearGradient>
    <linearGradient id="_称未設定グラデーション_740" data-name="名称未設定グラデーション 740" x1="2702.5797" y1="546.9356" x2="2924.0541" y2="546.9356" gradientTransform="matrix(1, 0, 0, 1, 0, 0)" gradientUnits="userSpaceOnUse">
      <stop offset="0" stop-color="#ee9b00"/>
      <stop offset=".9818" stop-color="#ca6702"/>
    </linearGradient>
    <linearGradient id="_称未設定グラデーション_743" data-name="名称未設定グラデーション 743" x1="2618.395" y1="754.9402" x2="2881.8251" y2="754.9402" gradientTransform="matrix(1, 0, 0, 1, 0, 0)" gradientUnits="userSpaceOnUse">
      <stop offset="0" stop-color="#ee9b00"/>
      <stop offset=".9818" stop-color="#ca6702"/>
    </linearGradient>
    <linearGradient id="_称未設定グラデーション_752" data-name="名称未設定グラデーション 752" x1="2534.0941" y1="640.9213" x2="3115.5045" y2="640.9213" gradientTransform="matrix(1, 0, 0, 1, 0, 0)" gradientUnits="userSpaceOnUse">
      <stop offset="0" stop-color="#ee9b00"/>
      <stop offset=".9818" stop-color="#ca6702"/>
    </linearGradient>
    <linearGradient id="_称未設定グラデーション_705" data-name="名称未設定グラデーション 705" x1="683.486" y1="459.8016" x2="924.7412" y2="459.8016" gradientTransform="matrix(1, 0, 0, 1, 0, 0)" gradientUnits="userSpaceOnUse">
      <stop offset=".0999" stop-color="#0a9396"/>
      <stop offset=".9988" stop-color="#ee9b00"/>
    </linearGradient>
    <linearGradient id="_称未設定グラデーション_703" data-name="名称未設定グラデーション 703" x1="337.5832" y1="461.4424" x2="578.8384" y2="461.4424" gradientTransform="matrix(1, 0, 0, 1, 0, 0)" gradientUnits="userSpaceOnUse">
      <stop offset=".0012" stop-color="#005f73"/>
      <stop offset=".5223" stop-color="#0a9396"/>
    </linearGradient>
    <linearGradient id="_規グラデーションスウォッチ_4-3" data-name="新規グラデーションスウォッチ 4" x1="4263.6839" y1="1228.601" x2="5950.4582" y2="1228.601" xlink:href="#_規グラデーションスウォッチ_4"/>
    <linearGradient id="_称未設定グラデーション_714" data-name="名称未設定グラデーション 714" x1="470.8459" y1="1143.2185" x2="1442.244" y2="1143.2185" gradientTransform="matrix(1, 0, 0, 1, 0, 0)" gradientUnits="userSpaceOnUse">
      <stop offset=".0012" stop-color="#005f73"/>
      <stop offset=".2626" stop-color="#0a9396"/>
      <stop offset=".7013" stop-color="#ee9b00"/>
    </linearGradient>
    <linearGradient id="_称未設定グラデーション_748" data-name="名称未設定グラデーション 748" x1="1598.191" y1="1143.371" x2="2552.2241" y2="1143.371" gradientTransform="matrix(1, 0, 0, 1, 0, 0)" gradientUnits="userSpaceOnUse">
      <stop offset="0" stop-color="#ee9b00"/>
      <stop offset=".1557" stop-color="#ed9900"/>
      <stop offset=".9818" stop-color="#ca6702"/>
    </linearGradient>
    <linearGradient id="_称未設定グラデーション_761" data-name="名称未設定グラデーション 761" x1="1642.2778" y1="693.7095" x2="1840.0386" y2="693.7095" gradientTransform="matrix(1, 0, 0, 1, 0, 0)" gradientUnits="userSpaceOnUse">
      <stop offset="0" stop-color="#ee9b00"/>
      <stop offset=".9818" stop-color="#ca6702"/>
    </linearGradient>
    <linearGradient id="_称未設定グラデーション_761-2" data-name="名称未設定グラデーション 761" x1="1639.1659" y1="853.1549" x2="1938.9615" y2="853.1549" xlink:href="#_称未設定グラデーション_761"/>
    <linearGradient id="_規グラデーションスウォッチ_3-2" data-name="新規グラデーションスウォッチ 3" x1="3506.5781" y1="758.8424" x2="3724.5734" y2="758.8424" xlink:href="#_規グラデーションスウォッチ_3"/>
    <linearGradient id="_規グラデーションスウォッチ_4-4" data-name="新規グラデーションスウォッチ 4" x1="4897.3792" y1="763.0164" x2="5384.3751" y2="763.0164" xlink:href="#_規グラデーションスウォッチ_4"/>
    <linearGradient id="_規グラデーションスウォッチ_3-3" data-name="新規グラデーションスウォッチ 3" x1="3709.6536" y1="874.7509" x2="3871.9897" y2="874.7509" xlink:href="#_規グラデーションスウォッチ_3"/>
    <linearGradient id="_規グラデーションスウォッチ_4-5" data-name="新規グラデーションスウォッチ 4" x1="5369.5535" y1="579.8712" x2="5384.7529" y2="579.8712" xlink:href="#_規グラデーションスウォッチ_4"/>
    <linearGradient id="_規グラデーションスウォッチ_4-6" data-name="新規グラデーションスウォッチ 4" x1="5055.3607" y1="800.1364" x2="5142.5585" y2="800.1364" xlink:href="#_規グラデーションスウォッチ_4"/>
  </defs>
  <g id="_イヤー_1" data-name="レイヤー 1"/>
  <g id="_イヤー_2" data-name="レイヤー 2">
    <path class="cls-8" d="M232.3993,245.604c64.5071,20.8202,134.167,18.9295,199.2524,1.636,29.4722-7.8309,59.0163-18.2634,85.029-34.4292,12.9771-8.0647,24.7431-17.6896,35.1474-28.8785,14.6891-15.797,25.9508-34.8384,35.7851-53.9205,13.6071-26.4025,22.1978-56.1586,15.3112-85.8106-2.3059-9.9286-8.2935-31.7929-22.5621-27.6006-7.0441,2.0696-12.2213,8.2438-16.6343,13.7634-5.2191,6.5278-10.2578,13.2174-15.1087,20.0232-22.7244,31.8822-42.4733,66.2874-58.311,102.1004-6.745,15.2522-12.9546,30.8591-17.8344,46.8171-4.5143,14.7628-6.9216,30.4416,1.6201,44.2626,17.6846,28.6145,54.5125,25.2269,83.42,23.2713,36.5319-2.4714,73.0638-4.9427,109.5957-7.4141,73.3591-4.9627,146.7312-9.7631,220.079-14.8891,7.7529-.5418,15.5113-1.3024,22.6634-4.5765,7.0039-3.2062,12.5328-8.4723,17.6573-14.1094,11.6242-12.7869,21.5466-27.4782,31.1424-41.8089,21.7242-32.4434,40.7743-67.0823,55.8761-103.1048,6.6738-15.9191,13.254-32.5651,14.3541-49.9732,.7609-12.0404-.5704-31.7366-16.956-30.939-13.2587,.6454-23.8125,11.3277-32.1002,20.5157-11.7902,13.071-21.84,27.7329-30.9026,42.7907-18.6568,30.9986-34.007,64.2211-39.708,100.1965-3.8286,24.1598-6.6864,58.9081,14.3842,76.5128,11.8899,9.9341,28.3635,10.5217,43.0914,11.5214,18.2265,1.2372,36.4846,2.0093,54.7504,2.3165,35.8792,.6035,71.7886-.5873,107.5491-3.5649,17.5662-1.4627,35.091-3.3719,52.566-5.679,1.7126-.2261,4.0361-4.0379,4.6729-4.9117,3.1049-4.2606,5.9144-8.8789,8.5257-13.4489,2.6305-4.6037,5.2302-9.2587,7.3842-14.1079,.2505-.5639,2.5384-6.5847,1.9172-6.5027-65.353,8.6282-131.4415,11.3621-197.2794,7.9764-14.8248-.7624-30.7208-.5837-45.099-4.6717-12.3617-3.5147-21.7204-11.6332-26.7774-23.4474-4.9782-11.6301-5.8489-24.6332-5.2466-37.1304,.6544-13.5781,2.7562-27.1153,6.0632-40.2958,1.6019-6.3847,3.5423-12.6607,5.7916-18.8468,.9704-2.6688,2.2674-6.0542,3.1854-8.2204,.4038-.9529,1.3113-2.9508,1.926-4.3229,.0667-.149,1.1925-2.5878,.3929-.8822-.7706,1.6438,.6483-1.3098,.7883-1.5902,.3453-.6913,.651-1.5415,1.0984-2.1711-.0885,.1245-1.7773,3.2568-.6028,1.1833,.3885-.6858,.8503-1.4099,1.1629-2.1327-.0132,.0306-2.2126,3.963-.9263,1.7016,1.2834-2.2562-.9736,1.63-1.0023,1.6628,.4942-.566,.8792-1.4183,1.2682-2.0634,1.2398-2.0562-.6852,1.0144-.7219,1.1366,.2669-.8884,1.2626-1.912,1.7767-2.6891-1.6141,2.4395,.5205-.72,1.0936-1.5167,.9377-1.3034,1.8812-2.6064,2.8615-3.8782,.8682-1.1262,3.72-4.5931,5.3878-6.5373,7.5106-8.7555,16.8636-18.5086,29.011-19.8309,15.2257-1.6575,18.4022,14.2035,18.071,26.1432-.4184,15.0867-5.3446,29.5022-11.1024,43.2987-1.2681,3.0385-2.5941,6.0544-3.9378,9.06-.731,1.6352-1.4715,3.2662-2.2213,4.8929-.3343,.7253-2.4908,5.3149-1.4619,3.1664-1.5448,3.2258-3.1575,6.418-4.7699,9.6102-1.8087,3.5808,1.0784-1.9678-.8083,1.5704-.9799,1.8378-1.9646,3.6728-2.9651,5.4995-.4204,.7676-.7997,1.6206-1.2917,2.3441,.095-.1396,2.0616-3.6143,.7372-1.3329-.8949,1.5415-1.7694,3.0949-2.6675,4.6346-.4406,.7554-.8427,1.5948-1.3525,2.3051,.0973-.1355,2.1616-3.5624,.7756-1.3185-1.0911,1.7665-2.1663,3.5431-3.2566,5.3102-2.1088,3.4178,1.2603-1.9006-.9235,1.4674-1.1279,1.7395-2.2587,3.4767-3.4054,5.2038-.5097,.7676-2.6286,3.9207-2.1839,3.268,.9318-1.3676-.7156,1.032-.7211,1.0399-.6765,.9698-1.3538,1.939-2.0364,2.9045-7.3715,10.4266-14.9305,22.1859-25.459,29.7259-12.7524,9.1327-30.4138,7.8706-45.3644,8.882l-49.8162,3.37c-33.5429,2.2692-67.0858,4.5383-100.6287,6.8075-33.5429,2.2692-67.0858,4.5383-100.6287,6.8075l-50.8125,3.4375c-15.5054,1.0489-31.2662,2.9152-46.8139,1.83-13.5157-.9434-26.8016-4.7516-37.2518-13.6766-9.9906-8.5325-15.8235-20.5084-14.8651-33.759,1.0675-14.758,7.4707-29.4221,12.8773-43.0459,2.4455-6.1622,5.0929-12.2481,7.9228-18.3761,.3654-.7912,.7341-1.5807,1.1025-2.3705,.0192-.0411,1.2483-2.6253,.51-1.087s.5086-1.0362,.5287-1.0769c.3847-.7809,.7682-1.5623,1.1555-2.3418,.7741-1.5583,1.5828-3.1001,2.3511-4.6611,1.0527-2.1386-.3675,.6735-.4902,.9078,.5376-1.0267,1.0816-2.05,1.6287-3.0717,.8202-1.5317,1.6544-3.0558,2.4886-4.5799,2.151-3.9299-1.7743,3.0345,.4814-.8337,.5826-.999,1.1587-2.0025,1.7371-3.0039,.2629-.4552,1.7837-3.0023,.2337-.4163s-.0226,.0436,.2514-.4044c.6027-.9854,1.2013-1.9733,1.8081-2.9563,.8094-1.3113,2.7812-4.3855,.8024-1.3221,.9388-1.4533,1.8747-2.9082,2.8256-4.3536,.9502-1.4443,1.911-2.8816,2.8773-4.3152,.0341-.0507,1.6436-2.3893,.6588-.969-.8833,1.2738,1.0021-1.4196,1.1724-1.6618,3.8649-5.4947,7.7245-10.7383,11.7619-15.8251,3.7086-4.6725,8.4359-10.3987,14.882-10.7408,12.6266-.6701,17.6243,18.6749,19.8109,28.0898,2.8912,12.4487,2.8511,25.4447,.734,38.0131-1.061,6.2988-2.6356,12.4871-4.8071,18.494-.5222,1.4444-1.0591,2.8886-1.6481,4.3074,.4344-1.0466-.8849,1.9347-1.0757,2.3658,.1062-.2399,1.2181-2.4767,.3085-.6628-1.0564,2.1065,.6822-1.2788,.7297-1.3665-.0241,.0445,2.3447-4.1202,1.0572-1.8831-1.0406,1.8081,1.4551-2.3864,1.7294-2.8543,1.4099-2.4049,.0003-.1387-.2135,.2777,.1274-.2481,1.6532-2.2375,.4207-.6607-1.0751,1.3754-1.0702,1.4692-1.4808,1.9829-2.0468,2.5607-4.1766,5.0732-6.4216,7.4632-4.6646,4.9657-9.7865,9.5376-15.1031,13.7911-21.6693,17.3365-47.2875,28.8998-73.4397,37.6922-58.463,19.6554-121.7698,27.4765-182.876,17.152-14.7245-2.4878-29.229-6.0652-43.4388-10.6516-1.2129-.3915-4.6935,4.9399-4.6729,4.9117-3.1049,4.2606-5.9144,8.8789-8.5257,13.4489-.819,1.4334-11.0049,20.0608-9.3014,20.6106h0Z"/>
    <path class="cls-2" d="M153.3682,556.2597c74.234-39.828,133.0492-101.7708,176.2675-173.5109,14.6573-24.3303,28.0364-49.4846,39.1714-75.631,.3889-.9133,3.7863-6.8733,.9973-6.1057-1.4062,1.3731-2.6572,2.878-3.753,4.5147-1.9185,2.7059-3.7402,5.4756-5.4654,8.309-5.4221,8.6594-12.402,19.1601-14.5426,29.4249-.9142,4.3837-.1753,9.1055,1.6937,13.1487,4.398,9.5144,14.3513,13.2403,24.0561,14.925,25.679,4.4577,52.175,6.6181,78.1583,8.4304,26.3829,1.8403,52.8258,2.2342,79.2219,.4288,26.3035-1.799,52.4412-5.3474,78.6347-8.2524,102.407-11.3575,205.3329-4.3819,308.0669-7.2956,57.651-1.6351,115.355-6.7201,171.5607-20.1344,1.8318-.4372,3.8366-3.7642,4.6729-4.9117,3.1049-4.2606,5.9144-8.8789,8.5257-13.4489,2.6305-4.6037,5.2302-9.2587,7.3842-14.1079,.2579-.5806,2.3996-6.6178,1.9172-6.5027-97.4733,23.2636-198.1913,21.1109-297.7,20.529-49.6908-.2906-99.4556-.1746-149.0239,3.7376-51.7661,4.0856-102.9977,13.3745-155.0847,12.5632-29.1328-.4538-58.1789-3.1473-87.0975-6.5644-12.1554-1.4363-25.8507-1.6435-37.3273-6.272-4.9699-2.0044-9.3604-5.1082-12.1937-9.722-8.1495-13.2709,6.5159-24.8476-13.1462,6.554l-8.221,6.718c-1.8666,4.3831-3.7874,8.7422-5.7851,13.0672-.4435,.96-.8937,1.9168-1.3405,2.8753-.2588,.5553-1.4744,3.0426-.0755,.1735-1.1573,2.3735-2.3195,4.7442-3.5105,7.101-.4761,.9421-.9594,1.8803-1.4381,2.8211-1.7295,3.3992,.0143,.0327,.2978-.5575-1.0228,2.1284-2.2358,4.1963-3.3705,6.2675-.7328,1.3376-2.1445,4.8057,.2347-.3855-.4255,.9285-1.0598,1.8713-1.561,2.7462-.5232,.9133-1.0499,1.8247-1.5796,2.7343-.708,1.2157-2.662,5.8196-.154,.2924-.8527,1.8791-2.1984,3.6283-3.2871,5.383-.5491,.8851-1.0832,1.8094-1.6706,2.6727,2.7001-3.9686,.5748-.912-.0833,.1051-1.1401,1.7621-2.2923,3.5162-3.4567,5.2623-.7273,1.0907-1.4598,2.1778-2.1955,3.2628,1.4223-2.0977,.2375-.349-.5389,.7644-5.4664,7.8392-10.1307,14.1067-15.6868,21.0515-22.8264,28.5317-49.216,54.1238-78.4923,75.9954-16.6166,12.4138-34.1433,23.5604-52.4196,33.366-2.245,1.2045-5.159,6.5063-6.3346,8.2825-3.1762,4.7989-6.1558,9.8259-8.8652,14.9014-2.1022,3.938-4.3624,7.9357-5.8279,12.1622-.3147,.9077-1.6711,3.9249,.3674,2.8312h0Z"/>
    <path class="cls-9" d="M1111.9628,315.3344c-41.572,55.8489-72.1429,122.2663-79.5488,191.9228-.2747,2.5834,2.5213-.9659,2.6356-1.0974,2.8779-3.3142,5.3535-7.4108,7.6188-11.1282,3.0051-4.9313,5.9238-9.944,8.4724-15.1282,1.4377-2.9245,3.6578-6.3564,4.0055-9.6271,2.7949-26.2879,8.6343-52.1919,17.8067-76.9975,2.1535-5.8239,4.2287-10.9753,6.6917-16.4932,.6949-1.5569,1.4142-3.1024,2.1227-4.6531,1.5393-3.3691-.8455,1.5991,.97-2.0253,.6351-1.268,1.2614-2.5402,1.9044-3.8043,.3842-.7587,.7724-1.5153,1.1647-2.2699-1.0479,2.0055-1.2172,2.3421-.5079,1.0096,.6907-1.2301,1.2815-2.5331,2.0299-3.7301-3.1093,4.9736-.2453,.503,.429-.6835,2.5842-4.5467-2.1205,3.398,.4128-.6831,.3414-.5499,3.4294-5.3799,.7109-1.1977,.9218-1.4181,1.8507-2.831,2.7752-4.2472,2.0346-3.1167-1.1193,1.5161,1.2233-1.8167,1.9405-2.7608,3.9138-5.495,5.9288-8.2021,6.2641-8.4153,11.654-17.976,15.9099-27.5568,.3797-.8548,2.9783-5.89,1.9172-6.5027-1.0869-.6275-4.6672,4.9041-4.6729,4.9117h0Z"/>
    <path class="cls-3" d="M1.1072,768.6243c38.5228-18.7775,72.3655-45.8216,100.1893-78.3461,16.5036-19.2918,30.6998-40.4542,43.5103-62.3404,7.3199-12.5057,15.8424-25.8943,20.1459-39.7968,2.9286-9.4611-1.9678-17.6383-12.1201-12.8784-10.6662,5.0008-17.6628,17.0674-23.9612,26.5001-9.636,14.4311-19.7939,30.4954-24.3315,47.4359-2.297,8.5756-1.9282,18.8465,2.9977,26.5033,6.1477,9.5558,17.4316,10.0718,27.6987,10.5225,53.3083,2.3402,106.6187,4.6353,159.928,6.953,106.0767,4.6117,212.183,10.0226,318.3729,11.0099,105.019,.9764,210.3108-2.6057,314.4822-16.6617,26.2254-3.5386,52.3623-7.7396,78.3605-12.6805,22.552-4.2859,45.3716-8.6694,66.8081-17.1086,20.3917-8.0278,38.4229-19.7599,52.8374-36.3764,9.7099-11.1933,17.7581-23.9441,25.0505-36.7989,7.2021-12.6956,13.9872-25.8506,18.5459-39.7596,3.3841-10.3252,5.6527-20.8613,6.5489-31.6954l-.1161-.9951c-15.9399,6.5939-29.3923,16.8482-40.648,29.879-16.6138,19.2339-30.0927,43.0128-39.3159,66.6305-13.1307,33.6235-10.3428,71.1258,8.4136,102.1153,10.171,16.8046,24.6213,30.8032,42.1841,39.6915,3.6392,1.8417,24.8347-37.7896,22.5-38.9711-39.4447-19.9624-63.1202-65.9193-58.067-109.6222,.6192-5.3551,1.6307-10.6762,3.0474-15.878,.6146-2.2567,1.3332-4.4751,2.1227-6.6767-.3068,.8554,1.614-4.2318,1.1548-3.1033-.2352,.5779,2.3002-4.5598,1.0833-2.4854-1.6571,2.8247-3.2142,5.7084-4.9038,8.5202-1.4986,2.494,1.8214-2.4371,2.1772-2.8779,3.3428-4.1418,7.0377-7.9442,11.0364-11.4551,3.7014-3.2499,7.6326-6.2419,11.7667-8.9206,1.9387-1.2562,12.7067-8.891,14.6813-7.0455,.6968,.6512-.8951,7.3832-1.0189,8.1644-.4287,2.705-.9439,5.3954-1.5499,8.0664-1.3019,5.7388-3.008,11.4254-5.2834,16.8584-.9228,2.2033-2.3961,4.8711-.3092,.9484,.7401-1.3911,1.5457-2.7821,2.3768-4.1163-.2213,.3552,2.7771-3.8665,1.0004-1.5734-3.1786,4.1024-6.3939,8.0905-10.1257,11.7219-8.7273,8.4927-18.8366,15.4234-29.6753,20.9409-22.1422,11.2716-46.8222,16.4854-71.023,21.2489-56.2867,11.0791-113.2352,18.6138-170.3842,23.4794-114.5315,9.7512-229.6583,8.8424-344.4424,5.0184-116.4068-3.8781-232.7636-9.6621-349.1237-14.7209-6.6786-.2904-13.3649-.5073-20.0397-.8758-5.8018-.3204-11.9044-.8386-17.017-3.8761-9.3816-5.5737-12.0067-17.6076-10.1642-27.6978,.2301-1.26,.828-2.5893,.9615-3.8353,.1053-.9832-7.5303,13.1785-7.6663,13.3252-1.5303,1.6509,.9976-1.3958,1.2968-1.8067,.9334-1.2819,1.8184-2.7147,2.8879-3.8827,2.5098-2.741,7.0255-6.1693,11.2125-6.6519,5.2595-.6062,7.6552,3.0603,8.1144,7.7608,.3106,3.1801,.1312,.965,1.0284-.8586,2.0452-4.1568-.6966,1.2867-.9388,1.7502-.4779,.9146-2.1548,3.8671,.2534-.3903-.8738,1.5448-1.714,3.3349-2.7482,4.7783,4.3775-6.1096-4.0188,6.3155-.7749,1.2607-1.3186,2.0547-2.6591,4.0959-4.0276,6.1177,1.4742-2.178-.7036,1.005-1.0532,1.5014-.8769,1.2449-1.7611,2.4845-2.656,3.7165-1.45,1.9962-2.9183,3.978-4.4283,5.929-7.1162,9.1949-14.7884,18.0026-22.9571,26.2762-16.2141,16.4223-34.2315,31.0772-53.704,43.4707-9.5243,6.0618-19.394,11.541-29.5411,16.4871-2.1731,1.0593-5.2604,6.6595-6.3346,8.2825-3.1762,4.7989-6.1558,9.8259-8.8652,14.9014-2.1022,3.938-4.3624,7.9357-5.8279,12.1622-.3404,.9816-1.6676,3.8231,.3674,2.8312h0Z"/>
    <path class="cls-15" d="M317.1987,904.7506c38.8312-27.4912,70.9295-63.1196,96.6391-103.0191,8.5521-13.2723,16.6134-26.8776,24.0035-40.8325,6.5487-12.3662,15.4674-27.3173,14.238-41.8978-.1583-1.8775-.1998-5.1011-1.3759-6.6293-1.0352-1.3452-2.8738-1.175-4.6822-.857-3.8758,.6817-6.8239,3.0401-9.3899,5.884-6.7544,7.4857-11.787,16.7526-16.5923,25.538-3.674,6.7169-7.4804,13.9203-9.1523,21.4786-4.4735,20.2236,12.9326,31.691,30.5336,35.0819,10.854,2.091,22.071,2.6098,33.0756,3.4042,12.4669,.8999,24.952,1.5586,37.4451,1.9557,49.3483,1.5688,98.9086-.8922,147.6767-8.7899,54.3763-8.8059,107.5049-24.578,157.3008-48.2291,2.1507-1.0215,3.7677-4.5361,5.0438-6.3986,2.5684-3.7486,4.9808-7.6201,7.2349-11.565,1.8786-3.2877,3.7022-6.6094,5.4121-9.9883,.8909-1.7604,4.1527-7.1966,4.0055-9.6271-.7076-11.6857-14.4979-10.4907-22.3564-6.5464-13.0146,6.5322-23.4149,18.9154-32.0148,30.3127-23.0583,30.5588-39.2356,66.0859-54.9063,100.8133-28.0021,62.0546-52.2817,125.6989-79.7429,187.9868-3.4866,7.9084-7.0243,15.7944-10.6273,23.6506-1.6713,3.6442-3.3563,7.2822-5.057,10.9128-.7846,1.675-1.5725,3.3485-2.3638,5.0203-.5274,1.1143-1.0558,2.2283-1.5868,3.3408,.7971-1.6699-.1467,.3053-.4252,.8823-3.7477,7.766-7.5656,15.4981-11.481,23.1811-.8386,1.6455-1.6811,3.289-2.5281,4.9301-.5646,1.094-1.131,2.1871-1.6997,3.2789,.1541-.2959,1.4773-2.7906,.3495-.6787-2.0294,3.8002-4.0383,7.6107-6.0962,11.3956-1.0073,1.8525-2.0257,3.6988-3.0404,5.5472-.2606,.4747-1.7205,3.0175-.2034,.3809,1.6119-2.8014-.2453,.4323-.6357,1.1223-1.9696,3.4808-3.9904,6.9307-5.9973,10.3899-1.3158,2.268,.8144-1.3525,.8719-1.455-.5568,.9926-1.1804,1.9646-1.77,2.9359-.8891,1.4648-1.7847,2.9258-2.6874,4.3823-.4511,.7278-.9129,1.4496-1.3593,2.1803-1.6198,2.652,1.8256-2.8086,.1354-.2026-1.0858,1.6742-2.1623,3.3542-3.2598,5.0208-1.0961,1.6645-2.2122,3.3152-3.3214,4.9709-1.1337,1.6923-.0334,.0461,.1719-.2486-.6495,.9323-1.2972,1.8656-1.952,2.7942-2.2859,3.2419-4.6121,6.4576-7.0046,9.6219-4.0571,5.3657-9.0518,11.4186-13.8368,16.8341-18.61,21.0623-40.8058,39.0108-66.1864,51.2477-23.2749,11.2216-48.8622,17.5934-74.6132,19.3195-51.5521,3.4556-104.2649-11.95-144.7713-44.2852-5.2421-4.1846-10.2433-8.65-15.0415-13.3356-1.3013-1.2707-12.3582,16.8899-13.1986,18.3606-2.6305,4.6037-5.2302,9.2587-7.3842,14.1079-.4867,1.0956-2.959,5.4854-1.9172,6.5027,37.3163,36.4397,88.2085,56.7812,140.2067,58.0365,52.9687,1.2787,104.6774-17.4632,143.9047-53.1612,24.054-21.8898,43.7025-48.2917,61.1332-75.6166,20.3921-31.9672,38.4751-65.4029,55.1092-99.4638,30.2636-61.9697,55.4773-126.1482,82.1987-189.677,6.5963-15.6824,13.2953-31.3222,20.2051-46.8693,3.3876-7.6223,6.8258-15.2221,10.3268-22.793,1.6845-3.6427,3.3832-7.2789,5.0982-10.9074,.5275-1.1161,1.0575-2.2311,1.5872-3.3463-.1282,.2698-1.1465,2.3615-.2522,.5304,.9358-1.916,1.8623-3.8362,2.8115-5.7456,.714-1.4362,1.4569-2.8585,2.1658-4.297,1.3287-2.6959-1.695,3.1411-.2686,.495,.3809-.7065,.7525-1.418,1.1336-2.1244,.3808-.706,.7723-1.4063,1.1521-2.1128,1.5063-2.8017-2.1986,3.7554-.5653,1.031,.4029-.672,.8662-1.3679,1.2052-2.0738-.59,1.2285-2.1852,3.5556-.5867,1.0451-.355,.5575-2.3929,3.7224-.3232,.5247,.1112-.1718,1.5686-2.3542,.4735-.739-.8909,1.314,1.4595-2.0327,1.8895-2.6124,1.0489-1.414,4.1104-5.1628,6.2019-7.4178,7.6202-8.2159,18.6035-18.7521,30.7333-17.7173,4.2279,.3607,8.9731,2.5029,9.2649,7.3207l21.6963-37.5791c-80.0061,37.9996-168.5129,54.5042-256.6745,56.4684-22.0349,.4909-44.0872,.0923-66.0953-1.0811-10.9852-.5857-21.9599-1.3652-32.9187-2.3248-9.0845-.7955-18.3091-1.5886-27.0038-4.5222-7.6195-2.5708-15.3504-7.1944-19.3632-14.4251-1.6295-2.9362-2.4888-6.297-2.5698-9.6452-.0452-1.8709,.1142-3.7599,.446-5.6009,.1298-.72,.3842-1.4591,.4806-2.1762l-.0249,.1288c-4.1032,9.3295-9.2201,18.1372-15.3505,26.4232,.9859-.6684,3.8952-2.4521,6.4282-2.5868,2.122-.1128,2.6665,.0128,3.5529,1.8145,1.2473,2.5352,1.0962,6.0768,.8887,8.7923-.1988,2.6006-.7134,5.2171-1.492,7.7053-.2382,.7611-1.7795,5.0329-.7182,2.1945-1.338,3.5784-.1907,.5001,.1538-.2591-.5721,1.2608-1.3388,2.4524-1.991,3.6741-1.6672,3.1233,2.8517-4.8992,.0648-.1195-.8383,1.4377-1.6008,2.939-2.5141,4.3296,.3575-.5443,2.6718-4.3872,.4868-.8499-.8689,1.4066-1.6897,2.8906-2.6322,4.2495,2.4746-3.5679,.7051-1.1103,.1936-.333-.9145,1.3899-1.8276,2.7801-2.7476,4.1664-1.9263,2.9027-.6446,.97-.2227,.3559-.9405,1.3689-1.8972,2.7269-2.8602,4.0801-1.7633,2.4778-3.5557,4.9362-5.3875,7.3638-5.8556,7.7606-13.4699,16.7479-20.6067,24.4497-15.4155,16.6359-32.7416,31.5424-51.2423,44.6402-2.4321,1.7219-4.8216,5.9964-6.3346,8.2825-3.1762,4.7989-6.1558,9.8259-8.8652,14.9014-2.1022,3.938-4.3624,7.9357-5.8279,12.1622-.2353,.6785-1.6427,4.2543,.3674,2.8312h0Z"/>
    <path class="cls-5" d="M4606.2883,1032.745c55.9637-71.4125,104.1146-149.0761,144.1418-230.478,19.4961-39.6485,37.06-80.2456,52.3567-121.6995,7.4766-20.2615,14.9797-40.7359,20.3823-61.6647,2.7151-10.5181,4.7355-21.2903,5.1258-32.1672,.3406-9.4907,.1755-21.8679-4.0376-30.6143-.9992-2.0743-1.1446-1.799-3.3428-1.0755-1.4256,.4691-2.8521,1.183-4.0595,2.0737-4.155,3.0647-7.1276,8.1111-9.9073,12.328-6.0844,9.2301-12.0964,19.2149-15.9674,29.6264-1.2222,3.2874-2.182,6.6793-2.3957,10.1937-.3802,6.2538,.953,13.0887,4.5329,18.3117,4.649,6.783,13.1343,10.0738,21.0022,11.1183,9.2467,1.2276,18.6132-.1916,27.765-1.518,11.7104-1.6973,23.4274-3.347,35.1533-4.9334,23.7697-3.2158,47.5716-6.1928,71.401-8.9307,94.2651-10.8305,188.9604-17.9154,283.7879-21.2285,94.4554-3.3001,189.0424-2.86,283.4624,1.3368,11.8044,.5247,23.606,1.1107,35.4048,1.7492,1.4965,.081,4.3472-4.4647,4.6729-4.9117,3.1049-4.2606,5.9144-8.8789,8.5257-13.4489,2.6305-4.6037,5.2302-9.2587,7.3842-14.1079,.2604-.5862,2.737-6.4583,1.9172-6.5027-89.4638-4.8409-179.1-6.3589-268.6759-4.487-89.2678,1.8654-178.4654,7.0732-267.3442,15.6042-44.8008,4.3002-89.5206,9.4445-134.1276,15.4295-11.0757,1.486-22.1444,3.0239-33.2057,4.6135-9.1379,1.3132-18.349,2.9949-27.6164,2.8021-14.8086-.3081-29.7318-7.3764-31.2584-23.5876-.268-2.8459,.029-5.6274,.5107-8.4275,.0064-.0369,.3254-1.6778,.1501-.6726l-16.1892,27.9447-.3328,.433c1.266-.7233,2.2476-1.8817,3.7896-2.1053,2.4861-.3605,2.2423,.5642,3.0092,3.0342,.698,2.2483,1.2762,4.5354,1.7545,6.8402,1.1291,5.4413,1.5775,10.9844,1.5732,16.5358-.0157,20.4265-6.0138,40.3005-12.457,59.4845-12.5839,37.4677-26.9794,74.2674-43.2757,110.2456-1.9384,4.2795-3.9022,8.5475-5.8913,12.8036-.9939,2.1267-1.9966,4.2493-3.0001,6.3715-1.5181,3.2105-.6366,1.3455-.3016,.6456-.7595,1.5869-1.5259,3.1707-2.2941,4.7535-4.3482,8.9592-8.8085,17.864-13.38,26.7113-.5372,1.0397-1.0781,2.0776-1.6163,3.1168,1.8848-3.639,.4398-.8413,.0499-.1032-1.0925,2.0682-2.1841,4.1369-3.2856,6.2004-2.4763,4.6393-4.9827,9.2625-7.5207,13.8683-.5636,1.0228-1.1314,2.0434-1.6952,3.0661-2.0435,3.7064,.0274,.0084,.3619-.6319-1.0788,2.0649-2.2911,4.0723-3.4425,6.0974-2.5937,4.5615-5.2171,9.1062-7.8717,13.6326-.5895,1.0052-1.1832,2.0079-1.7729,3.013-2.14,3.6474,.0344-.0034,.385-.6317-1.1328,2.03-2.3941,4.0004-3.5969,5.9895-2.7091,4.4802-5.4476,8.9426-8.2169,13.3859-1.2298,1.9732-2.4675,3.9413-3.7067,5.9085-2.103,3.3384-.3326,.5201,.0818-.1266-.6267,.9781-1.2508,1.9577-1.8785,2.9352-2.8226,4.3952-5.6742,8.7718-8.5562,13.1282-2.5589,3.8681-5.1406,7.7212-7.7462,11.558-.651,.9585-1.3024,1.9169-1.9571,2.8729,1.6456-2.4027-.4656,.6681-.8633,1.2434-1.4812,2.1426-2.9693,4.2805-4.4652,6.4129-5.6432,8.0439-11.389,16.0159-17.2394,23.9104-5.5856,7.5371-10.9475,14.5617-16.7289,21.9389-6.3019,8.0416-11.5882,17.0964-16.0912,26.2564-1.0772,2.1912-4.6131,7.2833-4.0055,9.6271,.4752,1.8333,1.5428,.297,2.6356-1.0974h0Z"/>
    <path class="cls-23" d="M5557.9397,636.2197c-35.6314,45.8815-68.452,94.0713-95.5173,145.5444-25.2024,47.9304-46.1321,99.0715-52.7113,153.1999-3.4677,28.5291-2.6688,57.3934,2.573,85.6555l.9199-.397c7.3623-7.1643,12.6626-16.9808,17.4774-25.9289,3.3677-6.2587,7.814-13.3687,8.3151-20.7003,.5609-8.2052-3.5872-16.0676-10.7792-20.0242-8.3556-4.5968-18.5553-4.3152-27.8003-4.7438-12.1403-.5628-24.2807-1.1225-36.4219-1.6672-46.7285-2.0963-93.471-3.9726-140.2378-4.9622-93.8849-1.9867-188.0554-.4174-281.4287,10.3125-52.6857,6.0543-105.0256,15.0828-156.5207,27.8024-1.8406,.4546-3.8206,3.7422-4.6729,4.9117-3.1049,4.2606-5.9144,8.8789-8.5257,13.4489-2.6305,4.6037-5.2302,9.2587-7.3842,14.1079-.2589,.5829-2.3881,6.619-1.9172,6.5027,87.1692-21.5314,176.5915-32.2819,266.1877-36.512,89.8785-4.2434,179.9133-2.1146,269.772,1.5432,24.9431,1.0153,49.881,2.1513,74.818,3.3058,10.3613,.4797,22.234-.2209,31.6317,4.9214,6.6948,3.6633,13.1743,13.1999,9.9477,21.0606l5.8279-12.1622c12.2256-23.2013,13.9833-14.392,11.8231-28.3324-.4395-2.836-.8356-5.6796-1.1794-8.5289-.7777-6.4454-1.2856-12.9269-1.5746-19.4121-.5142-11.5363-.2866-23.1019,.6216-34.6131,1.8208-23.0781,6.319-45.9913,12.9994-68.1494,3.3749-11.1942,7.3147-22.2248,11.6447-33.0834,1.8406-4.6158,3.6135-8.7836,5.6667-13.4081,1.1702-2.6357,2.3637-5.2611,3.5791-7.8762,.0457-.0983,2.4719-5.2485,.9922-2.1486,.7477-1.5664,1.5126-3.1248,2.2801-4.6815,1.2809-2.5983,2.5828-5.1864,3.9042-7.7643-.0109,.0213,2.6341-5.0334,1.1596-2.2501-1.4756,2.7853,1.2107-2.2574,1.1983-2.2341,1.3716-2.5617,2.7685-5.109,4.1697-7.6546,2.0381-3.7028-.0399,.0149-.3659,.6524,1.0555-2.0641,2.3049-4.0547,3.4664-6.0608,.5833-1.0074,1.1694-2.0131,1.7578-3.0175,.5276-.9006,3.408-6.101,.5023-.8688,1.2693-2.2855,2.7109-4.4903,4.0799-6.7168,1.5241-2.4789,3.0726-4.9423,4.616-7.4092,1.8425-2.945-2.6733,4.1164,.3959-.6108,.9496-1.4626,1.8897-2.9315,2.8417-4.3927,1.9018-2.9189,3.8229-5.8251,5.761-8.72,.8064-1.2045,1.6166-2.4065,2.4292-3.6068,.4868-.72,.9749-1.439,1.4646-2.1571-.948,1.3774-.8266,1.2011,.3643-.5288,3.6086-5.2177,7.2595-10.4056,10.9651-15.5549,7.699-10.6987,15.5804-21.2061,23.4228-31.3044,6.2722-8.0765,11.5825-17.0849,16.0912-26.2564,1.0772-2.1912,4.6131-7.2833,4.0055-9.6271-.4743-1.8297-1.5475-.3037-2.6356,1.0974h0Z"/>
    <path class="cls-18" d="M2480.4507,919.208c47.3251-74.6413,88.9651-153.0916,123.9575-234.2552,33.3679-77.3955,60.7535-157.3012,81.6709-238.9519,11.8033-46.0742,21.5048-92.6733,29.132-139.6189,.3124-1.9227-1.2747-.2524-1.8358,.2496-2.1382,1.913-4.0441,5.153-5.5348,7.4347-4.9571,7.5874-9.6089,15.5156-13.3284,23.789-4.5504,10.1217-6.1978,19.9757-2.1125,30.5604,3.6191,9.3767,10.7269,17.1685,19.6688,21.709,10.3799,5.2707,22.1957,6.5955,33.6855,6.7613,12.8306,.1851,25.7148-.537,38.5242-1.1994,53.151-2.7484,106.1102-9.2252,158.3608-19.3459,29.6532-5.7437,59.0642-12.6751,88.1793-20.7105,1.8707-.5163,3.7647-3.6654,4.6729-4.9117,3.1049-4.2606,5.9144-8.8789,8.5257-13.4489,2.6305-4.6037,5.2302-9.2587,7.3842-14.1079,.2629-.5919,2.3476-6.6215,1.9172-6.5027-50.1481,13.8402-101.1923,24.3515-152.7502,31.3115-26.0454,3.516-52.212,6.1354-78.4379,7.847-12.7873,.8346-25.5889,1.4544-38.3972,1.8553-11.2055,.3507-22.5647,.7166-33.6361-1.3851-11.5871-2.1996-22.5088-7.396-29.6993-17.0022-3.0938-4.1332-5.4674-8.8241-6.7961-13.8208-.741-2.7865-1.1043-5.6284-.9817-8.5123,.0383-.9017,.1135-1.8106,.2365-2.7058,.067-.4881,1.1641-4.2313,.3215-2.357l-20.6989,31.4733c-13.0185,80.1294-32.0844,159.288-57.3094,236.456-12.5892,38.5126-26.6339,76.56-42.1704,113.982-7.5709,18.2358-15.5614,36.3428-23.8543,54.2773-1.9788,4.2794-3.9772,8.5498-5.9947,12.8111-.5042,1.065-1.0106,2.1291-1.5164,3.1933-.1675,.3524-1.454,3.0318-.3158,.6633-1.2756,2.6542-2.5583,5.305-3.8486,7.9522-4.3843,8.9945-8.8569,17.946-13.415,26.8537-1.3398,2.6183-2.6941,5.229-4.0421,7.843-.3784,.7338-1.843,3.5331,.0447-.0746-.6815,1.3024-1.3654,2.6037-2.0507,3.9041-2.6035,4.9398-5.2334,9.8657-7.8909,14.7767-2.656,4.9082-5.3385,9.802-8.0478,14.6809-.6471,1.1653-2.6579,4.8205-.0829,.1642-.7103,1.2843-1.4376,2.5595-2.159,3.8376-1.2983,2.3003-2.6023,4.5974-3.9127,6.8909-2.9106,5.0943-5.8505,10.1719-8.8196,15.2324-1.3355,2.2762-2.6807,4.5466-4.0248,6.8178-1.6913,2.858,2.0748-3.4497,.3581-.6074-.9092,1.5054-1.809,3.0164-2.7175,4.5222-5.9011,9.7811-11.9183,19.4911-18.0351,29.1386-3.0718,4.8449-5.9124,9.9939-8.4724,15.1282-.5303,1.0637-4.4779,7.8048-4.0055,9.6271,.4852,1.8717,1.4957,.2261,2.6356-1.0974,2.9228-3.3936,5.2334-7.3659,7.6188-11.1282h0Z"/>
    <path class="cls-6" d="M2765.7272,1097.7646c19.781,73.9246,74.1287,129.3831,138.5142,167.6625,71.373,42.4336,152.1991,65.4875,232.1025,85.7813,99.8748,25.3661,201.5239,43.7159,303.9586,54.9156,102.2633,11.1809,205.304,15.2401,308.1297,12.1171,102.8703-3.1244,205.5236-13.4386,306.9442-30.9374,12.7443-2.1989,25.4672-4.5179,38.1716-6.936,1.7789-.3386,3.9285-3.8902,4.6729-4.9117,3.1049-4.2606,5.9144-8.8789,8.5257-13.4489,2.6305-4.6037,5.2302-9.2587,7.3842-14.1079,.2533-.5702,2.4644-6.6068,1.9172-6.5027-101.1366,19.2498-203.581,31.4294-306.4172,36.3582-102.7476,4.9245-205.8395,2.6695-308.2749-6.7268-102.5804-9.4096-204.5029-25.9621-304.7759-49.5587-83.3402-19.6119-168.3089-41.4367-244.7271-81.0732-65.7356-34.0957-126.5181-83.8441-154.614-154.2617-3.5612-8.9255-6.5282-18.0596-9.0117-27.3407-.2217-.8284-5.4697,6.0051-4.6729,4.9117-3.1049,4.2606-5.9144,8.8789-8.5257,13.4489-2.6305,4.6037-5.2302,9.2587-7.3842,14.1079-.8002,1.8014-2.4535,4.4986-1.9172,6.5027h0Z"/>
    <path class="cls-16" d="M2691.4991,570.6058c38.0685,8.7295,77.2941,11.9079,116.2664,9.1892,19.0587-1.3295,38.0916-3.975,56.7371-8.1671,17.2686-3.8825,34.2352-9.6669,48.7812-19.9864,2.4332-1.7262,4.8189-5.9924,6.3346-8.2825,3.1762-4.7989,6.1558-9.8259,8.8652-14.9014,2.1022-3.938,4.3624-7.9357,5.8279-12.1622,.2346-.6767,1.6422-4.2569-.3674-2.8312-14.5418,10.3165-31.3613,15.7971-48.6328,19.5666-18.7309,4.088-37.816,6.6793-56.9439,7.9208-38.3503,2.4891-76.9193-.7296-114.3683-9.317-1.3056-.2994-4.5866,4.7932-4.6729,4.9117-3.1049,4.2606-5.9144,8.8789-8.5257,13.4489-.8002,1.4005-10.7011,20.2896-9.3014,20.6106h0Z"/>
    <path class="cls-13" d="M2607.1977,766.8994c17.7599-1.0102,34.6905,4.4186,51.7259,8.6079,16.7299,4.1142,33.7587,7.0011,50.9081,8.6467,34.5646,3.3168,69.5971,1.5936,103.6753-5.0619,19.3454-3.7782,38.3281-9.1791,56.8054-16.034,1.9587-.7267,3.5809-3.4132,4.6729-4.9117,3.1049-4.2606,5.9144-8.8789,8.5257-13.4489,2.6305-4.6037,5.2302-9.2587,7.3842-14.1079,.2814-.6335,2.2099-6.6113,1.9172-6.5027-65.0388,24.1286-136.5759,29.3036-204.3177,14.1117-19.4138-4.3538-38.6197-11.4182-58.797-10.2705-1.6251,.0924-4.1683,4.2193-4.6729,4.9117-3.1049,4.2606-5.9144,8.8789-8.5257,13.4489-2.6305,4.6037-5.2302,9.2587-7.3842,14.1079-.2513,.5656-2.6259,6.543-1.9172,6.5027h0Z"/>
    <path class="cls-17" d="M2523.0549,936.2885c53.944-15.7105,109.791-23.7679,165.8479-26.4875,28.052-1.361,56.1587-1.4174,84.226-.5092,26.2556,.8496,52.7868,1.8717,78.6708,6.6658,14.0771,2.6073,27.9777,6.4261,41.124,12.1459,6.2425,2.716,12.4499,5.7918,18.1748,9.495,5.1453,3.3282,10.4135,8.0505,8.4778,14.7452l2.0334-5.5076,14.1898-24.5572,3.753-4.5147c-7.3983,7.2168-13.3191-10.8767-15.0421-15.3106-3.7331-9.6062-6.5074-19.5787-8.4211-29.7025-3.9318-20.8-4.1778-42.1962-2.0993-63.2213,4.3247-43.7465,19.3078-85.2034,34.6401-126.0906,7.8742-20.9984,15.7701-41.9826,22.6767-63.3247,7.0119-21.6673,13.3074-43.5581,19.7219-65.407,6.322-21.5337,12.7926-43.0344,20.2575-64.2046,3.3559-9.5174,7.5662-20.7417,11.034-29.0218,1.7643-4.2126,3.6086-8.3929,5.5093-12.5455,.5597-1.2229,1.132-2.4399,1.6957-3.6609,.2434-.5273,1.4665-3.0444,.1101-.2522,1.1753-2.4194,2.3653-4.8315,3.5848-7.2291,.4865-.9565,.9653-1.9241,1.4744-2.8695-2.4844,4.6135,.1657-.2589,.5282-.9291,.4753-.8785,.9579-1.9915,1.5451-2.8262-3.4864,4.9556-.4164,.7567,.2411-.384,.5032-.8731,1.012-1.9479,1.6174-2.7765-3.6131,4.9458-.4232,.7328,.2479-.3584,.5532-.8996,1.0931-1.8457,1.6911-2.7203-2.868,4.1944-.061,.1267,.5734-.8382,.5845-.889,1.178-1.7714,1.7664-2.6577,2.3031-3.4692-1.1807,1.6061,1.0278-1.4801,1.5396-2.1515,3.0707-4.3078,4.6568-6.4257,2.0909-2.792,5.6636-7.2228,8.6715-10.7401,13.6473-15.9585,29.622-29.8532,47.5236-40.8504,2.3437-1.4397,5.0008-6.2673,6.3346-8.2825,3.1762-4.7989,6.1558-9.8259,8.8652-14.9014,2.1022-3.938,4.3624-7.9357,5.8279-12.1622,.2766-.7976,1.6658-4.0802-.3674-2.8312-28.4478,17.4758-51.3,42.3605-70.1754,69.658-23.6719,34.2342-43.1096,71.4587-58.208,110.2284-14.1808,36.4136-24.6204,74.1307-35.6673,111.5713-11.0316,37.3888-24.1747,73.8213-37.7484,110.343-25.0645,67.4391-48.9784,144.3361-21.942,215.0625,1.8775,4.9115,5.4174,18.4118,12.6425,17.7143,3.9022-.3767,6.6231-4.5779,8.6408-7.3595,6.572-9.0599,12.595-19.2751,17.0582-29.5605,3.6655-8.4473,3.8878-15.1238-3.9575-21.0826-6.8267-5.1852-15.1609-8.9378-23.0376-12.2086-33.4238-13.8791-70.357-15.9057-106.0764-17.3864-78.016-3.2341-156.9046,.6514-233.0323,19.0092-9.522,2.2962-18.9825,4.8297-28.3865,7.5684-1.886,.5493-3.7351,3.6249-4.6729,4.9117-3.1049,4.2606-5.9144,8.8789-8.5257,13.4489-2.6305,4.6037-5.2302,9.2587-7.3842,14.1079-.2653,.5973-2.326,6.6217-1.9172,6.5027h0Z"/>
    <path class="cls-11" d="M672.4122,551.6769c39.2547,9.1751,79.6379-2.2128,114.3384-20.9297,16.5359-8.9191,32.2904-19.5725,45.9158-32.5592,18.9922-18.1018,33.1583-40.5237,45.1678-63.6908,11.0808-21.3755,18.9162-44.4301,17.3633-68.7796,.1905-1.1274-.1549-1.3268-1.036-.5981-39.6002,22.3802-67.029,58.8923-88.2905,98.3405-6.1297,11.3729-12.0853,23.1342-16.3628,35.3524-3.1119,8.8887-5.6414,18.7994-3.0085,28.1462,5.6325,19.9958,32.0611,19.773,48.6635,20.0559,26.5011,.4516,52.8904-3.6546,78.0943-11.8043,1.9169-.6198,3.6728-3.5394,4.6729-4.9117,3.1049-4.2606,5.9144-8.8789,8.5257-13.4489,2.6305-4.6037,5.2302-9.2587,7.3842-14.1079,.2711-.6103,2.2798-6.6199,1.9172-6.5027-19.8086,6.4051-40.3318,10.3386-61.1273,11.484-10.0419,.5531-20.1247,.4642-30.1548-.2748-7.9631-.5867-16.2602-1.4427-23.4673-5.1547-7.4351-3.8294-12.3907-10.9145-12.8255-19.359-.2183-4.2402,.445-8.5398,1.4931-12.6387,.8856-3.4635,2.4113-7.2814,3.4331-9.619,.3008-.6881,2.9193-6.2899,1.3672-3.107,.4251-.8717,.8644-2.0173,1.4163-2.8469-2.8143,4.2307-.7196,1.0526-.282,.5466,2.4116-2.7881-.1446,.2349-.6124,1.0594,.7417-1.3071,1.2882-3.6024-.6538,1.0418,.2863-.6847,1.2282-2.2673,1.6577-2.696-1.7543,1.7509-1.2852,2.1105,.1192-.1043,1.4756-2.327-1.5292,2.085,.0915-.1403,.6186-.8494,1.2147-1.7156,1.8324-2.5659,1.2678-1.7452,1.2632-1.7616,2.5997-3.4527,2.7564-3.4879,5.6321-6.8808,8.6223-10.1706,12.6695-13.9394,27.8586-25.6896,44.2344-34.9444l-1.036-.5981c1.0268,16.1003-1.6596,33.2506-8.3028,47.5392,.3258-.7007,1.3744-2.6011-.2638,.4764,.5127-.9632,1.0004-1.9337,1.5265-2.8903,.7839-1.4252,1.6975-2.7808,2.479-4.2027,1.1939-2.1723-.122,.226-.3986,.5652,2.093-2.5667-1.3799,1.7804-1.2055,1.555-1.3616,1.7595-2.7971,3.4671-4.2521,5.1494-5.2825,6.1079-11.1801,11.6647-17.3787,16.8328-26.108,21.7674-58.4839,38.4391-91.8637,45.2574-19.1427,3.9102-38.8248,4.1818-57.8934-.2752-1.3011-.3041-4.5919,4.8006-4.6729,4.9117-3.1049,4.2606-5.9144,8.8789-8.5257,13.4489-.8005,1.401-10.7168,20.2798-9.3014,20.6106h0Z"/>
    <path class="cls-10" d="M326.5094,553.3176c39.2547,9.1751,79.6379-2.2128,114.3384-20.9297,16.5359-8.9191,32.2904-19.5725,45.9158-32.5592,18.9922-18.1018,33.1583-40.5237,45.1678-63.6908,11.0808-21.3755,18.9162-44.4301,17.3633-68.7796,.1905-1.1274-.1549-1.3268-1.036-.5981-39.6002,22.3802-67.029,58.8923-88.2905,98.3405-6.1297,11.3729-12.0853,23.1342-16.3628,35.3524-3.1119,8.8887-5.6414,18.7994-3.0085,28.1462,5.6325,19.9958,32.0611,19.773,48.6635,20.0559,26.5011,.4516,52.8904-3.6546,78.0943-11.8043,1.9169-.6198,3.6728-3.5394,4.6729-4.9117,3.1049-4.2606,5.9144-8.8789,8.5257-13.4489,2.6305-4.6037,5.2302-9.2587,7.3842-14.1079,.2711-.6103,2.2798-6.6199,1.9172-6.5027-19.8086,6.4051-40.3318,10.3386-61.1273,11.484-10.0419,.5531-20.1247,.4642-30.1548-.2748-7.9631-.5867-16.2602-1.4427-23.4673-5.1547-7.4351-3.8294-12.3907-10.9145-12.8255-19.359-.2183-4.2402,.445-8.5398,1.4931-12.6387,.8856-3.4635,2.4113-7.2814,3.4331-9.619,.3008-.6881,2.9193-6.2899,1.3672-3.107,.4251-.8717,.8644-2.0173,1.4163-2.8469-2.8143,4.2307-.7196,1.0526-.282,.5466,2.4116-2.7881-.1446,.2349-.6124,1.0594,.7417-1.3071,1.2882-3.6024-.6538,1.0418,.2863-.6847,1.2282-2.2673,1.6577-2.696-1.7543,1.7509-1.2852,2.1105,.1192-.1043,1.4756-2.327-1.5292,2.085,.0915-.1403,.6186-.8494,1.2147-1.7156,1.8324-2.5659,1.2678-1.7452,1.2632-1.7616,2.5997-3.4527,2.7564-3.4879,5.6321-6.8808,8.6223-10.1706,12.6695-13.9394,27.8586-25.6896,44.2344-34.9444l-1.036-.5981c1.0268,16.1003-1.6596,33.2506-8.3028,47.5392,.3258-.7007,1.3744-2.6011-.2638,.4764,.5127-.9632,1.0004-1.9337,1.5265-2.8903,.7839-1.4252,1.6975-2.7808,2.479-4.2027,1.1939-2.1723-.122,.226-.3986,.5652,2.093-2.5667-1.3799,1.7804-1.2055,1.555-1.3616,1.7595-2.7971,3.4671-4.2521,5.1494-5.2825,6.1079-11.1801,11.6647-17.3787,16.8328-26.108,21.7674-58.4839,38.4391-91.8637,45.2574-19.1427,3.9102-38.8248,4.1818-57.8934-.2752-1.3011-.3041-4.5919,4.8006-4.6729,4.9117-3.1049,4.2606-5.9144,8.8789-8.5257,13.4489-.8005,1.401-10.7168,20.2798-9.3014,20.6106h0Z"/>
    <path class="cls-24" d="M4252.6425,1358.9815c97.0195-28.323,186.2691-80.3897,260.094-149.2688,21.3532-19.9226,41.4061-41.229,60.1484-63.6211,5.9406-7.0974,10.6144-15.6947,14.8457-23.8723,1.5425-2.981,3.8199-6.4998,4.5824-9.7781,.0846-.3637,1.5093-4.7257-.3674-2.8312-16.0039,16.1556-28.3309,35.3705-39.171,55.2721-9.9555,18.2777-18.2089,37.5857-22.2572,58.0799-6.2308,31.5432-5.7775,78.8143,33.4799,87.0959,15.5069,3.2713,31.9633,.2347,46.9573-4.0704,18.3221-5.2607,36.3462-11.8258,54.0288-18.9233,36.5359-14.6649,71.7604-32.5795,105.1492-53.4375,38.5355-24.0731,74.5205-52.0096,107.6491-83.0918,6.5357-6.132,10.9914-15.3916,15.1998-23.1838,2.037-3.7717,4.8566-7.9863,5.8279-12.1622,.1166-.5014,1.6118-4.5212-.3674-2.8312-18.2827,15.6114-32.2177,35.1603-44.2893,55.8111-11.7976,20.1821-22.1427,41.4239-27.6721,64.24-8.7513,36.1105-1.162,82.8377,43.0342,87.6221,18.1051,1.9599,36.4243-2.711,53.4867-8.3514,21.8584-7.2259,43.4261-15.4126,64.6798-24.2524,41.7537-17.3661,82.3219-37.5386,121.363-60.3591,45.6493-26.6833,89.1152-56.9627,130.166-90.2792l20.6603-38.1772c-16.0754,16.7555-31.65,33.7382-44.5332,53.138-13.8794,20.9-27.45,43.9311-33.5269,68.509-8.7681,35.4628,1.7233,79.0585,40.8292,89.9333,19.1948,5.3378,39.8475,2.5142,58.9915-1.5473,20.7156-4.3949,41.1782-10.0713,61.2562-16.7952,39.9629-13.3831,78.4976-31.0927,114.7756-52.5311,43.1754-25.5144,83.0169-56.3489,118.8893-91.3728l2.9695-10.2253c-17.2699,34.6626-37.2246,72.917-34.673,112.8472,2.0552,32.1615,18.6677,65.9503,53.5331,71.1185,18.8777,2.7983,38.2873-1.6905,56.7017-5.5325,19.166-3.9988,38.1717-8.7568,56.9682-14.2348,37.1797-10.8355,73.5081-24.5499,108.6573-40.7984,41.5618-19.2129,81.3251-42.1102,118.9914-68.1305,6.7654-4.6736,11.3993-16.147,15.1998-23.1838,2.037-3.7717,4.8566-7.9863,5.8279-12.1622,.161-.692,1.6907-4.2529-.3674-2.8312-63.3594,43.7693-132.7574,78.5366-206.1102,102.0995-34.8445,11.193-71.5103,21.6667-107.9744,25.787-17.5379,1.9817-35.9888,.7283-50.6113-10.1529-11.8164-8.793-19.4864-22.1153-23.8217-35.9907-12.6921-40.622,4.4534-80.5414,22.3998-116.5619,1.1834-2.3753,3.6035-5.8794,3.6712-8.5106,.0066-.2558,1.0228-3.3983-.7017-1.7147-56.9345,55.5879-124.1671,100.6931-197.9988,130.6039-35.0193,14.1871-72.319,26.4903-109.8065,32.0045-34.3784,5.0569-71.4755-2.3681-83.8255-39.1221-6.0903-18.125-5.2336-39.1934,1.1135-57.1546,.2426-.6864,1.325-5.0026,2.085-5.3457,1.2647-.5709-2.8434,2.8186-1.4342,2.6076,1.7003-.2545,7.8037-10.1264,8.8336-11.3581,7.3068-8.7384,15.1481-16.9992,23.0305-25.215,6.3271-6.5948,10.8843-15.1934,15.1998-23.1838,2.037-3.7717,4.8566-7.9863,5.8279-12.1622,.1271-.5463,1.6356-4.4568-.3674-2.8312-64.8415,52.6249-135.8148,97.5741-211.4821,132.9636-36.7162,17.1721-75.0643,33.7595-114.2013,44.6109-31.5504,8.7479-71.338,8.7805-84.4898-27.6094-7.0574-19.5272-4.2535-41.9206,1.757-61.3495,1.502-4.8553,3.2347-9.7111,5.3426-14.3376,.3528-.7742,1.5032-2.335,1.5017-3.1264,.003,1.5883-2.9781,4.0907-1.5047,3.0312,3.5644-2.5632,6.3947-8.1554,9.451-11.4174,3.6127-3.8558,7.5217-7.4135,11.5369-10.8421l20.6603-38.1772c-51.9277,48.7201-111.0237,89.6438-175.3982,120.1705-30.9888,14.6951-64.0054,28.7025-97.4979,36.5657-28.0706,6.5903-61.3175,4.1497-71.6505-27.6619-5.9483-18.3124-4.0946-39.6152-.0861-58.1564,1.0006-4.6282,2.203-9.2117,3.681-13.7106,1.2963-3.9457,3.7601-8.0245,4.6243-12.0235,.6914-3.1991-5.4526,7.5015-.9487,1.8762,3.2319-4.0366,6.4715-7.948,10.1193-11.6305l19.0607-36.4816c-63.8153,76.2424-144.4259,138.4536-235.1856,179.2913-25.9456,11.6743-52.7107,21.4417-80.0178,29.4135-5.4009,1.5767-10.603,13.865-13.1986,18.3606-2.6496,4.5892-5.232,9.2629-7.3842,14.1079-.2655,.5976-2.325,6.6217-1.9172,6.5027h0Z"/>
    <path class="cls-12" d="M461.038,1007.9697c23.1341-21.9666,56.272-22.2898,85.3897-13.9358,30.6323,8.7886,58.2357,26.9297,83.1327,46.3794,51.795,40.4626,93.6178,91.75,139.2956,138.6056,22.8787,23.4686,46.8344,46.062,73.3164,65.4543,28.8292,21.111,60.5444,38.0823,93.7553,51.1986,67.6605,26.7219,140.5484,37.53,212.9284,40.164,83.5569,3.0406,166.9849-4.1772,250.4341-7.1171,10.5608-.3721,21.1238-.6701,31.6891-.8826,1.5822-.0318,4.2298-4.3037,4.6729-4.9117,3.1049-4.2606,5.9144-8.8789,8.5257-13.4489,2.6305-4.6037,5.2302-9.2587,7.3842-14.1079,.2533-.5702,2.6651-6.5177,1.9172-6.5027-83.8575,1.6864-167.5387,9.4343-251.4538,8.6812-74.2036-.6659-149.0214-8.4017-219.6795-32.1241-34.3991-11.549-67.5831-26.8656-98.1311-46.5036-27.9419-17.9627-53.181-39.6579-76.8874-62.8494-47.138-46.1141-88.5748-98.0097-138.7166-141.0509-24.2758-20.8381-51.0711-40.6582-80.6891-53.2046-27.2112-11.5269-59.7568-17.5825-87.612-4.7617-6.9099,3.1804-13.1027,7.51-18.6115,12.7408-6.5004,6.1723-11.0243,15.362-15.1998,23.1838-2.1022,3.938-4.3624,7.9357-5.8279,12.1622-.1557,.4491-1.5148,4.6184,.3674,2.8312h0Z"/>
    <path class="cls-14" d="M2546.6925,980.0593c-.9784,1.83-1.9623,3.657-2.9601,5.4766-.3736,.6814-.7533,1.3595-1.126,2.0413-1.5061,2.7549,2.21-3.8756,.6448-1.1567-.9023,1.5674-1.7896,3.1434-2.6974,4.7078-.5181,.8928-1.0434,1.7813-1.5618,2.6739-2.1547,3.7093,1.8059-2.9623,.2915-.4891-.9408,1.5365-1.8666,3.082-2.8122,4.6156-.5295,.8588-3.2451,5.2454-1.828,2.9586,1.5293-2.4679-.2423,.3763-.6282,.9759-.5551,.8627-1.1128,1.7238-1.673,2.5832-1.1192,1.7171-2.2485,3.4275-3.3878,5.1313-.5922,.8857-3.1753,4.6855-1.2954,1.9495-1.1575,1.6847-2.3267,3.3615-3.5046,5.032-2.3518,3.3354-4.7423,6.6436-7.1704,9.9239-4.0151,5.4243-7.9304,10.4616-12.8146,16.4685-19.314,23.7535-40.6527,45.7622-63.6097,66.0097-46.2437,40.786-98.6738,74.3258-154.3174,100.7702-57.6966,27.42-118.8425,46.8974-181.4042,59.5742-76.3696,15.4747-154.3863,21.3019-232.2161,21.6714-78.2624,.3715-156.4289-4.6946-234.4026-10.9577-9.5733-.769-19.1451-1.5574-28.7161-2.3551-1.4634-.122-4.3908,4.5246-4.6729,4.9117-3.1049,4.2606-5.9144,8.8789-8.5257,13.4489-2.6305,4.6037-5.2302,9.2587-7.3842,14.1079-.2642,.5948-2.7625,6.4322-1.9172,6.5027,79.873,6.657,159.8916,12.5926,240.075,13.2682,79.4345,.6693,159.1405-3.8815,237.3759-18.1822,65.0054-11.8824,128.5145-30.7973,188.756-58.0735,57.5057-26.0375,111.8128-59.4834,159.8275-100.5493,51.9696-44.4484,94.7536-97.5734,129.4582-156.3802,4.8261-8.1778,9.4589-16.4759,13.9359-24.8496,2.0641-3.8607,4.3893-7.9915,5.8279-12.1622,.5771-1.6731,1.4587-3.3647-.3674-2.8312-2.2617,.6608-5.3341,6.7512-6.3346,8.2825-3.1599,4.8366-6.1413,9.8065-8.8652,14.9014h0Z"/>
    <path class="cls-7" d="M1631.0697,652.2133c42.2049-2.4071,85.0339-7.8696,123.5525-26.3597,16.3538-7.8504,31.6812-17.9676,44.9202-30.3997,18.6596-17.5224,33.4338-39.5803,44.85-62.3677,3.1169-6.2216,11.9507-22.2317,.7191-26.0525-6.7363-2.2915-14.294,1.9508-19.9923,5.1188-13.3681,7.432-24.8433,17.4816-35.1706,28.6837-23.9791,26.0104-41.591,57.7402-58.9642,88.3234-4.357,7.6698-8.7061,15.3447-13.1862,22.9436-.8111,1.3757-2.833,4.316,.6412-1.0662-.61,.945-1.1608,1.9326-1.7438,2.8943-1.1653,1.9222-2.3416,3.8376-3.5316,5.7446l-.3564,.5712q-.9562,1.518,.0064,.0038,.9635-1.5124-.0025-.0055l-.7276,1.127c-1.213,1.8717-2.4503,3.7265-3.688,5.5819-1.791,2.6845,.0086-.0121,.3255-.4647-.7627,1.0892-1.5202,2.1818-2.2914,3.265-1.2805,1.7987-2.5908,3.5747-3.9039,5.3496-1.6224,2.193-.6043,.797-.2437,.3308-.805,1.0406-1.6186,2.0748-2.4411,3.1016-1.3659,1.7052-2.756,3.3911-4.1728,5.0543-5.4097,6.3501-11.2639,12.2364-17.5804,17.6866-5.9036,5.0939-10.027,13.9397-13.7392,20.5737-2.1017,3.7559-4.1753,7.5618-5.9237,11.4978-.2909,.6549-2.1539,6.5994-1.9172,6.5027,17.6259-7.2026,35.7047-13.239,54.1609-17.9319,8.8659-2.2544,17.8836-4.492,26.9443-5.8128,8.2825-1.2074,16.3402-.1018,21.7128,6.8874,4.5038,5.8589,6.3199,13.4387,7.811,20.5329,1.7359,8.259,2.8509,16.6334,3.3395,25.0586,.9685,16.7013-.3764,33.5334-3.9198,49.881-1.9211,8.8631-4.5341,17.5164-7.855,25.956-.8212,2.0869-1.109,2.6862-2.126,4.9834-.0651,.1471-1.191,2.5903-.3919,.8885,.8947-1.9055-.9587,1.9765-1.1648,2.3171,.3498-.5781,2.0793-3.8384,.2133-.4639,.6917-1.2509,2.004-3.5266,.5241-.9891,2.7784-4.7639,1.1856-2.0177,.5447-.9857,1.8714-3.013,.4825-.812-.6535,.8709-5.609,8.3092-11.3942,17.5496-14.6931,27.0636-.4485,1.2934-1.6015,3.4114,.3674,2.8312,2.2884-.6743,5.2893-6.734,6.3346-8.2825,24.3833-36.1216,43.4416-77.2329,45.6271-121.3071,.8825-17.7971-.5048-36.3204-5.2469-53.5487-1.9978-7.2582-5.2829-15.4333-12.3631-19.101-8.7201-4.5172-19.924-.9129-28.8763,1.035-23.1755,5.0427-45.8379,12.1761-67.7892,21.1462l-21.5801,38.5742c24.5004-21.14,42.6554-48.9246,59.1349-76.4686,8.3359-13.9327,16.2721-28.0876,24.357-42.1655,1.7902-3.1172,3.5916-6.2279,5.4146-9.326,.4539-.7714,.9173-1.5379,1.3662-2.3122-.1667,.2876-2.9855,4.9558-.9988,1.6895,1.0404-1.7106,2.0734-3.4254,3.1248-5.1294,.3631-.5885,3.6045-5.7518,1.7294-2.7943-1.7315,2.731,.8963-1.3737,1.4197-2.1736,.9596-1.4666,1.9347-2.9226,2.911-4.3781,1.7862-2.6631-.0559,.0959-.3633,.5303,.7526-1.0634,1.493-2.1348,2.2508-3.1946,1.0053-1.406,2.0372-2.7919,3.0558-4.1882,.0593-.0812,1.3404-1.7822,.4785-.6492-.9494,1.2481,.6781-.8715,.8878-1.1374,2.2394-2.8411,4.5296-5.6401,6.9088-8.3656,4.3173-4.9457,8.9576-9.5862,13.9093-13.8987,5.1868-4.5172,10.707-8.655,16.5512-12.2853,5.5695-3.4597,11.7761-7.4766,18.52-7.7387,2.9322-.1139,6.0797,.524,8.0662,2.8619,1.4549,1.7123,1.4956,3.2889,1.7239,5.4119l-.1184,.758c-.9092,5.3036,1.1544,1.4361,6.1908-11.6027,.2682-.4685,3.5115-5.6358,2.1651-3.6197-1.5343,2.2975,1.5557-2.064-.0943,.1442-.4714,.6309-.9143,1.2844-1.3819,1.9185-.8949,1.2137-1.3595,1.7914-2.6695,3.3836-2.8228,3.431-5.7898,6.726-8.952,9.8471-12.0118,11.8557-25.9173,21.7206-40.8153,29.6142-39.4331,20.8933-84.6885,26.5501-128.6304,29.0563-1.6253,.0927-4.168,4.2189-4.6729,4.9117-3.1049,4.2606-5.9144,8.8789-8.5257,13.4489-2.6305,4.6037-5.2302,9.2587-7.3842,14.1079-.2512,.5656-2.6257,6.5431-1.9172,6.5027h0Z"/>
    <path class="cls-4" d="M1859.0721,725.3475c-37.5262,5.2431-73.8316,17.8487-106.7662,36.5568-34.0126,19.3204-66.4561,45.5067-89.3813,77.4401-9.9158,13.8122-18.6719,28.7452-25.7693,44.1947-4.3042,9.3694-7.9813,19.4135-8.5279,29.8056-.9591,18.2351,7.6185,34.7966,21.7398,46.0326,16.0472,12.7684,36.6664,16.7725,56.5921,18.7112,22.2687,2.1667,44.7185,2.9762,67.0865,2.8646,51.6264-.2577,103.137-6.2148,153.5001-17.5387,1.8169-.4085,3.8631-3.8004,4.6729-4.9117,3.1049-4.2606,5.9144-8.8789,8.5257-13.4489,2.6305-4.6037,5.2302-9.2587,7.3842-14.1079,.2564-.5771,2.4184-6.6154,1.9172-6.5027-41.5533,9.343-83.8874,15.0586-126.4436,16.8881-21.2462,.9134-42.5339,.8808-63.7765-.1172-20.1535-.9469-41.167-1.6597-60.6154-7.4946-16.4853-4.9459-31.826-14.6078-40.8284-29.6203-4.4438-7.4106-7.0213-15.8311-7.0986-24.4949-.0385-4.3172,.4879-8.6327,1.4354-12.8412,.4288-1.9048,.9716-3.7537,1.6238-5.5924,.5631-1.5875,1.7842-4.075,.126-.8281-1.3435,2.6308-3.4547,5.0143-4.4512,7.734-1.0795,2.9462,1.3312-1.8341,.0766-.0764-1.1465,1.6063,.9257-1.2303,1.1766-1.5608,1.6705-2.2005-.7665,.9578,.9482-1.1982,2.7944-3.5135,5.7602-6.8997,8.8479-10.1578,6.2095-6.5523,12.7831-12.7799,19.5714-18.7279,13.4841-11.8149,27.995-22.4548,43.3205-31.7577,34.393-20.8773,72.7562-34.7104,112.6134-40.2792,1.7214-.2405,4.0222-4.0187,4.6729-4.9117,3.1049-4.2606,5.9144-8.8789,8.5257-13.4489,2.6305-4.6037,5.2302-9.2587,7.3842-14.1079,.2507-.5644,2.5289-6.5882,1.9172-6.5027h0Z"/>
    <path class="cls-20" d="M3510.9729,694.7548c46.3101,7.1634,93.9536-1.1223,135.7125-22.1917,20.7713-10.4801,41.7145-24.2055,57.2486-41.7204,6.0961-6.8734,11.0255-14.7489,15.7098-22.6164,5.7106-9.5911,11.8307-19.9153,14.5904-30.8644,2.3222-9.2133,.0579-20.4815-7.7322-26.5936-8.8211-6.921-18.4383-.9079-24.8589,6.1037-9.1443,9.9861-16.5096,22.0794-23.9063,33.3697-15.8942,24.2608-30.4592,49.4053-43.9147,75.0945-24.1356,46.0795-44.6074,93.853-64.6422,141.8205-10.864,26.0106-21.6722,52.0484-33.095,77.8203-2.7908,6.2965-5.6172,12.5773-8.4903,18.8368-1.4349,3.1261-2.8811,6.2469-4.3402,9.3618-.7291,1.5565-1.4613,3.1115-2.1968,4.6649-.2674,.5647-2.3694,4.9612-.9866,2.0825-2.972,6.187-6.0041,12.3452-9.0988,18.4717-1.5455,3.0595-3.1131,6.1075-4.6871,9.1525,2.2985-4.4466-.3493,.657-.6894,1.2997-1.0676,2.0175-2.1453,4.0295-3.2273,6.0393-2.0715,3.848-4.3916,7.9982-5.8279,12.1622-.5771,1.6731-1.4587,3.3647,.3674,2.8312,2.2617-.6608,5.3341-6.7512,6.3346-8.2825,3.1609-4.8381,6.1259-9.8129,8.8652-14.9014,44.6422-82.9259,75.7757-171.865,115.537-257.05,1.2072-2.5863,2.4255-5.1674,3.6487-7.7462,1.5087-3.1805,.5716-1.1976,.242-.5118,.7409-1.5413,1.4856-3.0807,2.2339-4.6185,2.491-5.1191,5.0228-10.2184,7.6-15.2948,1.2868-2.5346,2.5945-5.058,3.8957-7.5851-1.9446,3.7768-.5349,1.0183-.1206,.2384,.799-1.5042,1.5927-3.0111,2.3961-4.5131,1.2042-2.2514,2.4191-4.4971,3.6446-6.737,.6805-1.2437,1.3674-2.4838,2.0511-3.7258,2.8179-5.1189-2.4946,4.3584,.4027-.7138,1.4049-2.4595,2.8045-4.9214,4.2293-7.3695,.5696-.9787,1.1466-1.9533,1.7157-2.9323,2.9335-5.0468-2.6211,4.2878,.4137-.6974,1.3242-2.1752,2.6396-4.3554,3.9786-6.5217,.7437-1.2032,1.4948-2.4017,2.2426-3.6024,3.0161-4.8426-2.3456,3.5988,.7556-1.1896,1.5378-2.3745,3.0755-4.7483,4.6394-7.1057,.6256-.943,1.2536-1.8844,1.8846-2.8238,.1022-.1522,3.2476-4.7689,1.2386-1.8472,3.0372-4.417,5.5361-8.4551,8.4172-11.5592,6.4095-6.9056,15.7786-8.4799,22.6774-1.3916,3.039,3.1224,5.096,7.2575,6.0662,11.4849,.4809,2.0955,.6447,4.2048,.4946,6.3496-.084,1.2-.2515,2.3873-.5165,3.5622-2.2689,10.0605-6.9385,1.2227,11.3586-18.8656-1.9653,2.1577-6.209,6.5207-9.3558,9.262-4.1124,3.5825-8.371,7.0002-12.7372,10.2678-8.6764,6.4933-17.8277,12.3603-27.3445,17.544-42.5737,23.1893-92.3813,32.1967-140.3239,24.7808-1.3845-.2142-4.491,4.6621-4.6729,4.9117-3.1049,4.2606-5.9144,8.8789-8.5257,13.4489-.805,1.4088-10.4167,20.4381-9.3014,20.6106h0Z"/>
    <path class="cls-25" d="M4887.4734,804.0334c50.3982-34.2913,111.6379-44.1884,171.5427-43.3367,66.1546,.9405,131.191,14.7758,197.0887,19.1064,39.0959,2.5693,78.5231,1.6072,116.851-7.1356,1.8204-.4152,3.8569-3.7919,4.6729-4.9117,3.1049-4.2606,5.9144-8.8789,8.5257-13.4489,2.6305-4.6037,5.2302-9.2587,7.3842-14.1079,.2567-.5779,2.414-6.616,1.9172-6.5027-68.9477,15.7273-139.7552,5.9463-208.9253-2.8663-61.3697-7.8189-124.0744-14.6107-185.4085-2.6884-33.124,6.4387-65.0244,18.6878-92.9884,37.7147-2.4099,1.6397-4.8725,6.0735-6.3346,8.2825-3.1762,4.7989-6.1558,9.8259-8.8652,14.9014-2.1022,3.938-4.3624,7.9357-5.8279,12.1622-.2468,.7119-1.6513,4.2047,.3674,2.8312h0Z"/>
    <path class="cls-19" d="M3712.594,814.69c21.8089-15.6438,52.6413-14.9931,74.2737,.7526,5.3539,3.897,11.4888,9.0965,13.4487,15.682,.5152,1.7311,.2212,3.2596,.3785,4.9772l8.0967-14.1496c9.0529-13.7022,11.6277-18.2757,7.7242-13.7203-.5446,.4997-1.0592,1.0384-1.5935,1.5496-2.6567,2.5419-5.4177,4.9741-8.2402,7.33-11.3022,9.4337-23.6163,17.5366-35.558,26.1165-12.0983,8.6924-23.6612,18.0063-33.5538,29.2021-7.2827,8.2421-13.4072,17.4673-19.023,26.8991-6.3474,10.6606-12.6994,21.8295-16.5156,33.697-4.2293,13.1522-4.7833,28.5009,5.5928,39.0569,9.2231,9.383,23.3662,11.6615,35.9239,12.4388,39.387,2.4382,79.2782-2.8612,116.9707-14.3449,1.8991-.5786,3.7091-3.5891,4.6729-4.9117,3.1049-4.2606,5.9144-8.8789,8.5257-13.4489,2.6305-4.6037,5.2302-9.2587,7.3842-14.1079,.2676-.6025,2.3068-6.6214,1.9172-6.5027-33.4596,10.1941-68.3525,15.3162-103.3419,14.8205-13.5827-.1924-28.384-.3508-40.7904-6.623-13.0945-6.62-18.9163-20.002-16.4775-34.2556,.3572-2.0875,1.1162-7.13,2.2725-8.2251-.414,.3921-2.118,4.2155-2.4109,4.7617-.9717,1.812-4.545,9.8639-6.449,10.7166,.9043-.405,1.3829-1.7771,2.2365-2.799,4.5235-5.4152,9.6521-10.2577,15.03-14.8148,10.9988-9.3202,23.0302-17.3022,34.7519-25.6618,12.3378-8.799,25.6306-18.1111,34.65-30.4839,5.3781-7.3777,10.0393-15.3805,14.2603-23.4602,2.711-5.1893,6.1592-10.8858,6.7524-16.8241,.7217-7.2248-4.1011-13.2622-9.1405-17.8229-22.2529-20.139-56.9243-21.3691-81.1084-4.0215-2.4389,1.7495-4.8047,5.9709-6.3346,8.2825-3.1762,4.7989-6.1558,9.8259-8.8652,14.9014-2.1022,3.938-4.3624,7.9357-5.8279,12.1622-.2314,.6675-1.6395,4.2707,.3674,2.8312h0Z"/>
    <path class="cls-21" d="M5369.6532,592.8616c1.0392,0,2.8417-2.8991,3.1153-3.2745,2.0735-2.8454,3.9262-5.9217,5.6838-8.9659,1.7664-3.0594,3.488-6.1753,4.9228-9.4053,.1699-.3824,1.7904-4.3351,1.2781-4.3351-1.0392,0-2.8417,2.8991-3.1153,3.2745-2.0735,2.8454-3.9262,5.9217-5.6838,8.9659-1.7664,3.0594-3.488,6.1753-4.9228,9.4053-.1699,.3824-1.7904,4.3351-1.2781,4.3351h0Z"/>
    <path class="cls-1" d="M4740.3669,443.7992c84.1813-55.3878,148.702-137.1685,189.285-228.9914,10.9377-24.7477,19.8406-50.326,26.4894-76.5557,.127-.7516-.1032-.8845-.6907-.3988-15.4797,14.347-27.6016,31.9362-36.4888,51.0597-6.3416,13.646-9.3436,28.9893-.8701,42.4838,7.242,11.5333,20.3675,17.6966,33.0191,21.3345,15.1838,4.366,31.132,5.4903,46.8043,6.7891,76.2748,6.321,153.3142,3.2842,228.8754-8.8683,37.5741-6.0431,74.7872-14.343,111.3563-24.8822,8.9816-2.5885,17.9244-5.3121,26.8237-8.1705,7.6587-2.4599,16.6138-4.3559,23.3338-8.9826,3.7247-2.5645,6.3155-6.4191,8.7743-10.1373,4.0515-6.1269,8.3307-13.0161,10.6808-20.0534,1.3893-4.1602,1.0834-12.8889-4.975-13.4807-3.0228-.2952-6.3619,4.5186-8.4428,6.5052-3.2513,3.1039-6.4782,6.2333-9.6803,9.3879-6.1993,6.1072-12.3061,12.3083-18.3174,18.6007-11.783,12.3341-23.234,24.9815-34.2895,37.9723-22.5524,26.5003-43.4767,54.365-62.8526,83.2649-39.8691,59.4664-73.531,123.4664-98.8603,190.4591-2.9431,7.7842-5.7608,15.6144-8.4752,23.4812-1.9247,5.578,4.0201-2.9569,4.468-3.6342,3.6663-5.5444,7.6091-11.7062,9.7954-18.0424,8.8907-25.7662,19.0081-51.0802,30.4257-75.8318,11.2975-24.4911,22.7283-46.1242,35.8348-68.1532-.9577,1.6096,.4573-.759,.5308-.8808,.864-1.4319,1.7268-2.8645,2.5965-4.293,1.7398-2.8576,3.4963-5.7051,5.2693-8.5422,3.3889-5.4227,6.9327-10.8963,10.7645-16.672,7.4678-11.2562,15.2439-22.3035,23.2696-33.1688,16.1598-21.8773,33.4469-42.9284,51.6504-63.1351,10.1701-11.2892,20.6505-22.2934,31.4224-33.0098,5.4894-5.4611,10.8923-11.5921,16.957-16.4124,2.8065-2.2306,4.9113-2.1364,7.0485,.981,.6023,.8784,1.0475,1.9115,1.2981,2.9454,.692,2.8555-1.3285,6.1237,1.6377,.4169l9.2918-15.6248c-1.4335,2.0827-5.2325,3.5256-7.4442,4.4244-3.7072,1.5065-7.5797,2.6581-11.3795,3.904-7.6966,2.5237-15.4264,4.9461-23.1865,7.2672-15.5304,4.6452-31.1823,8.8844-46.933,12.7163-31.2339,7.5986-62.8569,13.5951-94.7011,17.9792-64.0622,8.8197-129.029,11.1178-193.5497,6.7452-25.6058-1.7353-55.2828-1.8747-78.2547-14.921-9.8286-5.5819-17.8435-14.2867-20.1844-25.6133-1.4986-7.251,.244-13.3382,1.9367-20.2882,.168-.69,.8876-1.1066-.1163,.0834-.3799,.4503-2.6556,5.2447-2.9624,5.1484,.1294,.0406,1.4988-2.0259,1.7373-2.3304,2.4273-3.0994,5.0792-6.0394,7.8531-8.8302,.3493-.3515,3.2372-3.5686,3.5431-3.4355,.2479,.1078-.5338,2.5299-.6514,2.9775-.9145,3.4806-1.871,6.9504-2.8699,10.4078-1.8548,6.4195-3.8841,12.789-6.0429,19.1125-4.1543,12.1685-8.8093,24.1655-14.0268,35.9179-2.5189,5.6738-5.1516,11.2911-7.9294,16.8425-2.5499,5.0959-5.5139,10.6972-7.8925,14.9255,.3366-.5984-1.305,2.2813-1.707,2.979-.9033,1.5681-1.8134,3.1325-2.7361,4.6894,1.1021-1.8596-.8405,1.3821-1.1534,1.896-.9418,1.5469-1.8929,3.0882-2.8522,4.6244-2.269,3.6337-5.9297,9.2328-9.1735,13.9237-30.5047,44.1128-68.94,82.7667-112.46,114.0668-5.5331,3.9795-11.1565,7.8293-16.85,11.5753-1.5929,1.0481-3.2768,4.092-4.223,5.5216-2.1209,3.2045-4.0847,6.5542-5.9101,9.9342-1.3878,2.5697-3.0818,5.2957-3.8852,8.1081-.1409,.4932-1.1202,2.7856,.2449,1.8875h0Z"/>
    <path class="cls-22" d="M5135.8854,646.8715c-38.0627,79.9616-64.9417,165.2478-78.871,252.7291-3.9518,24.8187-6.846,49.7934-8.7326,74.8532-.1264,1.6792,1.5989-.5683,1.757-.7316,1.9579-2.022,3.6326-5.0696,5.0792-7.4188,2.0191-3.2788,3.929-6.6399,5.6482-10.0855,.949-1.9019,2.5094-4.2806,2.6704-6.4181,6.5052-86.4087,25.3582-171.7743,56.0685-252.8118,8.6673-22.8711,18.3121-45.344,28.824-67.4271-.1223,.2569,1.9457-3.9497,1.2781-4.3351-.6642-.3834-3.2813,3.5028-3.1153,3.2745-4.1466,5.7024-7.581,12.0151-10.6066,18.3712h0Z"/>
  </g>
</svg>