<?xml version="1.0" encoding="UTF-8"?>
<svg xmlns="http://www.w3.org/2000/svg" width="2105.7444mm" height="505.2661mm" xmlns:xlink="http://www.w3.org/1999/xlink" viewBox="0 0 5969.0393 1432.2504">
  <defs>
    <style>
      .cls-1 {
        fill: url(#_称未設定グラデーション_27);
      }

      .cls-2 {
        fill: url(#_称未設定グラデーション_30);
      }

      .cls-3 {
        fill: url(#_称未設定グラデーション_22);
      }

      .cls-4 {
        fill: #ba3d04;
      }

      .cls-5 {
        fill: url(#_称未設定グラデーション_761-2);
      }

      .cls-6 {
        fill: url(#_称未設定グラデーション_3);
      }

      .cls-7 {
        fill: url(#_称未設定グラデーション_4);
      }

      .cls-8 {
        fill: url(#_規グラデーションスウォッチ_5);
      }

      .cls-9 {
        fill: url(#_規グラデーションスウォッチ_4);
      }

      .cls-10 {
        fill: url(#_規グラデーションスウォッチ_3);
      }

      .cls-11 {
        fill: url(#_称未設定グラデーション_761);
      }

      .cls-12 {
        fill: url(#_称未設定グラデーション_701);
      }

      .cls-13 {
        fill: url(#_称未設定グラデーション_743);
      }

      .cls-14 {
        fill: url(#_称未設定グラデーション_748);
      }

      .cls-15 {
        fill: url(#_称未設定グラデーション_740);
      }

      .cls-16 {
        fill: url(#_称未設定グラデーション_752);
      }

      .cls-17 {
        fill: url(#_称未設定グラデーション_758);
      }

      .cls-18 {
        fill: url(#_規グラデーションスウォッチ_3-3);
      }

      .cls-19 {
        fill: url(#_規グラデーションスウォッチ_3-2);
      }

      .cls-20 {
        fill: url(#_規グラデーションスウォッチ_5-2);
      }

      .cls-21 {
        fill: url(#_規グラデーションスウォッチ_4-5);
      }

      .cls-22 {
        fill: url(#_規グラデーションスウォッチ_4-6);
      }

      .cls-23 {
        fill: url(#_規グラデーションスウォッチ_4-2);
      }

      .cls-24 {
        fill: url(#_規グラデーションスウォッチ_4-3);
      }

      .cls-25 {
        fill: url(#_規グラデーションスウォッチ_4-4);
      }
    </style>
    <linearGradient id="_規グラデーションスウォッチ_5" data-name="新規グラデーションスウォッチ 5" x1="247.1516" y1="140.538" x2="1196.7506" y2="140.538" gradientTransform="matrix(1, 0, 0, 1, 0, 0)" gradientUnits="userSpaceOnUse">
      <stop offset=".0012" stop-color="#005f73"/>
      <stop offset=".9988" stop-color="#ee9b00"/>
    </linearGradient>
    <linearGradient id="_称未設定グラデーション_3" data-name="名称未設定グラデーション 3" x1="167.0397" y1="435.0022" x2="1102.7319" y2="435.0022" gradientTransform="matrix(1, 0, 0, 1, 0, 0)" gradientUnits="userSpaceOnUse">
      <stop offset=".0012" stop-color="#005f73"/>
      <stop offset=".9988" stop-color="#ee9b00"/>
    </linearGradient>
    <linearGradient id="_称未設定グラデーション_701" data-name="名称未設定グラデーション 701" x1="1046.5979" y1="415.7626" x2="1109.9986" y2="415.7626" gradientTransform="matrix(1, 0, 0, 1, 0, 0)" gradientUnits="userSpaceOnUse">
      <stop offset="0" stop-color="#ee9b00"/>
      <stop offset=".395" stop-color="#ee9b00"/>
    </linearGradient>
    <linearGradient id="_称未設定グラデーション_4" data-name="名称未設定グラデーション 4" x1="14.8145" y1="646.9348" x2="1169.7346" y2="646.9348" gradientTransform="matrix(1, 0, 0, 1, 0, 0)" gradientUnits="userSpaceOnUse">
      <stop offset=".0012" stop-color="#005f73"/>
      <stop offset=".9988" stop-color="#ee9b00"/>
    </linearGradient>
    <linearGradient id="_規グラデーションスウォッチ_5-2" data-name="新規グラデーションスウォッチ 5" x1="255.4385" y1="1070.4507" x2="832.0647" y2="1070.4507" xlink:href="#_規グラデーションスウォッチ_5"/>
    <linearGradient id="_規グラデーションスウォッチ_4" data-name="新規グラデーションスウォッチ 4" x1="4618.0447" y1="801.0672" x2="5566.2107" y2="801.0672" gradientTransform="matrix(1, 0, 0, 1, 0, 0)" gradientUnits="userSpaceOnUse">
      <stop offset="0" stop-color="#bb3e03"/>
      <stop offset="1" stop-color="#9b2226"/>
    </linearGradient>
    <linearGradient id="_規グラデーションスウォッチ_4-2" data-name="新規グラデーションスウォッチ 4" x1="4778.1298" y1="833.9718" x2="5553.811" y2="833.9718" xlink:href="#_規グラデーションスウォッチ_4"/>
    <linearGradient id="_称未設定グラデーション_758" data-name="名称未設定グラデーション 758" x1="2484.5307" y1="625.3623" x2="3046.1477" y2="625.3623" gradientTransform="matrix(1, 0, 0, 1, 0, 0)" gradientUnits="userSpaceOnUse">
      <stop offset="0" stop-color="#ee9b00"/>
      <stop offset=".1135" stop-color="#ed9900"/>
      <stop offset=".9818" stop-color="#ca6702"/>
    </linearGradient>
    <linearGradient id="_規グラデーションスウォッチ_3" data-name="新規グラデーションスウォッチ 3" x1="2779.8227" y1="1245.4753" x2="4108.798" y2="1245.4753" gradientTransform="matrix(1, 0, 0, 1, 0, 0)" gradientUnits="userSpaceOnUse">
      <stop offset="0" stop-color="#ca6702"/>
      <stop offset="1" stop-color="#bb3e03"/>
    </linearGradient>
    <linearGradient id="_称未設定グラデーション_740" data-name="名称未設定グラデーション 740" x1="2706.3357" y1="553.4416" x2="2928.0132" y2="553.4416" gradientTransform="matrix(1, 0, 0, 1, 0, 0)" gradientUnits="userSpaceOnUse">
      <stop offset="0" stop-color="#ee9b00"/>
      <stop offset=".9818" stop-color="#ca6702"/>
    </linearGradient>
    <linearGradient id="_称未設定グラデーション_743" data-name="名称未設定グラデーション 743" x1="2622.1899" y1="761.4351" x2="2885.7251" y2="761.4351" gradientTransform="matrix(1, 0, 0, 1, 0, 0)" gradientUnits="userSpaceOnUse">
      <stop offset="0" stop-color="#ee9b00"/>
      <stop offset=".9818" stop-color="#ca6702"/>
    </linearGradient>
    <linearGradient id="_称未設定グラデーション_752" data-name="名称未設定グラデーション 752" x1="2537.8362" y1="647.4339" x2="3119.4469" y2="647.4339" gradientTransform="matrix(1, 0, 0, 1, 0, 0)" gradientUnits="userSpaceOnUse">
      <stop offset="0" stop-color="#ee9b00"/>
      <stop offset=".9818" stop-color="#ca6702"/>
    </linearGradient>
    <linearGradient id="_称未設定グラデーション_30" data-name="名称未設定グラデーション 30" x1="687.2398" y1="466.2909" x2="928.6315" y2="466.2909" gradientTransform="matrix(1, 0, 0, 1, 0, 0)" gradientUnits="userSpaceOnUse">
      <stop offset="0" stop-color="#797e38"/>
      <stop offset=".9988" stop-color="#ee9b00"/>
    </linearGradient>
    <linearGradient id="_称未設定グラデーション_27" data-name="名称未設定グラデーション 27" x1="341.337" y1="467.9316" x2="582.7287" y2="467.9316" gradientTransform="matrix(1, 0, 0, 1, 0, 0)" gradientUnits="userSpaceOnUse">
      <stop offset=".0012" stop-color="#005f73"/>
      <stop offset="1" stop-color="#7b7e37"/>
    </linearGradient>
    <linearGradient id="_規グラデーションスウォッチ_4-3" data-name="新規グラデーションスウォッチ 4" x1="4267.4269" y1="1235.1" x2="5954.4131" y2="1235.1" xlink:href="#_規グラデーションスウォッチ_4"/>
    <linearGradient id="_称未設定グラデーション_22" data-name="名称未設定グラデーション 22" x1="474.4843" y1="1149.7315" x2="1446.0613" y2="1149.7315" gradientTransform="matrix(1, 0, 0, 1, 0, 0)" gradientUnits="userSpaceOnUse">
      <stop offset="0" stop-color="#416f54"/>
      <stop offset=".9988" stop-color="#ee9b00"/>
    </linearGradient>
    <linearGradient id="_称未設定グラデーション_748" data-name="名称未設定グラデーション 748" x1="1601.9827" y1="1149.8843" x2="2556.2572" y2="1149.8843" gradientTransform="matrix(1, 0, 0, 1, 0, 0)" gradientUnits="userSpaceOnUse">
      <stop offset="0" stop-color="#ee9b00"/>
      <stop offset=".1557" stop-color="#ed9900"/>
      <stop offset=".9818" stop-color="#ca6702"/>
    </linearGradient>
    <linearGradient id="_称未設定グラデーション_761" data-name="名称未設定グラデーション 761" x1="1646.0763" y1="700.1544" x2="1844.1011" y2="700.1544" gradientTransform="matrix(1, 0, 0, 1, 0, 0)" gradientUnits="userSpaceOnUse">
      <stop offset="0" stop-color="#ee9b00"/>
      <stop offset=".9818" stop-color="#ca6702"/>
    </linearGradient>
    <linearGradient id="_称未設定グラデーション_761-2" data-name="名称未設定グラデーション 761" x1="1642.7284" y1="859.6499" x2="1942.8291" y2="859.6499" xlink:href="#_称未設定グラデーション_761"/>
    <linearGradient id="_規グラデーションスウォッチ_3-2" data-name="新規グラデーションスウォッチ 3" x1="3510.1706" y1="765.3143" x2="3728.6358" y2="765.3143" xlink:href="#_規グラデーションスウォッチ_3"/>
    <linearGradient id="_規グラデーションスウォッチ_4-4" data-name="新規グラデーションスウォッチ 4" x1="4901.0502" y1="769.4982" x2="5388.244" y2="769.4982" xlink:href="#_規グラデーションスウォッチ_4"/>
    <linearGradient id="_規グラデーションスウォッチ_3-3" data-name="新規グラデーションスウォッチ 3" x1="3713.2161" y1="881.1999" x2="3875.8757" y2="881.1999" xlink:href="#_規グラデーションスウォッチ_3"/>
    <linearGradient id="_規グラデーションスウォッチ_4-5" data-name="新規グラデーションスウォッチ 4" x1="5365.7647" y1="586.3664" x2="5396.1666" y2="586.3664" xlink:href="#_規グラデーションスウォッチ_4"/>
    <linearGradient id="_規グラデーションスウォッチ_4-6" data-name="新規グラデーションスウォッチ 4" x1="5058.6745" y1="806.5955" x2="5146.8222" y2="806.5955" xlink:href="#_規グラデーションスウォッチ_4"/>
  </defs>
  <g id="_イヤー_1" data-name="レイヤー 1"/>
  <g id="_イヤー_2" data-name="レイヤー 2">
    <path class="cls-8" d="M232.4617,258.5943c64.5071,20.8202,134.167,18.9295,199.2524,1.636,29.5733-7.8578,59.2343-18.3406,85.3356-34.5615,35.313-21.9456,58.0775-55.6533,76.8294-92.1164,14.1716-27.5566,23.8149-58.3189,16.6077-89.3513-2.3059-9.9286-8.2935-31.7929-22.5621-27.6006-7.4093,2.1769-12.8337,8.6569-17.4742,14.4609-5.4648,6.835-10.7471,13.8366-15.8265,20.9629-24.7597,34.7377-46.357,72.2629-63.6143,111.286-6.9046,15.613-13.2809,31.5765-18.2893,47.9086-4.6248,15.0811-7.3196,31.1718,1.436,45.3386,17.6846,28.6145,54.5125,25.2269,83.42,23.2713,36.5319-2.4714,73.0638-4.9427,109.5957-7.4141,73.3591-4.9627,146.7312-9.7631,220.079-14.8891,7.898-.552,15.6871-1.3834,22.97-4.7088,7.2502-3.3105,12.8971-8.8466,18.1905-14.6746,12.2182-13.4521,22.6302-28.935,32.7208-44.0045,23.3856-34.9244,44.073-72.2438,60.3189-111.0345,6.9119-16.5037,13.8909-33.7547,15.0319-51.809,.7636-12.0827-.4982-32.0737-16.9947-31.2707-13.6421,.6641-24.4353,11.7846-32.94,21.2132-12.7842,14.173-23.612,30.1828-33.4422,46.5001-20.2183,33.5606-37.6831,69.4238-43.8673,108.4483-3.8395,24.2283-6.7037,59.193,14.423,76.8445,11.8899,9.9341,28.3635,10.5217,43.0914,11.5214,18.2265,1.2372,36.4846,2.0093,54.7504,2.3165,35.8792,.6035,71.7886-.5873,107.5491-3.5649,17.5662-1.4627,35.091-3.3719,52.566-5.679,2.2834-.3015,5.3815-5.3839,6.2305-6.5489,4.1398-5.6808,7.8859-11.8385,11.3676-17.9318,3.5027-6.1301,7.0334-12.328,9.8456-18.8105,.325-.7493,3.3919-8.7806,2.5563-8.6702-41.7371,5.5103-83.7706,8.6446-125.867,9.275-20.8741,.3126-41.7571,.0186-62.6142-.8827-10.4301-.4507-20.8542-1.0497-31.2665-1.8078-8.6517-.6299-17.4517-1.3595-25.6948-4.2468-18.2439-6.3903-26.1811-23.2722-28.506-41.3624l.1549,1.3268c-3.1348-27.9463,3.053-57.8106,13.3825-83.7345,.2995-.7572,.6048-1.5122,.9158-2.2648-.7723,1.8633-.7421,1.8211,.0906-.1267,.6224-1.3732,1.5802-3.0016,2.0105-4.4431-1.7494,5.8603-.2123,.5199,.5731-1.0723,.9648-1.8892,.4817-.9681-1.4492,2.7631,.5083-.9526,1.024-1.9011,1.547-2.8457-2.591,4.5989-3.0892,5.5129-1.4946,2.742l-2.4277,4.0757c.5576-.9207,1.1224-1.8369,1.6944-2.7488-2.4143,3.7784-2.823,4.4409-1.2261,1.9874,2.6251-3.9713-2.8472,3.8754,.1927-.2924,1.105-1.5149,2.2017-3.0351,3.3135-4.5451,.7864-1.0475,.6423-.8564-.4323,.5732,.6586-.8417,1.324-1.678,1.9963-2.5089,1.0076-1.2444,2.0301-2.477,3.0671-3.697,2.0848-2.4528,4.206-4.8936,6.4644-7.1898,4.59-4.6667,9.9536-8.453,15.9625-11.0589l-1.2265,.5293c5.0945-1.9855,10.9268-3.2402,16.1001-.7728,6.5006,3.1004,8.4783,10.2384,9.2582,16.8395l-.1549-1.3268c1.4814,16.8048-2.9991,32.7737-9.1837,48.2291-.1772,.4428-2.1252,5.1442-.929,2.3023-.9273,2.2031-1.8751,4.3978-2.8385,6.5854-1.676,3.8057-3.2483,7.7368-5.2043,11.4055,1.8585-3.4857,.6043-1.248-.4782,.954-.9202,1.872-1.8537,3.7373-2.799,5.5968-3.2155,6.3251,2.2728-4.1588-.383,.7777-.9868,1.8342-1.9646,3.6727-2.9651,5.4995-3.6364,6.6395,3.0167-5.1871-.021,.0463-.8947,1.5413-1.7863,3.0849-2.6762,4.629-1.6521,2.8021-1.2013,2.0493,1.3525-2.2583-.6118,1.017-1.2275,2.0317-1.8471,3.0439-.9267,1.5132-1.9211,3.0031-2.8132,4.5364,4.2187-7.2513,.007-.0434-.956,1.4255-.9739,1.4855-1.9693,2.9566-2.9475,4.4392-1.4713,2.1704-1.323,1.963,.4449-.6222-.5031,.7306-1.009,1.4592-1.5178,2.1859-1.1843,1.6961-2.3794,3.3846-3.5868,5.0644-1.0341,1.4387-2.0767,2.8713-3.1277,4.2978-.365,.4954-4.4608,5.9531-2.4487,3.3146-2.3402,3.0687-4.7203,6.1203-7.2352,9.0482-4.4949,5.233-9.7938,9.6073-16.0537,12.5661l1.2265-.5293c-13.6508,5.6582-30.0123,4.7397-44.5504,5.7232l-47.8236,3.2352c-31.8824,2.1568-63.7647,4.3137-95.6471,6.4705-31.2182,2.1119-62.4363,4.2238-93.6545,6.3357-31.2439,2.1136-62.6626,5.3996-93.9719,6.1075-14.9627,.3383-30.5315-1.1797-43.5137-9.259-11.2623-7.009-19.42-17.9593-21.2267-31.2487l.1549,1.3268c-1.3514-15.2047,4.7335-29.9816,10.0142-43.9382,1.2372-3.2698,2.5348-6.5146,3.8283-9.7624,.8218-1.9967,.8824-2.1552,.1819-.4756,.3378-.8048,.6789-1.6082,1.0232-2.4102,.8006-1.8716,1.6136-3.7379,2.4407-5.598,.382-.8591,3.6934-9.5633,4.3658-9.5046-1.3799,2.872-1.5006,3.1337-.3621,.7852l.7683-1.5624c.8997-1.8202,1.8318-3.6239,2.7384-5.4405,1.1883-2.3811-3.0837,5.7911-.1005,.1925,.9534-1.7892,1.929-3.5658,2.8973-5.3469,2.728-5.0179-3.5696,6.2169-.4923,.9064,.8691-1.4999,1.7601-2.9918,2.6146-4.5-4.5566,8.0425-1.6542,2.777-.5114,.9085,.4445-.7268,4.4226-6.966,1.7433-2.8502-2.6811,4.1185,1.3646-2.0797,1.8304-2.7878,.9502-1.4444,1.9154-2.8786,2.8773-4.3152,3.3013-4.9302-2.9668,4.1608,.4741-.6689,1.0015-1.4057,1.9888-2.8213,2.9965-4.2227,1.1746-1.6336,2.3619-3.2579,3.5603-4.8741,.4088-.5513,3.9505-5.2085,1.8045-2.4255,4.0222-5.2159,7.7098-10.3087,13.6882-13.403l-1.2265,.5293c18.6796-7.6779,24.8677,24.9789,26.3403,37.2014l-.1549-1.3268c1.3697,13.1416,.1841,26.3595-3.1865,39.1261-.7227,2.7374-1.5859,5.2973-2.583,8.0028-.2941,.7981-2.4509,5.9213-.7487,2.0559-.617,1.401-2.8066,5.9345,.0541,.0825-1.3054,2.5931-.8996,1.8364,1.2175-2.2699l2.413-4.2843c-3.4802,6.1667,5.7244-9.1017,3.5345-5.775-.9855,1.4813-.5514,.8487,1.3025-1.8977-.5819,.8213-1.174,1.6352-1.7763,2.4417,1.8992-2.5596,.1096-.1898-.8436,.9601-17.8128,21.4889-42.7379,36.2524-68.062,47.2193l1.2265-.5293c-60.9277,25.9731-130.2949,37.2634-196.1404,28.8363-19.0338-2.436-37.7869-6.628-56.0472-12.5216-1.6172-.522-6.2579,6.5866-6.2305,6.5489-4.1398,5.6808-7.8859,11.8385-11.3676,17.9318-1.092,1.9112-14.6732,26.7477-12.4019,27.4808h0Z"/>
    <path class="cls-6" d="M153.7372,569.1178c75.9232-40.7343,135.1816-104.5042,179.3403-177.7854,15.912-26.4059,30.5653-53.6637,42.6529-82.0469,1.1594-2.3565,2.0631-4.8043,2.7111-7.3434,.254-1.5033-.2065-1.7691-1.3813-.7975-1.8749,1.8308-3.5429,3.8373-5.004,6.0196-2.5579,3.6079-4.987,7.3008-7.2872,11.0787-4.5463,7.2607-8.7319,14.7595-12.5589,22.4239-2.37,4.7465-5.063,9.953-6.143,15.2528-.9129,4.4798-.1785,9.3463,1.7325,13.4804,4.398,9.5144,14.3513,13.2403,24.0561,14.925,25.679,4.4577,52.175,6.6181,78.1583,8.4304,26.3829,1.8403,52.8258,2.2342,79.2219,.4288,26.3035-1.799,52.4412-5.3474,78.6347-8.2524,102.407-11.3575,205.3329-4.3819,308.0669-7.2956,57.651-1.6351,115.355-6.7201,171.5607-20.1344,2.4424-.5829,5.1155-5.0189,6.2305-6.5489,4.1398-5.6808,7.8859-11.8385,11.3676-17.9318,3.5027-6.1301,7.0334-12.328,9.8456-18.8105,.3339-.7696,3.2079-8.8258,2.5563-8.6702-96.5304,23.0385-196.2696,21.1524-294.8281,20.5463-49.3769-.3036-98.8227-.2688-148.0909,3.4274-50.7123,3.8046-100.9694,13.0757-151.9484,12.9203-28.7998-.0878-57.5384-2.481-86.139-5.7146-13.1948-1.4918-27.1533-2.1237-40.0328-5.493-10.538-2.7568-19.2198-9.4714-20.579-20.8203l.1549,1.3268c-.2958-6.093,3.2725-9.7233-3.6245,4.1478l-11.2965,20.1709,.6906-1.1029-10.9614,8.9574c-1.8666,4.3831-3.7874,8.7422-5.7851,13.0672-.7057,1.5278-3.8229,7.4031-.7586,1.6757-1.2431,2.3235-2.3215,4.7481-3.5105,7.101-.4761,.9421-.9614,1.8794-1.4381,2.8211-2.0614,4.0723,.9649-1.8155,1.1282-2.1469-1.0455,2.1222-2.2338,4.1926-3.3705,6.2675-1.0675,1.9486-3.4568,5.7618,1.2084-2.1256-.5354,.9052-1.0385,1.834-1.561,2.7462-1.3063,2.2804-6.2921,10.096-.7135,1.3134-1.1267,1.7738-2.179,3.597-3.2871,5.383-.5498,.8861-1.1496,1.767-1.6706,2.6727,3.8734-6.7332,1.9411-3.0518,.878-1.4087-1.1401,1.7621-2.2923,3.5162-3.4567,5.2623-.6883,1.0321-1.33,2.3852-2.1955,3.2628,1.6347-1.6575,2.3038-3.3341,.3216-.4915-2.5449,3.6496-5.1426,7.2626-7.7944,10.8354-.6233,.8398-1.2545,1.6737-1.8783,2.5131-3.0132,4.0551,1.4549-1.8283-.4562,.6048-1.613,2.0535-3.2086,4.1193-4.84,6.1585-22.6699,28.3361-48.8842,53.7091-77.9591,75.4302-16.6166,12.4138-34.1433,23.5604-52.4196,33.366-2.9933,1.606-6.8786,8.675-8.4461,11.0433-4.2349,6.3985-8.2077,13.1011-11.8203,19.8685-2.8029,5.2506-5.8165,10.5809-7.7705,16.2163-.4197,1.2103-2.2281,5.2331,.4898,3.7749h0Z"/>
    <path class="cls-12" d="M1117.9676,316.9717c-25.3124,34.0054-46.5085,71.9053-62.4551,111.1747-11.9016,29.3084-19.7308,60.3173-23.0748,91.7696-.3662,3.4445,3.3618-1.2878,3.5141-1.4632,3.8372-4.4189,7.138-9.8811,10.1584-14.8376,4.0068-6.575,7.8985-13.2587,11.2965-20.1709,1.9169-3.8993,4.8771-8.4752,5.3407-12.8362,2.7676-26.0306,8.5007-51.689,17.5838-76.2532,1.0871-2.94,2.2301-5.8571,3.3867-8.7703,2.0731-5.2217-1.423,3.2144,.8001-1.9417,.6756-1.5668,1.3546-3.1316,2.0501-4.6897,.6949-1.5569,1.4185-3.1005,2.1227-4.6531,2.0104-4.4327-2.0746,4.0684,.3126-.6521,.64-1.2655,1.2614-2.5402,1.9044-3.8043,2.866-5.6349-1.478,2.6893-.1735,.3291,.6822-1.2344,1.402-2.4667,2.0299-3.7301-4.1203,8.2914-1.6571,3.0134-.5447,1.0565,2.9966-5.2713-3.5792,5.8278-.6073,1.0302,.8663-1.3985,4.3436-6.4489-.2503,.3161,.9479-1.3959,1.8519-2.8346,2.7752-4.2472,2.6556-4.0628-2.6898,3.7387,.3628-.5608,1.9538-2.7518,3.9134-5.4946,5.9288-8.2021,8.3283-11.1885,15.6629-23.9483,21.2132-36.7423,.4975-1.1468,3.9789-7.8489,2.5563-8.6702-1.4492-.8367-6.223,6.5388-6.2305,6.5489h0Z"/>
    <path class="cls-7" d="M1.4763,781.4823c38.7787-18.9022,72.7202-46.1781,100.7225-78.9113,17.9086-20.9342,33.1776-44.0172,47.0701-67.763,8.4465-14.4374,18.2248-29.9172,23.1737-45.9631,1.3175-4.2718,2.3864-10.2902-1.5453-13.6744-3.1513-2.7125-7.4643-1.3597-10.8087,.2244-11.5767,5.4834-19.2377,18.9844-26.0727,29.2609-11.5627,17.3846-24.0236,36.7886-29.4521,57.2014-2.3032,8.6607-1.9378,19.1032,3.0364,26.835,6.1477,9.5558,17.4316,10.0718,27.6987,10.5225,53.3083,2.3402,106.6187,4.6353,159.928,6.953,106.0767,4.6117,212.183,10.0226,318.3729,11.0099,105.019,.9764,210.3108-2.6057,314.4822-16.6617,26.2254-3.5386,52.3623-7.7396,78.3605-12.6805,22.552-4.2859,45.3716-8.6694,66.8081-17.1086,20.804-8.1901,38.9777-20.1289,53.6772-37.0739,11.1146-12.8125,20.2531-27.5235,28.6102-42.2215,8.2664-14.5385,16.2357-29.6072,21.4622-45.5537,3.467-10.5781,5.8534-21.3375,6.7717-32.4397l-.1549-1.3268c-16.3378,6.7586-29.9527,17.2223-41.4878,30.5765-9.1576,10.6018-16.7739,22.5607-23.9228,34.5675-8.2613,13.8751-16.0002,28.208-21.8691,43.2797-13.2423,34.0073-10.7731,71.795,8.2295,103.1913,10.171,16.8046,24.6213,30.8032,42.1841,39.6915,3.2791,1.6595,16.1716-21.9842,17.5981-24.4808,1.2209-2.1368,15.2541-26.0373,12.4019-27.4808-39.32-19.8993-63.069-65.6958-58.0283-109.2905,.6189-5.3525,1.6212-10.6808,3.0474-15.878,.5503-2.0052,1.1977-3.9742,1.8999-5.9323-.0891,.2486,1.8717-4.9447,.9273-2.5576-1.0139,2.5628,2.7983-5.4042,.5271-1.2531-2.9102,5.3192-5.6295,10.7161-9.0179,15.7633-3.1908,4.7529-.9446,1.3635-.1001,.1966,1.8741-2.5893-2.7486,3.1609,.6989-.8789,3.3077-3.876,6.666-7.5208,10.5032-10.8899,3.7014-3.2499,7.6326-6.2419,11.7667-8.9206,1.7106-1.1084,12.7684-8.7111,14.336-7.2449,.697,.6519-.895,7.3827-1.0189,8.1644-.4287,2.705-.9439,5.3954-1.5499,8.0664-1.2502,5.511-2.9297,10.877-5.0605,16.114,1.1192-2.7507-.405,.8097-.688,1.4625-1.6158,3.7264,3.1771-6.1509,2.3215-4.5681,1.383-2.5584,2.847-5.0953,4.3706-7.5696-.9468,1.5376,5.2449-7.5838,2.8222-4.3431-.4415,.5906-2.7732,3.6465-.8843,1.2534-.737,.9337-1.492,1.8553-2.257,2.7659-1.8192,2.1655-3.7076,4.2264-5.7334,6.1977-8.7273,8.4927-18.8366,15.4234-29.6753,20.9409-22.0337,11.2164-46.6352,16.3766-70.7163,21.1166-56.2867,11.0791-113.2352,18.6138-170.3842,23.4794-114.5315,9.7512-229.6583,8.8424-344.4424,5.0184-116.4068-3.8781-232.7636-9.6621-349.1237-14.7209-6.6786-.2904-13.3649-.5073-20.0397-.8758-5.8018-.3204-11.9044-.8386-17.017-3.8761-9.2982-5.5242-11.9542-17.3513-10.1255-27.3661,.188-1.0298,.6116-2.0697,.7386-3.0909-.4163,3.3478-11.0614,19.1379-12.5639,22.3464-1.9792,4.2264-.4689,.6925,.4363-.5508,.9303-1.2777,1.8112-2.7291,2.8879-3.8827-2.3174,2.4832,1.6895-1.1043,2.3102-1.5666,2.1693-1.616,4.5957-3.1312,7.3446-3.448,5.4903-.6328,7.0175,2.9863,8.0756,7.4291l-.2745,1.7973,2.6381-5.865c3.4132-7.0244,.6198-1.2272-.1085,.1608-.8581,1.6357-2.9427,4.9731,1.2271-2.1304-.9254,1.5765-1.8711,3.1746-2.7482,4.7783,3.918-7.1638,2.2466-3.7205,1.2529-2.1277l-.9599,1.5632c-1.5912,2.5465-1.2867,2.0792,.9136-1.4018-.5157,1.9894-2.761,4.4761-4.0276,6.1177,3.226-4.181,.5887-.8639-.1927,.2455-.8769,1.2449-1.7611,2.4845-2.656,3.7165-.7154,.985-1.4448,1.9593-2.162,2.9429-2.4113,3.3066,.7638-.8923-1.5484,2.0464-7.0367,8.9434-14.4255,17.6099-22.424,25.711-16.2141,16.4223-34.2315,31.0772-53.704,43.4707-9.5243,6.0618-19.394,11.541-29.5411,16.4871-2.8975,1.4124-7.0139,8.8794-8.4461,11.0433-4.2349,6.3985-8.2077,13.1011-11.8203,19.8685-2.8029,5.2506-5.8165,10.5809-7.7705,16.2163-.4538,1.3088-2.2234,5.0975,.4898,3.7749h0Z"/>
    <path class="cls-20" d="M317.5677,989.611c39.802-28.1784,72.4067-64.9105,98.7507-105.7799,9.5983-14.8905,18.6564-30.1468,26.9585-45.7997,4.6861-8.8353,9.3525-17.7934,12.8001-27.2008,2.2851-6.2353,4.148-12.7984,3.6034-19.4955-.1606-1.9746-.1821-5.3594-1.4146-6.961-1.0352-1.3452-2.8738-1.175-4.6822-.857-4.2883,.7543-7.4163,3.4407-10.2297,6.5815-8.5959,9.5961-14.9871,21.4747-21.1258,32.7007-4.4703,8.1749-9.2775,17.0534-11.3178,26.277-4.5074,20.3767,12.7873,31.9873,30.5723,35.4136,10.854,2.091,22.071,2.6098,33.0756,3.4042,12.4669,.8999,24.952,1.5586,37.4451,1.9557,49.3483,1.5688,98.9086-.8922,147.6767-8.7899,54.4935-8.8248,107.706-24.6603,157.6075-48.3614,2.8676-1.362,5.0236-6.0482,6.7251-8.5314,3.4246-4.9981,6.6411-10.1601,9.6465-15.42,2.5048-4.3836,4.9362-8.8126,7.2161-13.3178,1.1878-2.3473,5.537-9.5955,5.3407-12.8362-.4627-7.6402-6.2127-10.3222-13.3806-9.5947-8.6563,.8786-16.0974,6.7017-22.4273,12.2306-21.8848,19.1152-37.0122,46.2684-50.7552,71.4055-23.8763,43.6717-42.7887,90.2437-61.9018,136.1369-4.5241,10.8629-9.017,21.7387-13.5113,32.6139-2.1287,5.1511-4.2577,10.3021-6.3912,15.4512-1.185,2.8601-2.3713,5.7197-3.5597,8.5785-.4753,1.1434-.9507,2.2867-1.4268,3.4297,1.1603-2.7855-.8206,1.9643-1.0402,2.4897-9.1789,21.9585-18.5204,43.8517-28.319,65.5418-2.4131,5.3416-4.8535,10.6709-7.3263,15.9852-1.0406,2.2363-2.0867,4.47-3.1389,6.7008-.6574,1.3939-1.323,2.7839-1.9797,4.1782-.7406,1.5544-.5285,1.1138,.6364-1.322-.3999,.8334-.801,1.6662-1.2033,2.4984-2.5445,5.2698-5.1251,10.5222-7.7469,15.754-1.1034,2.2019-2.214,4.4002-3.3322,6.5947-.8385,1.6455-1.6811,3.289-2.5281,4.9301-.8729,1.6912-2.7712,7.0541-.0898,.194-1.9669,5.0321-5.2559,9.9034-7.8523,14.6437-.5695,1.0397-1.146,2.0757-1.7143,3.1161-2.9389,5.3803,3.0411-5.3715,.9763-1.7285-1.549,2.733-3.0977,5.4656-4.6749,8.1825-.5738,.9884-1.1528,1.9736-1.7289,2.9606-3.0944,5.3016,3.1897-5.2759,1.0153-1.6952-1.3343,2.1973-2.6616,4.3984-4.0159,6.5835-.5471,.8827-1.3708,1.9347-1.8139,2.9059,2.8422-6.2303,1.8207-2.8537,.6258-1.003-1.6998,2.6328-3.4334,5.2423-5.1768,7.8462-2.3631,3.5294,.2113-.2255,.5535-.798-.8671,1.4504-1.9552,2.8051-2.936,4.1841-1.8065,2.5398-3.6434,5.058-5.5118,7.5526-.4931,.6583-2.7769,3.5852-.7252,.9627-1.043,1.3332-2.084,2.6673-3.1413,3.9893-1.7578,2.1977-3.5435,4.3731-5.3589,6.5234-7.6325,9.0402-15.8293,17.538-24.6949,25.3786-15.8602,14.0265-33.6249,25.4638-53.0453,33.9082l1.2265-.5293c-58.5856,24.9807-127.7375,21.6052-183.6727-8.8721-16.095-8.7697-30.8775-19.7352-43.9884-32.5381-1.7351-1.6943-16.4776,22.5199-17.5981,24.4808-3.5027,6.1301-7.0334,12.328-9.8456,18.8105-.6387,1.4723-3.9542,7.3052-2.5563,8.6702,35.794,34.9531,84.0749,55.1155,133.9038,57.7894,49.6504,2.6643,100.0405-12.2333,139.0844-43.3057,24.4344-19.4457,44.6464-43.9247,62.2889-69.5449,22.6336-32.8682,42.2584-67.6688,60.5179-103.1238,31.0909-60.3699,56.6259-123.3334,82.5756-186.0192,1.4213-3.4334,2.8441-6.8662,4.2697-10.2979,.3564-.8579,.7132-1.7155,1.0696-2.5734,.1402-.3375,1.3358-3.2099,.3229-.7791,.8336-2.0005,1.6695-4.0001,2.5062-5.9993,3.107-7.4234,6.2334-14.8386,9.3908-22.2406,6.4293-15.0722,12.9866-30.0907,19.7678-45.0082,3.3224-7.3086,6.7119-14.5854,10.1382-21.8457,1.9629-4.1593-.1237,.2985-.4615,.9494,.3669-.7069,.694-1.4386,1.042-2.1551,.6991-1.4393,1.4037-2.8759,2.1161-4.3088,.8314-1.6724,1.7441-3.3189,2.5313-5.0115,.1204-.259-2.9078,5.4683-1.4644,2.7989,.509-.9413,1.0057-1.8891,1.5163-2.8296,.1299-.2392,.9261-2.0759,1.1559-2.1102,.2261-.0337-3.4889,6.0786-1.9256,3.4736,3.4256-5.7082-3.053,4.941-.4016,.6846,.1616-.2594-3.4088,5.2122-1.7163,2.7032,.4185-.6204,.9898-1.3075,1.3059-1.9841,.0017-.0037-2.7575,3.8738-1.2082,1.7733,.6198-.8403,1.2429-1.6907,1.8367-2.5495,1.1915-1.7232-.3439,.4324-.5103,.641,.6476-.8119,1.2866-1.6296,1.9457-2.4322,.9833-1.1975,1.9852-2.3817,3.0162-3.5384,1.9968-2.2401,4.2278-4.4027,6.5314-6.4455,4.5434-4.0289,9.5877-8.1349,15.1901-10.5716l-1.2265,.5293c6.4906-2.4476,18.1284-3.483,19.747,5.5636l-.1549-1.3268,.0649,1.0719,28.9284-50.1054c-5.9478,2.825-11.941,5.5452-17.9825,8.164l1.2265-.5293c-102.1561,43.8691-215.2479,54.5194-325.2993,46.3724-20.3028-1.503-58.7553-1.1594-62.2389-28.4217l.1549,1.3268c-.0539-.6424,.0577-10.1847,.786-10.0199,.0894,.0202-1.2089,3.1014-1.2671,3.2304-1.0169,2.2574-19.685,35.0504-21.5769,36.1517,1.3776-.8019,2.4446-1.833,3.9392-2.4961l-1.2265,.5293c1.4917-.5251,3.5212-1.1604,5.1167-.759,1.7179,.4323,1.1076-.3667,2.0814,1.7821,.6586,1.4532,.7756,3.295,.9775,4.8435l-.1549-1.3268c.2527,3.8794-.0286,7.8354-1.1398,11.5835-.3411,1.1504-1.1212,2.4293-1.3059,3.581,.2356-1.4683,2.531-5.3517,.8272-2.0011,3.936-7.7404,.3083-.5181-.6384,1.0291l2.2655-4.0438c-.5474,.9691-1.0995,1.9356-1.6561,2.8994-1.0498,1.8168-4.5504,6.8263,.6886-1.1067-.9156,1.3865-1.7465,2.8436-2.6127,4.2631-1.5663,2.4959-1.1749,1.8849,1.1742-1.8329-.5998,.9334-1.204,1.864-1.8127,2.7916-.9012,1.3736-1.7285,2.8846-2.7665,4.1522,3.9337-4.8038,.3765-.5638-.3343,.4456-.9558,1.3572-1.9218,2.7073-2.8971,4.0506-1.2992,1.7894-2.6168,3.5652-3.948,5.3309,1.926-2.5548-.586,.7441-1.1726,1.4905-2.2148,2.8179-4.4722,5.602-6.7723,8.3508-18.1219,21.6577-39.1141,40.7688-62.155,57.081-3.2428,2.2958-6.4287,7.9953-8.4461,11.0433-4.2349,6.3985-8.2077,13.1011-11.8203,19.8685-2.8029,5.2506-5.8165,10.5809-7.7705,16.2163-.3137,.9046-2.1903,5.6724,.4898,3.7749h0Z"/>
    <path class="cls-9" d="M4607.1906,1045.0379c58.0639-74.0925,107.9776-154.7763,149.5055-239.2301,19.894-40.4578,37.8596-81.863,53.469-124.1642,7.5665-20.505,15.1378-41.2293,20.6051-62.409,2.7151-10.5181,4.7355-21.2903,5.1258-32.1672,.3441-9.59,.1803-22.1092-4.0763-30.946-1.0019-2.0799-1.142-1.7932-3.3428-1.0755-1.5263,.4977-3.0695,1.2551-4.3662,2.206-5.0389,3.695-8.657,10.0059-12.0188,15.0888-7.9357,11.9982-15.8995,25.0621-20.8651,38.6475-1.2908,3.5315-2.3893,7.1664-2.6186,10.9381-.3858,6.3458,.9357,13.3387,4.5716,18.6434,4.649,6.783,13.1343,10.0738,21.0022,11.1183,9.2467,1.2276,18.6132-.1916,27.765-1.518,11.7104-1.6973,23.4274-3.347,35.1533-4.9334,23.7697-3.2158,47.5716-6.1928,71.401-8.9307,94.2651-10.8305,188.9604-17.9154,283.7879-21.2285,94.4554-3.3001,189.0424-2.86,283.4624,1.3368,11.8044,.5247,23.606,1.1107,35.4048,1.7492,1.9954,.108,5.7962-5.953,6.2305-6.5489,4.1398-5.6808,7.8859-11.8385,11.3676-17.9318,3.5027-6.1301,7.0334-12.328,9.8456-18.8105,.3391-.7818,3.6558-8.6108,2.5563-8.6702-104.8666-5.6744-209.9704-6.7729-314.9313-3.2214-104.3517,3.5309-208.5483,11.6295-312.193,24.2604-29.0637,3.5419-58.0247,7.7328-87.0333,11.6775-19.1235,2.6004-44.8439,1.6331-48.0795-22.2598l.1549,1.3268c-.3039-3.0489-.1925-5.9778,.3048-8.9991,.0452-.2744,.3288-2.3838,.1795-.9655-.0642,.6099-22.6871,39.9579-23.2521,40.1923-1.3278,.5508,.267-.1416,.6213-.3105,.6562-.3129,1.272-.7708,1.9339-1.0932l-1.2265,.5293c.7117-.2801,2.8429-1.3014,3.594-.9374,.7611,.3689,1.4459,4.3851,1.6386,5.0706,1.1153,3.9669,1.8473,8.0055,2.3623,12.0913l-.1549-1.3268c3.1614,30.2049-8.1121,59.7862-18.0161,87.7633-5.0221,14.1866-10.3097,28.2792-15.859,42.2679-1.3037,3.2865-2.6219,6.5673-3.9546,9.8422-.666,1.6367-1.3356,3.272-2.0088,4.9058-.3365,.8167-.6746,1.6328-1.012,2.4491,.7432-1.7983,.2232-.531-.2206,.5242-2.9651,7.0494-5.9871,14.0745-9.0818,21.0681-2.9716,6.7155-6.0044,13.4039-9.0985,20.0638-1.4838,3.1937-2.9958,6.3738-4.4933,9.561-1.1375,2.4211,.6881-1.4019,.7336-1.5224-.3057,.8089-.7688,1.599-1.1448,2.378-.892,1.8482-1.7884,3.6943-2.6899,5.5379-3.3453,6.8413-6.756,13.6506-10.2319,20.4265-.8014,1.5623-1.6091,3.1212-2.4146,4.6814-2.365,4.5813,2.479-4.6922,.071-.1349-1.7755,3.3602-3.5554,6.7178-5.3572,10.064-1.8004,3.3436-3.6166,6.6786-5.4491,10.0046-.8429,1.53-1.6395,3.104-2.5461,4.597-.1871,.308,3.4155-6.0731,1.7578-3.1396-.5742,1.0161-1.1446,2.0343-1.7191,3.0501-3.588,6.3439-7.2484,12.6451-10.9393,18.9295-2.791,4.7521,3.3455-5.5687,.5091-.8453-.8991,1.4973-1.7972,2.9952-2.7008,4.4898-2.1072,3.4851-4.2326,6.9593-6.3761,10.4221-1.8359,2.9658-3.6894,5.9203-5.5475,8.8722-2.7402,4.3533,2.8863-4.4972,.1048-.172-1.0993,1.7094-2.1958,3.4205-3.3004,5.1265-4.5706,7.0593-9.2176,14.0693-13.9423,21.0265-.4882,.7189-.9794,1.4359-1.4673,2.1551-1.871,2.758,2.3962-3.4599,.4941-.7244-1.1568,1.6637-2.3036,3.3343-3.4622,4.9967-2.3155,3.3225-4.6488,6.6328-6.9997,9.9304-4.8626,6.8209-9.8009,13.5879-14.8138,20.2991-1.2085,1.618-2.4212,3.2329-3.6384,4.8444-.5215,.6903-1.0484,1.3767-1.5671,2.0691-1.7767,2.3715,1.528-1.9821-.2759,.3676-2.6316,3.4281-5.2795,6.8433-7.9453,10.2449-8.4026,10.7221-15.4509,22.7952-21.4549,35.0085l-2.6296,5.4927c-1.1594,2.3565-2.0631,4.8043-2.7111,7.3434,.6336,2.4444,2.057,.396,3.5141-1.4632h0Z"/>
    <path class="cls-23" d="M5564.6624,636.9172c-37.37,48.1203-71.6496,98.7357-100.0507,152.7072-26.0224,49.4513-48.0831,102.1053-54.8768,157.9983-3.4813,28.641-2.6505,57.6155,2.6117,85.9872l1.2265-.5293c9.502-9.2465,16.3448-22.1174,22.544-33.6568,4.1046-7.6404,9.8662-16.51,10.4806-25.4987,.5688-8.3199-3.4999-16.3299-10.8179-20.3559-8.3556-4.5968-18.5553-4.3152-27.8003-4.7438-12.1403-.5628-24.2807-1.1225-36.4219-1.6672-46.7285-2.0963-93.471-3.9726-140.2378-4.9622-93.8849-1.9867-188.0554-.4174-281.4287,10.3125-52.6857,6.0543-105.0256,15.0828-156.5207,27.8024-2.4542,.6062-5.0941,4.9896-6.2305,6.5489-4.1398,5.6808-7.8859,11.8385-11.3676,17.9318-3.5027,6.1301-7.0334,12.328-9.8456,18.8105-.3351,.7725-3.1927,8.8275-2.5563,8.6702,85.9257-21.2242,174.0479-31.9782,262.361-36.3274,88.5844-4.3626,177.3381-2.4655,265.916,1.0498,24.9494,.9901,49.8934,2.1109,74.8359,3.2606,17.3195,.7983,46.645-2.0783,49.8921,21.1639l-.1549-1.3268c.096,1.2773,.127,2.4813,.0289,3.76-.1711,2.2311,.554-.51-.338,1.6629l7.7705-16.2163-.5508,1.0453,11.8203-19.8685,6.1685-8.2982,1.2265-.5293c-1.1554-6.2293-2.1043-12.4834-2.8493-18.775l.1549,1.3268c-4.9165-43.9528,1.0794-88.6087,15.0131-130.4705,1.6216-4.872,3.3346-9.7134,5.1341-14.5225,1.0031-2.681,2.0331-5.352,3.0883-8.0129,.4228-1.0662,.8497-2.1308,1.2806-3.1937,.4313-1.064,.8666-2.1263,1.3059-3.187-.6027,1.4498-.6533,1.5804-.1517,.392,2.2096-5.0096,4.3666-10.0367,6.6747-15.0029,.4762-1.0247,.9255-2.1399,1.4712-3.1378-2.9631,5.419-.1253,.2693,.3784-.7606,1.2722-2.6015,2.5655-5.1928,3.8785-7.774,.6573-1.2922,1.3257-2.5787,1.9875-3.8685,1.8115-3.5308-3.3221,6.2408-.489,.9617,1.3737-2.5597,2.7463-5.1196,4.1468-7.6649,.5606-1.0187,1.1316-2.0319,1.6904-3.0515-4.1026,7.4865-2.2705,4.0372-1.3266,2.3987,1.7431-3.0259,3.4881-6.0495,5.2487-9.0653,2.551-4.3698-1.2069,2.0062-1.4027,2.35,.7193-1.2633,1.5023-2.4949,2.2577-3.737,1.3611-2.238,2.734-4.4686,4.1191-6.6918,.9054-1.4532,2.0149-2.9075,2.7848-4.4351-.2444,.4849-3.604,5.6208-1.0312,1.641,1.7353-2.6842,3.4711-5.3677,5.2303-8.0364,1.7564-2.6644,3.5279-5.3189,5.3143-7.9632,.6446-.9541,1.2727-1.9445,1.9519-2.877-3.6704,5.0393,.2383-.3368,.9847-1.4122,3.6141-5.2069,7.2818-10.3764,10.997-15.5116,7.8636-10.8691,14.8742-20.1333,21.1921-28.2687,8.3629-10.7687,15.4434-22.7799,21.4549-35.0085l2.6296-5.4927c1.1594-2.3565,2.0631-4.8043,2.7111-7.3434-.6324-2.4396-2.0633-.4049-3.5141,1.4632h0Z"/>
    <path class="cls-17" d="M2483.8926,927.7914c48.6171-76.679,91.4902-157.2893,127.4391-240.6711,33.6293-78.0017,61.2669-158.4953,82.3487-240.7877,11.8033-46.0742,21.5048-92.6733,29.132-139.6189,.4165-2.5636-1.6996-.3365-2.4477,.3329-2.8509,2.5507-5.3921,6.8706-7.3797,9.9129-6.6095,10.1165-12.8118,20.6875-17.7711,31.7187-4.8845,10.8648-7.1598,21.3065-2.7515,32.728,3.6191,9.3767,10.7269,17.1685,19.6688,21.709,10.3799,5.2707,22.1957,6.5955,33.6855,6.7613,12.8306,.1851,25.7148-.537,38.5242-1.1994,53.151-2.7484,106.1102-9.2252,158.3608-19.3459,29.6532-5.7437,59.0642-12.6751,88.1793-20.7105,2.4942-.6884,5.0196-4.8872,6.2305-6.5489,4.1398-5.6808,7.8859-11.8385,11.3676-17.9318,3.5027-6.1301,7.0334-12.328,9.8456-18.8105,.3401-.784,3.1391-8.8311,2.5563-8.6702-48.2938,13.3285-97.416,23.5681-147.0322,30.525-24.7592,3.4715-49.6332,6.1285-74.5668,7.9671-12.4611,.9189-24.9372,1.6325-37.4218,2.1406-11.4126,.4645-22.9599,1.1517-34.3678,.2656-11.5255-.8953-23.6292-3.6797-32.7604-11.1722-7.9836-6.5508-13.3433-16.0824-14.547-26.3416l.1549,1.3268c-.1513-2.0494-.1871-4.0694,.0425-6.1172,.1979-1.7654,1.5322-5.2291-.2809-1.1961l-27.5986,41.9645c-12.9764,79.8704-31.9427,158.7919-57.0865,235.7116-12.5956,38.5322-26.7794,76.4836-42.1704,113.982-1.1429,2.7846,.9424-2.2343-.2237,.5403-.4576,1.0887-.913,2.1783-1.3713,3.2666-1.0311,2.4484-2.0681,4.8943-3.1116,7.3374-1.9704,4.6132-3.9632,9.2169-5.9778,13.811-4.145,9.4518-8.3832,18.8628-12.7149,28.2305-1.9788,4.2794-3.9772,8.5498-5.9947,12.8111-.7019,1.4825-3.1913,7.9156-1.1748,2.4834-1.0091,2.7183-2.5777,5.3447-3.8486,7.9522-4.3843,8.9945-8.8569,17.946-13.415,26.8537-1.3398,2.6183-2.6938,5.2291-4.0421,7.843-.7681,1.4891-2.7141,4.2088,.8751-1.664-.7619,1.2467-1.3699,2.6123-2.0507,3.9041-2.6035,4.9398-5.2334,9.8657-7.8909,14.7767-2.656,4.9082-5.3385,9.802-8.0478,14.6809-1.0288,1.8527-3.4465,5.984,.8908-1.5758-.7303,1.273-1.4376,2.5596-2.159,3.8376-1.2983,2.3003-2.6023,4.5974-3.9127,6.8909-2.9106,5.0943-5.8505,10.1719-8.8196,15.2324-1.3355,2.2762-2.6806,4.5467-4.0248,6.8178-2.0006,3.3803,3.4041-5.6855,1.3782-2.3207-.9071,1.5066-1.809,3.0164-2.7175,4.5222-5.9011,9.7811-11.9183,19.4911-18.0351,29.1386-4.0958,6.4599-7.8831,13.3251-11.2965,20.1709-.7071,1.4182-5.9705,10.4064-5.3407,12.8362,.6429,2.4804,2.0124,.3297,3.5141-1.4632,3.8456-4.5914,6.9632-9.798,10.1584-14.8376h0Z"/>
    <path class="cls-10" d="M2765.7897,1110.7549c19.781,73.9246,74.1287,129.3831,138.5142,167.6625,71.373,42.4336,152.1991,65.4875,232.1025,85.7813,99.8748,25.3661,201.5239,43.7159,303.9586,54.9156,102.2633,11.1809,205.304,15.2401,308.1297,12.1171,102.8703-3.1244,205.5236-13.4386,306.9442-30.9374,12.7443-2.1989,25.4672-4.5179,38.1716-6.936,2.3719-.4514,5.2379-5.1869,6.2305-6.5489,4.1398-5.6808,7.8859-11.8385,11.3676-17.9318,3.5073-6.1382,6.9735-12.3449,9.8456-18.8105,.3377-.7603,3.2859-8.8091,2.5563-8.6702-101.1366,19.2498-203.581,31.4294-306.4172,36.3582-102.7476,4.9245-205.8395,2.6695-308.2749-6.7268-102.5804-9.4096-204.5029-25.9621-304.7759-49.5587-83.3402-19.6119-168.3089-41.4367-244.7271-81.0732-65.7356-34.0957-126.5181-83.8441-154.614-154.2617-3.5612-8.9255-6.5282-18.0596-9.0117-27.3407-.2955-1.1045-7.2929,8.0067-6.2305,6.5489-4.1398,5.6808-7.8859,11.8385-11.3676,17.9318-3.5073,6.1382-6.9735,12.3449-9.8456,18.8105-1.067,2.4019-3.2713,5.9981-2.5563,8.6702h0Z"/>
    <path class="cls-15" d="M2691.5616,583.5962c38.0685,8.7295,77.2941,11.9079,116.2664,9.1892,19.0587-1.3295,38.0916-3.975,56.7371-8.1671,17.3646-3.9041,34.4615-9.7423,49.0878-20.1188,3.2443-2.3016,6.4252-7.9899,8.4461-11.0433,4.2349-6.3985,8.2077-13.1011,11.8203-19.8685,2.8029-5.2506,5.8165-10.5809,7.7705-16.2163,.3129-.9023,2.1896-5.6758-.4898-3.7749-5.7016,4.0449-11.7421,7.4003-18.1202,10.2543l1.2265-.5293c-15.217,6.5368-31.48,10.0822-47.7491,12.8602-16.8848,2.8831-33.9589,4.6547-51.0754,5.3099-34.9091,1.3362-69.8774-2.0507-103.9202-9.8571-1.7408-.3992-6.1154,6.391-6.2305,6.5489-4.1398,5.6808-7.8859,11.8385-11.3676,17.9318-1.0669,1.8673-14.2682,27.0528-12.4019,27.4808h0Z"/>
    <path class="cls-13" d="M2607.2602,779.8897c17.7599-1.0102,34.6905,4.4186,51.7259,8.6079,16.7299,4.1142,33.7587,7.0011,50.9081,8.6467,34.5646,3.3168,69.5971,1.5936,103.6753-5.0619,19.3454-3.7782,38.3281-9.1791,56.8054-16.034,2.6116-.9689,4.7745-4.5509,6.2305-6.5489,4.1398-5.6808,7.8859-11.8385,11.3676-17.9318,3.5027-6.1301,7.0334-12.328,9.8456-18.8105,.3634-.8376,2.9568-8.8189,2.5563-8.6702-65.0388,24.1286-136.5759,29.3036-204.3177,14.1117-19.4138-4.3538-38.6197-11.4182-58.797-10.2705-2.1668,.1233-5.5577,5.6257-6.2305,6.5489-4.1398,5.6808-7.8859,11.8385-11.3676,17.9318-3.5027,6.1301-7.0334,12.328-9.8456,18.8105-.3265,.7527-3.508,8.7244-2.5563,8.6702h0Z"/>
    <path class="cls-16" d="M2523.1174,949.2788c53.3361-15.5334,108.5363-23.5886,163.9578-26.3939,27.7336-1.4038,55.5249-1.527,83.2786-.6918,25.77,.7756,51.7875,1.7246,77.2548,6.0056,13.8441,2.3272,27.5498,5.7406,40.6176,10.9184,6.4163,2.5423,12.6648,5.507,18.663,8.9227,5.5806,3.1779,11.8351,6.7954,13.3556,13.5429l-.1549-1.3268c.1393,1.6916-.0187,3.1167-.49,4.7463l2.7111-7.3434-.4598,1.0939,9.8456-18.8105-.5764,1.008,11.3676-17.9318-.6839,.8977,5.004-6.0196c-.8606,.8395-1.5063,1.3017-2.6043,1.7868l1.2265-.5293c-5.1655,1.0725-7.8132-4.0377-9.6617-7.998-2.5416-5.4451-4.7116-11.0727-6.5846-16.7807-3.7628-11.4671-6.1665-23.3093-7.6076-35.2808l.1549,1.3268c-8.7238-78.1164,26.0513-149.6376,50.9853-221.4169,13.1944-37.9836,23.3658-76.9107,35.3321-115.2801,5.8749-18.8377,12.1911-37.5514,19.508-55.8827,.4473-1.1206,.8979-2.2397,1.3529-3.3572,.1921-.4718,1.4861-3.5955,.624-1.5336-.7932,1.8973,.2445-.5689,.3372-.785,.4235-.9871,.8439-1.9753,1.2714-2.9607,1.8197-4.1945,3.7347-8.3418,5.6503-12.4929,1.3506-2.9267-1.9725,4.012-.5388,1.125,.3589-.7227,.7069-1.4511,1.0639-2.1748,.952-1.9296,1.9315-3.8448,2.9024-5.7648,2.0739-4.1013-.8617,1.7268-1.0833,2.0686,.5682-.8763,1.03-1.9328,1.5214-2.8414,.2742-.5071,1.2135-2.6855,1.5451-2.8262-.9112,.3868-3.9763,7.0143-1.1324,2.0535,.3997-.6972,.8053-1.391,1.2054-2.0879,3.0549-5.3201-4.0137,6.5519-.7968,1.3363,.4207-.682,.8361-1.3672,1.2575-2.0488,2.3129-3.7409,.3513-.4295-.8591,1.3158,1.3623-1.9643,2.632-4.0047,3.9539-5.9973,1.7722-2.6715-2.6074,3.6852-.7351,1.0877,.7743-1.0743,1.5248-2.166,2.2992-3.2403,.6185-.858,1.2413-1.7131,1.8692-2.5642,.2647-.3589,2.8748-3.8126,1.4204-1.9163-1.3811,1.8008,.6605-.8328,.9845-1.2438,.8137-1.0323,1.6341-2.0594,2.4633-3.0793,2.9718-3.6553,6.0432-7.2308,9.2198-10.7097,12.1837-13.3429,26.4121-24.9561,41.8004-34.4093,3.1249-1.9196,6.6678-8.3564,8.4461-11.0433,4.2349-6.3985,8.2077-13.1011,11.8203-19.8685,2.8029-5.2506,5.8165-10.5809,7.7705-16.2163,.3688-1.0635,2.221-5.4402-.4898-3.7749-29.0033,17.817-52.1767,43.3572-71.4264,71.1629-25.9143,37.4327-47.4457,78.0839-63.9662,120.5055-14.2744,36.6539-24.7704,74.628-35.8902,112.3156-10.9575,37.1377-24.0431,73.3225-37.5256,109.5986-25.1838,67.7601-49.2968,145.0608-22.1261,216.1385,1.8962,4.9605,5.3944,18.3512,12.6425,17.7143,4.5604-.4007,7.9431-5.8786,10.1984-8.9967,8.5934-11.8807,16.5124-25.2703,22.3615-38.7461,3.9722-9.1516,5.3787-16.6443-3.3185-23.2501-6.8267-5.1852-15.1609-8.9378-23.0376-12.2086-33.4238-13.8791-70.357-15.9057-106.0764-17.3864-78.016-3.2341-156.9046,.6514-233.0323,19.0092-9.522,2.2962-18.9825,4.8297-28.3865,7.5684-2.5146,.7324-4.9802,4.8332-6.2305,6.5489-4.1398,5.6808-7.8859,11.8385-11.3676,17.9318-3.5027,6.1301-7.0334,12.328-9.8456,18.8105-.3431,.791-3.1105,8.8317-2.5563,8.6702h0Z"/>
    <path class="cls-2" d="M672.4746,564.6672c39.3728,9.2027,79.8498-2.2941,114.6451-21.062,16.5359-8.9191,32.2904-19.5725,45.9158-32.5592,21.6253-20.6115,37.43-46.6634,51.0648-73.0081,11.5758-22.3665,20.3262-46.4645,18.6985-71.9886,.254-1.5033-.2065-1.7691-1.3813-.7975-42.3084,23.9107-70.7162,64.0611-93.3571,106.0685-6.8331,12.6779-13.5359,25.783-18.3054,39.4064-3.2353,9.2412-5.9334,19.4927-3.1927,29.2223,5.6325,19.9958,32.0611,19.773,48.6635,20.0559,26.5011,.4516,52.8904-3.6546,78.0943-11.8043,2.5558-.8264,4.8971-4.7192,6.2305-6.5489,4.1398-5.6808,7.8859-11.8385,11.3676-17.9318,3.5027-6.1301,7.0334-12.328,9.8456-18.8105,.3504-.8077,3.0493-8.8297,2.5563-8.6702-24.6077,7.9569-50.3334,12.0545-76.2086,11.8288-18.9164-.165-48.336-.1468-51.3727-24.5869l.1549,1.3268c-.3815-5.3626,.2902-10.7563,1.865-15.8974,.4725-1.5425,1.0916-3.0376,1.6426-4.552,1.1748-3.2285-.5753,1.1517,.3148-.7825,.5545-1.205,1.0837-2.4258,1.6173-3.6407,2.2256-5.0674-2.5035,4.6203,.1114-.2515,2.2984-4.2823-2.4224,4.428-.7722,1.416,2.4206-4.4182-.3362,.5455-1.2124,2.0992,2.988-5.2987-4.0218,6.5876-.8504,1.4035,2.5306-4.1367-2.8008,4.2207-.8785,1.3833,1.8953-2.7975,1.2212-1.4049-.3515,.443,.987-1.1597,1.8633-2.6073,2.7486-3.8488,2.0146-2.8253-.887,1.0496,.4488-.6378,.9757-1.2326,1.9439-2.4701,2.9386-3.6876,13.9404-17.0627,31.1873-31.2673,50.3549-42.1l-1.3813-.7975c.8743,13.7101-.8467,27.6688-5.5468,40.6072-.2477,.6818-2.076,5.2524-.6916,1.9799-.4082,.9649-2.9478,6.3462-.2273,.6983-1.0535,2.0796-1.0204,2.0284,.0995-.1537,.9716-1.9233,2.0022-3.815,3.0919-5.675,1.0615-1.8821,2.1792-3.7297,3.3532-5.5428,1.3276-2.0677,1.355-2.1316,.0821-.1917,3.3833-5.0721,.3987-.6706-.457,.4615,2.2031-2.9145-.787,.9164-1.2687,1.4997-1.989,2.4085-4.0446,4.7699-6.213,7.0185-19.1838,19.8926-43.7984,34.906-69.0287,45.8269l1.2265-.5293c-29.779,12.6069-62.5057,18.8118-94.4344,11.349-1.7348-.4055-6.1226,6.4008-6.2305,6.5489-4.1398,5.6808-7.8859,11.8385-11.3676,17.9318-1.0674,1.868-14.2891,27.0397-12.4019,27.4808h0Z"/>
    <path class="cls-1" d="M326.5719,566.308c39.3728,9.2027,79.8498-2.2941,114.6451-21.062,16.5359-8.9191,32.2904-19.5725,45.9158-32.5592,21.6253-20.6115,37.43-46.6634,51.0648-73.0081,11.5758-22.3665,20.3262-46.4645,18.6985-71.9886,.254-1.5033-.2065-1.7691-1.3813-.7975-42.3084,23.9107-70.7162,64.0611-93.3571,106.0685-6.8331,12.6779-13.5359,25.783-18.3054,39.4064-3.2353,9.2412-5.9334,19.4927-3.1927,29.2223,5.6325,19.9958,32.0611,19.773,48.6635,20.0559,26.5011,.4516,52.8904-3.6546,78.0943-11.8043,2.5558-.8264,4.8971-4.7192,6.2305-6.5489,4.1398-5.6808,7.8859-11.8385,11.3676-17.9318,3.5027-6.1301,7.0334-12.328,9.8456-18.8105,.3504-.8077,3.0493-8.8297,2.5563-8.6702-24.6077,7.9569-50.3334,12.0545-76.2086,11.8288-18.9164-.165-48.336-.1468-51.3727-24.5869l.1549,1.3268c-.3815-5.3626,.2902-10.7563,1.865-15.8974,.4725-1.5425,1.0916-3.0376,1.6426-4.552,1.1748-3.2285-.5753,1.1517,.3148-.7825,.5545-1.205,1.0837-2.4258,1.6173-3.6407,2.2256-5.0674-2.5035,4.6203,.1114-.2515,2.2984-4.2823-2.4224,4.428-.7722,1.416,2.4206-4.4182-.3362,.5455-1.2124,2.0992,2.988-5.2987-4.0218,6.5876-.8504,1.4035,2.5306-4.1367-2.8008,4.2207-.8785,1.3833,1.8953-2.7975,1.2212-1.4049-.3515,.443,.987-1.1597,1.8633-2.6073,2.7486-3.8488,2.0146-2.8253-.887,1.0496,.4488-.6378,.9757-1.2326,1.9439-2.4701,2.9386-3.6876,13.9404-17.0627,31.1873-31.2673,50.3549-42.1l-1.3813-.7975c.8743,13.7101-.8467,27.6688-5.5468,40.6072-.2477,.6818-2.076,5.2524-.6916,1.9799-.4082,.9649-2.9478,6.3462-.2273,.6983-1.0535,2.0796-1.0204,2.0284,.0995-.1537,.9716-1.9233,2.0022-3.815,3.0919-5.675,1.0615-1.8821,2.1792-3.7297,3.3532-5.5428,1.3276-2.0677,1.355-2.1316,.0821-.1917,3.3833-5.0721,.3987-.6706-.457,.4615,2.2031-2.9145-.787,.9164-1.2687,1.4997-1.989,2.4085-4.0446,4.7699-6.213,7.0185-19.1838,19.8926-43.7984,34.906-69.0287,45.8269l1.2265-.5293c-29.779,12.6069-62.5057,18.8118-94.4344,11.349-1.7348-.4055-6.1226,6.4008-6.2305,6.5489-4.1398,5.6808-7.8859,11.8385-11.3676,17.9318-1.0674,1.868-14.2891,27.0397-12.4019,27.4808h0Z"/>
    <path class="cls-24" d="M4252.7049,1371.9718c97.1225-28.3531,186.4956-80.4472,260.4006-149.4011,21.5399-20.0968,41.7754-41.5984,60.6815-64.1863,7.9324-9.4771,14.1022-20.9341,19.7943-31.8297,2.1383-4.0931,4.8379-8.5851,6.1099-13.0375,.1471-.5151,1.9891-6.2774-.4898-3.7749-18.1618,18.3341-31.9454,40.4344-44.2376,63.0001-10.784,19.7969-20.034,40.6608-24.4227,62.8783-6.2412,31.5956-5.8191,79.1291,33.5186,87.4276,15.5069,3.2713,31.9633,.2347,46.9573-4.0704,18.3221-5.2607,36.3462-11.8258,54.0288-18.9233,36.6405-14.7068,71.9709-32.6518,105.4558-53.5698,38.5355-24.0731,74.5205-52.0096,107.6491-83.0918,8.6937-8.1566,14.717-20.5162,20.2664-30.9118,2.7551-5.1612,6.1602-10.5792,7.7705-16.2163,.1959-.6858,2.1259-6.0085-.4898-3.7749-20.1081,17.17-35.1529,39.0977-48.3822,61.799-12.9718,22.2595-24.7125,45.613-30.8113,70.7785-8.7655,36.1693-1.2254,83.1583,43.0729,87.9538,18.1051,1.9599,36.4243-2.711,53.4867-8.3514,21.8584-7.2259,43.4261-15.4126,64.6798-24.2524,41.8577-17.4094,82.5308-37.6137,121.6696-60.4914,45.6493-26.6833,89.1152-56.9627,130.166-90.2792l27.547-50.9029c-16.9055,17.6207-33.1032,35.4933-46.6448,55.8988-15.8219,23.8417-31.7097,50.2147-38.6475,78.2745-8.7845,35.5291,1.665,79.3632,40.868,90.265,19.1948,5.3378,39.8475,2.5142,58.9915-1.5473,20.7156-4.3949,41.1782-10.0713,61.2562-16.7952,40.0648-13.4172,78.7116-31.1703,115.0823-52.6635,43.1754-25.5144,83.0169-56.3489,118.8893-91.3728l3.9594-13.6337c-17.7086,35.5432-38.6267,75.078-36.0081,116.0563,2.0616,32.2619,18.5273,66.2555,53.5718,71.4502,18.8777,2.7983,38.2873-1.6905,56.7017-5.5325,19.166-3.9988,38.1717-8.7568,56.9682-14.2348,37.2874-10.8669,73.7132-24.6353,108.964-40.9308,41.5618-19.2129,81.3251-42.1102,118.9914-68.1305,3.2249-2.2278,6.4708-8.0588,8.4461-11.0433,4.2349-6.3985,8.2077-13.1011,11.8203-19.8685,2.7551-5.1612,6.1602-10.5792,7.7705-16.2163,.2655-.9296,2.2269-5.6516-.4898-3.7749-63.271,43.7083-132.5526,78.437-205.8036,101.9672-34.8445,11.193-71.5103,21.6667-107.9744,25.787-17.5379,1.9817-35.9888,.7283-50.6113-10.1529-11.8164-8.793-19.4864-22.1153-23.8217-35.9907-12.3141-39.4123,3.7649-78.2211,21.1033-113.0211,1.5307-3.0723,4.9339-7.9567,4.895-11.3475-.0037-.3256,1.3753-4.5425-.9356-2.2862-56.8411,55.4966-123.9764,100.6078-197.6921,130.4716-35.0193,14.1871-72.319,26.4903-109.8065,32.0045-34.3784,5.0569-71.4755-2.3681-83.8255-39.1221-5.9592-17.7346-5.2571-38.4737,.9293-56.0785,2.7953-7.9547-1.9437,4.3062-4.2469,6.2831,1.4993-1.2869,5.0635-6.5412,7.2553-9.1625,7.1409-8.5401,14.7938-16.6204,22.4973-24.6498,8.4199-8.7761,14.5732-20.2469,20.2664-30.9118,2.7551-5.1612,6.1602-10.5792,7.7705-16.2163,.2122-.7427,2.157-5.9231-.4898-3.7749-64.8415,52.6249-135.8148,97.5741-211.4821,132.9636-36.6184,17.1264-74.8631,33.6564-113.8947,44.4786-31.5504,8.7479-71.338,8.7805-84.4898-27.6094-6.9232-19.156-4.2759-41.1818,1.5728-60.2735,1.3739-4.4849,2.9697-8.9643,4.8877-13.2461-.9621,2.1478,.7823-1.699,.8443-1.7532,1.7922-1.5655-6.4563,10.3506-6.1506,10.8436-1.5132-2.4404,17.7673-19.0728,19.7368-20.7546l27.547-50.9029c-51.9277,48.7201-111.0237,89.6438-175.3982,120.1705-30.8924,14.6493-63.8048,28.5951-97.1912,36.4334-28.0706,6.5903-61.3175,4.1497-71.6505-27.6619-5.9158-18.2124-4.033-39.3892-.0474-57.8247,1.7989-8.3206,5.2519-15.8355,7.6275-23.8982-.2014,.6834-.7154,1.5126-1.0885,2.1127,.8739-1.4056-11.0076,15.9088-5.1635,8.949,2.9011-3.4549,5.6839-6.911,8.8683-10.1255l25.4143-48.6422c-63.6382,76.0308-144.1553,138.0066-234.6524,178.7261-25.8427,11.628-52.5129,21.3411-79.7112,29.2811-2.5156,.7344-4.9784,4.8307-6.2305,6.5489-4.1398,5.6808-7.8859,11.8385-11.3676,17.9318-3.5073,6.1382-6.9735,12.3449-9.8456,18.8105-.3539,.7968-3.1,8.829-2.5563,8.6702h0Z"/>
    <path class="cls-3" d="M461.4071,1020.8277c5.8677-5.5716,12.4811-10.0087,19.8715-13.3024l-1.2265,.5293c27.896-11.7626,59.968-5.3145,86.8015,6.3071,28.37,12.2871,54.1347,31.1913,77.5718,51.1249,48.9425,41.6263,89.5073,91.8385,134.9202,137.0698,22.893,22.8014,47.093,44.4296,73.8426,62.6416,28.876,19.6597,60.3537,35.3277,93.1091,47.396,66.9736,24.6756,138.4899,34.3487,209.546,36.4612,81.5855,2.4255,163.0207-4.5432,244.4996-7.3808,10.2309-.3563,20.4638-.6423,30.6988-.8481,2.1096-.0424,5.6398-5.7383,6.2305-6.5489,4.1398-5.6808,7.8859-11.8385,11.3676-17.9318,3.5027-6.1301,7.0334-12.328,9.8456-18.8105,.3294-.7593,3.5602-8.6904,2.5563-8.6702-83.8575,1.6864-167.5387,9.4343-251.4538,8.6812-74.2036-.6659-149.0214-8.4017-219.6795-32.1241-34.3991-11.549-67.5831-26.8656-98.1311-46.5036-27.9419-17.9627-53.181-39.6579-76.8874-62.8494-47.138-46.1141-88.5748-98.0097-138.7166-141.0509-24.2758-20.8381-51.0711-40.6582-80.6891-53.2046-27.4102-11.6112-59.8929-17.512-87.9186-4.6293-6.9103,3.1765-13.104,7.5113-18.6115,12.7408-8.6672,8.2297-14.6991,20.4827-20.2664,30.9118-2.8029,5.2506-5.8165,10.5809-7.7705,16.2163-.2076,.5988-2.0197,6.1578,.4898,3.7749h0Z"/>
    <path class="cls-14" d="M2548.8817,987.9195c-1.4152,2.647-3.4252,5.3901-4.4627,8.1973-.1858,.5026,3.6271-6.4085,1.9951-3.5762-.3872,.6719-.7651,1.3492-1.1502,2.0222-1.0256,1.7928-2.0717,3.5735-3.109,5.3595-2.6374,4.5411,3.6448-6.0197,.913-1.5405-.804,1.3183-1.6031,2.6394-2.4135,3.9537-.7947,1.289-1.5179,2.7313-2.4458,3.9274-.2198,.2834,3.4198-5.3366,1.7821-2.8027-.557,.8619-1.1081,1.7277-1.6659,2.589-1.6712,2.5805-3.3652,5.1463-5.0816,7.697-.4269,.6344-.8882,1.2574-1.2895,1.9082-.0373,.0604,2.775-4.0098,1.2747-1.8589-1.1693,1.6763-2.3311,3.3575-3.5114,5.0262-1.7678,2.4993-3.5572,4.9833-5.3679,7.4516-.9043,1.2327-1.8139,2.4615-2.7287,3.6864-.7396,.9902-3.4448,4.5422-1.2767,1.7219-15.5046,20.1686-32.2398,39.106-50.3218,56.7912-37.0259,36.2133-78.856,67.3767-123.5677,93.4551-25.1026,14.6412-51.123,27.6601-77.7978,39.1824l1.2265-.5293c-72.4671,31.128-149.2533,50.1354-227.3657,60.2667-90.1017,11.6864-181.2748,11.9045-271.8941,7.5199-51.2552-2.48-102.4238-6.4417-153.5573-10.7034-1.9512-.1626-5.8544,6.0328-6.2305,6.5489-4.1398,5.6808-7.8859,11.8385-11.3676,17.9318-3.5027,6.1301-7.0334,12.328-9.8456,18.8105-.3443,.7936-3.6898,8.5758-2.5563,8.6702,79.873,6.657,159.8916,12.5926,240.075,13.2682,79.4345,.6693,159.1405-3.8815,237.3759-18.1822,65.1236-11.904,128.7137-30.881,189.0626-58.2059,57.5057-26.0375,111.8128-59.4834,159.8275-100.5493,53.8844-46.0861,97.5901-101.4325,133.5511-162.368,5.1637-8.7499,10.1194-17.6302,14.9096-26.5897,2.7522-5.1476,5.8525-10.6554,7.7705-16.2163,.6228-1.8057,2.0409-4.7605-.4898-3.7749-3.2123,1.251-6.8808,8.6475-8.4461,11.0433-4.2133,6.4488-8.1884,13.0754-11.8203,19.8685h0Z"/>
    <path class="cls-11" d="M1631.1322,665.2037c42.3425-2.415,85.2197-7.9439,123.8591-26.4921,16.3538-7.8504,31.6812-17.9676,44.9202-30.3997,21.3081-20.0094,37.7511-45.7179,50.7469-71.685,3.1424-6.2788,14.2918-25.4171,2.0156-29.5932-6.8213-2.3204-14.5358,2.0471-20.2989,5.2511-13.6106,7.5667-25.1994,17.8436-35.7038,29.2489-25.4042,27.5831-44.1077,61.3267-62.5239,93.7461-4.357,7.6698-8.7061,15.3447-13.1862,22.9436-1.1683,1.9816-3.4493,5.5873,1.6613-2.7795-.5871,.9612-1.1599,1.9312-1.7438,2.8943-1.1653,1.9222-2.3416,3.8376-3.5316,5.7446-.6184,.9909-2.3849,3.7768,.1307-.182,2.6844-4.2244,.3795-.6059-.2494,.3646-1.2131,1.8717-2.4545,3.7237-3.688,5.5819-2.1365,3.2184,.996-1.4787,1.186-1.7206-.8171,1.0405-1.5231,2.1858-2.2914,3.265-1.2805,1.7987-2.5929,3.5731-3.9039,5.3496-1.9616,2.658,.2045-.1821,.4741-.609-.6764,1.071-1.6496,2.1134-2.4411,3.1016-1.3659,1.7052-2.756,3.3911-4.1728,5.0543-5.5353,6.4975-10.1174,11.142-17.0473,17.1214-3.309,2.8552-6.1335,7.5036-8.4461,11.0433-3.4902,5.3421-6.7572,10.8204-9.8729,16.3883-2.7963,4.9972-5.6176,10.0731-7.8982,15.3304-.3754,.8654-2.8827,8.8036-2.5563,8.6702,24.8016-10.1348,50.5872-18.038,76.9273-23.0212,11.4241-2.1613,22.077-1.4613,28.1707,9.7076,5.3832,9.8666,6.846,22.2155,8.1452,33.2098l-.1549-1.3268c2.1092,19.3882,1.2267,39.0044-2.7375,58.1071-1.8474,8.9025-4.3804,17.5838-7.6742,26.0592-.394,1.0139-.7949,2.0257-1.2089,3.0316,.9987-2.4265,.144-.4018-.4283,.8766-.2742,.6124-1.8974,4.0099-.396,.9451,1.503-3.0678-.1794,.3052-.4698,.9053-1.4984,3.0965,3.0586-5.6056,.6774-1.3282,.3894-.6995,3.6126-6.3258,1.4978-2.7292l2.4165-4.0749c-1.2012,1.9315-1.1347,1.8351,.1996-.2893,2.5783-4.1412-.3717,.4715-.7435,1.0223-7.4787,11.079-15.1923,23.3994-19.5908,36.0847-.598,1.7246-2.1353,4.5485,.4898,3.7749l2.1328-2.2608c2.2552-2.8184,4.3597-5.7459,6.3133-8.7825,26.2652-38.9095,48.3849-83.4247,50.7477-131.0727,.8877-17.901-.516-36.5523-5.2856-53.8804-1.9978-7.2582-5.2829-15.4333-12.3631-19.101-8.7201-4.5172-19.924-.9129-28.8763,1.035-23.1755,5.0427-45.8379,12.1761-67.7892,21.1462l-28.7735,51.4322c30.3409-26.1794,51.5533-62.0875,71.4397-96.3557,4.3142-7.4342,8.5334-14.9229,12.7874-22.3917,1.8958-3.3286,3.7979-6.6536,5.7184-9.968,1.0125-1.7474,2.0296-3.4921,3.054-5.2327,.454-.7714,.9143-1.5395,1.3662-2.3122-5.171,8.8416-2.5618,4.2967-1.3281,2.2578,1.0354-1.7111,2.0794-3.417,3.1343-5.1161,.5811-.9359,1.1271-1.9146,1.7608-2.8152-.0242,.0343-4.0474,6.2798-1.7104,2.7063,1.0817-1.6539,2.1534-3.3137,3.2509-4.9574,.6063-.908,1.2444-1.799,1.8331-2.7181-.8858,1.3828-3.0443,4.3377-.8381,1.2677,1.1368-1.5819,2.2588-3.1735,3.4149-4.7415,.4714-.6394,.9836-1.4826,1.5444-2.0727-3.0005,3.157-.8847,1.1354-.1259,.1867,2.5245-3.1567,5.0667-6.2908,7.7462-9.3185,4.4226-4.9973,11.2412-11.586,17.8267-16.7616,6.8893-5.4143,14.3609-10.2481,22.3142-13.95l-1.2265,.5293c6.8224-2.8108,17.0295-3.8818,18.3287,5.6721l-.1549-1.3268c-.0222,.9989-.2863,2.0433-.2704,3.0229l9.4484-18.8992,2.4374-4.1296c.5085-.8277,3.369-5.162,1.2734-2.0565,.7308-1.083,2.5616-3.5928,.7457-1.129-.623,.8453-1.2351,1.6981-1.8646,2.5387,1.033-1.3795,1.0852-1.3819-.0228-.0372-1.3297,1.6137-2.6543,3.2286-4.0333,4.801-5.3117,6.0568-11.3244,11.5329-17.6033,16.5826-13.1352,10.5639-27.7935,19.0416-43.2419,25.7349l1.2265-.5293c-36.3344,15.4142-75.8064,20.2189-114.8958,22.4483-2.1671,.1236-5.5574,5.6252-6.2305,6.5489-4.1398,5.6808-7.8859,11.8385-11.3676,17.9318-3.5027,6.1301-7.0334,12.328-9.8456,18.8105-.3265,.7527-3.5078,8.7245-2.5563,8.6702h0Z"/>
    <path class="cls-5" d="M1866.6346,725.3475c-37.6319,5.2579-74.0465,17.9289-107.0728,36.6891-34.674,19.6961-67.2547,46.4424-90.6323,78.9451-11.9801,16.6562-22.5264,34.7329-31.0726,53.3803-4.5516,9.9314-8.6257,20.6153-9.2057,31.6414-.9658,18.3613,7.5458,35.0397,21.7785,46.3643,16.0472,12.7684,36.6664,16.7725,56.5921,18.7112,22.2687,2.1667,44.7185,2.9762,67.0865,2.8646,51.6264-.2577,103.137-6.2148,153.5001-17.5387,2.4225-.5447,5.1508-5.0673,6.2305-6.5489,4.1398-5.6808,7.8859-11.8385,11.3676-17.9318,3.5027-6.1301,7.0334-12.328,9.8456-18.8105,.332-.7652,3.2329-8.8224,2.5563-8.6702-44.0699,9.9089-89.0193,15.7297-134.1715,17.1792-22.5439,.7237-45.1215,.3793-67.6321-1.0465-21.0636-1.3341-43.2527-2.6477-62.5315-12.0736-17.8546-8.7295-31.8501-24.8851-34.2733-45.0029l.1549,1.3268c-.6156-7.0399-.0719-14.256,2.0309-21.0291,.3458-1.0391,.7147-2.07,1.1066-3.0926-.7971,1.8122-.7638,1.7423,.0998-.2099-2.5359,5.2716-5.2928,10.3231-8.3957,15.3234-2.3595,3.661-2.7255,4.2569-1.0981,1.7878-1.8488,2.6907-2.0199,2.9796-.5133,.8668l1.0114-1.3596c-1.1511,1.5223-1.0671,1.4431,.2521-.2378,9.688-11.3661,20.2828-21.7604,31.7017-31.3977,23.182-19.5651,49.1945-35.5941,77.0339-47.6254l-1.2265,.5293c24.1504-10.2843,49.4738-17.4392,75.477-21.0723,2.2952-.3207,5.3629-5.3583,6.2305-6.5489,4.1398-5.6808,7.8859-11.8385,11.3676-17.9318,3.5027-6.1301,7.0334-12.328,9.8456-18.8105,.3252-.7497,3.3794-8.7852,2.5563-8.6702h0Z"/>
    <path class="cls-19" d="M3511.0354,707.7452c46.4468,7.1846,94.1473-1.1977,136.0192-22.324,21.0347-10.613,42.0786-24.5338,57.7818-42.2856,7.2934-8.2449,13.1495-17.7603,18.7595-27.1824,7.0624-11.8615,14.8557-24.6898,18.2396-38.2595,2.3177-9.2939,.0994-20.7503-7.7709-26.9253-9.1948-7.2142-19.1371-.401-25.6987,6.8012-9.7197,10.6687-17.6012,23.532-25.4847,35.5653-16.9483,25.8699-32.5177,52.6699-46.8698,80.0616-24.6596,47.0642-45.665,95.7858-66.1299,144.7831-10.864,26.0106-21.6722,52.0484-33.095,77.8203-2.7908,6.2965-5.6172,12.5773-8.4903,18.8368-1.4349,3.1261-2.8811,6.2469-4.3402,9.3618-.7291,1.5565-1.4613,3.1115-2.1968,4.6649-.5921,1.2504-2.8394,6.1836-.3292,.7093-2.858,6.2327-6.0077,12.3524-9.0988,18.4717-1.5329,3.0346-3.3567,6.0256-4.6871,9.1525,3.1052-7.2981,.9985-1.9103,.1409-.2897-1.0676,2.0175-2.1453,4.0295-3.2273,6.0393-2.762,5.1307-5.8555,10.6642-7.7705,16.2163-.6228,1.8057-2.0409,4.7605,.4898,3.7749,3.2123-1.251,6.8808-8.6475,8.4461-11.0433,4.2146-6.4508,8.1679-13.0838,11.8203-19.8685,27.9689-51.9541,51.1882-106.1011,73.8993-160.5008,10.6234-25.4461,21.232-50.9024,32.4547-76.0918,2.5613-5.7488,5.1543-11.4835,7.7869-17.1999,1.4337-3.1131,2.879-6.2208,4.3373-9.3225,.7285-1.5495,1.4642-3.0955,2.1953-4.6437,1.1192-2.3476,.9807-2.0605-.4154,.8614,.4941-1.0276,.9898-2.0544,1.487-3.0804,2.7315-5.6359,5.5112-11.2485,8.3469-16.8328,.9786-1.9271,6.6424-11.9674,2.1518-4.2493,1.993-3.4254,3.7199-7.0328,5.6116-10.5171,1.2024-2.2146,7.2318-12.5183,1.8662-3.4602,2.0201-3.4103,3.9191-6.8954,5.9212-10.3171,1.0438-1.7839,4.449-7.0925-.6207,1.0067,1.2005-1.9179,2.3354-3.8796,3.5176-5.8092,.8867-1.4474,1.7791-2.8914,2.6774-4.3317,.5988-.9601,1.2001-1.9186,1.8041-2.8755-2.3331,3.6643-2.703,4.2512-1.1097,1.7607,1.8444-2.85,3.695-5.6953,5.5796-8.519,.9382-1.4057,1.8389-2.8661,2.8459-4.2235-3.9332,5.3019,.6561-.9202,1.3872-1.9603,.9764-1.3891,1.9926-2.7548,2.9506-4.1564,1.2272-1.6662,1.1848-1.6373-.1272,.0869,.6342-.8067,1.2893-1.596,1.9653-2.368,1.8675-1.9387,4.4588-3.7031,7.0771-4.9192l-1.2265,.5293c12.1965-4.4309,20.8463,6.8517,22.5315,17.8372l-.1549-1.3268c.3486,3.5003-.1946,6.4666-.8275,9.8284,4.7998-11.8529,11.0424-22.7537,18.7279-32.7026-.6688,.8254-1.3575,1.6339-2.0661,2.4254-1.0942,1.1892-2.2819,2.3077-3.4648,3.4119-5.9258,5.5315-12.3264,10.6031-18.8835,15.3606-13.58,9.8529-28.2307,18.1091-43.6068,24.8085l1.2265-.5293c-38.486,16.4474-80.9236,22.3865-122.354,15.9779-1.846-.2855-5.988,6.2161-6.2305,6.5489-4.1398,5.6808-7.8859,11.8385-11.3676,17.9318-3.5027,6.1301-7.0334,12.328-9.8456,18.8105-.3596,.829-3.764,8.4834-2.5563,8.6702h0Z"/>
    <path class="cls-25" d="M4887.8425,816.8914c11.8792-8.0827,24.4492-14.9769,37.6126-20.7317l-1.2265,.5293c109.5531-46.9878,229.2322-8.8744,342.4718-3.2869,35.6275,1.7579,71.4517,.2088,106.318-7.7443,2.4272-.5537,5.1425-5.0559,6.2305-6.5489,4.1398-5.6808,7.8859-11.8385,11.3676-17.9318,3.5027-6.1301,7.0334-12.328,9.8456-18.8105,.3324-.7662,3.227-8.8232,2.5563-8.6702-68.9477,15.7273-139.7552,5.9463-208.9253-2.8663-61.3697-7.8189-124.0744-14.6107-185.4085-2.6884-33.2201,6.4574-65.2502,18.7651-93.295,37.847-3.2132,2.1863-6.4967,8.098-8.4461,11.0433-4.2349,6.3985-8.2077,13.1011-11.8203,19.8685-2.8029,5.2506-5.8165,10.5809-7.7705,16.2163-.3291,.9492-2.2017,5.6063,.4898,3.7749h0Z"/>
    <path class="cls-18" d="M3712.963,827.5481c3.8682-2.7747,7.9453-5.0736,12.3151-6.962l-1.2265,.5293c13.7525-5.5706,29.0354-6.3991,43.2988-2.24,12.7847,3.7279,31.448,13.5274,33.6319,28.1775l-.1549-1.3268c.1436,5.044-2.1783,6.7018,3.8063-5.7524l11.2965-20.1709c5.738-9.5964,10.929-14.2596,6.8188-10.4334-.7698,.7166-1.5224,1.4513-2.2947,2.1653-1.9282,1.7824-3.9032,3.5137-5.9118,5.2047-4.42,3.721-9.0105,7.2346-13.6703,10.6487-8.8969,6.5188-18.067,12.6558-26.9407,19.2067-8.599,6.3481-16.9033,13.0983-24.3234,20.8114-13.8522,14.3991-24.6243,31.4338-34.1191,48.9396-10.7849,19.8845-28.2363,53.1605-4.7661,71.423,7.3521,5.7208,16.8147,8.0282,25.8961,9.1253,12.0896,1.4605,24.4975,1.3458,36.6474,.9362,29.6158-.9986,58.9797-6.0297,87.3153-14.6627,2.5322-.7715,4.9454-4.7855,6.2305-6.5489,4.1398-5.6808,7.8859-11.8385,11.3676-17.9318,3.5027-6.1301,7.0334-12.328,9.8456-18.8105,.346-.7976,3.085-8.8313,2.5563-8.6702-31.3468,9.5504-63.9591,14.6724-96.742,14.8498-23.4905,.1271-59.4622,.1811-64.2931-29.7523l.1549,1.3268c-.5325-4.596-.3274-9.1489,.5982-13.6843,.3246-1.5904,.8228-3.0705,1.264-4.619,.2178-.7643,1.4635-3.0192-.0224-.0718-4.2355,8.4013-8.8287,16.6939-14.0991,24.4992,.4276-.6332,2.2324-2.5905,.0183-.028,.6865-.7946,1.3269-1.6349,2.0057-2.436,1.0181-1.2015,2.0573-2.3987,3.1356-3.5467,3.3771-3.5953,7.0961-6.9121,10.8559-10.0981,14.0134-11.8747,29.6745-21.571,44.2934-32.6494,7.615-5.7708,15.2273-11.887,21.6112-19.0315,8.6903-9.7257,15.4813-21.8466,21.5788-33.2689,4.0548-7.5958,10.6696-17.2702,10.1964-26.2775-.4659-8.8687-8.0319-15.561-14.7875-20.3588-6.7147-4.7687-14.3795-8.1692-22.3961-10.0421-18.4453-4.3095-38.0563-.4095-53.4436,10.6279-3.2519,2.3326-6.4062,7.9612-8.4461,11.0433-4.2349,6.3985-8.2077,13.1011-11.8203,19.8685-2.8029,5.2506-5.8165,10.5809-7.7705,16.2163-.3086,.8899-2.186,5.6943,.4898,3.7749h0Z"/>
    <path class="cls-21" d="M5365.9657,612.3472c2.0784,0,5.6834-5.7981,6.2305-6.5489,4.1398-5.6808,7.8859-11.8385,11.3676-17.9318,3.5027-6.1301,7.0334-12.328,9.8456-18.8105,.3315-.7642,3.5874-8.6702,2.5563-8.6702-2.0784,0-5.6834,5.7981-6.2305,6.5489-4.1398,5.6808-7.8859,11.8385-11.3676,17.9318-3.5027,6.1301-7.0334,12.328-9.8456,18.8105-.3315,.7642-3.5874,8.6702-2.5563,8.6702h0Z"/>
    <path class="cls-4" d="M4737.2926,463.0201c91.2127-60.0141,158.5846-151.2504,202.3936-250.3724,11.4702-25.9525,20.8716-52.7174,27.845-80.2275,.254-1.5033-.2065-1.7691-1.3813-.7975-21.4888,19.9164-37.4391,46.0055-49.5974,72.4407-6.8688,14.9345-11.564,31.8239-2.1482,46.819,7.242,11.5333,20.3675,17.6966,33.0191,21.3345,15.1838,4.366,31.132,5.4903,46.8043,6.7891,76.2748,6.321,153.3142,3.2842,228.8754-8.8683,37.5741-6.0431,74.7872-14.343,111.3563-24.8822,8.9816-2.5885,17.9244-5.3121,26.8237-8.1705,7.8595-2.5244,17.0551-4.5022,23.947-9.2472,5.4952-3.7835,9.424-10.1897,12.9973-15.659,7.6823-11.7585,15.8303-24.6949,20.4762-38.0958,1.5791-4.5548,2.4263-14.7166-4.6067-15.6328-3.283-.4277-6.8497,4.6635-9.056,6.7698-3.2513,3.1039-6.4782,6.2333-9.6803,9.3879-6.1993,6.1072-12.3061,12.3083-18.3174,18.6007-12.1414,12.7093-23.9639,25.7164-35.3558,39.1027-23.7231,27.8759-45.6295,57.2589-66.0092,87.6561-43.6353,65.0839-80.9267,135.1619-108.6557,208.5015-2.9431,7.7842-5.7608,15.6144-8.4752,23.4812-.7135,2.0679-1.9827,4.5909,.4898,3.7749,2.5335-.8361,7.4558-9.5275,8.4461-11.0433,7.2866-11.1528,15.2084-23.384,19.5908-36.0847,4.344-12.5893,8.9673-25.0795,13.9012-37.4498,1.0284-2.5784,2.0699-5.1515,3.1237-7.7196,.1403-.3419,2.266-5.4264,.7352-1.7882,.6462-1.5357,1.2945-3.0705,1.9486-4.6029,2.6173-6.1315,5.3078-12.2318,8.0703-18.2993,1.3819-3.035,2.7817-6.0618,4.1995-9.0803,.5909-1.258,1.1895-2.5122,1.7823-3.7692,1.5237-3.2312-2.5473,5.2188-.1037,.2295,3.0584-6.2448,6.1375-12.477,9.3212-18.6593,.8571-1.6644,3.0309-5.4764-.6288,1.1721,.8045-1.4616,1.5541-2.9569,2.3368-4.4304,1.5669-2.9497,3.1512-5.8903,4.7527-8.8214,1.05-1.9218,6.2553-10.9475,.9627-1.8075,1.9539-3.3742,3.8426-6.7865,5.7985-10.1599,1.3974-2.41,2.8439-4.793,4.2279-7.2105-5.3257,9.3031,.6603-1.0524,1.9582-3.1749,1.7454-2.8544,3.5073-5.6988,5.2862-8.5324,.5905-.9406,1.2181-1.8742,1.7846-2.831-4.4287,7.4804-.335,.5532,.6652-.9933,3.3342-5.155,6.7239-10.274,10.1669-15.357,.6722-.9923,3.7483-5.8705,.3376-.5087,.8961-1.4088,1.9082-2.7614,2.8634-4.1308,2.0773-2.9781,4.1736-5.9429,6.2883-8.8946,3.7432-5.2249,7.5444-10.4083,11.4032-15.5485,.8392-1.1179,1.6891-2.2278,2.5261-3.3473,1.9421-2.5974-2.5978,3.3515,.6923-.9081,2.3937-3.0991,4.7954-6.1917,7.2246-9.2631,7.9884-10.1004,16.2024-20.0224,24.6339-29.7561,19.1742-22.1354,39.5257-43.1883,60.9049-63.2002l-1.2265,.5293c3.9407,.4649,5.9713,3.3439,6.7175,7.0532l-.1549-1.3268c.5289,5.5607-3.0035,7.3747,4.1675-6.4215l18.5836-31.2496c3.3067-4.8043,1.9788-2.3665-.154-.9895-1.2645,.8164-2.6297,1.4542-3.9933,2.0826l1.2265-.5293c-15.271,6.3569-31.7514,10.6361-47.6407,15.1637-16.493,4.6996-33.1153,8.9448-49.8411,12.7332-33.4889,7.5853-67.3919,13.3414-101.5053,17.2537-68.2317,7.8251-137.4705,8.4153-205.7824,1.1599-25.4123-2.699-61.0406-10.229-65.3218-40.6657l.1549,1.3268c-.3384-3.5342-.2771-7.0297,.3179-10.5354,.2553-1.5041,.7232-3.0587,1.0514-4.4422,.7403-1.9515,.7177-1.9551-.068-.0109-2.3539,5.0733-5.0344,9.9677-8.0413,14.6831-1.7316,3.2703-3.6623,6.414-5.7921,9.4309,1.2596-1.7143,1.3083-1.7924,.1463-.2343,1.2227-1.5271,2.4801-3.0232,3.7767-4.488,2.4248-2.7394,5.0628-5.2661,7.7448-7.7518l-1.3813-.7975c-2.6025,10.2668-5.5131,20.2976-8.8777,30.3194-1.7197,5.1223-3.5302,10.2141-5.4306,15.2721-.9054,2.4098-1.8311,4.812-2.7769,7.2063-.3784,.9579-.7602,1.9146-1.1448,2.87-.3849,.9555-.7729,1.9098-1.1641,2.8627-.694,1.6809-.786,1.9047-.276,.6714,1.0737-2.5353-.9159,2.1267-.8988,2.0869-.6109,1.4203-1.2289,2.8376-1.8539,4.2517-1.042,2.3577-2.1036,4.7068-3.1845,7.047-.4325,.9364-.8718,1.8695-1.3067,2.8048-2.3082,4.9639,2.3704-4.8242-.0399,.0921-1.3632,2.7805-2.7347,5.5561-4.1431,8.3141-.4695,.9195-.9523,1.8327-1.4178,2.7541,3.8576-7.6369,1.2962-2.4904,.4311-.8758-1.2201,2.277-2.4897,4.527-3.7144,6.8013,5.0628-9.4011,.532-1.0069-.7101,1.1245-.5201,.8925-1.0609,1.777-1.5704,2.6759,5.1485-9.0822,1.2857-2.1755,.0775-.2061-1.1377,1.8545-6.176,9.5327-1.1019,1.839-1.4255,2.1614-2.8097,4.3498-4.2408,6.5078-.7158,1.0793-1.4364,2.1554-2.1608,3.229-1.2649,1.8745-1.2888,4.0406,.3738-.5303-.9208,2.5314-3.82,5.4583-5.38,7.6246-1.5156,2.1046-3.0481,4.1971-4.5972,6.2771-.7749,1.0404-1.5608,2.0725-2.3375,3.1115-1.8449,2.4677,2.6595-3.3803-.4427,.5677-3.5306,4.4933-7.0787,8.9687-10.7366,13.3597-13.6804,16.422-28.472,31.8399-44.2827,46.2224-18.5822,16.9037-38.4908,32.3019-59.4744,46.1082-3.1858,2.0961-6.5537,8.184-8.4461,11.0433-4.2349,6.3985-8.2077,13.1011-11.8203,19.8685-2.8029,5.2506-5.8165,10.5809-7.7705,16.2163-.3422,.9868-2.2096,5.551,.4898,3.7749h0Z"/>
    <path class="cls-22" d="M5133.476,662.0219c-38.6141,81.12-66.0937,167.6413-80.2265,256.4008-3.9518,24.8187-6.846,49.7934-8.7326,74.8532-.2519,3.3461,3.2103-1.1134,3.5141-1.4632,3.8372-4.4189,7.138-9.8811,10.1584-14.8376,4.0068-6.575,7.8985-13.2587,11.2965-20.1709,1.8814-3.8272,5.0175-8.5434,5.3407-12.8362,6.4665-85.8938,25.0938-170.7641,55.6227-251.3231,2.1799-5.7522,4.4174-11.4826,6.7123-17.1899,1.1478-2.8546,2.3102-5.7033,3.4873-8.546-.3098,.7481-1.1216,2.657,.3146-.7454,.7182-1.7013,1.4387-3.4015,2.1656-5.099,4.849-11.3239,9.9399-22.5414,15.2343-33.6638-.2446,.5138,3.8914-7.8994,2.5563-8.6702-1.3303-.7681-6.5598,7.0092-6.2305,6.5489-8.2208,11.4929-15.147,23.9986-21.2132,36.7423h0Z"/>
  </g>
</svg>