<?xml version="1.0" encoding="UTF-8"?>
<svg xmlns="http://www.w3.org/2000/svg" xmlns:xlink="http://www.w3.org/1999/xlink" viewBox="0 0 2934.15 728.2">
  <defs>
    <style>
      .cls-1 {
        fill: #ba3d04;
      }

      .cls-2 {
        fill: url(#_称未設定グラデーション_685-2);
      }

      .cls-3 {
        fill: url(#_称未設定グラデーション_685-3);
      }

      .cls-4 {
        fill: url(#_称未設定グラデーション_761-2);
      }

      .cls-5 {
        fill: url(#_規グラデーションスウォッチ_4);
      }

      .cls-6 {
        fill: url(#_規グラデーションスウォッチ_3);
      }

      .cls-7 {
        fill: url(#_称未設定グラデーション_761);
      }

      .cls-8 {
        fill: url(#_称未設定グラデーション_685);
      }

      .cls-9 {
        fill: url(#_称未設定グラデーション_701);
      }

      .cls-10 {
        fill: url(#_称未設定グラデーション_703);
      }

      .cls-11 {
        fill: url(#_称未設定グラデーション_705);
      }

      .cls-12 {
        fill: url(#_称未設定グラデーション_714);
      }

      .cls-13 {
        fill: url(#_称未設定グラデーション_743);
      }

      .cls-14 {
        fill: url(#_称未設定グラデーション_748);
      }

      .cls-15 {
        fill: url(#_称未設定グラデーション_711);
      }

      .cls-16 {
        fill: url(#_称未設定グラデーション_740);
      }

      .cls-17 {
        fill: url(#_称未設定グラデーション_752);
      }

      .cls-18 {
        fill: url(#_称未設定グラデーション_758);
      }

      .cls-19 {
        fill: url(#_規グラデーションスウォッチ_3-3);
      }

      .cls-20 {
        fill: url(#_規グラデーションスウォッチ_3-2);
      }

      .cls-21 {
        fill: url(#_規グラデーションスウォッチ_4-5);
      }

      .cls-22 {
        fill: url(#_規グラデーションスウォッチ_4-6);
      }

      .cls-23 {
        fill: url(#_規グラデーションスウォッチ_4-2);
      }

      .cls-24 {
        fill: url(#_規グラデーションスウォッチ_4-3);
      }

      .cls-25 {
        fill: url(#_規グラデーションスウォッチ_4-4);
      }
    </style>
    <linearGradient id="_称未設定グラデーション_685" data-name="名称未設定グラデーション 685" x1="121.97" y1="68.98" x2="588.67" y2="68.98" gradientTransform="matrix(1, 0, 0, 1, 0, 0)" gradientUnits="userSpaceOnUse">
      <stop offset="0" stop-color="#005f73"/>
      <stop offset=".52" stop-color="#0a9396"/>
      <stop offset="1" stop-color="#ee9b00"/>
    </linearGradient>
    <linearGradient id="_称未設定グラデーション_685-2" data-name="名称未設定グラデーション 685" x1="82.56" y1="220.03" x2="542.5" y2="220.03" xlink:href="#_称未設定グラデーション_685"/>
    <linearGradient id="_称未設定グラデーション_701" data-name="名称未設定グラデーション 701" x1="514.59" y1="210.16" x2="546.22" y2="210.16" gradientTransform="matrix(1, 0, 0, 1, 0, 0)" gradientUnits="userSpaceOnUse">
      <stop offset="0" stop-color="#ee9b00"/>
      <stop offset=".4" stop-color="#ee9b00"/>
    </linearGradient>
    <linearGradient id="_称未設定グラデーション_685-3" data-name="名称未設定グラデーション 685" x1="7.78" y1="328.78" x2="575.64" y2="328.78" xlink:href="#_称未設定グラデーション_685"/>
    <linearGradient id="_称未設定グラデーション_711" data-name="名称未設定グラデーション 711" x1="125.94" y1="508.68" x2="409.7" y2="508.68" gradientTransform="matrix(1, 0, 0, 1, 0, 0)" gradientUnits="userSpaceOnUse">
      <stop offset="0" stop-color="#005f73"/>
      <stop offset=".7" stop-color="#0a9396"/>
      <stop offset="1" stop-color="#ee9b00"/>
    </linearGradient>
    <linearGradient id="_規グラデーションスウォッチ_4" data-name="新規グラデーションスウォッチ 4" x1="2269.41" y1="407.71" x2="2735.51" y2="407.71" gradientTransform="matrix(1, 0, 0, 1, 0, 0)" gradientUnits="userSpaceOnUse">
      <stop offset="0" stop-color="#bb3e03"/>
      <stop offset="1" stop-color="#9b2226"/>
    </linearGradient>
    <linearGradient id="_規グラデーションスウォッチ_4-2" data-name="新規グラデーションスウォッチ 4" x1="2348.21" y1="424.47" x2="2729.62" y2="424.47" xlink:href="#_規グラデーションスウォッチ_4"/>
    <linearGradient id="_称未設定グラデーション_758" data-name="名称未設定グラデーション 758" x1="1221.13" y1="317.7" x2="1497.38" y2="317.7" gradientTransform="matrix(1, 0, 0, 1, 0, 0)" gradientUnits="userSpaceOnUse">
      <stop offset="0" stop-color="#ee9b00"/>
      <stop offset=".11" stop-color="#ed9900"/>
      <stop offset=".98" stop-color="#ca6702"/>
    </linearGradient>
    <linearGradient id="_規グラデーションスウォッチ_3" data-name="新規グラデーションスウォッチ 3" x1="1366.19" y1="635.57" x2="2019.47" y2="635.57" gradientTransform="matrix(1, 0, 0, 1, 0, 0)" gradientUnits="userSpaceOnUse">
      <stop offset="0" stop-color="#ca6702"/>
      <stop offset="1" stop-color="#bb3e03"/>
    </linearGradient>
    <linearGradient id="_称未設定グラデーション_740" data-name="名称未設定グラデーション 740" x1="1330.27" y1="280.74" x2="1439.42" y2="280.74" gradientTransform="matrix(1, 0, 0, 1, 0, 0)" gradientUnits="userSpaceOnUse">
      <stop offset="0" stop-color="#ee9b00"/>
      <stop offset=".98" stop-color="#ca6702"/>
    </linearGradient>
    <linearGradient id="_称未設定グラデーション_743" data-name="名称未設定グラデーション 743" x1="1288.97" y1="387.24" x2="1418.58" y2="387.24" gradientTransform="matrix(1, 0, 0, 1, 0, 0)" gradientUnits="userSpaceOnUse">
      <stop offset="0" stop-color="#ee9b00"/>
      <stop offset=".98" stop-color="#ca6702"/>
    </linearGradient>
    <linearGradient id="_称未設定グラデーション_752" data-name="名称未設定グラデーション 752" x1="1247.47" y1="328.79" x2="1533.46" y2="328.79" gradientTransform="matrix(1, 0, 0, 1, 0, 0)" gradientUnits="userSpaceOnUse">
      <stop offset="0" stop-color="#ee9b00"/>
      <stop offset=".98" stop-color="#ca6702"/>
    </linearGradient>
    <linearGradient id="_称未設定グラデーション_705" data-name="名称未設定グラデーション 705" x1="338.22" y1="236.06" x2="456.98" y2="236.06" gradientTransform="matrix(1, 0, 0, 1, 0, 0)" gradientUnits="userSpaceOnUse">
      <stop offset=".1" stop-color="#0a9396"/>
      <stop offset="1" stop-color="#ee9b00"/>
    </linearGradient>
    <linearGradient id="_称未設定グラデーション_703" data-name="名称未設定グラデーション 703" x1="168.27" y1="236.91" x2="287.03" y2="236.91" gradientTransform="matrix(1, 0, 0, 1, 0, 0)" gradientUnits="userSpaceOnUse">
      <stop offset="0" stop-color="#005f73"/>
      <stop offset=".52" stop-color="#0a9396"/>
    </linearGradient>
    <linearGradient id="_規グラデーションスウォッチ_4-3" data-name="新規グラデーションスウォッチ 4" x1="2097.28" y1="630.24" x2="2926.39" y2="630.24" xlink:href="#_規グラデーションスウォッチ_4"/>
    <linearGradient id="_称未設定グラデーション_714" data-name="名称未設定グラデーション 714" x1="233.56" y1="586.34" x2="711.13" y2="586.34" gradientTransform="matrix(1, 0, 0, 1, 0, 0)" gradientUnits="userSpaceOnUse">
      <stop offset="0" stop-color="#005f73"/>
      <stop offset=".26" stop-color="#0a9396"/>
      <stop offset=".7" stop-color="#ee9b00"/>
    </linearGradient>
    <linearGradient id="_称未設定グラデーション_748" data-name="名称未設定グラデーション 748" x1="787.71" y1="586.33" x2="1256.83" y2="586.33" gradientTransform="matrix(1, 0, 0, 1, 0, 0)" gradientUnits="userSpaceOnUse">
      <stop offset="0" stop-color="#ee9b00"/>
      <stop offset=".16" stop-color="#ed9900"/>
      <stop offset=".98" stop-color="#ca6702"/>
    </linearGradient>
    <linearGradient id="_称未設定グラデーション_761" data-name="名称未設定グラデーション 761" x1="809.38" y1="356.13" x2="906.95" y2="356.13" gradientTransform="matrix(1, 0, 0, 1, 0, 0)" gradientUnits="userSpaceOnUse">
      <stop offset="0" stop-color="#ee9b00"/>
      <stop offset=".98" stop-color="#ca6702"/>
    </linearGradient>
    <linearGradient id="_称未設定グラデーション_761-2" data-name="名称未設定グラデーション 761" x1="807.49" y1="437.72" x2="955.27" y2="437.72" xlink:href="#_称未設定グラデーション_761"/>
    <linearGradient id="_規グラデーションスウォッチ_3-2" data-name="新規グラデーションスウォッチ 3" x1="1725.06" y1="389.37" x2="1832.89" y2="389.37" xlink:href="#_規グラデーションスウォッチ_3"/>
    <linearGradient id="_規グラデーションスウォッチ_4-4" data-name="新規グラデーションスウォッチ 4" x1="2408.52" y1="391.5" x2="2648.12" y2="391.5" xlink:href="#_規グラデーションスウォッチ_4"/>
    <linearGradient id="_規グラデーションスウォッチ_3-3" data-name="新規グラデーションスウォッチ 3" x1="1824.8" y1="448.76" x2="1905.06" y2="448.76" xlink:href="#_規グラデーションスウォッチ_3"/>
    <linearGradient id="_規グラデーションスウォッチ_4-5" data-name="新規グラデーションスウォッチ 4" x1="2639.07" y1="297.59" x2="2649.88" y2="297.59" xlink:href="#_規グラデーションスウォッチ_4"/>
    <linearGradient id="_規グラデーションスウォッチ_4-6" data-name="新規グラデーションスウォッチ 4" x1="2486.12" y1="410.42" x2="2529.45" y2="410.42" xlink:href="#_規グラデーションスウォッチ_4"/>
  </defs>
  <g id="_イヤー_1" data-name="レイヤー 1"/>
  <g id="_イヤー_2" data-name="レイヤー 2">
    <path class="cls-8" d="M116.58,125.98c33.7,11.23,69.73,10.43,103.71,.62,31.9-9.21,62.27-25.97,75.99-57.76,6.14-14.24,8.44-31.35,3.72-46.34-2.25-7.13-6.6-16.07-15.65-13.9-8.17,1.96-13.57,10.46-18.08,16.87-10.1,14.34-18.6,29.59-25.44,45.74-6.32,14.93-15.73,34.93-7.78,50.75,8.04,16,26.46,16.77,42.1,15.67,19.27-1.35,38.54-2.72,57.81-4.08s38.54-2.72,57.81-4.08l28.91-2.04c9.11-.64,18.55-.64,27.56-2.17,17.05-2.9,27.6-22.29,35.92-35.68,9.17-14.76,17.22-30.73,22.87-47.18,3.55-10.33,11.45-41.14-7.24-42.34-15.44-.99-27.78,18.34-34.68,29.58-8.7,14.16-14.62,30.34-17.16,46.76-2.14,13.86-3.86,33.11,6.63,44.3,5.6,5.97,13.16,7.85,21.06,8.57,9.22,.84,18.5,1.22,27.75,1.45,18.76,.46,37.53-.12,56.23-1.73,9.37-.81,18.71-1.83,28.02-3.11,8.32-1.14,15.37-21.81,3.81-20.23-31.42,4.3-63.19,5.61-94.86,3.92-11.82-.63-27.98,.58-32.34-13.22-3.57-11.28-1.11-25.03,2.04-36.11,3.2-11.25,8.43-22.07,15.69-31.26,2.02-2.55,6.19-8.94,10.3-8.42,4.6,.58,3.17,8.91,2.71,11.85-2.03,13.03-8.86,25.99-15.06,37.51-3.32,6.18-6.91,12.21-10.77,18.07-3.17,4.81-6.45,10.3-10.68,14.25-4.48,4.18-12.45,3.37-18.12,3.77l-25.92,1.83-47.84,3.38-47.84,3.38c-15.51,1.09-31.4,3.29-46.95,2.98-10.81-.21-25.85-5.48-24.52-18.99,.65-6.62,3.79-13.44,6.17-19.59s4.95-12.05,7.9-17.86c3.12-6.13,6.52-12.11,10.2-17.92,1.6-2.52,3.23-5.01,4.97-7.44,1.11-1.55,3.65-6.55,5.31-7.02,0,0,2.13,3.39,2.52,4.31,1.17,2.75,1.98,5.81,2.44,8.75,.86,5.52,.47,11.17-.74,16.6-6.09,27.36-34.91,40.2-59.22,47.45-31.74,9.47-66.3,11.21-98.03,.64-4.9-1.63-9.13,2.32-11.47,6.37-1.49,2.58-4.58,11.52,.22,13.12h0Z"/>
    <path class="cls-2" d="M83.08,284.97c47.13-26.51,82.77-70.16,103.17-119.89,1.38-3.36,1.87-9.26-2.38-10.68s-8.81,3.36-10.59,6.64c-5.62,10.36-4.28,24.11,8.08,28.49,5.32,1.89,11.11,2.27,16.67,2.97,6.46,.81,12.94,1.55,19.42,2.15,26.95,2.49,53.08,.61,79.87-2.65,51.82-6.32,103.75-2.96,155.78-4.42,29.35-.83,58.76-3.47,87.32-10.53,5.14-1.27,8.9-7.2,9.79-12.12,.73-4.03-.82-9.39-5.98-8.11-46.92,11.6-95.32,10.66-143.3,10.35-24.09-.15-48.21-.13-72.25,1.75-24.14,1.88-48.08,6.47-72.34,6.63-13.66,.09-27.31-.96-40.88-2.48-6.77-.76-13.63-1.4-20.35-2.58-2.25-.4-4.59-.9-6.46-2.3-.75-.56-1.21-1.52-1.9-2.03-1.83-1.33,1.29-4.05-1.79,1.62l-12.98-4.04c-17.57,42.84-48.72,79.9-89.22,102.67-4.6,2.59-8.11,8.46-7.95,13.78,.14,4.79,4,7.18,8.27,4.77h0Z"/>
    <path class="cls-9" d="M541.47,163.6c-18.73,26.4-30.65,57.03-34.01,89.29-.43,4.13,.68,9.21,5.98,8.11,4.8-1,9.31-7.47,9.79-12.12,2.74-26.21,11.19-51.98,26.52-73.59,2.55-3.59,6.09-10.09,2.84-14.34-3.06-4-8.93-.43-11.12,2.65h0Z"/>
    <path class="cls-3" d="M8.27,393.84c20.06-10.26,37.73-24.93,52.06-42.28,7.25-8.78,13.73-18.33,19.19-28.32,3.67-6.72,14.37-28.62-1.14-29.13-11.79-.39-21.64,16.85-25.17,26.16-3.73,9.83-4.47,25.5,7.17,30.44,4.96,2.1,10.82,1.74,16.07,1.98l20.93,.95,41.86,1.9c107.13,4.86,215.37,12.39,322.06-2.51,14.7-2.05,29.33-4.54,43.86-7.54,12.52-2.58,25.05-5.63,36.49-11.54,24.64-12.73,38.98-38.55,41.26-65.6,.44-5.25-4.35-6.49-8.27-4.77-46.5,20.44-55.9,95.95-8.84,121.21,8.17,4.39,19.33-15.15,11.25-19.49-31.3-16.8-37.3-67.7-2.1-83.18l-8.27-4.77c-1.45,17.18-11.47,31.25-26.81,38.78-8.35,4.1-17.58,6.28-26.63,8.22-11.21,2.41-22.49,4.48-33.81,6.29-45.16,7.23-90.89,9.97-136.59,10.41-46.17,.45-92.32-1.43-138.43-3.5-23.14-1.04-46.27-2.1-69.41-3.15l-35.88-1.63-16.94-.77c-4.03-.18-10.78,.65-13.71-2.83-2.43-2.88-1.75-6.41-.08-9.36,.89-1.57,3.29-3.82,3.78-5.46-.42,1.38-1.75-2.88-1.72-2.89-.66,.09-3.42,6.45-3.81,7.14-1.32,2.34-2.7,4.64-4.14,6.92-2.6,4.12-5.44,8.06-8.47,11.88-12.54,15.81-28.12,28.7-46.09,37.89C3.31,377.67-.15,383.9,0,389.07s3.96,6.98,8.27,4.77h0Z"/>
    <path class="cls-15" d="M165.63,462.18c14.76-10.96,27.88-24.3,38.69-39.18,5.6-7.72,10.77-15.75,15.23-24.18,4.9-9.26,9.79-19.82,6.54-30.43-.58-1.88-1.92-3.33-3.94-3.58-15.9-2-24.46,22.4-18.61,34.33,6.92,14.14,28.75,12.88,41.89,13.63,35.52,2.03,71.63-.16,106.25-8.64,19.84-4.86,39.11-11.9,57.43-20.94,4.36-2.15,8.49-8.88,7.95-13.78-.77-7.1-5.14-10.8-12.35-9.88-6.78,.86-12.58,5.92-17.23,10.6-11.62,11.71-18.51,26.82-25.16,41.68-14.11,31.56-26.05,64.02-39.22,95.97-12.23,29.67-25.04,60.75-43.98,86.88-8.27,11.4-17.85,22.26-29.93,29.73-10.96,6.78-23.17,10.97-35.94,12.67-28.89,3.87-59.33-6.57-79.81-27.27-3.61-3.65-8.37-.67-11.12,2.65-2.37,2.87-6.36,10.78-2.84,14.34,38.9,39.33,102.7,41.8,144.55,5.47,24.31-21.1,40.16-50.43,53.84-79.08,14.79-30.96,27.08-62.97,39.8-94.82,7.04-17.62,14.14-35.26,22.19-52.44,3.05-6.5,6.39-13.1,10.94-18.69,1.94-2.38,4.35-5.26,7.12-6.69,1.81-.94,3.18,.43,2.91-2.12l7.95-13.78c-33.44,16.49-70.43,25.13-107.55,27.49-18.37,1.17-36.83,.93-55.18-.4-7.59-.55-16.99-.19-23.75-4.2-2.73-1.62-3.22-3.42-4.56-5.72-1.01-1.74,1.02-.68-.53,.47-1.31,.97-5.47,2.79-2.81,3.12l-3.94-3.58c1.75,5.72-3.89,12.81-6.66,17.51-3.54,6.01-7.42,11.74-11.72,17.23-8.93,11.39-19.26,21.35-30.87,29.98-3.87,2.87-7.14,9.75-5.6,14.54,1.68,5.22,6.7,3.59,10.02,1.12h0Z"/>
    <path class="cls-5" d="M2274.16,526.68c40.74-54.32,72.4-115.27,93.84-179.69,6.25-18.77,13.18-39.48,6.81-59.16-.91-2.82-3.04-3.94-5.9-3.41-11.4,2.11-17.18,16.57-15.94,26.93,1.38,11.46,10.53,17.34,21.73,16.9,13.55-.54,27.24-3.67,40.68-5.46,14.33-1.91,28.68-3.63,43.04-5.17,58.06-6.23,116.45-9.34,174.84-9.44,32.8-.06,65.59,.86,98.33,2.7,8.74,.49,17.57-20.03,7.74-20.58-105.49-5.92-211.47-1.96-316.24,11.75-7.17,.94-14.33,1.92-21.49,2.95-6.34,.91-12.78,2.36-19.18,2.68-4.29,.21-10.26-.18-12.62-4.44-.04-.07-1.29-4.21-.85-4.05,.15,.05-.24,1.11-.32,1.18-.63,1.28-1.48,2.4-2.56,3.38-2.22,1.01-2.55,1.32-.99,.93l-5.9-3.41c4.81,14.88-.74,30.22-5.46,44.41-5.06,15.21-10.69,30.22-16.89,45-11.86,28.28-25.91,55.6-41.98,81.72-9.01,14.65-18.67,28.85-28.99,42.61-2.63,3.51-6.04,10.15-2.84,14.34s8.86,.36,11.12-2.65h0Z"/>
    <path class="cls-23" d="M2724.87,329.55c-40.5,54.48-77.7,120.35-65.41,190.71,1.26,7.19,9.58,1.79,11.95-.86,6.81-7.63,8.96-21.61,.12-28.67-7.62-6.07-20.65-4.46-29.75-4.9-23.63-1.12-47.27-2.15-70.93-2.72-47.21-1.13-94.53-.35-141.47,5.13-26.64,3.11-53.08,7.84-79.06,14.51-5.14,1.32-8.9,7.16-9.79,12.12-.72,3.99,.82,9.44,5.98,8.11,83.27-21.38,169.64-21.48,254.97-18.02,12.13,.49,24.26,1.05,36.39,1.64,5.28,.25,10.7,.18,15.95,.9,2.03,.28,4.44,.77,5.95,2.31,.4,.4,.62,1.05,1.03,1.42l.38,1.21c.16,2.06,.82,.48,1.96-4.74l11.95-.86c-10.63-60.88,23.18-118.64,58.08-165.6,2.62-3.53,6.05-10.14,2.84-14.34s-8.87-.37-11.12,2.65h0Z"/>
    <path class="cls-18" d="M1227.62,471.71c44.29-72.98,76.77-152.89,97.06-235.77,5.75-23.48,10.46-47.2,14.19-71.08,.57-3.66-.31-8.57-5-8.2s-8.39,5.48-10.02,9.54c-5.75,14.31,.67,30.71,15.57,35.72,7.58,2.55,15.47,2.26,23.35,1.98,8.94-.33,17.86-.88,26.77-1.65,35.8-3.08,71.17-9.58,105.71-19.49,5.13-1.47,8.88-7.06,9.79-12.12,.7-3.87-.82-9.59-5.98-8.11-30.19,8.66-61.07,14.83-92.3,18.2-14.87,1.61-30.01,2.91-44.98,2.78-6.22-.05-13.02-.54-18.14-4.49-2.99-2.3-7.01-7.81-5.53-11.49l-15.02,1.34c-12.69,81.24-37.1,160.84-73.46,234.66-10.33,20.96-21.59,41.46-33.71,61.44-2.07,3.41-4.1,10.5,.22,13.12s9.56-3.22,11.47-6.37h0Z"/>
    <path class="cls-6" d="M1359.11,559.8c21.02,81.33,107.88,112.34,180.35,131.99,99.26,26.91,202.47,39.07,305.27,35.92,57.97-1.77,115.79-8.35,172.69-19.63,8.24-1.63,15.13-22.48,3.81-20.23-98.97,19.62-200.56,24.62-300.99,14.92-50.6-4.89-100.84-13.46-150.19-25.65-39.97-9.87-80.55-20.91-116.97-40.6-36.41-19.67-67.71-48.97-78.36-90.14-1.32-5.1-6.99-3.68-10.02-1.12-3.86,3.27-6.93,9.39-5.6,14.54h0Z"/>
    <path class="cls-16" d="M1326.58,293.14c19.49,4.61,39.49,6.18,59.46,4.53,19.32-1.6,39.14-4.91,55.14-16.51,3.89-2.82,7.13-9.78,5.6-14.54-1.69-5.25-6.68-3.54-10.02-1.12-6.59,4.78-14.9,6.85-22.73,8.49-8.52,1.79-17.16,3.01-25.85,3.48-18.11,1-36.22-.75-53.86-4.92-8.31-1.97-17.79,18.21-7.74,20.58h0Z"/>
    <path class="cls-13" d="M1285.16,393.77c11.29-.51,21.98,3.87,32.88,6.15s21.91,3.44,32.99,3.54c22.32,.19,44.54-3.83,65.37-11.83,5.09-1.95,8.82-6.73,9.79-12.12,.63-3.48-.86-10.08-5.98-8.11-20.19,7.75-41.58,11.86-63.23,11.45-10.48-.2-20.94-1.37-31.2-3.51-10.91-2.27-21.59-6.66-32.88-6.15-5.3,.24-9.24,4.91-11,9.63-1.06,2.84-2.08,11.2,3.26,10.96h0Z"/>
    <path class="cls-17" d="M1245.78,480.43c32.6-9.85,66.48-13.81,100.47-13.97,16.29-.08,32.8,.24,49,2.17,7.23,.86,14.52,2.12,21.45,4.43,3.75,1.25,7.43,2.83,10.93,4.68,1.72,.91,7.17,3.32,7.03,5.05l.98-5.17,1.44-2.39,3.99-3.43-.85,.45,4.03-1.02c.17-.01-.44,.6-.76-.65-.29-1.16-1.01-2.32-1.45-3.44-.92-2.39-1.74-4.83-2.44-7.3-1.37-4.8-2.37-9.73-2.88-14.7-1.04-10.22-.67-20.53,.84-30.68,3.16-21.25,10.78-41.4,18-61.52,7.46-20.8,13.49-41.94,19.51-63.19,5.61-19.78,11.45-39.91,20.62-58.4,8.85-17.83,20.54-35.02,37.52-46.01,4.5-2.91,8.12-8.24,7.95-13.78-.13-4.53-4.06-7.49-8.27-4.77-31.04,20.08-49.54,53.78-61.59,87.83-6.74,19.06-11.77,38.66-17.37,58.07-5.6,19.38-12.59,38.21-19.19,57.26-12.42,35.82-23.05,78.13-6.69,114.56,1.68,3.74,3.9,7.32,8.44,7.3,5.25-.01,9.48-4.83,11.79-9.07,2.43-4.46,3.62-10.04,1.6-14.84-1.88-4.47-6.17-7.02-10.26-9.25-16.35-8.91-35.31-11-53.59-11.98-45.78-2.45-92.35,.2-136.44,13.51-5.13,1.55-8.87,7-9.79,12.12-.69,3.81,.82,9.67,5.98,8.11h0Z"/>
    <path class="cls-11" d="M334.53,283.44c26.26,6.18,53.27-5.51,74.11-20.92s37.69-42.03,36.22-69.74c-.24-4.59-3.91-7.37-8.27-4.77-11.86,7.07-22.35,16.37-30.7,27.38s-17.12,25.38-19.48,39.61c-1.14,6.87-.61,14.61,4.63,19.72,4.53,4.42,10.84,5.54,16.94,6.02,15.79,1.24,31.85-.92,46.85-5.92,5.12-1.7,8.85-6.9,9.79-12.12,.67-3.68-.83-9.83-5.98-8.11-8.45,2.81-61.14,14.88-56.15-5.16,4.39-17.64,19.17-33.79,34.42-42.87l-8.27-4.77c1.04,19.81-10.53,35.62-26.31,46.41-17.54,11.99-38.8,19.66-60.06,14.66-8.32-1.96-17.79,18.22-7.74,20.58h0Z"/>
    <path class="cls-10" d="M164.58,284.28c26.26,6.18,53.27-5.51,74.11-20.92s37.69-42.03,36.22-69.74c-.24-4.59-3.91-7.37-8.27-4.77-11.86,7.07-22.35,16.37-30.7,27.38-8.58,11.32-17.12,25.38-19.48,39.61-1.14,6.87-.61,14.61,4.63,19.72,4.53,4.42,10.84,5.54,16.94,6.02,15.79,1.24,31.85-.92,46.85-5.92,5.12-1.7,8.85-6.9,9.79-12.12,.67-3.68-.83-9.83-5.98-8.11-8.45,2.81-61.14,14.88-56.15-5.16,4.39-17.64,19.17-33.79,34.42-42.87l-8.27-4.77c1.04,19.81-10.53,35.62-26.31,46.41-17.54,11.99-38.8,19.66-60.06,14.66-8.32-1.96-17.79,18.22-7.74,20.58h0Z"/>
    <path class="cls-24" d="M2095.59,697.12c64.19-19.58,120.31-60.21,162.16-112.34,2.74-3.41,5.98-10.23,2.84-14.34-3.3-4.31-8.58-.03-11.12,2.65-14.04,14.84-22.52,34.98-24.42,55.22-1.7,18.05,1.5,40.29,22.64,44.1,7.98,1.44,16.64-.25,24.29-2.56,9.62-2.9,19.04-6.57,28.31-10.46,18.12-7.59,35.52-16.9,51.94-27.67,19.43-12.74,37.57-27.3,54.19-43.55,3.55-3.47,7.29-9.31,5.6-14.54-1.59-4.93-6.85-3.95-10.02-1.12-16.87,15.08-28.95,36.91-31.69,59.5-1.29,10.61-.86,21.87,4.52,31.39,4.79,8.48,13.66,13.34,23.22,14.05s18.92-1.78,27.73-4.86c10.71-3.75,21.28-7.93,31.7-12.41,21.28-9.16,41.88-19.89,61.62-32,22.79-13.98,44.49-29.77,64.89-47.04l-6.35-13.68c-15.46,16.81-30.42,35.56-32.73,59.14-1.95,19.91,5.48,40.9,26.69,46.06,9.62,2.34,20.06,.77,29.57-1.33,10.51-2.32,20.88-5.35,31.03-8.94,20.27-7.16,39.77-16.48,58.02-27.83,21.66-13.47,41.64-29.51,59.51-47.7l-8.05-11.21c-8.94,18.73-18.43,38.74-17.38,60.05,.84,17.04,8.27,36.22,26.08,41.44,9.99,2.93,20.63,.87,30.59-1.19s19.11-4.36,28.5-7.13c19.66-5.78,38.86-13.24,57.33-22.1,21.57-10.34,41.95-22.8,61.35-36.77,3.89-2.8,7.13-9.79,5.6-14.54-1.7-5.26-6.68-3.53-10.02-1.12-29.41,21.18-62.06,38.21-96.39,49.85-16.8,5.7-34.28,10.7-51.86,13.3-8.16,1.21-16.91,.85-23.6-4.53-5.34-4.29-8.4-10.96-10.05-17.45-4.7-18.47,3.72-36.71,11.52-53.06,1.53-3.21,3.78-8.51,1.13-11.87-2.33-2.97-6.85-1.71-9.19,.67-27.33,27.82-59.5,50.38-95.45,65.61-16.92,7.17-35.33,13.37-53.59,15.88-7.97,1.1-16.7,.74-23.71-3.57s-10.61-11.8-11.58-19.61c-2.58-20.62,12.02-36.31,24.94-50.36,2.86-3.11,5.34-9.39,3.25-13.45s-6.65-2.73-9.6-.23c-31.14,26.35-65.3,48.9-101.98,66.78-17.41,8.49-35.57,16.7-54.2,22.12-7.46,2.17-16.06,3.96-23.69,1.43s-12.16-9.51-13.43-17.22c-3-18.15,6.84-38.51,20.14-50.4l-4.42-15.66c-25.12,24.57-53.68,45.25-85.27,60.72-14.65,7.18-30.32,14.16-46.29,17.82-6.21,1.42-13.47,2.25-19.41-.61-7.1-3.42-9.71-10.82-10.15-18.28-1.03-17.47,4.83-34.66,16.87-47.38l-8.28-11.69c-38.73,48.24-90.66,85.67-150.06,103.79-5.13,1.56-8.87,6.99-9.79,12.12-.69,3.79,.82,9.69,5.98,8.11h0Z"/>
    <path class="cls-12" d="M236.3,515.1c10.45-10.14,26.38-8.61,39.12-3.91,14.65,5.4,27.78,14.98,39.6,25,24.58,20.84,44.39,46.63,66.49,69.94,23.7,24.99,50.13,45.83,82.29,58.81,32.86,13.26,68.2,19.01,103.47,20.45,46.7,1.91,93.31-3.04,139.97-4.05,5.28-.11,9.28-5,11-9.63,1.09-2.94,2.07-11.07-3.26-10.96-77.85,1.68-159.51,14.86-234.46-13.18-32.99-12.34-60.39-32.51-84.52-57.88-22.85-24.02-43.37-50.32-68.58-72.01s-66.39-46.5-95.54-18.24c-3.56,3.45-7.28,9.33-5.6,14.54,1.55,4.8,6.93,4.11,10.02,1.12h0Z"/>
    <path class="cls-14" d="M1250.32,497.27c-27.75,53.97-73.63,95.4-127.47,122.59-62.11,31.36-132.03,41.55-200.98,41.97-43.5,.27-86.92-3.06-130.22-6.82-8.7-.76-17.65,19.72-7.74,20.58,79.25,6.88,159.9,12.27,238.54-3.08,62.89-12.27,123.41-39.29,171.68-81.89,27.67-24.42,51-53.75,67.89-86.6,1.82-3.55,4.26-10.4-.22-13.12-4.25-2.58-9.79,3.09-11.47,6.37h0Z"/>
    <path class="cls-7" d="M805.55,334.97c22.22-1.35,44.51-4.33,64.62-14.5,8.77-4.44,17.05-10.23,24.06-17.13,7.67-7.55,15.81-16.99,19.03-27.44,1.47-4.76,1.83-11.33-2.77-14.58-3.87-2.74-8.88-1.61-12.91,.19-7.43,3.33-14.09,8.81-19.76,14.57-12.09,12.3-20.67,27.34-28.87,42.38-8.62,15.81-16.58,31.81-29.25,43.31-3.51,3.19-6.62,8.53-5.75,13.44,.8,4.55,4.13,5.36,8.12,3.67,10.62-4.5,21.71-7.94,32.97-10.38,4.22-.92,8.8-2.3,11.24,2.25,2.07,3.87,2.64,9.04,3.14,13.34,2.22,19.11-1.74,38.44-12.13,54.67-2.15,3.35-4.04,10.53,.22,13.12s9.49-3.27,11.47-6.37c14.29-22.32,19.86-49.76,15.94-75.9-.82-5.48-1.85-11.44-4.88-16.2-3.86-6.06-10.13-7.06-16.78-6.02-14.26,2.21-28.27,7.35-41.5,12.95l2.36,17.11c21.84-19.83,32.41-47.5,47.86-71.92,5.62-8.89,13.12-19.25,23.72-24.37,.15-.07,2.93-.91,2.88-.86l.13,.08c1.41,.89,1.4-.62-.04-4.53-.4,.21-.98,1.68-1.22,2.08-2.08,3.42-4.62,6.61-7.39,9.51-5.05,5.28-11.1,9.57-17.49,13.07-18.05,9.88-39.03,12.67-59.29,13.9-5.31,.32-9.22,4.86-11,9.63-1.04,2.78-2.09,11.28,3.26,10.96h0Z"/>
    <path class="cls-4" d="M912.3,372.04c-39.54,5.88-79.7,29.41-102.04,62.98-11.55,17.35-15.15,40.77,1.84,55.84,7.58,6.73,17.57,9.53,27.44,10.81,11.12,1.44,22.46,1.82,33.66,1.85,26.9,.07,53.8-3.07,79.99-9.17,5.14-1.2,8.91-7.25,9.79-12.12,.74-4.09-.82-9.32-5.98-8.11-19.95,4.65-40.26,7.63-60.73,8.51-10.22,.44-20.45,.42-30.66-.08-9.63-.47-19.98-.69-29.23-3.67-14.65-4.73-25.15-18.92-16.61-33.61,7.91-13.62,22.21-24.9,35.35-33.18,16.31-10.27,34.31-16.96,53.38-19.8,8.31-1.24,15.33-21.95,3.81-20.23h0Z"/>
    <path class="cls-20" d="M1729.22,356.78c24.61,3.87,50.03-1.11,71.83-13.04,11.09-6.07,22.65-14.09,30.56-24.08,7.32-9.25,13.2-24.92,3.87-34.97-10.88-11.71-23.34,4.54-29.09,13.12-7.23,10.79-13.7,22.08-19.65,33.62-12.13,23.56-22.21,48.09-32.06,72.67-10.85,27.06-21.45,54.3-34.81,80.26-1.83,3.55-4.26,10.4,.22,13.12,4.25,2.58,9.79-3.09,11.47-6.37,20.75-40.31,35.41-83.26,53.56-124.72,8.7-19.87,18.41-39.34,30.17-57.59,1.26-1.95,2.51-3.94,3.86-5.82,.35-.49,1.5-1.69,1.09-1.64,1.91-.23,4.09,3.67,3.89,5.24-.38,2.92-5.87,6.47-7.91,8.17-3.99,3.3-8.19,6.24-12.66,8.86-20.15,11.78-43.55,16.23-66.6,12.6-8.56-1.35-17.77,19.01-7.74,20.58h0Z"/>
    <path class="cls-25" d="M2411.16,410.55c23.6-16.61,53.55-20.65,81.72-19.89,32.12,.86,63.66,7.86,95.69,9.85,19.23,1.2,38.65,.45,57.46-3.96,5.14-1.2,8.91-7.24,9.79-12.12,.74-4.09-.82-9.32-5.98-8.11-64.93,15.22-130.55-16.67-195.8-2.41-17.16,3.75-32.96,10.89-47.3,20.98-3.91,2.76-7.12,9.83-5.6,14.54,1.71,5.29,6.66,3.48,10.02,1.12h0Z"/>
    <path class="cls-19" d="M1833.91,416.01c5.06-3.69,11.98-4.2,17.94-3.07,3.13,.59,6.04,1.83,8.74,3.5,1.52,.94,3.03,1.99,4.3,3.26,.74,.74,1.4,1.54,2,2.4,.6,1.14,.73,1.35,.37,.65l2.04-5.38c-1.74,3.61-9.59,8.61-13.72,11.66-5.79,4.29-11.72,8.43-17.05,13.3-11.85,10.84-23.22,26.7-20.74,43.66,2.44,16.68,18.76,19.42,32.85,19.59,17.71,.21,35.39-2.46,52.28-7.78,5.13-1.61,8.86-6.96,9.79-12.12,.68-3.76-.83-9.73-5.98-8.11-16.57,5.22-33.74,7.89-51.13,7.37-6.26-.19-14.3-.2-19.08-4.96-4.04-4.02-3.28-9.72-.45-14.15,7.2-11.28,20.51-18.1,30.7-26.32,6.77-5.47,14.24-11.91,16.26-20.77s-2.12-15.12-8.82-20.16c-13.67-10.29-31.58-7.8-44.72,1.77-3.88,2.83-7.14,9.78-5.6,14.54,1.69,5.24,6.68,3.55,10.02,1.12h0Z"/>
    <path class="cls-21" d="M2641.9,304.45c5.84,0,11.57-13.72,5.16-13.72-5.84,0-11.57,13.72-5.16,13.72h0Z"/>
    <path class="cls-1" d="M2335.09,227.49c51.9-35.76,89.09-90.12,104.06-151.31,1.14-4.66-3.25-7.29-6.73-3.89-11.43,11.17-24.14,29.44-14.5,45.6,7.5,12.58,25.14,14.16,38.17,15.39,39,3.66,78.5,2.08,117.13-4.41,19.26-3.24,38.32-7.74,56.99-13.48,8.14-2.5,18.86-4.42,25.43-10.12,4.63-4.02,9.52-14.86,2.84-19.53-3.77-2.64-6.8,.19-9.49,2.86-3.21,3.18-6.37,6.41-9.49,9.67-6.17,6.44-12.13,13.08-17.89,19.89-11.42,13.51-21.98,27.72-31.76,42.45-22.16,33.37-39.8,69.77-52.41,107.78-.82,2.48-1.3,6.74,2.17,7.3,3.26,.53,6.48-3.83,7.33-6.42,21.57-65.02,58.37-124.63,107.37-172.58l-4.05,1.64,.24,.18c1.16,.97,1.76-.15,1.79-3.35-.23-.06-1.77,.83-2.04,.95-1.94,.8-4,1.41-5.99,2.08-4.7,1.59-9.43,3.09-14.19,4.52-8.61,2.59-17.31,4.91-26.06,6.97-17.8,4.19-35.87,7.29-54.05,9.27-18.66,2.04-37.47,2.82-56.24,2.45-16.43-.33-34.14-.34-50.15-4.44-6.54-1.67-13.95-5.01-16.96-11.49-4.01-8.63,2.9-17.02,8.74-22.74l-6.73-3.89c-13.41,54.8-47.26,104.24-93.76,136.28-2.91,2.01-5.5,5.45-5.3,9.19,.15,2.91,2.69,5.12,5.51,3.18h0Z"/>
    <path class="cls-22" d="M2524.24,327.05c-24.32,53.45-38.75,110.95-43.03,169.5-.25,3.36,2.9,4.47,5.51,3.18,3.32-1.65,5.05-5.71,5.3-9.19,4.11-56.2,18.39-111.34,41.72-162.61,1.1-2.41,1.11-6.77-2.17-7.3-3.48-.56-6.19,3.9-7.33,6.42h0Z"/>
  </g>
</svg>